<svg viewBox="0 0 16 16" xmlns="http://www.w3.org/2000/svg" xmlns:xlink="http://www.w3.org/1999/xlink" width="16.000000" height="16.000000" fill="none" clip-path="url(#clipPath_13)" customFrame="url(#clipPath_13)">
	<defs>
		<clipPath id="clipPath_13">
			<rect width="16.000000" height="16.000000" x="0.000000" y="0.000000" rx="3.200000" fill="rgb(255,255,255)" />
		</clipPath>
	</defs>
	<rect id="24px/check/checkbox" width="16.000000" height="16.000000" x="0.000000" y="0.000000" rx="3.200000" />
	<path id="矢量 28" d="M6.58463 3.8546L9.90582 7.17461C10.3519 7.62073 10.3612 8.33826 9.93371 8.79568L6.606 12.1244C6.52008 12.2103 6.41068 12.2584 6.29845 12.2687C6.17566 12.2649 5.99261 12.2181 5.89889 12.1244C5.7106 11.9361 5.70388 11.635 5.87871 11.4386L8.96301 8.35312C9.15131 8.16483 9.15803 7.86373 8.9832 7.66738L5.89889 4.58188C5.70362 4.38662 5.70362 4.07004 5.89889 3.87478C5.99303 3.78063 6.11538 3.73188 6.23873 3.72852C6.35179 3.73237 6.49463 3.77446 6.58463 3.8546Z" fill="rgb(128,128,128)" fill-rule="nonzero" />
</svg>
