<svg viewBox="0 0 28 28" xmlns="http://www.w3.org/2000/svg" xmlns:xlink="http://www.w3.org/1999/xlink" width="28.000000" height="28.000000" fill="none" customFrame="#000000">
	<defs>
		<clipPath id="clipPath_2">
			<rect width="16.000000" height="16.000000" x="6.000000" y="6.000000" fill="rgb(255,255,255)" />
		</clipPath>
	</defs>
	<g id="组合 91332440">
		<rect id="悬浮" width="28.000000" height="28.000000" x="0.000000" y="0.000000" rx="8.000000" fill="rgb(206,209,219)" fill-opacity="0" />
		<g id="操作图标/查看报告" clip-path="url(#clipPath_2)" customFrame="url(#clipPath_2)">
			<rect id="操作图标/查看报告" width="16.000000" height="16.000000" x="6.000000" y="6.000000" />
			<path id="形状结合" d="M18 7C19.0544 7 19.9182 7.81588 19.9945 8.85074L20 9L20 13.5C20 13.7761 19.7761 14 19.5 14C19.2545 14 19.0504 13.8231 19.0081 13.5899L19 9C19 8.48716 18.614 8.06449 18.1166 8.00673L18 8L10 8C9.48716 8 9.06449 8.38604 9.00673 8.88338L9 9L9 19C9 19.5128 9.38604 19.9355 9.88338 19.9933L10 20L14 20C14.2761 20 14.5 20.2239 14.5 20.5C14.5 20.7455 14.3231 20.9496 14.0899 20.9919L10 21C8.94564 21 8.08183 20.1841 8.00549 19.1493L8 19L8 9C8 7.94564 8.81588 7.08183 9.85074 7.00549L10 7L18 7ZM17.25 15C18.8044 15 20.194 15.8337 21.4007 17.451C21.5331 17.6284 21.5331 17.8716 21.4007 18.049C20.194 19.6663 18.8044 20.5 17.25 20.5C15.6956 20.5 14.306 19.6663 13.0993 18.049C12.9669 17.8716 12.9669 17.6284 13.0993 17.451C14.306 15.8337 15.6956 15 17.25 15ZM17.25 16C16.256 16 15.3275 16.4519 14.4544 17.3836L14.2682 17.5907L14.135 17.75L14.2682 17.9093C15.0757 18.8431 15.9309 19.3571 16.8419 19.4741L17.038 19.4931L17.25 19.5C18.244 19.5 19.1725 19.0481 20.0456 18.1164L20.2318 17.9093L20.364 17.75L20.2318 17.5907C19.4243 16.6569 18.5691 16.1429 17.6581 16.0259L17.462 16.0069L17.25 16ZM17.25 16.75C17.8023 16.75 18.25 17.1977 18.25 17.75C18.25 18.3023 17.8023 18.75 17.25 18.75C16.6977 18.75 16.25 18.3023 16.25 17.75C16.25 17.1977 16.6977 16.75 17.25 16.75ZM14.5 13C14.7761 13 15 13.2239 15 13.5C15 13.7761 14.7761 14 14.5 14L11.5 14C11.2239 14 11 13.7761 11 13.5C11 13.2239 11.2239 13 11.5 13L14.5 13ZM16.5 10C16.7761 10 17 10.2239 17 10.5C17 10.7761 16.7761 11 16.5 11L11.5 11C11.2239 11 11 10.7761 11 10.5C11 10.2239 11.2239 10 11.5 10L16.5 10Z" fill="rgb(255,255,254)" fill-rule="nonzero" />
			<path id="形状结合" d="M19.9945 8.85074L20 9L20 13.5C20 13.7761 19.7761 14 19.5 14C19.2545 14 19.0504 13.8231 19.0081 13.5899L19 9C19 8.48716 18.614 8.06449 18.1166 8.00673L18 8L10 8C9.48716 8 9.06449 8.38604 9.00673 8.88338L9 9L9 19C9 19.5128 9.38604 19.9355 9.88338 19.9933L10 20L14 20C14.2761 20 14.5 20.2239 14.5 20.5C14.5 20.7455 14.3231 20.9496 14.0899 20.9919L10 21C8.94564 21 8.08183 20.1841 8.00549 19.1493L8 19L8 9C8 7.94564 8.81588 7.08183 9.85074 7.00549L10 7L18 7C19.0544 7 19.9182 7.81588 19.9945 8.85074ZM21.4007 17.451C21.5331 17.6284 21.5331 17.8716 21.4007 18.049C20.194 19.6663 18.8044 20.5 17.25 20.5C15.6956 20.5 14.306 19.6663 13.0993 18.049C12.9669 17.8716 12.9669 17.6284 13.0993 17.451C14.306 15.8337 15.6956 15 17.25 15C18.8044 15 20.194 15.8337 21.4007 17.451ZM14.4544 17.3836L14.2682 17.5907L14.135 17.75L14.2682 17.9093C15.0757 18.8431 15.9309 19.3571 16.8419 19.4741L17.038 19.4931L17.25 19.5C18.244 19.5 19.1725 19.0481 20.0456 18.1164L20.2318 17.9093L20.364 17.75L20.2318 17.5907C19.4243 16.6569 18.5691 16.1429 17.6581 16.0259L17.462 16.0069L17.25 16C16.256 16 15.3275 16.4519 14.4544 17.3836ZM18.25 17.75C18.25 18.3023 17.8023 18.75 17.25 18.75C16.6977 18.75 16.25 18.3023 16.25 17.75C16.25 17.1977 16.6977 16.75 17.25 16.75C17.8023 16.75 18.25 17.1977 18.25 17.75ZM15 13.5C15 13.7761 14.7761 14 14.5 14L11.5 14C11.2239 14 11 13.7761 11 13.5C11 13.2239 11.2239 13 11.5 13L14.5 13C14.7761 13 15 13.2239 15 13.5ZM17 10.5C17 10.7761 16.7761 11 16.5 11L11.5 11C11.2239 11 11 10.7761 11 10.5C11 10.2239 11.2239 10 11.5 10L16.5 10C16.7761 10 17 10.2239 17 10.5Z" fill-rule="nonzero" stroke="rgb(0,0,0)" stroke-opacity="0" stroke-width="1" />
		</g>
	</g>
</svg>
