<svg viewBox="0 0 28 28" xmlns="http://www.w3.org/2000/svg" xmlns:xlink="http://www.w3.org/1999/xlink" width="28.000000" height="28.000000" fill="none" customFrame="#000000">
	<defs>
		<clipPath id="clipPath_0">
			<rect width="16.000000" height="16.000000" x="6.000000" y="6.000000" fill="rgb(255,255,255)" />
		</clipPath>
	</defs>
	<g id="组合 91332438">
		<rect id="悬浮" width="28.000000" height="28.000000" x="0.000000" y="0.000000" rx="8.000000" fill="rgb(206,209,219)" fill-opacity="0" />
		<g id="ic_public_setting" clip-path="url(#clipPath_0)" customFrame="url(#clipPath_0)">
			<rect id="ic_public_setting" width="16.000000" height="16.000000" x="6.000000" y="6.000000" />
			<path id="path1" d="M6.00002 13.9934C6.00002 12.7434 5.99668 11.4934 6.00002 10.2434C5.99668 9.63671 6.07335 9.03671 6.22002 8.45005C6.55002 7.21005 7.35668 6.47338 8.59668 6.18671C9.21668 6.05338 9.85335 5.99005 10.4867 6.00005C12.8834 6.00005 15.28 6.00005 17.68 6.00005C18.2833 5.99671 18.8867 6.06338 19.4767 6.20671C20.7533 6.51671 21.52 7.32671 21.81 8.60005C21.9434 9.20005 22.0033 9.81338 21.9967 10.43C21.9967 12.8534 21.9967 15.2767 21.9967 17.6967C22 18.2967 21.9333 18.8967 21.7934 19.48C21.48 20.7567 20.6667 21.5167 19.3967 21.81C18.7733 21.9434 18.14 22.0067 17.5033 21.9967C15.1167 21.9967 12.73 21.9967 10.3433 21.9967C9.73335 22.0034 9.12668 21.9334 8.53335 21.7934C7.25002 21.4834 6.48002 20.67 6.19002 19.39C6.04002 18.74 6.00002 18.09 6.00002 17.4334C6.00002 16.2867 6.00002 15.14 6.00002 13.9934Z" fill="rgb(255,255,255)" fill-opacity="0" fill-rule="evenodd" />
			<circle id="path2" cx="14" cy="14" r="8" fill="rgb(255,255,255)" fill-opacity="0" />
			<path id="path3" d="M12.7967 6.66699C12.3301 6.66699 11.9234 6.98699 11.8201 7.44366L11.5234 8.75699L10.6967 9.23366L9.41006 8.83699C8.96339 8.69699 8.48339 8.88699 8.25006 9.29033L7.04672 11.3737C6.81339 11.777 6.89006 12.2903 7.23339 12.607L8.22339 13.5237L8.22339 14.4737L7.23339 15.3903C6.89006 15.707 6.81339 16.2203 7.04672 16.6237L8.25006 18.707C8.48339 19.1103 8.96339 19.3003 9.41006 19.1603L10.7034 18.7603L11.5201 19.2337L11.8201 20.5537C11.9234 21.0103 12.3301 21.3337 12.7967 21.3337L15.2001 21.3337C15.6667 21.3337 16.0734 21.0103 16.1767 20.5537L16.4767 19.2303L17.2901 18.7603L18.5867 19.1603C19.0334 19.3003 19.5134 19.1103 19.7467 18.707L20.9501 16.6237C21.1834 16.2203 21.1067 15.707 20.7634 15.3903L19.7701 14.4703L19.7701 13.527L20.7634 12.607C21.1067 12.2903 21.1834 11.777 20.9501 11.3737L19.7467 9.29033C19.5134 8.88699 19.0334 8.69699 18.5867 8.83699L17.2967 9.23366L16.4734 8.76033L16.1767 7.44366C16.0734 6.98699 15.6667 6.66699 15.2001 6.66699L12.7967 6.66699Z" fill="rgb(0,0,0)" fill-opacity="0" fill-rule="nonzero" />
			<path id="path3" d="M11.8201 7.44366L11.5234 8.75699L10.6967 9.23366L9.41006 8.83699C8.96339 8.69699 8.48339 8.88699 8.25006 9.29033L7.04672 11.3737C6.81339 11.777 6.89006 12.2903 7.23339 12.607L8.22339 13.5237L8.22339 14.4737L7.23339 15.3903C6.89006 15.707 6.81339 16.2203 7.04672 16.6237L8.25006 18.707C8.48339 19.1103 8.96339 19.3003 9.41006 19.1603L10.7034 18.7603L11.5201 19.2337L11.8201 20.5537C11.9234 21.0103 12.3301 21.3337 12.7967 21.3337L15.2001 21.3337C15.6667 21.3337 16.0734 21.0103 16.1767 20.5537L16.4767 19.2303L17.2901 18.7603L18.5867 19.1603C19.0334 19.3003 19.5134 19.1103 19.7467 18.707L20.9501 16.6237C21.1834 16.2203 21.1067 15.707 20.7634 15.3903L19.7701 14.4703L19.7701 13.527L20.7634 12.607C21.1067 12.2903 21.1834 11.777 20.9501 11.3737L19.7467 9.29033C19.5134 8.88699 19.0334 8.69699 18.5867 8.83699L17.2967 9.23366L16.4734 8.76033L16.1767 7.44366C16.0734 6.98699 15.6667 6.66699 15.2001 6.66699L12.7967 6.66699C12.3301 6.66699 11.9234 6.98699 11.8201 7.44366Z" fill-rule="nonzero" stroke="rgb(255,255,254)" stroke-linejoin="round" stroke-width="1" />
			<ellipse id="path4" rx="3.000000" ry="2.999999" cx="14" cy="13.999999" fill="rgb(0,0,0)" fill-opacity="0" />
			<ellipse id="path4" rx="2.500000" ry="2.499999" cx="14" cy="13.999999" stroke="rgb(255,255,254)" stroke-width="1" />
			<path id="path5" d="M12.7701 6L15.2268 6C15.6335 6 15.9601 6.09667 16.2101 6.29667C16.4601 6.49667 16.6301 6.79333 16.7201 7.19L16.9768 8.31667L17.4301 8.58L18.5335 8.23667C18.9235 8.11667 19.2668 8.11667 19.5635 8.23333C19.8601 8.34667 20.1101 8.58333 20.3135 8.93667L21.5401 11.06C21.7435 11.4133 21.8235 11.75 21.7735 12.0633C21.7268 12.3767 21.5535 12.6733 21.2535 12.95L20.4035 13.74L20.4035 14.2567L21.2535 15.0467C21.5535 15.3233 21.7268 15.62 21.7735 15.9333C21.8235 16.25 21.7435 16.5833 21.5401 16.9367L20.3135 19.06C20.1101 19.4133 19.8601 19.65 19.5635 19.7633C19.2668 19.88 18.9235 19.88 18.5335 19.76L17.4235 19.4167L16.9768 19.6733L16.7201 20.8067C16.6301 21.2033 16.4601 21.5 16.2101 21.7C15.9601 21.9 15.6335 22 15.2268 22L12.7701 22C12.3635 22 12.0368 21.9 11.7868 21.7C11.5368 21.5 11.3668 21.2033 11.2768 20.8067L11.0201 19.6767L10.5701 19.4167L9.46346 19.76C9.07346 19.88 8.73012 19.88 8.43346 19.7633C8.13679 19.65 7.88679 19.4133 7.68346 19.06L6.45679 16.9367C6.25346 16.5833 6.17346 16.25 6.22346 15.9333C6.27012 15.62 6.44346 15.3233 6.74346 15.0467L7.59012 14.26L7.59012 13.7367L6.74346 12.95C6.44346 12.6733 6.27012 12.3767 6.22346 12.0633C6.17346 11.75 6.25346 11.4133 6.45679 11.06L7.68346 8.93667C7.88679 8.58333 8.13679 8.34667 8.43346 8.23333C8.73012 8.11667 9.07346 8.11667 9.46346 8.23667L10.5635 8.58L11.0201 8.31667L11.2768 7.19C11.3668 6.79333 11.5368 6.49667 11.7868 6.29667C12.0368 6.09667 12.3635 6 12.7701 6ZM14.0001 10.5C12.0668 10.5 10.5001 12.0667 10.5001 14C10.5001 15.93 12.0668 17.5 14.0001 17.5C15.9301 17.5 17.5001 15.93 17.5001 14C17.5001 12.0667 15.9301 10.5 14.0001 10.5Z" fill="rgb(255,255,255)" fill-opacity="0" fill-rule="evenodd" />
			<path id="path6" d="M14 11.5C12.6167 11.5 11.5 12.6167 11.5 14C11.5 15.38 12.6167 16.5 14 16.5C15.38 16.5 16.5 15.38 16.5 14C16.5 12.6167 15.38 11.5 14 11.5Z" fill="rgb(255,255,255)" fill-opacity="0" fill-rule="evenodd" />
		</g>
	</g>
</svg>
