<?xml version="1.0" standalone="no"?><!DOCTYPE svg PUBLIC "-//W3C//DTD SVG 1.1//EN" "http://www.w3.org/Graphics/SVG/1.1/DTD/svg11.dtd"><svg t="1779804404271" class="icon" viewBox="0 0 1024 1024" version="1.1" xmlns="http://www.w3.org/2000/svg" p-id="1759" width="20" height="20" xmlns:xlink="http://www.w3.org/1999/xlink"><path d="M406.677333 124.8c25.664 0 49.92 10.112 68.288 28.501333a96.064 96.064 0 0 1 28.501334 68.309334v313.472l24.170666 19.370666a192.832 192.832 0 0 1 72.618667 151.146667 192.32 192.32 0 0 1-56.704 136.896 192.32 192.32 0 0 1-136.896 56.704 192.341333 192.341333 0 0 1-136.896-56.704 192.32 192.32 0 0 1-56.704-136.896 192.853333 192.853333 0 0 1 72.64-151.146667l24.170667-19.370666V221.610667c0-25.685333 10.112-49.941333 28.48-68.309334a96.064 96.064 0 0 1 68.330666-28.501333m0-64.533333c-88.746667 0-161.344 72.597333-161.344 161.344V504.106667a257.621333 257.621333 0 0 0-96.789333 201.493333c0 142.570667 115.562667 258.133333 258.133333 258.133333 142.549333 0 258.133333-115.562667 258.133334-258.133333 0-81.514667-37.802667-154.197333-96.810667-201.493333V221.610667c0-88.746667-72.597333-161.344-161.322667-161.344z m32.256 520.32v-262.186667c0-17.749333-14.506667-32.277333-32.256-32.277333s-32.277333 14.528-32.277333 32.277333v262.186667a129.066667 129.066667 0 1 0 64.533333 0z m387.2-423.509334h-161.322666c-17.749333 0-32.277333-14.528-32.277334-32.277333 0-17.749333 14.506667-32.256 32.277334-32.256h161.322666c17.749333 0 32.277333 14.506667 32.277334 32.256s-14.528 32.277333-32.277334 32.277333z m0 161.322667h-161.322666c-17.749333 0-32.277333-14.506667-32.277334-32.256s14.506667-32.277333 32.277334-32.277333h161.322666c17.749333 0 32.277333 14.506667 32.277334 32.277333 0 17.728-14.528 32.256-32.277334 32.256z m0 161.344h-161.322666c-17.749333 0-32.277333-14.528-32.277334-32.277333 0-17.749333 14.506667-32.256 32.277334-32.256h161.322666c17.749333 0 32.277333 14.506667 32.277334 32.256s-14.528 32.277333-32.277334 32.277333z" p-id="1760" fill="#dbdbdb"></path></svg>