<svg viewBox="0 0 193.2 143.2" xmlns="http://www.w3.org/2000/svg" xmlns:xlink="http://www.w3.org/1999/xlink" width="193.199982" height="143.199951" fill="none" customFrame="#000000">
	<defs>
		<g id="pixso_custom_effect_0">
			<effect x="0.000000" y="1.000000" visibility="visible" fill="rgb(0,0,0)" fill-opacity="0.0784313753" effectType="dropShadow" stdDeviation="6" radius="0" />
		</g>
		<filter id="filter_0" width="193.199982" height="143.199951" x="0.000000" y="0.000000" filterUnits="userSpaceOnUse" customEffect="url(#pixso_custom_effect_0)" color-interpolation-filters="sRGB">
			<feFlood flood-opacity="0" result="BackgroundImageFix" />
			<feColorMatrix result="hardAlpha" in="SourceAlpha" type="matrix" values="0 0 0 0 0 0 0 0 0 0 0 0 0 0 0 0 0 0 2.5 0 " />
			<feOffset dx="0.000000" dy="1.000000" in="hardAlpha" />
			<feGaussianBlur stdDeviation="2" />
			<feComposite k2="-1" k3="1" in2="hardAlpha" operator="out" />
			<feColorMatrix type="matrix" values="0 0 0 0 0 0 0 0 0 0 0 0 0 0 0 0 0 0 0.0784314 0 " />
			<feBlend result="effect_dropShadow_1" in2="BackgroundImageFix" mode="normal" />
			<feBlend result="shape" in="SourceGraphic" in2="effect_dropShadow_1" mode="normal" />
		</filter>
		<clipPath id="clipPath_0">
			<rect width="4.896814" height="23.259865" x="0.000000" y="0.000000" fill="rgb(255,255,255)" transform="matrix(0,-1,1,0,29.6,113.496)" />
		</clipPath>
		<clipPath id="clipPath_1">
			<rect width="4.896814" height="23.259865" x="0.000000" y="0.000000" fill="rgb(255,255,255)" transform="matrix(0,-1,1,0,29.6,36.4965)" />
		</clipPath>
		<g id="pixso_custom_effect_1">
			<effect x="0.000000" y="4.000000" visibility="visible" fill="rgb(0,0,0)" fill-opacity="0.25" effectType="dropShadow" stdDeviation="4" radius="0" />
		</g>
		<filter id="filter_1" width="172.000000" height="130.000000" x="6.600006" y="9.599976" filterUnits="userSpaceOnUse" customEffect="url(#pixso_custom_effect_1)" color-interpolation-filters="sRGB">
			<feFlood flood-opacity="0" result="BackgroundImageFix" />
			<feColorMatrix result="hardAlpha" in="SourceAlpha" type="matrix" values="0 0 0 0 0 0 0 0 0 0 0 0 0 0 0 0 0 0 127 0 " />
			<feOffset dx="0.000000" dy="4.000000" in="hardAlpha" />
			<feGaussianBlur stdDeviation="1.33333337" />
			<feComposite k2="-1" k3="1" in2="hardAlpha" operator="out" />
			<feColorMatrix type="matrix" values="0 0 0 0 0 0 0 0 0 0 0 0 0 0 0 0 0 0 0.25 0 " />
			<feBlend result="effect_dropShadow_1" in2="BackgroundImageFix" mode="normal" />
			<feBlend result="shape" in="SourceGraphic" in2="effect_dropShadow_1" mode="normal" />
		</filter>
		<linearGradient id="paint_linear_0" x1="-3.61969376" x2="96.5353699" y1="-20.9909325" y2="37.9531097" gradientUnits="userSpaceOnUse">
			<stop stop-color="rgb(234,233,242)" offset="0" stop-opacity="1" />
			<stop stop-color="rgb(234,233,242)" offset="1" stop-opacity="0" />
		</linearGradient>
		<linearGradient id="paint_linear_1" x1="102.531822" x2="102.94577" y1="8.78179359" y2="15.8073435" gradientUnits="userSpaceOnUse">
			<stop stop-color="rgb(234,233,242)" offset="0" stop-opacity="1" />
			<stop stop-color="rgb(234,233,242)" offset="1" stop-opacity="0" />
		</linearGradient>
		<linearGradient id="paint_linear_2" x1="165.448486" x2="166.224518" y1="17.1908855" y2="20.5358162" gradientUnits="userSpaceOnUse">
			<stop stop-color="rgb(234,233,242)" offset="0" stop-opacity="1" />
			<stop stop-color="rgb(234,233,242)" offset="1" stop-opacity="0" />
		</linearGradient>
		<linearGradient id="paint_linear_3" x1="165.448486" x2="166.224518" y1="121.190887" y2="124.53582" gradientUnits="userSpaceOnUse">
			<stop stop-color="rgb(234,233,242)" offset="0" stop-opacity="1" />
			<stop stop-color="rgb(234,233,242)" offset="1" stop-opacity="0" />
		</linearGradient>
		<linearGradient id="paint_linear_4" x1="102.531822" x2="102.94577" y1="126.781792" y2="133.807343" gradientUnits="userSpaceOnUse">
			<stop stop-color="rgb(234,233,242)" offset="0" stop-opacity="1" />
			<stop stop-color="rgb(234,233,242)" offset="1" stop-opacity="0" />
		</linearGradient>
		<clipPath id="clipPath_2">
			<rect width="25.698307" height="46.388058" x="0.000000" y="0.000000" fill="rgb(255,255,255)" transform="matrix(0,-1,1,0,105.6,83.2968)" />
		</clipPath>
		<clipPath id="clipPath_3">
			<rect width="5.635934" height="46.388058" x="0.000000" y="0.000000" fill="rgb(255,255,255)" transform="matrix(0,-1,1,0,105.6,83.2968)" />
		</clipPath>
		<clipPath id="clipPath_4">
			<rect width="10.404797" height="45.243496" x="0.000000" y="0.000000" fill="rgb(255,255,255)" transform="matrix(0,-1,1,0,106.173,75.65)" />
		</clipPath>
		<clipPath id="clipPath_5">
			<rect width="5.635934" height="46.388058" x="0.000000" y="0.000000" fill="rgb(255,255,255)" transform="matrix(0,-1,1,0,105.6,63.2345)" />
		</clipPath>
	</defs>
	<g id="未自定义板卡">
		<g filter="url(#filter_0)">
			<path id="矢量 15191" d="M174.984 5.59998L10.7311 5.59998C8.44957 5.59998 6.60001 7.44954 6.60001 9.73109L6.60001 131.469C6.60001 133.75 8.44957 135.6 10.7311 135.6L174.984 135.6C177.265 135.6 179.115 133.75 179.115 131.469L179.115 129.583C179.115 128.329 179.684 127.144 180.662 126.36L185.053 122.84C186.031 122.056 186.6 120.87 186.6 119.617L186.6 46.0027C186.6 44.8923 186.153 43.8288 185.36 43.0517L180.355 38.1482C179.562 37.3712 179.115 36.3076 179.115 35.1973L179.115 9.73109C179.115 7.44954 177.265 5.59998 174.984 5.59998Z" fill="rgb(0,0,0)" fill-rule="evenodd" />
			<path id="矢量 15191" d="M176.8 5.34629Q175.963 4.99998 174.984 4.99998L10.7311 4.99998Q9.75128 4.99998 8.91493 5.3464L8.91489 5.34642Q8.07856 5.69285 7.38572 6.38569Q6.69287 7.07854 6.34644 7.91488L6.34644 7.91489Q6.00001 8.75124 6.00001 9.73109L6.00001 131.469C6.00001 132.122 6.11549 132.728 6.34645 133.285C6.5774 133.843 6.92382 134.352 7.38572 134.814C7.84758 135.276 8.35728 135.623 8.9148 135.854L8.91544 135.854Q9.7516 136.2 10.7311 136.2L174.984 136.2C175.637 136.2 176.242 136.085 176.8 135.854C177.357 135.623 177.867 135.276 178.329 134.814C178.791 134.352 179.138 133.843 179.368 133.285C179.599 132.727 179.715 132.122 179.715 131.469L179.715 129.583C179.715 129.018 179.825 128.506 180.046 128.047C180.266 127.588 180.597 127.181 181.037 126.828L185.428 123.308C185.708 123.084 185.957 122.835 186.175 122.561Q186.501 122.15 186.734 121.664C186.889 121.341 187.006 121.009 187.083 120.668C187.161 120.326 187.2 119.976 187.2 119.617L187.2 46.0027C187.2 45.34 187.082 44.7271 186.845 44.1639C186.608 43.6006 186.253 43.087 185.78 42.6231L180.775 37.7196Q180.245 37.2005 179.98 36.5699C179.803 36.1495 179.715 35.692 179.715 35.1973L179.715 9.73109C179.715 9.07779 179.599 8.47233 179.368 7.91471C179.137 7.35721 178.791 6.84754 178.329 6.38569C177.867 5.92371 177.357 5.57724 176.8 5.34629ZM6.60001 9.73109C6.60001 7.44954 8.44957 5.59998 10.7311 5.59998L174.984 5.59998C177.265 5.59998 179.115 7.44954 179.115 9.73109L179.115 35.1973C179.115 36.3076 179.562 37.3712 180.355 38.1482L185.36 43.0517C186.153 43.8288 186.6 44.8923 186.6 46.0027L186.6 119.617C186.6 120.87 186.031 122.056 185.053 122.84L180.662 126.36C179.684 127.144 179.115 128.329 179.115 129.583L179.115 131.469C179.115 133.75 177.265 135.6 174.984 135.6L10.7311 135.6C8.44957 135.6 6.60001 133.75 6.60001 131.469L6.60001 9.73109Z" fill="rgb(255,255,255)" fill-opacity="0.400000006" fill-rule="evenodd" />
		</g>
		<g id="组合 8862">
			<rect id="矩形 5832" width="19.418934" height="11.568725" x="78.600006" y="25.599976" rx="5.784362" fill="rgb(24,24,24)" />
			<g id="组合 8860">
				<g id="组合 8860">
					<path id="合并" d="M88.5162 28.7704C87.6936 27.6024 86.3348 26.8394 84.7977 26.8394C82.2876 26.8394 80.2528 28.8742 80.2528 31.3842C80.2528 33.8943 82.2876 35.9291 84.7977 35.9291C86.3348 35.9291 87.6936 35.166 88.5162 33.9981C89.3387 35.166 90.6975 35.9291 92.2346 35.9291C94.7447 35.9291 96.7795 33.8943 96.7795 31.3842C96.7795 28.8742 94.7447 26.8394 92.2346 26.8394C90.6975 26.8394 89.3387 27.6024 88.5162 28.7704Z" fill="rgb(24,24,24)" fill-rule="evenodd" />
					<path id="合并" d="M88.5162 28.7704C87.6936 27.6024 86.3348 26.8394 84.7977 26.8394C82.2876 26.8394 80.2528 28.8742 80.2528 31.3842C80.2528 33.8943 82.2876 35.9291 84.7977 35.9291C86.3348 35.9291 87.6936 35.166 88.5162 33.9981C89.3387 35.166 90.6975 35.9291 92.2346 35.9291C94.7447 35.9291 96.7795 33.8943 96.7795 31.3842C96.7795 28.8742 94.7447 26.8394 92.2346 26.8394C90.6975 26.8394 89.3387 27.6024 88.5162 28.7704Z" fill-rule="evenodd" stroke="rgb(38,38,38)" stroke-width="1.239506" />
				</g>
			</g>
		</g>
		<g id="组合 9262">
			<g id="组合 8993">
				<g id="组合 8683">
					<path id="矩形 5758" d="M0.69984 0L7.4737 0C7.86021 0 8.17354 0.313329 8.17354 0.69984L8.17354 4.1798C8.17354 4.39453 8.34761 4.5686 8.56234 4.5686L9.79771 4.5686C9.99097 4.5686 10.1476 4.72526 10.1476 4.91852L10.1476 8.22881C10.1476 8.42207 9.99097 8.57873 9.79771 8.57873L8.56234 8.57873C8.34761 8.57873 8.17354 8.7528 8.17354 8.96753L8.17354 13.2039C8.17354 13.4186 8.3476 13.5927 8.56233 13.5927L9.74862 13.5927C9.93978 13.5927 10.0903 13.7461 10.0932 13.9373L10.1477 17.1594C10.1504 17.3546 9.98802 17.5142 9.79286 17.5142L8.56234 17.5141C8.34761 17.5141 8.17353 17.6882 8.17353 17.903L8.17354 21.695C8.17354 22.0816 7.86021 22.3949 7.4737 22.3949L0.69984 22.3949C0.313329 22.3949 0 22.0816 0 21.695L0 0.69984C0 0.313329 0.313329 0 0.69984 0Z" fill="rgb(38,38,38)" fill-rule="evenodd" transform="matrix(0,1,-1,-0,109.995,106.6)" />
				</g>
			</g>
			<rect id="矩形 5858" width="7.128000" height="5.184000" x="88.896393" y="107.895874" rx="0.397675" fill="rgb(24,24,24)" />
			<path id="矩形 5859" d="M94.0699 107.896L107.939 107.896C108.158 107.896 108.336 108.074 108.336 108.294L108.336 112.682C108.336 112.902 108.158 113.08 107.939 113.08L94.0699 113.08C93.8503 113.08 93.6723 112.902 93.6723 112.682L93.6723 108.294C93.6723 108.074 93.8503 107.896 94.0699 107.896Z" fill="rgb(24,24,24)" fill-rule="evenodd" />
		</g>
		<g id="容器 802" customFrame="url(#clipPath_0)">
			<rect id="容器 802" width="4.896814" height="23.259865" x="0.000000" y="0.000000" transform="matrix(0,-1,1,0,29.6,113.496)" />
			<rect id="矩形 5873" width="4.896814" height="1.224204" x="0.000000" y="0.000000" rx="0.612102" fill="rgb(38,38,38)" transform="matrix(0,-1,1,0,29.6,113.496)" />
			<rect id="矩形 5874" width="4.896814" height="1.224204" x="0.000000" y="0.000000" rx="0.612102" fill="rgb(38,38,38)" transform="matrix(0,-1,1,0,32.0482,113.496)" />
			<rect id="矩形 5876" width="4.896814" height="1.224204" x="0.000000" y="0.000000" rx="0.612102" fill="rgb(38,38,38)" transform="matrix(0,-1,1,0,34.497,113.496)" />
			<rect id="矩形 5880" width="4.896814" height="1.224204" x="0.000000" y="0.000000" rx="0.612102" fill="rgb(38,38,38)" transform="matrix(0,-1,1,0,36.9452,113.496)" />
			<rect id="矩形 5877" width="4.896814" height="1.224204" x="0.000000" y="0.000000" rx="0.612102" opacity="0.839999974" fill="rgb(38,38,38)" transform="matrix(0,-1,1,0,39.3935,113.496)" />
			<rect id="矩形 5878" width="4.896814" height="1.224204" x="0.000000" y="0.000000" rx="0.612102" fill="rgb(38,38,38)" transform="matrix(0,-1,1,0,41.8422,113.496)" />
			<rect id="矩形 5881" width="4.896814" height="1.224204" x="0.000000" y="0.000000" rx="0.612102" fill="rgb(38,38,38)" transform="matrix(0,-1,1,0,44.2904,113.496)" />
			<rect id="矩形 5882" width="4.896814" height="1.224204" x="0.000000" y="0.000000" rx="0.612102" fill="rgb(38,38,38)" transform="matrix(0,-1,1,0,46.7387,113.496)" />
			<rect id="矩形 5879" width="4.896814" height="1.224204" x="0.000000" y="0.000000" rx="0.612102" fill="rgb(38,38,38)" transform="matrix(0,-1,1,0,49.1874,113.496)" />
			<rect id="矩形 5875" width="4.896814" height="1.224204" x="0.000000" y="0.000000" rx="0.612102" fill="rgb(38,38,38)" transform="matrix(0,-1,1,0,51.6357,113.496)" />
		</g>
		<g id="容器 803" customFrame="url(#clipPath_1)">
			<rect id="容器 803" width="4.896814" height="23.259865" x="0.000000" y="0.000000" transform="matrix(0,-1,1,0,29.6,36.4965)" />
			<rect id="矩形 5873" width="4.896814" height="1.224204" x="0.000000" y="0.000000" rx="0.612102" fill="rgb(38,38,38)" transform="matrix(0,-1,1,0,29.6,36.4965)" />
			<rect id="矩形 5874" width="4.896814" height="1.224204" x="0.000000" y="0.000000" rx="0.612102" fill="rgb(38,38,38)" transform="matrix(0,-1,1,0,32.0482,36.4965)" />
			<rect id="矩形 5876" width="4.896814" height="1.224204" x="0.000000" y="0.000000" rx="0.612102" fill="rgb(38,38,38)" transform="matrix(0,-1,1,0,34.497,36.4965)" />
			<rect id="矩形 5880" width="4.896814" height="1.224204" x="0.000000" y="0.000000" rx="0.612102" fill="rgb(38,38,38)" transform="matrix(0,-1,1,0,36.9452,36.4965)" />
			<rect id="矩形 5877" width="4.896814" height="1.224204" x="0.000000" y="0.000000" rx="0.612102" opacity="0.839999974" fill="rgb(38,38,38)" transform="matrix(0,-1,1,0,39.3935,36.4965)" />
			<rect id="矩形 5878" width="4.896814" height="1.224204" x="0.000000" y="0.000000" rx="0.612102" fill="rgb(38,38,38)" transform="matrix(0,-1,1,0,41.8422,36.4965)" />
			<rect id="矩形 5881" width="4.896814" height="1.224204" x="0.000000" y="0.000000" rx="0.612102" fill="rgb(38,38,38)" transform="matrix(0,-1,1,0,44.2904,36.4965)" />
			<rect id="矩形 5882" width="4.896814" height="1.224204" x="0.000000" y="0.000000" rx="0.612102" fill="rgb(38,38,38)" transform="matrix(0,-1,1,0,46.7387,36.4965)" />
			<rect id="矩形 5879" width="4.896814" height="1.224204" x="0.000000" y="0.000000" rx="0.612102" fill="rgb(38,38,38)" transform="matrix(0,-1,1,0,49.1874,36.4965)" />
			<rect id="矩形 5875" width="4.896814" height="1.224204" x="0.000000" y="0.000000" rx="0.612102" fill="rgb(38,38,38)" transform="matrix(0,-1,1,0,51.6357,36.4965)" />
		</g>
		<g id="组合 91333966" filter="url(#filter_1)">
			<rect id="矩形 5791" width="71.000000" height="130.000000" x="6.600006" y="5.599976" rx="4.000000" opacity="0" fill="rgb(38,38,38)" />
			<rect id="矩形 5791" width="70.645569" height="129.645569" x="6.777221" y="5.777191" rx="3.822785" opacity="0" stroke="url(#paint_linear_0)" stroke-opacity="0" stroke-width="0.354430" />
			<circle id="椭圆 2700" cx="12.6000061" cy="11.5999756" r="2" fill="rgb(24,24,24)" />
			<circle id="椭圆 2702" cx="12.6000061" cy="129.599976" r="2" fill="rgb(24,24,24)" />
			<circle id="椭圆 2701" cx="71.6000061" cy="11.5999756" r="2" fill="rgb(24,24,24)" />
			<circle id="椭圆 2703" cx="71.6000061" cy="129.599976" r="2" fill="rgb(24,24,24)" />
			<g id="组合 91333970">
				<rect id="矩形 5793" width="63.000000" height="4.000000" x="111.600006" y="9.599976" rx="2.000000" fill="rgb(24,24,24)" />
				<rect id="矩形 5793" width="62.645569" height="3.645570" x="111.777222" y="9.777191" rx="1.822785" stroke="url(#paint_linear_1)" stroke-opacity="0" stroke-width="0.354430" />
				<rect id="矩形 5795" width="8.000000" height="2.000000" x="166.600006" y="17.599976" rx="1.000000" fill="rgb(24,24,24)" />
				<rect id="矩形 5795" width="7.645570" height="1.645570" x="166.777222" y="17.777191" rx="0.822785" stroke="url(#paint_linear_2)" stroke-opacity="0" stroke-width="0.354430" />
				<rect id="矩形 5796" width="8.000000" height="2.000000" x="166.600006" y="121.599976" rx="1.000000" fill="rgb(24,24,24)" />
				<rect id="矩形 5796" width="7.645570" height="1.645570" x="166.777222" y="121.777191" rx="0.822785" stroke="url(#paint_linear_3)" stroke-opacity="0" stroke-width="0.354430" />
				<rect id="矩形 5794" width="63.000000" height="4.000000" x="111.600006" y="127.599976" rx="2.000000" fill="rgb(24,24,24)" />
				<rect id="矩形 5794" width="62.645569" height="3.645570" x="111.777222" y="127.777191" rx="1.822785" stroke="url(#paint_linear_4)" stroke-opacity="0" stroke-width="0.354430" />
			</g>
			<rect id="矩形 1259" width="32.000000" height="33.000000" x="136.600006" y="15.599976" rx="4.000000" opacity="0" fill="rgb(38,38,38)" />
			<g id="容器 453" customFrame="url(#clipPath_2)">
				<rect id="容器 453" width="25.698307" height="46.388058" x="0.000000" y="0.000000" transform="matrix(0,-1,1,0,105.6,83.2968)" />
				<g id="容器 448" customFrame="url(#clipPath_3)">
					<rect id="容器 448" width="5.635934" height="46.388058" x="0.000000" y="0.000000" transform="matrix(0,-1,1,0,105.6,83.2968)" />
					<g id="组合 8326">
						<rect id="矩形 5170" width="3.901800" height="0.867067" x="0.000000" y="0.000000" rx="0.433533" fill="rgb(24,24,24)" transform="matrix(0,-1,1,0,105.6,82.4297)" />
						<rect id="矩形 5171" width="0.433533" height="0.867067" x="0.000000" y="0.000000" rx="0.216767" opacity="0.800000012" fill="rgb(24,24,24)" transform="matrix(0,-1,1,0,105.6,83.2968)" />
						<rect id="矩形 5172" width="0.433533" height="0.867067" x="0.000000" y="0.000000" rx="0.216767" opacity="0.800000012" fill="rgb(24,24,24)" transform="matrix(0,-1,1,0,105.6,78.0944)" />
					</g>
					<g id="组合 8320">
						<rect id="矩形 5170" width="3.901800" height="0.867067" x="0.000000" y="0.000000" rx="0.433533" fill="rgb(24,24,24)" transform="matrix(0,-1,1,0,108.635,82.4297)" />
						<rect id="矩形 5171" width="0.433533" height="0.867067" x="0.000000" y="0.000000" rx="0.216767" opacity="0.800000012" fill="rgb(24,24,24)" transform="matrix(0,-1,1,0,108.635,83.2968)" />
						<rect id="矩形 5172" width="0.433533" height="0.867067" x="0.000000" y="0.000000" rx="0.216767" opacity="0.800000012" fill="rgb(24,24,24)" transform="matrix(0,-1,1,0,108.635,78.0944)" />
					</g>
					<g id="组合 8332">
						<rect id="矩形 5170" width="3.901800" height="0.867067" x="0.000000" y="0.000000" rx="0.433533" fill="rgb(24,24,24)" transform="matrix(0,-1,1,0,111.67,82.4297)" />
						<rect id="矩形 5171" width="0.433533" height="0.867067" x="0.000000" y="0.000000" rx="0.216767" opacity="0.800000012" fill="rgb(24,24,24)" transform="matrix(0,-1,1,0,111.67,83.2968)" />
						<rect id="矩形 5172" width="0.433533" height="0.867067" x="0.000000" y="0.000000" rx="0.216767" opacity="0.800000012" fill="rgb(24,24,24)" transform="matrix(0,-1,1,0,111.67,78.0944)" />
					</g>
					<g id="组合 8333">
						<rect id="矩形 5170" width="3.901800" height="0.867067" x="0.000000" y="0.000000" rx="0.433533" fill="rgb(24,24,24)" transform="matrix(0,-1,1,0,114.704,82.4297)" />
						<rect id="矩形 5171" width="0.433533" height="0.867067" x="0.000000" y="0.000000" rx="0.216767" opacity="0.800000012" fill="rgb(24,24,24)" transform="matrix(0,-1,1,0,114.704,83.2968)" />
						<rect id="矩形 5172" width="0.433533" height="0.867067" x="0.000000" y="0.000000" rx="0.216767" opacity="0.800000012" fill="rgb(24,24,24)" transform="matrix(0,-1,1,0,114.704,78.0944)" />
					</g>
					<g id="组合 8334">
						<rect id="矩形 5170" width="3.901800" height="0.867067" x="0.000000" y="0.000000" rx="0.433533" fill="rgb(24,24,24)" transform="matrix(0,-1,1,0,117.739,82.4297)" />
						<rect id="矩形 5171" width="0.433533" height="0.867067" x="0.000000" y="0.000000" rx="0.216767" opacity="0.800000012" fill="rgb(24,24,24)" transform="matrix(0,-1,1,0,117.739,83.2968)" />
						<rect id="矩形 5172" width="0.433533" height="0.867067" x="0.000000" y="0.000000" rx="0.216767" opacity="0.800000012" fill="rgb(24,24,24)" transform="matrix(0,-1,1,0,117.739,78.0944)" />
					</g>
					<g id="组合 8335">
						<rect id="矩形 5170" width="3.901800" height="0.867067" x="0.000000" y="0.000000" rx="0.433533" fill="rgb(24,24,24)" transform="matrix(0,-1,1,0,120.774,82.4297)" />
						<rect id="矩形 5171" width="0.433533" height="0.867067" x="0.000000" y="0.000000" rx="0.216767" opacity="0.800000012" fill="rgb(24,24,24)" transform="matrix(0,-1,1,0,120.774,83.2968)" />
						<rect id="矩形 5172" width="0.433533" height="0.867067" x="0.000000" y="0.000000" rx="0.216767" opacity="0.800000012" fill="rgb(24,24,24)" transform="matrix(0,-1,1,0,120.774,78.0944)" />
					</g>
					<g id="组合 8327">
						<rect id="矩形 5170" width="3.901800" height="0.867067" x="0.000000" y="0.000000" rx="0.433533" fill="rgb(24,24,24)" transform="matrix(0,-1,1,0,123.809,82.4297)" />
						<rect id="矩形 5171" width="0.433533" height="0.867067" x="0.000000" y="0.000000" rx="0.216767" opacity="0.800000012" fill="rgb(24,24,24)" transform="matrix(0,-1,1,0,123.809,83.2968)" />
						<rect id="矩形 5172" width="0.433533" height="0.867067" x="0.000000" y="0.000000" rx="0.216767" opacity="0.800000012" fill="rgb(24,24,24)" transform="matrix(0,-1,1,0,123.809,78.0944)" />
					</g>
					<g id="组合 8329">
						<rect id="矩形 5170" width="3.901800" height="0.867067" x="0.000000" y="0.000000" rx="0.433533" fill="rgb(24,24,24)" transform="matrix(0,-1,1,0,126.844,82.4297)" />
						<rect id="矩形 5171" width="0.433533" height="0.867067" x="0.000000" y="0.000000" rx="0.216767" opacity="0.800000012" fill="rgb(24,24,24)" transform="matrix(0,-1,1,0,126.844,83.2968)" />
						<rect id="矩形 5172" width="0.433533" height="0.867067" x="0.000000" y="0.000000" rx="0.216767" opacity="0.800000012" fill="rgb(24,24,24)" transform="matrix(0,-1,1,0,126.844,78.0944)" />
					</g>
					<g id="组合 8330">
						<rect id="矩形 5170" width="3.901800" height="0.867067" x="0.000000" y="0.000000" rx="0.433533" fill="rgb(24,24,24)" transform="matrix(0,-1,1,0,129.878,82.4297)" />
						<rect id="矩形 5171" width="0.433533" height="0.867067" x="0.000000" y="0.000000" rx="0.216767" opacity="0.800000012" fill="rgb(24,24,24)" transform="matrix(0,-1,1,0,129.878,83.2968)" />
						<rect id="矩形 5172" width="0.433533" height="0.867067" x="0.000000" y="0.000000" rx="0.216767" opacity="0.800000012" fill="rgb(24,24,24)" transform="matrix(0,-1,1,0,129.878,78.0944)" />
					</g>
					<g id="组合 8331">
						<rect id="矩形 5170" width="3.901800" height="0.867067" x="0.000000" y="0.000000" rx="0.433533" fill="rgb(24,24,24)" transform="matrix(0,-1,1,0,132.913,82.4297)" />
						<rect id="矩形 5171" width="0.433533" height="0.867067" x="0.000000" y="0.000000" rx="0.216767" opacity="0.800000012" fill="rgb(24,24,24)" transform="matrix(0,-1,1,0,132.913,83.2968)" />
						<rect id="矩形 5172" width="0.433533" height="0.867067" x="0.000000" y="0.000000" rx="0.216767" opacity="0.800000012" fill="rgb(24,24,24)" transform="matrix(0,-1,1,0,132.913,78.0944)" />
					</g>
					<g id="组合 8328">
						<rect id="矩形 5170" width="3.901800" height="0.867067" x="0.000000" y="0.000000" rx="0.433533" fill="rgb(24,24,24)" transform="matrix(0,-1,1,0,135.948,82.4297)" />
						<rect id="矩形 5171" width="0.433533" height="0.867067" x="0.000000" y="0.000000" rx="0.216767" opacity="0.800000012" fill="rgb(24,24,24)" transform="matrix(0,-1,1,0,135.948,83.2968)" />
						<rect id="矩形 5172" width="0.433533" height="0.867067" x="0.000000" y="0.000000" rx="0.216767" opacity="0.800000012" fill="rgb(24,24,24)" transform="matrix(0,-1,1,0,135.948,78.0944)" />
					</g>
					<g id="组合 8321">
						<rect id="矩形 5170" width="3.901800" height="0.867067" x="0.000000" y="0.000000" rx="0.433533" fill="rgb(24,24,24)" transform="matrix(0,-1,1,0,138.982,82.4297)" />
						<rect id="矩形 5171" width="0.433533" height="0.867067" x="0.000000" y="0.000000" rx="0.216767" opacity="0.800000012" fill="rgb(24,24,24)" transform="matrix(0,-1,1,0,138.982,83.2968)" />
						<rect id="矩形 5172" width="0.433533" height="0.867067" x="0.000000" y="0.000000" rx="0.216767" opacity="0.800000012" fill="rgb(24,24,24)" transform="matrix(0,-1,1,0,138.982,78.0944)" />
					</g>
					<g id="组合 8336">
						<rect id="矩形 5170" width="3.901800" height="0.867067" x="0.000000" y="0.000000" rx="0.433533" fill="rgb(24,24,24)" transform="matrix(0,-1,1,0,142.017,82.4297)" />
						<rect id="矩形 5171" width="0.433533" height="0.867067" x="0.000000" y="0.000000" rx="0.216767" opacity="0.800000012" fill="rgb(24,24,24)" transform="matrix(0,-1,1,0,142.017,83.2968)" />
						<rect id="矩形 5172" width="0.433533" height="0.867067" x="0.000000" y="0.000000" rx="0.216767" opacity="0.800000012" fill="rgb(24,24,24)" transform="matrix(0,-1,1,0,142.017,78.0944)" />
					</g>
					<g id="组合 8337">
						<rect id="矩形 5170" width="3.901800" height="0.867067" x="0.000000" y="0.000000" rx="0.433533" fill="rgb(24,24,24)" transform="matrix(0,-1,1,0,145.052,82.4297)" />
						<rect id="矩形 5171" width="0.433533" height="0.867067" x="0.000000" y="0.000000" rx="0.216767" opacity="0.800000012" fill="rgb(24,24,24)" transform="matrix(0,-1,1,0,145.052,83.2968)" />
						<rect id="矩形 5172" width="0.433533" height="0.867067" x="0.000000" y="0.000000" rx="0.216767" opacity="0.800000012" fill="rgb(24,24,24)" transform="matrix(0,-1,1,0,145.052,78.0944)" />
					</g>
					<g id="组合 8323">
						<rect id="矩形 5170" width="3.901800" height="0.867067" x="0.000000" y="0.000000" rx="0.433533" fill="rgb(24,24,24)" transform="matrix(0,-1,1,0,148.086,82.4297)" />
						<rect id="矩形 5171" width="0.433533" height="0.867067" x="0.000000" y="0.000000" rx="0.216767" opacity="0.800000012" fill="rgb(24,24,24)" transform="matrix(0,-1,1,0,148.086,83.2968)" />
						<rect id="矩形 5172" width="0.433533" height="0.867067" x="0.000000" y="0.000000" rx="0.216767" opacity="0.800000012" fill="rgb(24,24,24)" transform="matrix(0,-1,1,0,148.086,78.0944)" />
					</g>
					<g id="组合 8324">
						<rect id="矩形 5170" width="3.901800" height="0.867067" x="0.000000" y="0.000000" rx="0.433533" fill="rgb(24,24,24)" transform="matrix(0,-1,1,0,151.121,82.4297)" />
						<rect id="矩形 5171" width="0.433533" height="0.867067" x="0.000000" y="0.000000" rx="0.216767" opacity="0.800000012" fill="rgb(24,24,24)" transform="matrix(0,-1,1,0,151.121,83.2968)" />
						<rect id="矩形 5172" width="0.433533" height="0.867067" x="0.000000" y="0.000000" rx="0.216767" opacity="0.800000012" fill="rgb(24,24,24)" transform="matrix(0,-1,1,0,151.121,78.0944)" />
					</g>
				</g>
				<g id="容器 447" customFrame="url(#clipPath_4)">
					<rect id="容器 447" width="10.404797" height="45.243496" x="0.000000" y="0.000000" transform="matrix(0,-1,1,0,106.173,75.65)" />
					<g id="组合 8651">
						<rect id="矩形 5758" width="10.404797" height="9.048699" x="0.000000" y="0.000000" rx="0.804329" fill="rgb(63,63,63)" transform="matrix(0,-1,1,0,106.173,75.65)" />
						<rect id="矩形 5758" width="9.981437" height="8.625340" x="0.211680" y="0.211680" rx="0.592649" stroke="rgb(11,18,24)" stroke-opacity="0" stroke-width="0.423360" transform="matrix(0,-1,1,0,106.173,75.65)" />
					</g>
					<g id="组合 8662">
						<rect id="矩形 5758" width="10.404797" height="9.048699" x="0.000000" y="0.000000" rx="0.804329" fill="rgb(63,63,63)" transform="matrix(0,-1,1,0,118.238,75.65)" />
						<rect id="矩形 5758" width="9.981437" height="8.625340" x="0.211680" y="0.211680" rx="0.592649" stroke="rgb(11,18,24)" stroke-opacity="0" stroke-width="0.423360" transform="matrix(0,-1,1,0,118.238,75.65)" />
					</g>
					<g id="组合 8663">
						<rect id="矩形 5758" width="10.404797" height="9.048699" x="0.000000" y="0.000000" rx="0.804329" fill="rgb(63,63,63)" transform="matrix(0,-1,1,0,130.303,75.65)" />
						<rect id="矩形 5758" width="9.981437" height="8.625340" x="0.211680" y="0.211680" rx="0.592649" stroke="rgb(11,18,24)" stroke-opacity="0" stroke-width="0.423360" transform="matrix(0,-1,1,0,130.303,75.65)" />
					</g>
					<g id="组合 8664">
						<rect id="矩形 5758" width="10.404797" height="9.048699" x="0.000000" y="0.000000" rx="0.804329" fill="rgb(63,63,63)" transform="matrix(0,-1,1,0,142.368,75.65)" />
						<rect id="矩形 5758" width="9.981437" height="8.625340" x="0.211680" y="0.211680" rx="0.592649" stroke="rgb(11,18,24)" stroke-opacity="0" stroke-width="0.423360" transform="matrix(0,-1,1,0,142.368,75.65)" />
					</g>
				</g>
				<g id="容器 300" customFrame="url(#clipPath_5)">
					<rect id="容器 300" width="5.635934" height="46.388058" x="0.000000" y="0.000000" transform="matrix(0,-1,1,0,105.6,63.2345)" />
					<g id="组合 8326">
						<rect id="矩形 5170" width="3.901800" height="0.867067" x="0.000000" y="0.000000" rx="0.433533" fill="rgb(24,24,24)" transform="matrix(0,-1,1,0,105.6,62.3673)" />
						<rect id="矩形 5171" width="0.433533" height="0.867067" x="0.000000" y="0.000000" rx="0.216767" opacity="0.800000012" fill="rgb(24,24,24)" transform="matrix(0,-1,1,0,105.6,63.2345)" />
						<rect id="矩形 5172" width="0.433533" height="0.867067" x="0.000000" y="0.000000" rx="0.216767" opacity="0.800000012" fill="rgb(24,24,24)" transform="matrix(0,-1,1,0,105.6,58.032)" />
					</g>
					<g id="组合 8320">
						<rect id="矩形 5170" width="3.901800" height="0.867067" x="0.000000" y="0.000000" rx="0.433533" fill="rgb(24,24,24)" transform="matrix(0,-1,1,0,108.635,62.3673)" />
						<rect id="矩形 5171" width="0.433533" height="0.867067" x="0.000000" y="0.000000" rx="0.216767" opacity="0.800000012" fill="rgb(24,24,24)" transform="matrix(0,-1,1,0,108.635,63.2345)" />
						<rect id="矩形 5172" width="0.433533" height="0.867067" x="0.000000" y="0.000000" rx="0.216767" opacity="0.800000012" fill="rgb(24,24,24)" transform="matrix(0,-1,1,0,108.635,58.032)" />
					</g>
					<g id="组合 8332">
						<rect id="矩形 5170" width="3.901800" height="0.867067" x="0.000000" y="0.000000" rx="0.433533" fill="rgb(24,24,24)" transform="matrix(0,-1,1,0,111.67,62.3673)" />
						<rect id="矩形 5171" width="0.433533" height="0.867067" x="0.000000" y="0.000000" rx="0.216767" opacity="0.800000012" fill="rgb(24,24,24)" transform="matrix(0,-1,1,0,111.67,63.2345)" />
						<rect id="矩形 5172" width="0.433533" height="0.867067" x="0.000000" y="0.000000" rx="0.216767" opacity="0.800000012" fill="rgb(24,24,24)" transform="matrix(0,-1,1,0,111.67,58.032)" />
					</g>
					<g id="组合 8333">
						<rect id="矩形 5170" width="3.901800" height="0.867067" x="0.000000" y="0.000000" rx="0.433533" fill="rgb(24,24,24)" transform="matrix(0,-1,1,0,114.704,62.3673)" />
						<rect id="矩形 5171" width="0.433533" height="0.867067" x="0.000000" y="0.000000" rx="0.216767" opacity="0.800000012" fill="rgb(24,24,24)" transform="matrix(0,-1,1,0,114.704,63.2345)" />
						<rect id="矩形 5172" width="0.433533" height="0.867067" x="0.000000" y="0.000000" rx="0.216767" opacity="0.800000012" fill="rgb(24,24,24)" transform="matrix(0,-1,1,0,114.704,58.032)" />
					</g>
					<g id="组合 8334">
						<rect id="矩形 5170" width="3.901800" height="0.867067" x="0.000000" y="0.000000" rx="0.433533" fill="rgb(24,24,24)" transform="matrix(0,-1,1,0,117.739,62.3673)" />
						<rect id="矩形 5171" width="0.433533" height="0.867067" x="0.000000" y="0.000000" rx="0.216767" opacity="0.800000012" fill="rgb(24,24,24)" transform="matrix(0,-1,1,0,117.739,63.2345)" />
						<rect id="矩形 5172" width="0.433533" height="0.867067" x="0.000000" y="0.000000" rx="0.216767" opacity="0.800000012" fill="rgb(24,24,24)" transform="matrix(0,-1,1,0,117.739,58.032)" />
					</g>
					<g id="组合 8335">
						<rect id="矩形 5170" width="3.901800" height="0.867067" x="0.000000" y="0.000000" rx="0.433533" fill="rgb(24,24,24)" transform="matrix(0,-1,1,0,120.774,62.3673)" />
						<rect id="矩形 5171" width="0.433533" height="0.867067" x="0.000000" y="0.000000" rx="0.216767" opacity="0.800000012" fill="rgb(24,24,24)" transform="matrix(0,-1,1,0,120.774,63.2345)" />
						<rect id="矩形 5172" width="0.433533" height="0.867067" x="0.000000" y="0.000000" rx="0.216767" opacity="0.800000012" fill="rgb(24,24,24)" transform="matrix(0,-1,1,0,120.774,58.032)" />
					</g>
					<g id="组合 8327">
						<rect id="矩形 5170" width="3.901800" height="0.867067" x="0.000000" y="0.000000" rx="0.433533" fill="rgb(24,24,24)" transform="matrix(0,-1,1,0,123.809,62.3673)" />
						<rect id="矩形 5171" width="0.433533" height="0.867067" x="0.000000" y="0.000000" rx="0.216767" opacity="0.800000012" fill="rgb(24,24,24)" transform="matrix(0,-1,1,0,123.809,63.2345)" />
						<rect id="矩形 5172" width="0.433533" height="0.867067" x="0.000000" y="0.000000" rx="0.216767" opacity="0.800000012" fill="rgb(24,24,24)" transform="matrix(0,-1,1,0,123.809,58.032)" />
					</g>
					<g id="组合 8329">
						<rect id="矩形 5170" width="3.901800" height="0.867067" x="0.000000" y="0.000000" rx="0.433533" fill="rgb(24,24,24)" transform="matrix(0,-1,1,0,126.844,62.3673)" />
						<rect id="矩形 5171" width="0.433533" height="0.867067" x="0.000000" y="0.000000" rx="0.216767" opacity="0.800000012" fill="rgb(24,24,24)" transform="matrix(0,-1,1,0,126.844,63.2345)" />
						<rect id="矩形 5172" width="0.433533" height="0.867067" x="0.000000" y="0.000000" rx="0.216767" opacity="0.800000012" fill="rgb(24,24,24)" transform="matrix(0,-1,1,0,126.844,58.032)" />
					</g>
					<g id="组合 8330">
						<rect id="矩形 5170" width="3.901800" height="0.867067" x="0.000000" y="0.000000" rx="0.433533" fill="rgb(24,24,24)" transform="matrix(0,-1,1,0,129.878,62.3673)" />
						<rect id="矩形 5171" width="0.433533" height="0.867067" x="0.000000" y="0.000000" rx="0.216767" opacity="0.800000012" fill="rgb(24,24,24)" transform="matrix(0,-1,1,0,129.878,63.2345)" />
						<rect id="矩形 5172" width="0.433533" height="0.867067" x="0.000000" y="0.000000" rx="0.216767" opacity="0.800000012" fill="rgb(24,24,24)" transform="matrix(0,-1,1,0,129.878,58.032)" />
					</g>
					<g id="组合 8331">
						<rect id="矩形 5170" width="3.901800" height="0.867067" x="0.000000" y="0.000000" rx="0.433533" fill="rgb(24,24,24)" transform="matrix(0,-1,1,0,132.913,62.3673)" />
						<rect id="矩形 5171" width="0.433533" height="0.867067" x="0.000000" y="0.000000" rx="0.216767" opacity="0.800000012" fill="rgb(24,24,24)" transform="matrix(0,-1,1,0,132.913,63.2345)" />
						<rect id="矩形 5172" width="0.433533" height="0.867067" x="0.000000" y="0.000000" rx="0.216767" opacity="0.800000012" fill="rgb(24,24,24)" transform="matrix(0,-1,1,0,132.913,58.032)" />
					</g>
					<g id="组合 8328">
						<rect id="矩形 5170" width="3.901800" height="0.867067" x="0.000000" y="0.000000" rx="0.433533" fill="rgb(24,24,24)" transform="matrix(0,-1,1,0,135.948,62.3673)" />
						<rect id="矩形 5171" width="0.433533" height="0.867067" x="0.000000" y="0.000000" rx="0.216767" opacity="0.800000012" fill="rgb(24,24,24)" transform="matrix(0,-1,1,0,135.948,63.2345)" />
						<rect id="矩形 5172" width="0.433533" height="0.867067" x="0.000000" y="0.000000" rx="0.216767" opacity="0.800000012" fill="rgb(24,24,24)" transform="matrix(0,-1,1,0,135.948,58.032)" />
					</g>
					<g id="组合 8321">
						<rect id="矩形 5170" width="3.901800" height="0.867067" x="0.000000" y="0.000000" rx="0.433533" fill="rgb(24,24,24)" transform="matrix(0,-1,1,0,138.982,62.3673)" />
						<rect id="矩形 5171" width="0.433533" height="0.867067" x="0.000000" y="0.000000" rx="0.216767" opacity="0.800000012" fill="rgb(24,24,24)" transform="matrix(0,-1,1,0,138.982,63.2345)" />
						<rect id="矩形 5172" width="0.433533" height="0.867067" x="0.000000" y="0.000000" rx="0.216767" opacity="0.800000012" fill="rgb(24,24,24)" transform="matrix(0,-1,1,0,138.982,58.032)" />
					</g>
					<g id="组合 8336">
						<rect id="矩形 5170" width="3.901800" height="0.867067" x="0.000000" y="0.000000" rx="0.433533" fill="rgb(24,24,24)" transform="matrix(0,-1,1,0,142.017,62.3673)" />
						<rect id="矩形 5171" width="0.433533" height="0.867067" x="0.000000" y="0.000000" rx="0.216767" opacity="0.800000012" fill="rgb(24,24,24)" transform="matrix(0,-1,1,0,142.017,63.2345)" />
						<rect id="矩形 5172" width="0.433533" height="0.867067" x="0.000000" y="0.000000" rx="0.216767" opacity="0.800000012" fill="rgb(24,24,24)" transform="matrix(0,-1,1,0,142.017,58.032)" />
					</g>
					<g id="组合 8337">
						<rect id="矩形 5170" width="3.901800" height="0.867067" x="0.000000" y="0.000000" rx="0.433533" fill="rgb(24,24,24)" transform="matrix(0,-1,1,0,145.052,62.3673)" />
						<rect id="矩形 5171" width="0.433533" height="0.867067" x="0.000000" y="0.000000" rx="0.216767" opacity="0.800000012" fill="rgb(24,24,24)" transform="matrix(0,-1,1,0,145.052,63.2345)" />
						<rect id="矩形 5172" width="0.433533" height="0.867067" x="0.000000" y="0.000000" rx="0.216767" opacity="0.800000012" fill="rgb(24,24,24)" transform="matrix(0,-1,1,0,145.052,58.032)" />
					</g>
					<g id="组合 8323">
						<rect id="矩形 5170" width="3.901800" height="0.867067" x="0.000000" y="0.000000" rx="0.433533" fill="rgb(24,24,24)" transform="matrix(0,-1,1,0,148.086,62.3673)" />
						<rect id="矩形 5171" width="0.433533" height="0.867067" x="0.000000" y="0.000000" rx="0.216767" opacity="0.800000012" fill="rgb(24,24,24)" transform="matrix(0,-1,1,0,148.086,63.2345)" />
						<rect id="矩形 5172" width="0.433533" height="0.867067" x="0.000000" y="0.000000" rx="0.216767" opacity="0.800000012" fill="rgb(24,24,24)" transform="matrix(0,-1,1,0,148.086,58.032)" />
					</g>
					<g id="组合 8324">
						<rect id="矩形 5170" width="3.901800" height="0.867067" x="0.000000" y="0.000000" rx="0.433533" fill="rgb(24,24,24)" transform="matrix(0,-1,1,0,151.121,62.3673)" />
						<rect id="矩形 5171" width="0.433533" height="0.867067" x="0.000000" y="0.000000" rx="0.216767" opacity="0.800000012" fill="rgb(24,24,24)" transform="matrix(0,-1,1,0,151.121,63.2345)" />
						<rect id="矩形 5172" width="0.433533" height="0.867067" x="0.000000" y="0.000000" rx="0.216767" opacity="0.800000012" fill="rgb(24,24,24)" transform="matrix(0,-1,1,0,151.121,58.032)" />
					</g>
				</g>
			</g>
			<rect id="矩形 5792" width="32.000000" height="33.000000" x="136.600006" y="93.599976" rx="4.000000" opacity="0" fill="rgb(38,38,38)" />
			<g id="组合 91333972">
				<rect id="矩形 5765" width="50.819748" height="50.819748" x="0.413169" y="0.413169" rx="0.826337" opacity="0.799999952" stroke="rgb(86,79,75)" stroke-opacity="0" stroke-width="0.826337" transform="matrix(0,-1,1,0,14.6,97.2461)" />
				<rect id="矩形 5765" width="49.993412" height="49.993412" x="0.826337" y="0.826337" rx="0.413169" opacity="0.799999952" stroke="rgb(134,129,124)" stroke-opacity="0" stroke-width="0.826337" transform="matrix(0,-1,1,0,14.6,97.2461)" />
				<rect id="矩形 5765" width="49.993412" height="49.993412" x="0.826337" y="0.826337" rx="0.413169" opacity="0.799999952" stroke="rgb(26,26,27)" stroke-width="0.826337" transform="matrix(0,-1,1,0,14.6,97.2461)" />
				<rect id="矩形 5766" width="43.994812" height="43.994812" x="0.000000" y="0.000000" rx="2.160000" opacity="0.799999952" fill="rgb(26,26,27)" transform="matrix(0,-1,1,0,18.6,93.5947)" />
			</g>
		</g>
	</g>
</svg>
