<svg viewBox="0 0 18 18" xmlns="http://www.w3.org/2000/svg" xmlns:xlink="http://www.w3.org/1999/xlink" width="18.000000" height="18.000000" fill="none" customFrame="#000000">
	<defs>
		<filter id="pixso_custom_mask_type_alpha">
			<feColorMatrix type="matrix" values="0 0 0 0 1 0 0 0 0 1 0 0 0 0 1 0 0 0 1 0 " />
		</filter>
	</defs>
	<mask id="mask_15" width="16.000000" height="16.000000" x="1.000000" y="1.000000" maskUnits="userSpaceOnUse">
		<g filter="url(#pixso_custom_mask_type_alpha)">
			<circle id="椭圆 555" cx="9" cy="9" r="8" fill="rgb(61,207,212)" />
			<circle id="椭圆 555" cx="9" cy="9" r="7.5999999" stroke="rgb(0,0,0)" stroke-opacity="0" stroke-width="0.800000" />
		</g>
	</mask>
	<rect id="HiSport" width="16.000000" height="16.000000" x="1.000000" y="1.000000" />
	<circle id="椭圆 554" cx="9" cy="9" r="8" fill="rgb(84,112,198)" fill-opacity="0" />
	<circle id="椭圆 554" cx="9" cy="9" r="8.5" stroke="rgb(191,100,173)" stroke-width="1.000000" />
	<g id="蒙版" mask="url(#mask_15)">
		<rect id="矩形 2891" width="16.000000" height="10.000000" x="1.000000" y="4.000000" opacity="0.299999982" fill="rgb(57,75,133)" fill-opacity="0" />
		<g id="组合 4290">
			<path id="line(边框)" d="M1.00005 6L8 6.0011L7.99995 9L1 8.99883L1.00005 6Z" fill="rgb(191,100,173)" fill-rule="evenodd" />
			<path id="line(边框)" d="M10.0001 6L18 6.0011L17.9999 9L10 8.99883L10.0001 6Z" fill="rgb(191,100,173)" fill-rule="evenodd" />
			<path id="line(边框)" d="M1.00005 13L8 12.9989L7.99995 10L1 10.0012L1.00005 13Z" fill="rgb(191,100,173)" fill-rule="evenodd" />
			<path id="line(边框)" d="M10.0001 13L17 12.9989L16.9999 10L10 10.0012L10.0001 13Z" fill="rgb(191,100,173)" fill-rule="evenodd" />
		</g>
	</g>
</svg>
