<svg viewBox="0 0 18 18" xmlns="http://www.w3.org/2000/svg" xmlns:xlink="http://www.w3.org/1999/xlink" width="18.000000" height="18.000000" fill="none" customFrame="#000000">
	<defs>
		<filter id="pixso_custom_mask_type_alpha">
			<feColorMatrix type="matrix" values="0 0 0 0 1 0 0 0 0 1 0 0 0 0 1 0 0 0 1 0 " />
		</filter>
	</defs>
	<mask id="mask_11" width="16.000000" height="16.000000" x="1.000000" y="1.000000" maskUnits="userSpaceOnUse">
		<g filter="url(#pixso_custom_mask_type_alpha)">
			<circle id="椭圆 555" cx="9" cy="9" r="8" fill="rgb(169,180,204)" />
			<circle id="椭圆 555" cx="9" cy="9" r="7.5999999" stroke="rgb(0,0,0)" stroke-opacity="0" stroke-width="0.800000" />
		</g>
	</mask>
	<rect id="12C" width="16.000000" height="16.000000" x="1.000000" y="1.000000" />
	<circle id="椭圆 554" cx="9" cy="9" r="8" fill="rgb(114,104,225)" fill-opacity="0" />
	<circle id="椭圆 554" cx="9" cy="9" r="8.5" stroke="rgb(76,167,176)" stroke-width="1.000000" />
	<g id="蒙版" mask="url(#mask_11)">
		<rect id="矩形 2891" width="16.000000" height="10.000000" x="1.000000" y="4.000000" opacity="0" fill="rgb(77,66,129)" />
	</g>
	<g id="组合 8344">
		<rect id="矩形 5194" width="4.000000" height="2.000000" x="0.000000" y="0.000000" fill="rgb(76,167,176)" transform="matrix(0,1,1,0,10,7)" />
		<rect id="矩形 5197" width="6.000000" height="2.000000" x="0.000000" y="0.000000" fill="rgb(76,167,176)" transform="matrix(-1,0,0,1,17,8)" />
	</g>
	<g id="组合 8342">
		<rect id="矩形 5194" width="4.000000" height="2.000000" x="0.000000" y="0.000000" fill="rgb(76,167,176)" transform="matrix(0,1,-1,0,8,7)" />
		<rect id="矩形 5197" width="6.000000" height="2.000000" x="1.000000" y="8.000000" fill="rgb(76,167,176)" />
	</g>
</svg>
