<svg viewBox="0 0 18 18" xmlns="http://www.w3.org/2000/svg" xmlns:xlink="http://www.w3.org/1999/xlink" width="18.000000" height="18.000000" fill="none" customFrame="#000000">
	<defs>
		<filter id="pixso_custom_mask_type_alpha">
			<feColorMatrix type="matrix" values="0 0 0 0 1 0 0 0 0 1 0 0 0 0 1 0 0 0 1 0 " />
		</filter>
	</defs>
	<mask id="mask_14" width="16.000000" height="16.000000" x="1.000000" y="1.000000" maskUnits="userSpaceOnUse">
		<g filter="url(#pixso_custom_mask_type_alpha)">
			<circle id="椭圆 555" cx="9" cy="9" r="8" fill="rgb(114,104,225)" />
			<circle id="椭圆 555" cx="9" cy="9" r="7.5999999" stroke="rgb(0,0,0)" stroke-opacity="0" stroke-width="0.800000" />
		</g>
	</mask>
	<rect id="HiSport" width="16.000000" height="16.000000" x="1.000000" y="1.000000" />
	<circle id="椭圆 554" cx="9" cy="9" r="8" fill="rgb(84,112,198)" fill-opacity="0" />
	<circle id="椭圆 554" cx="9" cy="9" r="8.5" stroke="rgb(114,104,225)" stroke-width="1.000000" />
	<g id="蒙版" mask="url(#mask_14)">
		<rect id="矩形 2891" width="16.000000" height="10.000000" x="1.000000" y="4.000000" opacity="0.299999982" fill="rgb(57,75,133)" fill-opacity="0" />
		<path id="减去顶层" d="M1.00012 6L17.0001 6.00098L17 8.66766L10.9724 8.66727C10.814 7.72107 9.9912 7 9 7C8.00889 7 7.18615 7.72094 7.0276 8.66701L1 8.66662L1.00012 6ZM7.26737 9.99965L1 10.0001L1.00012 12.6667L17.0001 12.6657L17 9.99902L10.7328 9.99943C10.387 10.5975 9.74051 11 9 11C8.25958 11 7.61313 10.5976 7.26737 9.99965Z" fill="rgb(114,104,225)" fill-rule="evenodd" />
	</g>
</svg>
