<svg viewBox="0 0 18 18" xmlns="http://www.w3.org/2000/svg" xmlns:xlink="http://www.w3.org/1999/xlink" width="18.000000" height="18.000000" fill="none" customFrame="#000000">
	<defs>
		<filter id="pixso_custom_mask_type_alpha">
			<feColorMatrix type="matrix" values="0 0 0 0 1 0 0 0 0 1 0 0 0 0 1 0 0 0 1 0 " />
		</filter>
	</defs>
	<mask id="mask_2" width="16.000000" height="16.000000" x="1.000000" y="1.000000" maskUnits="userSpaceOnUse">
		<g filter="url(#pixso_custom_mask_type_alpha)">
			<circle id="椭圆 555" cx="9" cy="9" r="8" fill="rgb(106,166,222)" />
			<circle id="椭圆 555" cx="9" cy="9" r="7.5999999" stroke="rgb(0,0,0)" stroke-opacity="0" stroke-width="0.800000" />
		</g>
	</mask>
	<rect id="JTAG" width="16.000000" height="16.000000" x="1.000000" y="1.000000" />
	<circle id="椭圆 554" cx="9" cy="9" r="8" fill="rgb(106,166,222)" fill-opacity="0" />
	<circle id="椭圆 554" cx="9" cy="9" r="8.5" stroke="rgb(106,166,222)" stroke-width="1.000000" />
	<g id="蒙版" mask="url(#mask_2)">
		<rect id="矩形 2891" width="16.000000" height="10.000000" x="1.000000" y="4.000000" opacity="0.5" fill="rgb(86,134,179)" fill-opacity="0" />
		<g id="组合 4290">
			<path id="line(边框)" d="M1.00012 6.68018L17.0001 6.6792L17 5.6792L1 5.68018L1.00012 6.68018Z" fill="rgb(106,166,222)" fill-rule="evenodd" />
			<path id="line(边框)" d="M1.00012 10.438L17.0001 10.437L17 9.43701L1 9.43799L1.00012 10.438Z" fill="rgb(106,166,222)" fill-rule="evenodd" />
			<path id="line(边框)" d="M1.00012 8.55908L17.0001 8.55811L17 7.55811L1 7.55908L1.00012 8.55908Z" fill="rgb(106,166,222)" fill-rule="evenodd" />
			<path id="line(边框)" d="M1.00012 12.3169L17.0001 12.3159L17 11.3159L1 11.3169L1.00012 12.3169Z" fill="rgb(106,166,222)" fill-rule="evenodd" />
		</g>
	</g>
</svg>
