<svg viewBox="0 0 18 18" xmlns="http://www.w3.org/2000/svg" xmlns:xlink="http://www.w3.org/1999/xlink" width="18.000000" height="18.000000" fill="none" customFrame="#000000">
	<defs>
		<filter id="pixso_custom_mask_type_alpha">
			<feColorMatrix type="matrix" values="0 0 0 0 1 0 0 0 0 1 0 0 0 0 1 0 0 0 1 0 " />
		</filter>
	</defs>
	<mask id="mask_4" width="16.000000" height="16.000000" x="1.000000" y="1.000000" maskUnits="userSpaceOnUse">
		<g filter="url(#pixso_custom_mask_type_alpha)">
			<circle id="椭圆 555" cx="9" cy="9" r="8" fill="rgb(61,207,212)" />
			<circle id="椭圆 555" cx="9" cy="9" r="7.5999999" stroke="rgb(0,0,0)" stroke-opacity="0" stroke-width="0.800000" />
		</g>
	</mask>
	<rect id="PWM" width="16.000000" height="16.000000" x="1.000000" y="1.000000" />
	<circle id="椭圆 554" cx="9" cy="9" r="8" fill="rgb(106,145,255)" fill-opacity="0" />
	<circle id="椭圆 554" cx="9" cy="9" r="8.5" stroke="rgb(106,145,255)" stroke-width="1.000000" />
	<g id="蒙版" mask="url(#mask_4)">
		<rect id="矩形 2891" width="16.000000" height="10.000000" x="1.000000" y="4.000000" opacity="0.299999982" fill="rgb(64,91,167)" fill-opacity="0" />
		<g id="组合 4290">
			<path id="line(边框)" d="M17.0001 10L13.5715 10.0002L9.00012 10.0005C8.33344 10.0005 8.00012 9.66718 8.00006 9.00055C8 8.33386 8.33331 8.00049 9 8.00049L13.5714 8.00018L17 8L17.0001 10ZM4.42871 10.0007L1.00012 10.001L1 8.00098L4.42859 8.00073C5.09521 8.00073 5.42859 8.33405 5.42865 9.00067C5.42865 9.66736 5.09534 10.0007 4.42871 10.0007Z" fill="rgb(106,145,255)" fill-rule="evenodd" />
		</g>
	</g>
</svg>
