<svg viewBox="0 0 82 60" xmlns="http://www.w3.org/2000/svg" xmlns:xlink="http://www.w3.org/1999/xlink" width="82.000000" height="60.000000" fill="none" customFrame="#000000">
	<defs>
		<clipPath id="clipPath_31">
			<rect width="53.121952" height="6.439024" x="14.438965" y="12.000000" fill="rgb(255,255,255)" />
		</clipPath>
		<linearGradient id="paint_linear_235" x1="66.2693024" x2="66.2937469" y1="18.7117195" y2="11.389926" gradientUnits="userSpaceOnUse">
			<stop stop-color="rgb(0,0,0)" offset="0" stop-opacity="0.5" />
			<stop stop-color="rgb(242,241,241)" offset="0.463651955" stop-opacity="1" />
			<stop stop-color="rgb(243,242,242)" offset="1" stop-opacity="0" />
		</linearGradient>
		<linearGradient id="paint_linear_236" x1="60.6350212" x2="60.6594696" y1="18.7117195" y2="11.389926" gradientUnits="userSpaceOnUse">
			<stop stop-color="rgb(0,0,0)" offset="0" stop-opacity="0.5" />
			<stop stop-color="rgb(242,241,241)" offset="0.463651955" stop-opacity="1" />
			<stop stop-color="rgb(243,242,242)" offset="1" stop-opacity="0" />
		</linearGradient>
		<linearGradient id="paint_linear_237" x1="55.0007439" x2="55.0251923" y1="18.7117195" y2="11.389926" gradientUnits="userSpaceOnUse">
			<stop stop-color="rgb(0,0,0)" offset="0" stop-opacity="0.5" />
			<stop stop-color="rgb(242,241,241)" offset="0.463651955" stop-opacity="1" />
			<stop stop-color="rgb(243,242,242)" offset="1" stop-opacity="0" />
		</linearGradient>
		<linearGradient id="paint_linear_238" x1="49.3667107" x2="49.3911591" y1="18.7117195" y2="11.389926" gradientUnits="userSpaceOnUse">
			<stop stop-color="rgb(0,0,0)" offset="0" stop-opacity="0.5" />
			<stop stop-color="rgb(242,241,241)" offset="0.463651955" stop-opacity="1" />
			<stop stop-color="rgb(243,242,242)" offset="1" stop-opacity="0" />
		</linearGradient>
		<linearGradient id="paint_linear_239" x1="43.7326775" x2="43.7571259" y1="18.7117195" y2="11.389926" gradientUnits="userSpaceOnUse">
			<stop stop-color="rgb(0,0,0)" offset="0" stop-opacity="0.5" />
			<stop stop-color="rgb(242,241,241)" offset="0.463651955" stop-opacity="1" />
			<stop stop-color="rgb(243,242,242)" offset="1" stop-opacity="0" />
		</linearGradient>
		<linearGradient id="paint_linear_240" x1="38.0984001" x2="38.1228485" y1="18.7117195" y2="11.389926" gradientUnits="userSpaceOnUse">
			<stop stop-color="rgb(0,0,0)" offset="0" stop-opacity="0.5" />
			<stop stop-color="rgb(242,241,241)" offset="0.463651955" stop-opacity="1" />
			<stop stop-color="rgb(243,242,242)" offset="1" stop-opacity="0" />
		</linearGradient>
		<linearGradient id="paint_linear_241" x1="32.4641228" x2="32.4885712" y1="18.7117195" y2="11.389926" gradientUnits="userSpaceOnUse">
			<stop stop-color="rgb(0,0,0)" offset="0" stop-opacity="0.5" />
			<stop stop-color="rgb(242,241,241)" offset="0.463651955" stop-opacity="1" />
			<stop stop-color="rgb(243,242,242)" offset="1" stop-opacity="0" />
		</linearGradient>
		<linearGradient id="paint_linear_242" x1="26.8300915" x2="26.854538" y1="18.7117195" y2="11.389926" gradientUnits="userSpaceOnUse">
			<stop stop-color="rgb(0,0,0)" offset="0" stop-opacity="0.5" />
			<stop stop-color="rgb(242,241,241)" offset="0.463651955" stop-opacity="1" />
			<stop stop-color="rgb(243,242,242)" offset="1" stop-opacity="0" />
		</linearGradient>
		<linearGradient id="paint_linear_243" x1="21.1960583" x2="21.2205048" y1="18.7117195" y2="11.389926" gradientUnits="userSpaceOnUse">
			<stop stop-color="rgb(0,0,0)" offset="0" stop-opacity="0.5" />
			<stop stop-color="rgb(242,241,241)" offset="0.463651955" stop-opacity="1" />
			<stop stop-color="rgb(243,242,242)" offset="1" stop-opacity="0" />
		</linearGradient>
		<linearGradient id="paint_linear_244" x1="15.56178" x2="15.5862284" y1="18.7117195" y2="11.389926" gradientUnits="userSpaceOnUse">
			<stop stop-color="rgb(0,0,0)" offset="0" stop-opacity="0.5" />
			<stop stop-color="rgb(242,241,241)" offset="0.463651955" stop-opacity="1" />
			<stop stop-color="rgb(243,242,242)" offset="1" stop-opacity="0" />
		</linearGradient>
		<clipPath id="clipPath_32">
			<rect width="53.121952" height="6.439024" x="0.000000" y="0.000000" fill="rgb(255,255,255)" transform="matrix(1,0,0,-1,14.439,47.4148)" />
		</clipPath>
		<linearGradient id="paint_linear_245" x1="1.12281525" x2="1.14726353" y1="6.71171904" y2="-0.610074043" gradientUnits="userSpaceOnUse">
			<stop stop-color="rgb(0,0,0)" offset="0" stop-opacity="0.5" />
			<stop stop-color="rgb(242,241,241)" offset="0.463651955" stop-opacity="1" />
			<stop stop-color="rgb(243,242,242)" offset="1" stop-opacity="0" />
		</linearGradient>
		<linearGradient id="paint_linear_246" x1="1.12281525" x2="1.14726353" y1="6.71171904" y2="-0.610074043" gradientUnits="userSpaceOnUse">
			<stop stop-color="rgb(0,0,0)" offset="0" stop-opacity="0.5" />
			<stop stop-color="rgb(242,241,241)" offset="0.463651955" stop-opacity="1" />
			<stop stop-color="rgb(243,242,242)" offset="1" stop-opacity="0" />
		</linearGradient>
		<linearGradient id="paint_linear_247" x1="1.12281525" x2="1.14726353" y1="6.71171904" y2="-0.610074043" gradientUnits="userSpaceOnUse">
			<stop stop-color="rgb(0,0,0)" offset="0" stop-opacity="0.5" />
			<stop stop-color="rgb(242,241,241)" offset="0.463651955" stop-opacity="1" />
			<stop stop-color="rgb(243,242,242)" offset="1" stop-opacity="0" />
		</linearGradient>
		<linearGradient id="paint_linear_248" x1="1.12281525" x2="1.14726353" y1="6.71171904" y2="-0.610074043" gradientUnits="userSpaceOnUse">
			<stop stop-color="rgb(0,0,0)" offset="0" stop-opacity="0.5" />
			<stop stop-color="rgb(242,241,241)" offset="0.463651955" stop-opacity="1" />
			<stop stop-color="rgb(243,242,242)" offset="1" stop-opacity="0" />
		</linearGradient>
		<linearGradient id="paint_linear_249" x1="1.12281525" x2="1.14726353" y1="6.71171904" y2="-0.610074043" gradientUnits="userSpaceOnUse">
			<stop stop-color="rgb(0,0,0)" offset="0" stop-opacity="0.5" />
			<stop stop-color="rgb(242,241,241)" offset="0.463651955" stop-opacity="1" />
			<stop stop-color="rgb(243,242,242)" offset="1" stop-opacity="0" />
		</linearGradient>
		<linearGradient id="paint_linear_250" x1="1.12281525" x2="1.14726353" y1="6.71171904" y2="-0.610074043" gradientUnits="userSpaceOnUse">
			<stop stop-color="rgb(0,0,0)" offset="0" stop-opacity="0.5" />
			<stop stop-color="rgb(242,241,241)" offset="0.463651955" stop-opacity="1" />
			<stop stop-color="rgb(243,242,242)" offset="1" stop-opacity="0" />
		</linearGradient>
		<linearGradient id="paint_linear_251" x1="1.12281525" x2="1.14726353" y1="6.71171904" y2="-0.610074043" gradientUnits="userSpaceOnUse">
			<stop stop-color="rgb(0,0,0)" offset="0" stop-opacity="0.5" />
			<stop stop-color="rgb(242,241,241)" offset="0.463651955" stop-opacity="1" />
			<stop stop-color="rgb(243,242,242)" offset="1" stop-opacity="0" />
		</linearGradient>
		<linearGradient id="paint_linear_252" x1="1.12281525" x2="1.14726353" y1="6.71171904" y2="-0.610074043" gradientUnits="userSpaceOnUse">
			<stop stop-color="rgb(0,0,0)" offset="0" stop-opacity="0.5" />
			<stop stop-color="rgb(242,241,241)" offset="0.463651955" stop-opacity="1" />
			<stop stop-color="rgb(243,242,242)" offset="1" stop-opacity="0" />
		</linearGradient>
		<linearGradient id="paint_linear_253" x1="1.12281525" x2="1.14726353" y1="6.71171904" y2="-0.610074043" gradientUnits="userSpaceOnUse">
			<stop stop-color="rgb(0,0,0)" offset="0" stop-opacity="0.5" />
			<stop stop-color="rgb(242,241,241)" offset="0.463651955" stop-opacity="1" />
			<stop stop-color="rgb(243,242,242)" offset="1" stop-opacity="0" />
		</linearGradient>
		<linearGradient id="paint_linear_254" x1="1.12281525" x2="1.14726353" y1="6.71171904" y2="-0.610074043" gradientUnits="userSpaceOnUse">
			<stop stop-color="rgb(0,0,0)" offset="0" stop-opacity="0.5" />
			<stop stop-color="rgb(242,241,241)" offset="0.463651955" stop-opacity="1" />
			<stop stop-color="rgb(243,242,242)" offset="1" stop-opacity="0" />
		</linearGradient>
		<linearGradient id="paint_linear_255" x1="55.97715" x2="24.474575" y1="30.1098881" y2="14.4227791" gradientUnits="userSpaceOnUse">
			<stop stop-color="rgb(130,145.345,219)" offset="0" stop-opacity="1" />
			<stop stop-color="rgb(198.732,211.93,252.723)" offset="1" stop-opacity="1" />
		</linearGradient>
		<linearGradient id="paint_linear_256" x1="55.9771881" x2="24.4745941" y1="30.1099586" y2="14.422823" gradientUnits="userSpaceOnUse">
			<stop stop-color="rgb(130,145.345,219)" offset="0" stop-opacity="1" />
			<stop stop-color="rgb(198.732,211.93,252.723)" offset="1" stop-opacity="1" />
		</linearGradient>
		<linearGradient id="paint_linear_257" x1="55.9773712" x2="24.4747925" y1="30.1099033" y2="14.4227896" gradientUnits="userSpaceOnUse">
			<stop stop-color="rgb(130,145.345,219)" offset="0" stop-opacity="1" />
			<stop stop-color="rgb(198.732,211.93,252.723)" offset="1" stop-opacity="1" />
		</linearGradient>
		<linearGradient id="paint_linear_258" x1="55.9772339" x2="24.4746647" y1="30.1098862" y2="14.4227791" gradientUnits="userSpaceOnUse">
			<stop stop-color="rgb(130,145.345,219)" offset="0" stop-opacity="1" />
			<stop stop-color="rgb(198.732,211.93,252.723)" offset="1" stop-opacity="1" />
		</linearGradient>
		<linearGradient id="paint_linear_259" x1="55.9773293" x2="24.4747314" y1="30.1098881" y2="14.4227524" gradientUnits="userSpaceOnUse">
			<stop stop-color="rgb(130,145.345,219)" offset="0" stop-opacity="1" />
			<stop stop-color="rgb(198.732,211.93,252.723)" offset="1" stop-opacity="1" />
		</linearGradient>
		<linearGradient id="paint_linear_260" x1="31.4301243" x2="31.4301243" y1="27.1999512" y2="33.0194702" gradientUnits="userSpaceOnUse">
			<stop stop-color="rgb(42,44,68)" offset="0" stop-opacity="1" />
			<stop stop-color="rgb(86.1143,88.7724,120.67)" offset="0.530903637" stop-opacity="1" />
			<stop stop-color="rgb(37,40,64)" offset="1" stop-opacity="1" />
		</linearGradient>
		<linearGradient id="paint_linear_261" x1="36.3959732" x2="36.3959732" y1="27.1989746" y2="33.0195541" gradientUnits="userSpaceOnUse">
			<stop stop-color="rgb(42,44,68)" offset="0" stop-opacity="1" />
			<stop stop-color="rgb(86.1143,88.7724,120.67)" offset="0.530903637" stop-opacity="1" />
			<stop stop-color="rgb(37,40,64)" offset="1" stop-opacity="1" />
		</linearGradient>
		<linearGradient id="paint_linear_262" x1="41.1266556" x2="41.1266556" y1="27.1987305" y2="33.0195465" gradientUnits="userSpaceOnUse">
			<stop stop-color="rgb(42,44,68)" offset="0" stop-opacity="1" />
			<stop stop-color="rgb(86.1143,88.7724,120.67)" offset="0.530903637" stop-opacity="1" />
			<stop stop-color="rgb(37,40,64)" offset="1" stop-opacity="1" />
		</linearGradient>
		<linearGradient id="paint_linear_263" x1="46.0002975" x2="46.0002975" y1="27.1999512" y2="33.0194702" gradientUnits="userSpaceOnUse">
			<stop stop-color="rgb(42,44,68)" offset="0" stop-opacity="1" />
			<stop stop-color="rgb(86.1143,88.7724,120.67)" offset="0.530903637" stop-opacity="1" />
			<stop stop-color="rgb(37,40,64)" offset="1" stop-opacity="1" />
		</linearGradient>
		<linearGradient id="paint_linear_264" x1="50.5613708" x2="50.5613708" y1="27.1999512" y2="33.0194702" gradientUnits="userSpaceOnUse">
			<stop stop-color="rgb(42,44,68)" offset="0" stop-opacity="1" />
			<stop stop-color="rgb(86.1143,88.7724,120.67)" offset="0.530903637" stop-opacity="1" />
			<stop stop-color="rgb(37,40,64)" offset="1" stop-opacity="1" />
		</linearGradient>
	</defs>
	<rect id="属性 1=Ads78" width="82.000000" height="60.000000" x="0.000000" y="0.000000" />
	<g id="组合 8230">
		<rect id="矩形 3096" width="82.000000" height="60.000000" x="0.000000" y="0.000000" rx="4.000000" opacity="0" fill="rgb(24,27,32)" />
		<g id="组合 91333974">
			<g id="画板 1659" customFrame="url(#clipPath_31)">
				<rect id="画板 1659" width="53.121952" height="6.439024" x="14.438965" y="12.000000" fill="rgb(255,255,255)" fill-opacity="0" />
				<path id="矩形 3071" d="M65.8543 12L66.8533 12C67.2442 12 67.5611 12.3169 67.5611 12.7078L67.5611 18.439L65.1465 18.439L65.1465 12.7078C65.1465 12.3169 65.4634 12 65.8543 12Z" fill="rgb(182,182,182)" fill-rule="evenodd" />
				<path id="矩形 3071" d="M65.8543 12L66.8533 12C67.2442 12 67.5611 12.3169 67.5611 12.7078L67.5611 18.439L65.1465 18.439L65.1465 12.7078C65.1465 12.3169 65.4634 12 65.8543 12Z" fill="url(#paint_linear_235)" fill-opacity="0.600000024" fill-rule="evenodd" />
				<path id="矩形 3073" d="M60.22 12L61.219 12C61.6099 12 61.9268 12.3169 61.9268 12.7078L61.9268 18.439L59.5122 18.439L59.5122 12.7078C59.5122 12.3169 59.8291 12 60.22 12Z" fill="rgb(182,182,182)" fill-rule="evenodd" />
				<path id="矩形 3073" d="M60.22 12L61.219 12C61.6099 12 61.9268 12.3169 61.9268 12.7078L61.9268 18.439L59.5122 18.439L59.5122 12.7078C59.5122 12.3169 59.8291 12 60.22 12Z" fill="url(#paint_linear_236)" fill-opacity="0.600000024" fill-rule="evenodd" />
				<path id="矩形 3072" d="M54.5858 12L55.5847 12C55.9757 12 56.2926 12.3169 56.2926 12.7078L56.2926 18.439L53.8779 18.439L53.8779 12.7078C53.8779 12.3169 54.1948 12 54.5858 12Z" fill="rgb(182,182,182)" fill-rule="evenodd" />
				<path id="矩形 3072" d="M54.5858 12L55.5847 12C55.9757 12 56.2926 12.3169 56.2926 12.7078L56.2926 18.439L53.8779 18.439L53.8779 12.7078C53.8779 12.3169 54.1948 12 54.5858 12Z" fill="url(#paint_linear_237)" fill-opacity="0.600000024" fill-rule="evenodd" />
				<path id="矩形 3070" d="M48.9517 12L49.9507 12C50.3416 12 50.6585 12.3169 50.6585 12.7078L50.6585 18.439L48.2439 18.439L48.2439 12.7078C48.2439 12.3169 48.5608 12 48.9517 12Z" fill="rgb(182,182,182)" fill-rule="evenodd" />
				<path id="矩形 3070" d="M48.9517 12L49.9507 12C50.3416 12 50.6585 12.3169 50.6585 12.7078L50.6585 18.439L48.2439 18.439L48.2439 12.7078C48.2439 12.3169 48.5608 12 48.9517 12Z" fill="url(#paint_linear_238)" fill-opacity="0.600000024" fill-rule="evenodd" />
				<path id="矩形 3069" d="M43.3177 12L44.3167 12C44.7076 12 45.0245 12.3169 45.0245 12.7078L45.0245 18.439L42.6099 18.439L42.6099 12.7078C42.6099 12.3169 42.9268 12 43.3177 12Z" fill="rgb(182,182,182)" fill-rule="evenodd" />
				<path id="矩形 3069" d="M43.3177 12L44.3167 12C44.7076 12 45.0245 12.3169 45.0245 12.7078L45.0245 18.439L42.6099 18.439L42.6099 12.7078C42.6099 12.3169 42.9268 12 43.3177 12Z" fill="url(#paint_linear_239)" fill-opacity="0.600000024" fill-rule="evenodd" />
				<path id="矩形 3068" d="M37.6834 12L38.6824 12C39.0733 12 39.3902 12.3169 39.3902 12.7078L39.3902 18.439L36.9756 18.439L36.9756 12.7078C36.9756 12.3169 37.2925 12 37.6834 12Z" fill="rgb(182,182,182)" fill-rule="evenodd" />
				<path id="矩形 3068" d="M37.6834 12L38.6824 12C39.0733 12 39.3902 12.3169 39.3902 12.7078L39.3902 18.439L36.9756 18.439L36.9756 12.7078C36.9756 12.3169 37.2925 12 37.6834 12Z" fill="url(#paint_linear_240)" fill-opacity="0.600000024" fill-rule="evenodd" />
				<path id="矩形 3067" d="M32.0491 12L33.0481 12C33.439 12 33.7559 12.3169 33.7559 12.7078L33.7559 18.439L31.3413 18.439L31.3413 12.7078C31.3413 12.3169 31.6582 12 32.0491 12Z" fill="rgb(182,182,182)" fill-rule="evenodd" />
				<path id="矩形 3067" d="M32.0491 12L33.0481 12C33.439 12 33.7559 12.3169 33.7559 12.7078L33.7559 18.439L31.3413 18.439L31.3413 12.7078C31.3413 12.3169 31.6582 12 32.0491 12Z" fill="url(#paint_linear_241)" fill-opacity="0.600000024" fill-rule="evenodd" />
				<path id="矩形 3067" d="M26.4151 12L27.4141 12C27.805 12 28.1219 12.3169 28.1219 12.7078L28.1219 18.439L25.7073 18.439L25.7073 12.7078C25.7073 12.3169 26.0242 12 26.4151 12Z" fill="rgb(182,182,182)" fill-rule="evenodd" />
				<path id="矩形 3067" d="M26.4151 12L27.4141 12C27.805 12 28.1219 12.3169 28.1219 12.7078L28.1219 18.439L25.7073 18.439L25.7073 12.7078C25.7073 12.3169 26.0242 12 26.4151 12Z" fill="url(#paint_linear_242)" fill-opacity="0.600000024" fill-rule="evenodd" />
				<path id="矩形 3067" d="M20.7811 12L21.78 12C22.171 12 22.4879 12.3169 22.4879 12.7078L22.4879 18.439L20.0732 18.439L20.0732 12.7078C20.0732 12.3169 20.3901 12 20.7811 12Z" fill="rgb(182,182,182)" fill-rule="evenodd" />
				<path id="矩形 3067" d="M20.7811 12L21.78 12C22.171 12 22.4879 12.3169 22.4879 12.7078L22.4879 18.439L20.0732 18.439L20.0732 12.7078C20.0732 12.3169 20.3901 12 20.7811 12Z" fill="url(#paint_linear_243)" fill-opacity="0.600000024" fill-rule="evenodd" />
				<path id="矩形 3067" d="M15.1468 12L16.1458 12C16.5367 12 16.8536 12.3169 16.8536 12.7078L16.8536 18.439L14.439 18.439L14.439 12.7078C14.439 12.3169 14.7559 12 15.1468 12Z" fill="rgb(182,182,182)" fill-rule="evenodd" />
				<path id="矩形 3067" d="M15.1468 12L16.1458 12C16.5367 12 16.8536 12.3169 16.8536 12.7078L16.8536 18.439L14.439 18.439L14.439 12.7078C14.439 12.3169 14.7559 12 15.1468 12Z" fill="url(#paint_linear_244)" fill-opacity="0.600000024" fill-rule="evenodd" />
			</g>
			<g id="画板 1660" customFrame="url(#clipPath_32)">
				<rect id="画板 1660" width="53.121952" height="6.439024" x="0.000000" y="0.000000" fill="rgb(255,255,255)" fill-opacity="0" transform="matrix(1,0,0,-1,14.439,47.4148)" />
				<path id="矩形 3071" d="M0.707828 0L1.70681 0C2.09773 0 2.41463 0.316905 2.41463 0.707828L2.41463 6.43902L0 6.43902L0 0.707828C0 0.316905 0.316905 0 0.707828 0Z" fill="rgb(182,182,182)" fill-rule="evenodd" transform="matrix(1,0,0,-1,65.1465,47.4148)" />
				<path id="矩形 3071" d="M0.707828 0L1.70681 0C2.09773 0 2.41463 0.316905 2.41463 0.707828L2.41463 6.43902L0 6.43902L0 0.707828C0 0.316905 0.316905 0 0.707828 0Z" fill="url(#paint_linear_245)" fill-opacity="0.600000024" fill-rule="evenodd" transform="matrix(1,0,0,-1,65.1465,47.4148)" />
				<path id="矩形 3073" d="M0.707828 0L1.70681 0C2.09773 0 2.41463 0.316905 2.41463 0.707828L2.41463 6.43902L0 6.43902L0 0.707828C0 0.316905 0.316905 0 0.707828 0Z" fill="rgb(182,182,182)" fill-rule="evenodd" transform="matrix(1,0,0,-1,59.5122,47.4148)" />
				<path id="矩形 3073" d="M0.707828 0L1.70681 0C2.09773 0 2.41463 0.316905 2.41463 0.707828L2.41463 6.43902L0 6.43902L0 0.707828C0 0.316905 0.316905 0 0.707828 0Z" fill="url(#paint_linear_246)" fill-opacity="0.600000024" fill-rule="evenodd" transform="matrix(1,0,0,-1,59.5122,47.4148)" />
				<path id="矩形 3072" d="M0.707828 0L1.70681 0C2.09773 0 2.41463 0.316905 2.41463 0.707828L2.41463 6.43902L0 6.43902L0 0.707828C0 0.316905 0.316905 0 0.707828 0Z" fill="rgb(182,182,182)" fill-rule="evenodd" transform="matrix(1,0,0,-1,53.8779,47.4148)" />
				<path id="矩形 3072" d="M0.707828 0L1.70681 0C2.09773 0 2.41463 0.316905 2.41463 0.707828L2.41463 6.43902L0 6.43902L0 0.707828C0 0.316905 0.316905 0 0.707828 0Z" fill="url(#paint_linear_247)" fill-opacity="0.600000024" fill-rule="evenodd" transform="matrix(1,0,0,-1,53.8779,47.4148)" />
				<path id="矩形 3070" d="M0.707828 0L1.70681 0C2.09773 0 2.41463 0.316905 2.41463 0.707828L2.41463 6.43902L0 6.43902L0 0.707828C0 0.316905 0.316905 0 0.707828 0Z" fill="rgb(182,182,182)" fill-rule="evenodd" transform="matrix(1,0,0,-1,48.2439,47.4148)" />
				<path id="矩形 3070" d="M0.707828 0L1.70681 0C2.09773 0 2.41463 0.316905 2.41463 0.707828L2.41463 6.43902L0 6.43902L0 0.707828C0 0.316905 0.316905 0 0.707828 0Z" fill="url(#paint_linear_248)" fill-opacity="0.600000024" fill-rule="evenodd" transform="matrix(1,0,0,-1,48.2439,47.4148)" />
				<path id="矩形 3069" d="M0.707828 0L1.70681 0C2.09773 0 2.41463 0.316905 2.41463 0.707828L2.41463 6.43902L0 6.43902L0 0.707828C0 0.316905 0.316905 0 0.707828 0Z" fill="rgb(182,182,182)" fill-rule="evenodd" transform="matrix(1,0,0,-1,42.6099,47.4148)" />
				<path id="矩形 3069" d="M0.707828 0L1.70681 0C2.09773 0 2.41463 0.316905 2.41463 0.707828L2.41463 6.43902L0 6.43902L0 0.707828C0 0.316905 0.316905 0 0.707828 0Z" fill="url(#paint_linear_249)" fill-opacity="0.600000024" fill-rule="evenodd" transform="matrix(1,0,0,-1,42.6099,47.4148)" />
				<path id="矩形 3068" d="M0.707828 0L1.70681 0C2.09773 0 2.41463 0.316905 2.41463 0.707828L2.41463 6.43902L0 6.43902L0 0.707828C0 0.316905 0.316905 0 0.707828 0Z" fill="rgb(182,182,182)" fill-rule="evenodd" transform="matrix(1,0,0,-1,36.9756,47.4148)" />
				<path id="矩形 3068" d="M0.707828 0L1.70681 0C2.09773 0 2.41463 0.316905 2.41463 0.707828L2.41463 6.43902L0 6.43902L0 0.707828C0 0.316905 0.316905 0 0.707828 0Z" fill="url(#paint_linear_250)" fill-opacity="0.600000024" fill-rule="evenodd" transform="matrix(1,0,0,-1,36.9756,47.4148)" />
				<path id="矩形 3067" d="M0.707828 0L1.70681 0C2.09773 0 2.41463 0.316905 2.41463 0.707828L2.41463 6.43902L0 6.43902L0 0.707828C0 0.316905 0.316905 0 0.707828 0Z" fill="rgb(182,182,182)" fill-rule="evenodd" transform="matrix(1,0,0,-1,31.3413,47.4148)" />
				<path id="矩形 3067" d="M0.707828 0L1.70681 0C2.09773 0 2.41463 0.316905 2.41463 0.707828L2.41463 6.43902L0 6.43902L0 0.707828C0 0.316905 0.316905 0 0.707828 0Z" fill="url(#paint_linear_251)" fill-opacity="0.600000024" fill-rule="evenodd" transform="matrix(1,0,0,-1,31.3413,47.4148)" />
				<path id="矩形 3067" d="M0.707828 0L1.70681 0C2.09773 0 2.41463 0.316905 2.41463 0.707828L2.41463 6.43902L0 6.43902L0 0.707828C0 0.316905 0.316905 0 0.707828 0Z" fill="rgb(182,182,182)" fill-rule="evenodd" transform="matrix(1,0,0,-1,25.7073,47.4148)" />
				<path id="矩形 3067" d="M0.707828 0L1.70681 0C2.09773 0 2.41463 0.316905 2.41463 0.707828L2.41463 6.43902L0 6.43902L0 0.707828C0 0.316905 0.316905 0 0.707828 0Z" fill="url(#paint_linear_252)" fill-opacity="0.600000024" fill-rule="evenodd" transform="matrix(1,0,0,-1,25.7073,47.4148)" />
				<path id="矩形 3067" d="M0.707828 0L1.70681 0C2.09773 0 2.41463 0.316905 2.41463 0.707828L2.41463 6.43902L0 6.43902L0 0.707828C0 0.316905 0.316905 0 0.707828 0Z" fill="rgb(182,182,182)" fill-rule="evenodd" transform="matrix(1,0,0,-1,20.0732,47.4148)" />
				<path id="矩形 3067" d="M0.707828 0L1.70681 0C2.09773 0 2.41463 0.316905 2.41463 0.707828L2.41463 6.43902L0 6.43902L0 0.707828C0 0.316905 0.316905 0 0.707828 0Z" fill="url(#paint_linear_253)" fill-opacity="0.600000024" fill-rule="evenodd" transform="matrix(1,0,0,-1,20.0732,47.4148)" />
				<path id="矩形 3067" d="M0.707828 0L1.70681 0C2.09773 0 2.41463 0.316905 2.41463 0.707828L2.41463 6.43902L0 6.43902L0 0.707828C0 0.316905 0.316905 0 0.707828 0Z" fill="rgb(182,182,182)" fill-rule="evenodd" transform="matrix(1,0,0,-1,14.439,47.4148)" />
				<path id="矩形 3067" d="M0.707828 0L1.70681 0C2.09773 0 2.41463 0.316905 2.41463 0.707828L2.41463 6.43902L0 6.43902L0 0.707828C0 0.316905 0.316905 0 0.707828 0Z" fill="url(#paint_linear_254)" fill-opacity="0.600000024" fill-rule="evenodd" transform="matrix(1,0,0,-1,14.439,47.4148)" />
			</g>
			<rect id="矩形 5799" width="66.000000" height="23.341463" x="8.000000" y="17.634277" rx="3.219512" fill="rgb(0,0,0)" />
			<rect id="矩形 5799" width="64.792686" height="22.134146" x="8.603659" y="18.237936" rx="2.615854" stroke="rgb(255,255,255)" stroke-width="1.207317" />
			<rect id="矩形 5800" width="61.170727" height="18.512196" x="10.414551" y="20.048584" rx="0.804878" fill="rgb(255,255,255)" fill-opacity="0.150000006" />
			<g id="Ads78">
				<path id="矢量 15228" d="M32.9627 30.4805L32.9706 30.5041L33.4147 32.927L32.609 32.927L32.44 32.0407L30.4121 32.0407L30.2431 32.927L29.4453 32.927L29.8894 30.5041L29.8894 30.4805L29.9209 30.3842L29.9523 30.2467L29.97 30.1504L29.9936 30.0619L30.0171 29.9657L30.0407 29.8772L30.0584 29.8124L30.0741 29.7554L30.0977 29.6748L30.1213 29.5864L30.1291 29.5294L30.1468 29.4823C30.2274 29.1836 30.3315 28.879 30.4436 28.5646L30.4436 28.5567L30.9427 27.2932L31.9173 27.2932L32.4164 28.5567L32.4164 28.5646C32.5285 28.879 32.6247 29.1836 32.7053 29.4823L32.721 29.5294L32.7387 29.5864L32.7623 29.6748L32.7859 29.7554L32.8016 29.8124L32.8095 29.8772L32.835 29.9657L32.8586 30.0619L32.8822 30.1504L32.9077 30.2467L32.9391 30.3842L32.9627 30.4805ZM30.6774 30.6652L30.5732 31.237L32.2868 31.237L32.1747 30.6652L32.159 30.5689L32.1256 30.4392L32.102 30.3351L32.0785 30.2467C32.0706 30.2309 32.0706 30.2231 32.0706 30.2152L32.0529 30.1504L31.9822 29.8851L31.9645 29.8281L31.9488 29.7711L31.933 29.6906C31.8603 29.4331 31.7719 29.1679 31.6756 28.8947L31.6599 28.8456L31.4261 28.2659L31.2001 28.8456L31.1844 28.8947C31.0802 29.1679 30.9997 29.4331 30.9269 29.6906L30.9034 29.7711L30.8857 29.8281L30.8778 29.8851L30.8071 30.1504L30.7894 30.2152C30.7894 30.2231 30.7815 30.2309 30.7815 30.2467L30.758 30.3351L30.7344 30.4392L30.701 30.5689L30.6774 30.6652Z" fill="url(#paint_linear_255)" fill-opacity="0" fill-rule="evenodd" />
				<path id="矢量 15228" d="M32.9627 30.4805L32.9706 30.5041L33.4147 32.927L32.609 32.927L32.44 32.0407L30.4121 32.0407L30.2431 32.927L29.4453 32.927L29.8894 30.5041L29.8894 30.4805L29.9209 30.3842L29.9523 30.2467L29.97 30.1504L29.9936 30.0619L30.0171 29.9657L30.0407 29.8772L30.0584 29.8124L30.0741 29.7554L30.0977 29.6748L30.1213 29.5864L30.1291 29.5294L30.1468 29.4823C30.2274 29.1836 30.3315 28.879 30.4436 28.5646L30.4436 28.5567L30.9427 27.2932L31.9173 27.2932L32.4164 28.5567L32.4164 28.5646C32.5285 28.879 32.6247 29.1836 32.7053 29.4823L32.721 29.5294L32.7387 29.5864L32.7623 29.6748L32.7859 29.7554L32.8016 29.8124L32.8095 29.8772L32.835 29.9657L32.8586 30.0619L32.8822 30.1504L32.9077 30.2467L32.9391 30.3842L32.9627 30.4805ZM30.6774 30.6652L30.5732 31.237L32.2868 31.237L32.1747 30.6652L32.159 30.5689L32.1256 30.4392L32.102 30.3351L32.0785 30.2467C32.0706 30.2309 32.0706 30.2231 32.0706 30.2152L32.0529 30.1504L31.9822 29.8851L31.9645 29.8281L31.9488 29.7711L31.933 29.6906C31.8603 29.4331 31.7719 29.1679 31.6756 28.8947L31.6599 28.8456L31.4261 28.2659L31.2001 28.8456L31.1844 28.8947C31.0802 29.1679 30.9997 29.4331 30.9269 29.6906L30.9034 29.7711L30.8857 29.8281L30.8778 29.8851L30.8071 30.1504L30.7894 30.2152C30.7894 30.2231 30.7815 30.2309 30.7815 30.2467L30.758 30.3351L30.7344 30.4392L30.701 30.5689L30.6774 30.6652Z" fill="rgb(255,255,255)" fill-rule="evenodd" />
				<path id="矢量 15229" d="M35.3542 32.927L34.4031 32.927L34.4031 27.2933L36.0537 27.2933C36.6491 27.2776 37.1561 27.4387 37.5589 27.7845C38.1229 28.2837 38.3882 28.8948 38.3882 29.7083L38.3882 29.948C38.3646 30.6653 38.227 31.188 37.9048 31.6792C37.5589 32.2098 36.9223 32.6126 36.3268 32.7895C35.9417 32.9113 35.4819 32.927 35.3542 32.927ZM37.5511 29.7083C37.5511 29.1286 37.3821 28.7101 36.995 28.3799C36.7297 28.1461 36.4565 28.042 36.0773 28.042L35.2166 28.042L35.2166 32.1391C35.2166 32.1391 35.2814 32.1391 35.4662 32.1292C35.6273 32.1214 35.7648 32.1057 36.1264 32.0172C36.5037 31.9209 36.9557 31.6223 37.2052 31.2371C37.3329 31.0347 37.4135 30.8755 37.4705 30.6083C37.5511 30.2546 37.5511 29.7083 37.5511 29.7083Z" fill="url(#paint_linear_256)" fill-opacity="0" fill-rule="evenodd" />
				<path id="矢量 15229" d="M35.3542 32.927L34.4031 32.927L34.4031 27.2933L36.0537 27.2933C36.6491 27.2776 37.1561 27.4387 37.5589 27.7845C38.1229 28.2837 38.3882 28.8948 38.3882 29.7083L38.3882 29.948C38.3646 30.6653 38.227 31.188 37.9048 31.6792C37.5589 32.2098 36.9223 32.6126 36.3268 32.7895C35.9417 32.9113 35.4819 32.927 35.3542 32.927ZM37.5511 29.7083C37.5511 29.1286 37.3821 28.7101 36.995 28.3799C36.7297 28.1461 36.4565 28.042 36.0773 28.042L35.2166 28.042L35.2166 32.1391C35.2166 32.1391 35.2814 32.1391 35.4662 32.1292C35.6273 32.1214 35.7648 32.1057 36.1264 32.0172C36.5037 31.9209 36.9557 31.6223 37.2052 31.2371C37.3329 31.0347 37.4135 30.8755 37.4705 30.6083C37.5511 30.2546 37.5511 29.7083 37.5511 29.7083Z" fill="rgb(255,255,255)" fill-rule="evenodd" />
				<path id="矢量 15230" d="M42.6308 30.3842C42.9118 30.6082 43.0887 30.9148 43.1201 31.2764C43.1693 31.7362 43.0081 32.1626 42.678 32.4691C42.34 32.7737 41.8566 32.927 41.2691 32.927C40.6265 32.927 39.7815 32.7423 39.194 32.4121L39.1685 32.4043L39.5713 31.6949C40.0213 31.9523 40.7464 32.1135 41.2691 32.1135C41.6719 32.1135 41.9627 32.0172 42.1396 31.8639C42.2752 31.7362 42.34 31.5593 42.3243 31.3491C42.3086 31.1801 42.1867 31.0347 41.9529 30.9148L41.9293 30.9069C41.9136 30.8912 41.8979 30.8833 41.8822 30.8755L41.8566 30.8657L41.833 30.8578L41.8252 30.8499L41.8016 30.8421C41.7761 30.8342 41.7603 30.8264 41.7368 30.8185L41.7132 30.8106L41.6798 30.8028C41.6798 30.7949 41.6719 30.7949 41.6719 30.7949L41.6405 30.7851L41.6149 30.7772L41.5835 30.7615L41.5678 30.7615L41.5442 30.7537L41.5029 30.7458L41.4558 30.7301L41.4145 30.7144L41.3575 30.6967L41.2455 30.6731L40.9959 30.6082L40.8191 30.5611C40.7955 30.5611 40.7778 30.5532 40.7542 30.5454C39.8523 30.2545 39.3296 29.7711 39.2569 29.0952C39.1606 28.203 39.9898 27.3895 41.0274 27.3011C41.4381 27.2697 41.9058 27.3325 42.2929 27.4858C42.4697 27.5506 42.6387 27.6234 42.7998 27.6961L42.847 27.7118L42.8804 27.7275L42.904 27.7432L42.959 27.7668L43.0003 27.7923L42.9924 27.8159L42.4284 28.4192C42.3007 28.3642 42.1553 28.3072 42.0099 28.2502C41.7289 28.1382 41.383 28.0891 41.0922 28.1146C40.4732 28.1618 40.0134 28.6137 40.0547 29.0067C40.0861 29.3054 40.3691 29.5628 40.9959 29.7633L41.0117 29.7711L41.0372 29.779L41.0451 29.779L41.2946 29.8438L41.4459 29.8851L41.5265 29.9087L41.5992 29.9244L41.6483 29.9323L41.6955 29.948L41.7368 29.9657L41.7761 29.9735L41.8016 29.9814L41.8252 29.9893C42.1474 30.0934 42.4127 30.2152 42.6308 30.3842Z" fill="url(#paint_linear_257)" fill-opacity="0" fill-rule="evenodd" />
				<path id="矢量 15230" d="M42.6308 30.3842C42.9118 30.6082 43.0887 30.9148 43.1201 31.2764C43.1693 31.7362 43.0081 32.1626 42.678 32.4691C42.34 32.7737 41.8566 32.927 41.2691 32.927C40.6265 32.927 39.7815 32.7423 39.194 32.4121L39.1685 32.4043L39.5713 31.6949C40.0213 31.9523 40.7464 32.1135 41.2691 32.1135C41.6719 32.1135 41.9627 32.0172 42.1396 31.8639C42.2752 31.7362 42.34 31.5593 42.3243 31.3491C42.3086 31.1801 42.1867 31.0347 41.9529 30.9148L41.9293 30.9069C41.9136 30.8912 41.8979 30.8833 41.8822 30.8755L41.8566 30.8657L41.833 30.8578L41.8252 30.8499L41.8016 30.8421C41.7761 30.8342 41.7603 30.8264 41.7368 30.8185L41.7132 30.8106L41.6798 30.8028C41.6798 30.7949 41.6719 30.7949 41.6719 30.7949L41.6405 30.7851L41.6149 30.7772L41.5835 30.7615L41.5678 30.7615L41.5442 30.7537L41.5029 30.7458L41.4558 30.7301L41.4145 30.7144L41.3575 30.6967L41.2455 30.6731L40.9959 30.6082L40.8191 30.5611C40.7955 30.5611 40.7778 30.5532 40.7542 30.5454C39.8523 30.2545 39.3296 29.7711 39.2569 29.0952C39.1606 28.203 39.9898 27.3895 41.0274 27.3011C41.4381 27.2697 41.9058 27.3325 42.2929 27.4858C42.4697 27.5506 42.6387 27.6234 42.7998 27.6961L42.847 27.7118L42.8804 27.7275L42.904 27.7432L42.959 27.7668L43.0003 27.7923L42.9924 27.8159L42.4284 28.4192C42.3007 28.3642 42.1553 28.3072 42.0099 28.2502C41.7289 28.1382 41.383 28.0891 41.0922 28.1146C40.4732 28.1618 40.0134 28.6137 40.0547 29.0067C40.0861 29.3054 40.3691 29.5628 40.9959 29.7633L41.0117 29.7711L41.0372 29.779L41.0451 29.779L41.2946 29.8438L41.4459 29.8851L41.5265 29.9087L41.5992 29.9244L41.6483 29.9323L41.6955 29.948L41.7368 29.9657L41.7761 29.9735L41.8016 29.9814L41.8252 29.9893C42.1474 30.0934 42.4127 30.2152 42.6308 30.3842Z" fill="rgb(255,255,255)" fill-rule="evenodd" />
				<path id="矢量 15231" d="M44.0298 28.0969L44.2479 27.2932L47.9992 27.2932L47.9992 28.0969L45.8494 32.927L44.973 32.927L47.1129 28.0969L44.0298 28.0969Z" fill="url(#paint_linear_258)" fill-opacity="0" fill-rule="evenodd" />
				<path id="矢量 15231" d="M44.0298 28.0969L44.2479 27.2932L47.9992 27.2932L47.9992 28.0969L45.8494 32.927L44.973 32.927L47.1129 28.0969L44.0298 28.0969Z" fill="rgb(255,255,255)" fill-rule="evenodd" />
				<path id="矢量 15232" d="M52.4407 30.6416C52.4898 30.7458 52.5213 30.8578 52.5389 30.9718C52.5625 31.0759 52.5704 31.1722 52.5704 31.2685C52.5704 31.5514 52.5055 31.8246 52.3523 32.0741C52.03 32.6204 51.3383 32.927 50.5739 32.927L50.5503 32.927C49.7781 32.927 49.0923 32.6204 48.772 32.0741C48.6187 31.8246 48.546 31.5514 48.5538 31.2685C48.5464 31.1768 48.5603 31.0852 48.5752 30.9867L48.5774 30.9718C48.603 30.8578 48.6344 30.7458 48.6737 30.6416C48.8349 30.2958 49.0923 30.0619 49.4067 29.9008C49.3988 29.893 49.391 29.893 49.3831 29.8851C49.0844 29.7004 48.8918 29.4508 48.8034 29.1521C48.7621 29.0224 48.7386 28.8869 48.7386 28.7414C48.7386 28.4349 48.8525 28.1539 49.0372 27.9279L49.0372 27.9201C49.053 27.9043 49.0687 27.8808 49.0844 27.865C49.1414 27.8002 49.2062 27.7432 49.2711 27.6882C49.5835 27.4288 50.0276 27.2932 50.5503 27.2932L50.5739 27.2932C51.0966 27.2932 51.5407 27.4288 51.8531 27.6882C51.918 27.7432 51.9828 27.8002 52.0398 27.865C52.0555 27.8808 52.0634 27.9043 52.0791 27.9201C52.087 27.9201 52.087 27.9201 52.087 27.9279C52.2717 28.1539 52.3778 28.4349 52.3778 28.7414C52.3778 28.8869 52.3601 29.0224 52.3208 29.1521C52.2324 29.4508 52.0398 29.7004 51.7411 29.8851C51.7333 29.893 51.7254 29.893 51.7176 29.9008C52.0221 30.0619 52.2894 30.2958 52.4407 30.6416ZM50.5582 28.0006C49.9942 28.0085 49.5914 28.2345 49.4872 28.5567C49.4715 28.6039 49.4715 28.653 49.4715 28.71C49.4715 29.0224 49.6405 29.2484 50.0178 29.4331C50.1711 29.5058 50.3479 29.5628 50.5582 29.6277C50.7743 29.5628 50.9532 29.5058 51.0966 29.4331C51.4759 29.2484 51.6527 29.0224 51.6527 28.71C51.6527 28.653 51.6449 28.6039 51.637 28.5567C51.523 28.2345 51.1222 28.0085 50.5582 28.0006ZM50.5582 32.139C51.0494 32.1292 51.4994 31.9209 51.7097 31.5986C51.8374 31.3903 51.8531 31.1643 51.7411 30.9384C51.58 30.5925 51.0887 30.3508 50.5582 30.1897C50.0355 30.3508 49.5442 30.5925 49.3752 30.9384C49.2711 31.1643 49.2868 31.3903 49.4145 31.5986C49.6248 31.9209 50.0669 32.1292 50.5582 32.139Z" fill="url(#paint_linear_259)" fill-opacity="0" fill-rule="evenodd" />
				<path id="矢量 15232" d="M52.4407 30.6416C52.4898 30.7458 52.5213 30.8578 52.5389 30.9718C52.5625 31.0759 52.5704 31.1722 52.5704 31.2685C52.5704 31.5514 52.5055 31.8246 52.3523 32.0741C52.03 32.6204 51.3383 32.927 50.5739 32.927L50.5503 32.927C49.7781 32.927 49.0923 32.6204 48.772 32.0741C48.6187 31.8246 48.546 31.5514 48.5538 31.2685C48.5464 31.1768 48.5603 31.0852 48.5752 30.9867L48.5774 30.9718C48.603 30.8578 48.6344 30.7458 48.6737 30.6416C48.8349 30.2958 49.0923 30.0619 49.4067 29.9008C49.3988 29.893 49.391 29.893 49.3831 29.8851C49.0844 29.7004 48.8918 29.4508 48.8034 29.1521C48.7621 29.0224 48.7386 28.8869 48.7386 28.7414C48.7386 28.4349 48.8525 28.1539 49.0372 27.9279L49.0372 27.9201C49.053 27.9043 49.0687 27.8808 49.0844 27.865C49.1414 27.8002 49.2062 27.7432 49.2711 27.6882C49.5835 27.4288 50.0276 27.2932 50.5503 27.2932L50.5739 27.2932C51.0966 27.2932 51.5407 27.4288 51.8531 27.6882C51.918 27.7432 51.9828 27.8002 52.0398 27.865C52.0555 27.8808 52.0634 27.9043 52.0791 27.9201C52.087 27.9201 52.087 27.9201 52.087 27.9279C52.2717 28.1539 52.3778 28.4349 52.3778 28.7414C52.3778 28.8869 52.3601 29.0224 52.3208 29.1521C52.2324 29.4508 52.0398 29.7004 51.7411 29.8851C51.7333 29.893 51.7254 29.893 51.7176 29.9008C52.0221 30.0619 52.2894 30.2958 52.4407 30.6416ZM50.5582 28.0006C49.9942 28.0085 49.5914 28.2345 49.4872 28.5567C49.4715 28.6039 49.4715 28.653 49.4715 28.71C49.4715 29.0224 49.6405 29.2484 50.0178 29.4331C50.1711 29.5058 50.3479 29.5628 50.5582 29.6277C50.7743 29.5628 50.9532 29.5058 51.0966 29.4331C51.4759 29.2484 51.6527 29.0224 51.6527 28.71C51.6527 28.653 51.6449 28.6039 51.637 28.5567C51.523 28.2345 51.1222 28.0085 50.5582 28.0006ZM50.5582 32.139C51.0494 32.1292 51.4994 31.9209 51.7097 31.5986C51.8374 31.3903 51.8531 31.1643 51.7411 30.9384C51.58 30.5925 51.0887 30.3508 50.5582 30.1897C50.0355 30.3508 49.5442 30.5925 49.3752 30.9384C49.2711 31.1643 49.2868 31.3903 49.4145 31.5986C49.6248 31.9209 50.0669 32.1292 50.5582 32.139Z" fill="rgb(255,255,255)" fill-rule="evenodd" />
			</g>
			<g id="Ads78(边框)">
				<path id="边框" d="M33.0609 30.4805L33.5263 33.0195L32.5323 33.0195L32.3633 32.1332L30.4891 32.1332L30.3201 33.0195L29.334 33.0195L29.7967 30.4953L29.7967 30.4653L29.8314 30.359L29.8614 30.2275L29.8794 30.1296L29.9035 30.0395L29.9275 29.9413L29.9512 29.8524L29.969 29.7873L29.9851 29.7289L30.0084 29.6494L30.0302 29.5676L30.0387 29.5061L30.0584 29.4534C30.121 29.222 30.2185 28.9203 30.3508 28.5482L30.3508 28.5387L30.8796 27.2L31.9806 27.2L32.5095 28.5387L32.5095 28.5482C32.6211 28.8626 32.7161 29.1649 32.7944 29.4551L32.8099 29.5015L32.8281 29.5603L32.8519 29.6494L32.8755 29.7303L32.8931 29.794L32.9009 29.8583L32.9249 29.9413L32.9485 30.0376L32.9721 30.1262L32.998 30.224L33.0295 30.3617L33.0522 30.4543L33.0588 30.4743L33.0609 30.4805ZM32.6091 32.9266L32.4402 32.0404L30.4122 32.0404L30.2432 32.9266L29.4454 32.9266L29.4625 32.8337L29.8895 30.5037L29.8895 30.4801L29.921 30.3838L29.9524 30.2463L29.9701 30.15L29.9937 30.0616L30.0173 29.9653L30.0408 29.8769L30.0585 29.812L30.0743 29.755L30.0978 29.6745L30.1214 29.586L30.1293 29.529L30.147 29.4819C30.2275 29.1832 30.3317 28.8786 30.4437 28.5642L30.4437 28.5564L30.9428 27.2928L31.9175 27.2928L32.4166 28.5564L32.4166 28.5642C32.5286 28.8786 32.6249 29.1832 32.7054 29.4819L32.7212 29.529L32.7388 29.586L32.7624 29.6745L32.786 29.755L32.8017 29.812L32.8096 29.8769L32.8351 29.9653L32.8587 30.0616L32.8823 30.15L32.9078 30.2463L32.9393 30.3838L32.9629 30.4801L32.9707 30.5037L33.3978 32.8337L33.4148 32.9266L32.6091 32.9266ZM30.7011 30.5685L30.7345 30.4389L30.7581 30.3347L30.7817 30.2463C30.7817 30.2306 30.7895 30.2227 30.7895 30.2148L30.8072 30.15L30.8779 29.8847L30.8858 29.8277L30.9035 29.7707L30.9271 29.6902C30.9998 29.4328 31.0803 29.1675 31.1845 28.8943L31.2002 28.8452L31.377 28.3918L31.4262 28.2655L31.4769 28.3912L31.66 28.8452L31.6758 28.8943C31.772 29.1675 31.8605 29.4328 31.9332 29.6902L31.9489 29.7707L31.9646 29.8277L31.9823 29.8847L32.053 30.15L32.0707 30.2148C32.0707 30.2227 32.0707 30.2306 32.0786 30.2463L32.1022 30.3347L32.1257 30.4389L32.1592 30.5685L32.1749 30.6648L32.2687 31.1438L32.2869 31.2367L30.5734 31.2367L30.5903 31.1438L30.6775 30.6648L30.7011 30.5685ZM30.8248 30.4607L30.8483 30.3569L30.8745 30.2585L30.8745 30.2553C30.8772 30.2481 30.8792 30.2411 30.8805 30.2342L30.8968 30.1744L30.9205 30.0855L30.9441 29.9971L30.9692 29.9031L30.9768 29.848L30.9922 29.7983L31.0162 29.7163C31.1033 29.4079 31.1883 29.145 31.2713 28.9274L31.2722 28.9251L31.2878 28.8763L31.4277 28.5175L31.5726 28.8768L31.5877 28.9239L31.5882 28.9252C31.6964 29.2322 31.7812 29.4943 31.8427 29.7117L31.8584 29.792L31.8755 29.8538L31.893 29.9105L31.9161 29.9971L31.9633 30.1739L31.9786 30.2299C31.9787 30.2317 31.9789 30.2335 31.9792 30.2353C31.9811 30.2497 31.9849 30.2639 31.9908 30.2777L32.012 30.3569L32.0355 30.4607L32.0682 30.5876L32.0834 30.6812L32.174 31.1438L30.6847 31.1438L30.7684 30.6842L30.7913 30.5906L30.8248 30.4607Z" fill="url(#paint_linear_260)" fill-opacity="0" fill-rule="evenodd" />
				<path id="边框" d="M34.3105 33.0196L34.3105 27.2L36.0528 27.2C36.517 27.188 36.924 27.2789 37.274 27.4728C37.3966 27.5408 37.5122 27.6214 37.6208 27.7146C37.8491 27.9166 38.0319 28.1435 38.1694 28.3951C38.3774 28.7759 38.4814 29.2135 38.4814 29.7079L38.4814 29.9492L38.4813 29.9507C38.4578 30.666 38.2917 31.2589 37.9829 31.7296C37.9088 31.8433 37.8269 31.9498 37.737 32.0492C37.3924 32.4302 36.9318 32.7064 36.3552 32.8777C36.0562 32.9723 35.7226 33.0196 35.3545 33.0196L34.3105 33.0196ZM34.4034 27.2929L36.0541 27.2929C36.6495 27.2772 37.1564 27.4383 37.5593 27.7842C38.1232 28.2833 38.3885 28.8944 38.3885 29.7079L38.3885 29.9477C38.3649 30.6649 38.2274 31.1876 37.9051 31.6789C37.5593 32.2094 36.9226 32.6123 36.3272 32.7891C35.9421 32.9109 35.4822 32.9267 35.3545 32.9267L34.4034 32.9267L34.4034 27.2929ZM35.217 28.0416L35.217 32.1387C35.217 32.1387 35.2432 32.1387 35.3098 32.1362C35.348 32.1347 35.3993 32.1324 35.4665 32.1289C35.6276 32.121 35.7652 32.1053 36.1268 32.0169C36.5041 31.9206 36.956 31.6219 37.2056 31.2367C37.3333 31.0343 37.4139 30.8752 37.4708 30.6079C37.5514 30.2542 37.5514 29.7079 37.5514 29.7079C37.5514 29.1283 37.3824 28.7097 36.9953 28.3796C36.73 28.1457 36.4569 28.0416 36.0776 28.0416L35.217 28.0416ZM36.6209 28.2457L36.6209 28.2457C36.4566 28.1716 36.2755 28.1345 36.0776 28.1345L35.3098 28.1345L35.3098 32.0434C35.3506 32.0417 35.4013 32.0393 35.462 32.0361C35.6245 32.0282 35.8384 31.9918 36.1038 31.9269C36.3082 31.8747 36.492 31.7925 36.655 31.6802C36.8385 31.5539 36.9959 31.3896 37.127 31.1872C37.2532 30.9872 37.3376 30.7872 37.3803 30.5873C37.4324 30.3583 37.4585 30.0652 37.4585 29.7079C37.4585 29.3148 37.3663 28.9859 37.1819 28.7213C37.1126 28.6219 37.0303 28.5315 36.935 28.4503L36.9339 28.4493C36.8374 28.3642 36.733 28.2963 36.6209 28.2457Z" fill="url(#paint_linear_261)" fill-opacity="0" fill-rule="evenodd" />
				<path id="边框" d="M43.2125 31.267C43.24 31.5253 43.2122 31.7623 43.1292 31.978C43.0499 32.184 42.9202 32.3706 42.7402 32.5378C42.725 32.5515 42.7096 32.5648 42.694 32.5779L42.6927 32.5789C42.3407 32.8727 41.8661 33.0195 41.269 33.0195C40.5906 33.0195 39.9727 32.8896 39.4154 32.6298C39.3278 32.589 39.2418 32.5449 39.1572 32.4977L39.0305 32.4587L39.5365 31.5677L39.6174 31.614C39.6193 31.6151 39.6212 31.6161 39.6231 31.6172C40.0953 31.8859 40.644 32.0203 41.269 32.0203C41.6333 32.0203 41.9027 31.9451 42.0773 31.7947C42.1165 31.7574 42.1484 31.7162 42.1729 31.6709C42.2211 31.5819 42.2407 31.4774 42.2318 31.3573C42.231 31.3492 42.2299 31.3411 42.2285 31.3331L42.2285 31.333C42.2061 31.2075 42.1022 31.0967 41.9167 31.0003L41.8791 30.9878L41.8636 30.9723C41.8606 30.9693 41.8542 30.9652 41.8443 30.9601L41.8252 30.9528L41.7828 30.9387L41.775 30.9308L41.7731 30.9302C41.7617 30.9266 41.7477 30.9216 41.7312 30.9152C41.7208 30.9111 41.7128 30.9081 41.7073 30.9063L41.6878 30.8998L41.5868 30.876L41.5868 30.8655L41.5802 30.8634L41.5615 30.8541L41.5527 30.8541L41.5207 30.8434L41.4794 30.8356L41.4245 30.8172L41.3841 30.8019L41.3341 30.7863L41.2242 30.7632L40.972 30.6977L40.8043 30.653C40.7841 30.6511 40.7611 30.6458 40.7353 30.6368C40.7306 30.6351 40.7274 30.634 40.7257 30.6334C39.9785 30.3925 39.4978 30.0324 39.2837 29.5533C39.2214 29.4139 39.1817 29.2644 39.1645 29.1048C39.1466 28.9386 39.155 28.7783 39.1898 28.6239C39.2539 28.3393 39.4077 28.075 39.6511 27.8308C39.7963 27.6852 39.9554 27.5647 40.1283 27.4693C40.3931 27.3233 40.6904 27.2363 41.0203 27.2082C41.3521 27.1828 41.671 27.2087 41.9769 27.286L41.9769 27.286C42.0952 27.3159 42.2115 27.3534 42.3259 27.3987C42.4725 27.4525 42.6418 27.5226 42.8337 27.6091L42.8815 27.6251L42.9262 27.6461L42.9484 27.6609L43.0019 27.6838L43.1116 27.7517L43.0741 27.8642L42.4517 28.53L42.3917 28.5042C42.3075 28.4679 42.1687 28.4119 41.9755 28.3362C41.8275 28.2772 41.6768 28.2372 41.5236 28.2164L41.5236 28.2164C41.3843 28.1975 41.2428 28.1943 41.0992 28.2069C40.907 28.2216 40.7351 28.272 40.5837 28.3583C40.5141 28.3979 40.4488 28.4451 40.3879 28.4998C40.2341 28.6378 40.1532 28.7798 40.1452 28.9258C40.1439 28.9494 40.1445 28.973 40.147 28.9967C40.1481 29.0074 40.1497 29.018 40.1516 29.0286C40.1991 29.2884 40.49 29.5037 41.0242 29.6745L41.031 29.6767L41.0463 29.6843L41.0511 29.6858L41.0569 29.6858L41.319 29.7539L41.472 29.7956L41.5494 29.8183L41.6163 29.8328L41.6705 29.8414L41.7285 29.8608L41.7644 29.8762L41.7988 29.8831L41.8299 29.8926L41.8537 29.9006C42.2024 30.0132 42.4808 30.1502 42.6887 30.3113C42.8673 30.4536 43.0007 30.6175 43.089 30.8028C43.1567 30.9449 43.1979 31.0996 43.2125 31.267ZM41.269 32.9267C40.6476 32.9267 39.8367 32.7539 39.2526 32.4438C39.2328 32.4333 39.2132 32.4226 39.194 32.4118L39.1684 32.404L39.2154 32.3212L39.5254 31.7754L39.5713 31.6946C39.5746 31.6965 39.578 31.6984 39.5814 31.7003C40.0321 31.9544 40.7503 32.1131 41.269 32.1131C41.6719 32.1131 41.9627 32.0169 42.1395 31.8636C42.2751 31.7359 42.34 31.559 42.3243 31.3487C42.3085 31.1797 42.1867 31.0343 41.9529 30.9145L41.9293 30.9066C41.9136 30.8909 41.8979 30.883 41.8821 30.8752L41.8566 30.8653L41.833 30.8575L41.8251 30.8496L41.8016 30.8418C41.776 30.8339 41.7603 30.826 41.7367 30.8182L41.7131 30.8103L41.6797 30.8025C41.6797 30.7946 41.6719 30.7946 41.6719 30.7946L41.6404 30.7848L41.6149 30.7769L41.5834 30.7612L41.5677 30.7612L41.5441 30.7533L41.5029 30.7455L41.4557 30.7298L41.4145 30.714L41.3575 30.6963L41.2455 30.6728L40.9959 30.6079L40.819 30.5608C40.7955 30.5608 40.7778 30.5529 40.7542 30.545C39.8523 30.2542 39.3296 29.7708 39.2568 29.0948C39.1606 28.2027 39.9898 27.3892 41.0273 27.3008C41.438 27.2693 41.9057 27.3322 42.2928 27.4855C42.4697 27.5503 42.6387 27.623 42.7998 27.6957L42.847 27.7115L42.8804 27.7272L42.9039 27.7429L42.959 27.7665L43.0002 27.792L42.9924 27.8156L42.9724 27.8369L42.9445 27.8668L42.4284 28.4189C42.3007 28.3639 42.1553 28.3069 42.0099 28.2499C41.7289 28.1379 41.383 28.0887 41.0922 28.1143C40.4732 28.1615 40.0134 28.6134 40.0546 29.0064C40.0861 29.3051 40.3691 29.5625 40.9959 29.763L41.0116 29.7708L41.0372 29.7787L41.045 29.7787L41.2946 29.8435L41.4459 29.8848L41.5265 29.9084L41.5992 29.9241L41.6483 29.9319L41.6955 29.9477L41.7367 29.9654L41.776 29.9732L41.8016 29.9811L41.8251 29.9889C42.1474 30.0931 42.4127 30.2149 42.6308 30.3839C42.9118 30.6079 43.0887 30.9145 43.1201 31.276C43.1692 31.7359 43.0081 32.1623 42.678 32.4688C42.34 32.7734 41.8566 32.9267 41.269 32.9267ZM41.6545 30.8865C41.6414 30.8849 41.6301 30.8814 41.6208 30.8759L41.6545 30.8865Z" fill="url(#paint_linear_262)" fill-opacity="0" fill-rule="evenodd" />
				<path id="边框" d="M44.177 27.2L48.0921 27.2L48.0921 28.1163L45.9099 33.0195L44.8304 33.0195L46.9703 28.1894L43.9084 28.1894L44.1584 27.2685L44.177 27.2ZM47.113 28.0965L44.0299 28.0965L44.0551 28.0037L44.248 27.2928L47.9993 27.2928L47.9993 28.0965L45.8495 32.9266L44.9731 32.9266L45.0143 32.8337L47.0719 28.1894L47.113 28.0965Z" fill="url(#paint_linear_263)" fill-opacity="0" fill-rule="evenodd" />
				<path id="边框" d="M48.4833 30.9724C48.4636 31.1029 48.4561 31.2022 48.4609 31.2704C48.4576 31.4044 48.4707 31.5345 48.5004 31.6608C48.538 31.8209 48.6022 31.9747 48.6928 32.1224C48.7847 32.2791 48.8951 32.4154 49.0239 32.531C49.3865 32.8567 49.8953 33.0195 50.5503 33.0195L50.5739 33.0195C50.9764 33.0195 51.3412 32.9427 51.6684 32.7891C51.9586 32.6529 52.1864 32.4711 52.3516 32.2439C52.3804 32.2043 52.4073 32.1633 52.4323 32.121C52.4698 32.0598 52.5028 31.9967 52.5312 31.9315L52.5313 31.9314C52.6193 31.7295 52.6633 31.5084 52.6633 31.2681C52.6633 31.1571 52.6523 31.0524 52.6302 30.954C52.6101 30.8258 52.5751 30.7088 52.5253 30.6028C52.4965 30.5372 52.4634 30.4743 52.4259 30.4141C52.2986 30.2097 52.1212 30.0364 51.8935 29.8945C52.0525 29.7795 52.1788 29.6448 52.2726 29.4903C52.331 29.3939 52.3768 29.2899 52.4099 29.1781C52.4504 29.0443 52.4707 28.8987 52.4707 28.7411C52.4707 28.5801 52.4456 28.428 52.3953 28.2847C52.346 28.1444 52.2727 28.0125 52.1753 27.8892C52.1712 27.874 52.1643 27.8616 52.1547 27.852C52.1491 27.8464 52.1427 27.8418 52.1353 27.8381C52.1259 27.823 52.1169 27.8109 52.1082 27.8018C52.0628 27.7503 51.9978 27.6887 51.9132 27.617C51.9065 27.6114 51.8996 27.6058 51.8928 27.6003C51.5602 27.3334 51.1206 27.2 50.5739 27.2L50.5503 27.2C50.0024 27.2 49.5622 27.3338 49.2299 27.6015C49.2238 27.6064 49.2178 27.6113 49.2118 27.6163C49.1269 27.6884 49.0617 27.7501 49.0163 27.8015C49.009 27.8091 48.9996 27.82 48.9883 27.8341C48.98 27.8446 48.9744 27.8512 48.9716 27.854L48.9444 27.8812L48.9444 27.8949C48.8263 28.0456 48.7432 28.206 48.6952 28.3764C48.6622 28.4933 48.6457 28.6149 48.6457 28.7411C48.6457 28.7665 48.6464 28.7919 48.6477 28.8172L48.6478 28.8174C48.6544 28.9391 48.6767 29.0599 48.7149 29.1799C48.7472 29.289 48.7917 29.3908 48.8484 29.4852C48.9421 29.6413 49.069 29.7774 49.2293 29.8935C49.0486 30.0044 48.8975 30.1383 48.7761 30.2951L48.776 30.2951C48.7032 30.3892 48.641 30.4915 48.5895 30.602L48.5881 30.6052L48.5868 30.6085C48.5487 30.7096 48.5153 30.8238 48.4868 30.9511L48.4861 30.9543L48.4856 30.9575L48.4833 30.9724ZM52.4407 30.6413C52.4898 30.7454 52.5213 30.8574 52.5389 30.9714C52.5625 31.0755 52.5704 31.1718 52.5704 31.2681C52.5704 31.5511 52.5055 31.8242 52.3523 32.0738C52.03 32.62 51.3383 32.9266 50.5739 32.9266L50.5503 32.9266C49.7781 32.9266 49.0923 32.62 48.772 32.0738C48.6187 31.8242 48.546 31.5511 48.5539 31.2681C48.5464 31.1765 48.5603 31.0848 48.5752 30.9864L48.5752 30.9863L48.5774 30.9714C48.603 30.8574 48.6344 30.7454 48.6737 30.6413C48.8187 30.33 49.0417 30.1095 49.314 29.951C49.3162 29.9498 49.3184 29.9485 49.3205 29.9473C49.3327 29.9403 49.3448 29.9334 49.3571 29.9267C49.3735 29.9177 49.39 29.909 49.4067 29.9004C49.3988 29.8926 49.391 29.8926 49.3831 29.8847C49.3608 29.8709 49.3391 29.8568 49.318 29.8423C49.0562 29.6625 48.8852 29.4281 48.8034 29.1518C48.7621 29.0221 48.7386 28.8865 48.7386 28.7411C48.7386 28.4345 48.8525 28.1535 49.0373 27.9275L49.0373 27.9197C49.053 27.904 49.0687 27.8804 49.0844 27.8647C49.1414 27.7998 49.2062 27.7428 49.2711 27.6878C49.5835 27.4284 50.0276 27.2928 50.5503 27.2928L50.5739 27.2928C51.0966 27.2928 51.5407 27.4284 51.8531 27.6878C51.918 27.7428 51.9828 27.7998 52.0398 27.8647C52.0555 27.8804 52.0634 27.904 52.0791 27.9197C52.087 27.9197 52.087 27.9197 52.087 27.9275C52.2717 28.1535 52.3778 28.4345 52.3778 28.7411C52.3778 28.8865 52.3601 29.0221 52.3208 29.1518C52.2389 29.4283 52.0678 29.6628 51.8057 29.8426C51.7848 29.857 51.7632 29.871 51.7411 29.8847C51.7333 29.8926 51.7254 29.8926 51.7176 29.9004C51.7344 29.9094 51.7512 29.9185 51.7679 29.9279C51.7809 29.9353 51.7939 29.9428 51.8068 29.9504L51.809 29.9518C52.0752 30.1102 52.3047 30.3305 52.4407 30.6413ZM49.4872 28.5564C49.5914 28.2341 49.9942 28.0081 50.5582 28.0002C51.1222 28.0081 51.523 28.2341 51.637 28.5564C51.6449 28.6035 51.6527 28.6526 51.6527 28.7096C51.6527 29.0221 51.4759 29.248 51.0966 29.4328C50.9532 29.5055 50.7743 29.5624 50.5582 29.6273C50.3479 29.5624 50.1711 29.5055 50.0178 29.4328C49.6405 29.248 49.4715 29.0221 49.4715 28.7096C49.4715 28.6526 49.4715 28.6035 49.4872 28.5564ZM49.6528 28.4279C49.8036 28.2112 50.1054 28.0997 50.5582 28.0931C51.0067 28.0996 51.3096 28.2115 51.4668 28.4287C51.4999 28.4744 51.5265 28.5248 51.5467 28.5798C51.5555 28.6338 51.5598 28.6771 51.5598 28.7096C51.5598 28.7655 51.5522 28.8191 51.5371 28.8704C51.4809 29.0608 51.3205 29.2204 51.0559 29.3493C50.9574 29.3992 50.7916 29.4595 50.5586 29.5302C50.3285 29.4586 50.1616 29.3981 50.0576 29.3488C49.8052 29.2252 49.6496 29.0709 49.591 28.8859C49.5733 28.83 49.5644 28.7712 49.5644 28.7096C49.5644 28.6489 49.5681 28.6076 49.5754 28.5857L49.5756 28.5849C49.5942 28.5276 49.6199 28.4752 49.6528 28.4279ZM50.5582 30.1893C51.0887 30.3504 51.58 30.5921 51.7411 30.938C51.8531 31.1639 51.8374 31.3899 51.7097 31.5982C51.4994 31.9205 51.0494 32.1288 50.5582 32.1386C50.0669 32.1288 49.6248 31.9205 49.4145 31.5982C49.2868 31.3899 49.2711 31.1639 49.3752 30.938C49.5442 30.5921 50.0355 30.3504 50.5582 30.1893ZM51.4837 31.7262C51.539 31.6735 51.5882 31.6143 51.6312 31.5486C51.6893 31.4535 51.72 31.3575 51.7234 31.2605C51.7267 31.1676 51.7048 31.0739 51.6579 30.9792L51.6575 30.9783L51.657 30.9772C51.5296 30.7039 51.1634 30.4737 50.5584 30.2865C49.9595 30.4746 49.593 30.705 49.4592 30.9778C49.4143 31.0756 49.3945 31.1719 49.4 31.2667C49.4055 31.3621 49.4366 31.4561 49.493 31.5486C49.5382 31.6175 49.59 31.6793 49.6485 31.734C49.8623 31.9336 50.1656 32.0375 50.5582 32.0457C50.9601 32.0374 51.2686 31.9308 51.4837 31.7262Z" fill="url(#paint_linear_264)" fill-opacity="0" fill-rule="evenodd" />
			</g>
		</g>
	</g>
</svg>
