<svg viewBox="0 0 82 60" xmlns="http://www.w3.org/2000/svg" xmlns:xlink="http://www.w3.org/1999/xlink" width="82.000000" height="60.000000" fill="none" customFrame="#000000">
	<defs>
		<clipPath id="clipPath_0">
			<rect width="25.252510" height="4.552032" x="0.000000" y="0.000000" fill="rgb(255,255,255)" transform="matrix(0,-1,1,0,15,42.1929)" />
		</clipPath>
		<linearGradient id="paint_linear_0" x1="1.41114271" x2="1.42086494" y1="4.74481153" y2="-0.431328297" gradientUnits="userSpaceOnUse">
			<stop stop-color="rgb(0,0,0)" offset="0" stop-opacity="0.5" />
			<stop stop-color="rgb(242,241,241)" offset="0.463651955" stop-opacity="1" />
			<stop stop-color="rgb(243,242,242)" offset="1" stop-opacity="0" />
		</linearGradient>
		<linearGradient id="paint_linear_1" x1="1.41114271" x2="1.42086494" y1="4.74481153" y2="-0.431328297" gradientUnits="userSpaceOnUse">
			<stop stop-color="rgb(0,0,0)" offset="0" stop-opacity="0.5" />
			<stop stop-color="rgb(242,241,241)" offset="0.463651955" stop-opacity="1" />
			<stop stop-color="rgb(243,242,242)" offset="1" stop-opacity="0" />
		</linearGradient>
		<linearGradient id="paint_linear_2" x1="1.41114271" x2="1.42086494" y1="4.74481153" y2="-0.431328297" gradientUnits="userSpaceOnUse">
			<stop stop-color="rgb(0,0,0)" offset="0" stop-opacity="0.5" />
			<stop stop-color="rgb(242,241,241)" offset="0.463651955" stop-opacity="1" />
			<stop stop-color="rgb(243,242,242)" offset="1" stop-opacity="0" />
		</linearGradient>
		<linearGradient id="paint_linear_3" x1="1.41114271" x2="1.42086494" y1="4.74481153" y2="-0.431328297" gradientUnits="userSpaceOnUse">
			<stop stop-color="rgb(0,0,0)" offset="0" stop-opacity="0.5" />
			<stop stop-color="rgb(242,241,241)" offset="0.463651955" stop-opacity="1" />
			<stop stop-color="rgb(243,242,242)" offset="1" stop-opacity="0" />
		</linearGradient>
		<clipPath id="clipPath_1">
			<rect width="25.252510" height="4.551926" x="0.000000" y="0.000000" fill="rgb(255,255,255)" transform="matrix(1,0,0,-1,27.9404,56)" />
		</clipPath>
		<linearGradient id="paint_linear_4" x1="1.41114271" x2="1.42086494" y1="4.74481153" y2="-0.431328297" gradientUnits="userSpaceOnUse">
			<stop stop-color="rgb(0,0,0)" offset="0" stop-opacity="0.5" />
			<stop stop-color="rgb(242,241,241)" offset="0.463651955" stop-opacity="1" />
			<stop stop-color="rgb(243,242,242)" offset="1" stop-opacity="0" />
		</linearGradient>
		<linearGradient id="paint_linear_5" x1="1.41114271" x2="1.42086494" y1="4.74481153" y2="-0.431328297" gradientUnits="userSpaceOnUse">
			<stop stop-color="rgb(0,0,0)" offset="0" stop-opacity="0.5" />
			<stop stop-color="rgb(242,241,241)" offset="0.463651955" stop-opacity="1" />
			<stop stop-color="rgb(243,242,242)" offset="1" stop-opacity="0" />
		</linearGradient>
		<linearGradient id="paint_linear_6" x1="1.41114271" x2="1.42086494" y1="4.74481153" y2="-0.431328297" gradientUnits="userSpaceOnUse">
			<stop stop-color="rgb(0,0,0)" offset="0" stop-opacity="0.5" />
			<stop stop-color="rgb(242,241,241)" offset="0.463651955" stop-opacity="1" />
			<stop stop-color="rgb(243,242,242)" offset="1" stop-opacity="0" />
		</linearGradient>
		<linearGradient id="paint_linear_7" x1="1.41114271" x2="1.42086494" y1="4.74481153" y2="-0.431328297" gradientUnits="userSpaceOnUse">
			<stop stop-color="rgb(0,0,0)" offset="0" stop-opacity="0.5" />
			<stop stop-color="rgb(242,241,241)" offset="0.463651955" stop-opacity="1" />
			<stop stop-color="rgb(243,242,242)" offset="1" stop-opacity="0" />
		</linearGradient>
		<clipPath id="clipPath_2">
			<rect width="25.252510" height="4.551926" x="0.000000" y="0.000000" fill="rgb(255,255,255)" transform="matrix(0,1,-1,0,67,16.9404)" />
		</clipPath>
		<linearGradient id="paint_linear_8" x1="1.41114271" x2="1.42086494" y1="4.74481153" y2="-0.431328297" gradientUnits="userSpaceOnUse">
			<stop stop-color="rgb(0,0,0)" offset="0" stop-opacity="0.5" />
			<stop stop-color="rgb(242,241,241)" offset="0.463651955" stop-opacity="1" />
			<stop stop-color="rgb(243,242,242)" offset="1" stop-opacity="0" />
		</linearGradient>
		<linearGradient id="paint_linear_9" x1="1.41114271" x2="1.42086494" y1="4.74481153" y2="-0.431328297" gradientUnits="userSpaceOnUse">
			<stop stop-color="rgb(0,0,0)" offset="0" stop-opacity="0.5" />
			<stop stop-color="rgb(242,241,241)" offset="0.463651955" stop-opacity="1" />
			<stop stop-color="rgb(243,242,242)" offset="1" stop-opacity="0" />
		</linearGradient>
		<linearGradient id="paint_linear_10" x1="1.41114271" x2="1.42086494" y1="4.74481153" y2="-0.431328297" gradientUnits="userSpaceOnUse">
			<stop stop-color="rgb(0,0,0)" offset="0" stop-opacity="0.5" />
			<stop stop-color="rgb(242,241,241)" offset="0.463651955" stop-opacity="1" />
			<stop stop-color="rgb(243,242,242)" offset="1" stop-opacity="0" />
		</linearGradient>
		<linearGradient id="paint_linear_11" x1="1.41114271" x2="1.42086494" y1="4.74481153" y2="-0.431328297" gradientUnits="userSpaceOnUse">
			<stop stop-color="rgb(0,0,0)" offset="0" stop-opacity="0.5" />
			<stop stop-color="rgb(242,241,241)" offset="0.463651955" stop-opacity="1" />
			<stop stop-color="rgb(243,242,242)" offset="1" stop-opacity="0" />
		</linearGradient>
		<clipPath id="clipPath_3">
			<rect width="25.252510" height="4.552032" x="28.254517" y="4.000000" fill="rgb(255,255,255)" />
		</clipPath>
		<linearGradient id="paint_linear_12" x1="51.8835564" x2="51.8932762" y1="8.74481201" y2="3.5686717" gradientUnits="userSpaceOnUse">
			<stop stop-color="rgb(0,0,0)" offset="0" stop-opacity="0.5" />
			<stop stop-color="rgb(242,241,241)" offset="0.463651955" stop-opacity="1" />
			<stop stop-color="rgb(243,242,242)" offset="1" stop-opacity="0" />
		</linearGradient>
		<linearGradient id="paint_linear_13" x1="44.4775505" x2="44.4872704" y1="8.74481201" y2="3.5686717" gradientUnits="userSpaceOnUse">
			<stop stop-color="rgb(0,0,0)" offset="0" stop-opacity="0.5" />
			<stop stop-color="rgb(242,241,241)" offset="0.463651955" stop-opacity="1" />
			<stop stop-color="rgb(243,242,242)" offset="1" stop-opacity="0" />
		</linearGradient>
		<linearGradient id="paint_linear_14" x1="37.0715446" x2="37.0812645" y1="8.74481201" y2="3.5686717" gradientUnits="userSpaceOnUse">
			<stop stop-color="rgb(0,0,0)" offset="0" stop-opacity="0.5" />
			<stop stop-color="rgb(242,241,241)" offset="0.463651955" stop-opacity="1" />
			<stop stop-color="rgb(243,242,242)" offset="1" stop-opacity="0" />
		</linearGradient>
		<linearGradient id="paint_linear_15" x1="29.665659" x2="29.6753807" y1="8.74481201" y2="3.5686717" gradientUnits="userSpaceOnUse">
			<stop stop-color="rgb(0,0,0)" offset="0" stop-opacity="0.5" />
			<stop stop-color="rgb(242,241,241)" offset="0.463651955" stop-opacity="1" />
			<stop stop-color="rgb(243,242,242)" offset="1" stop-opacity="0" />
		</linearGradient>
		<linearGradient id="paint_linear_16" x1="33.0671463" x2="33.0671463" y1="27.1936035" y2="33.4311447" gradientUnits="userSpaceOnUse">
			<stop stop-color="rgb(42,44,68)" offset="0" stop-opacity="1" />
			<stop stop-color="rgb(86.1143,88.7724,120.67)" offset="0.530903637" stop-opacity="1" />
			<stop stop-color="rgb(37,40,64)" offset="1" stop-opacity="1" />
		</linearGradient>
		<linearGradient id="paint_linear_17" x1="38.2701759" x2="38.2701759" y1="27.1936035" y2="33.4311447" gradientUnits="userSpaceOnUse">
			<stop stop-color="rgb(42,44,68)" offset="0" stop-opacity="1" />
			<stop stop-color="rgb(86.1143,88.7724,120.67)" offset="0.530903637" stop-opacity="1" />
			<stop stop-color="rgb(37,40,64)" offset="1" stop-opacity="1" />
		</linearGradient>
		<linearGradient id="paint_linear_18" x1="43.4667168" x2="43.4667168" y1="27.1936035" y2="33.4311447" gradientUnits="userSpaceOnUse">
			<stop stop-color="rgb(42,44,68)" offset="0" stop-opacity="1" />
			<stop stop-color="rgb(86.1143,88.7724,120.67)" offset="0.530903637" stop-opacity="1" />
			<stop stop-color="rgb(37,40,64)" offset="1" stop-opacity="1" />
		</linearGradient>
		<linearGradient id="paint_linear_19" x1="48.6937866" x2="48.6937866" y1="27.1936035" y2="33.4311447" gradientUnits="userSpaceOnUse">
			<stop stop-color="rgb(42,44,68)" offset="0" stop-opacity="1" />
			<stop stop-color="rgb(86.1143,88.7724,120.67)" offset="0.530903637" stop-opacity="1" />
			<stop stop-color="rgb(37,40,64)" offset="1" stop-opacity="1" />
		</linearGradient>
	</defs>
	<rect id="组件集 97/CHIP" width="82.000000" height="60.000000" x="0.000000" y="0.000000" />
	<rect id="矩形 3085" width="68.612244" height="68.612251" x="0.000000" y="0.000000" />
	<g id="CHIP浅色">
		<g id="画板 2494" customFrame="url(#clipPath_0)">
			<rect id="画板 2494" width="25.252510" height="4.552032" x="0.000000" y="0.000000" fill="rgb(255,255,255)" fill-opacity="0" transform="matrix(0,-1,1,0,15,42.1929)" />
			<path id="矩形 3067" d="M0.758672 0L2.27602 0C2.69502 0 3.03469 0.339669 3.03469 0.758672L3.03469 4.55203L0 4.55203L0 0.758672C0 0.339669 0.339669 0 0.758672 0Z" fill="rgb(182,182,182)" fill-rule="evenodd" transform="matrix(0,-1,1,0,15,19.9751)" />
			<path id="矩形 3067" d="M0.758672 0L2.27602 0C2.69502 0 3.03469 0.339669 3.03469 0.758672L3.03469 4.55203L0 4.55203L0 0.758672C0 0.339669 0.339669 0 0.758672 0Z" fill="url(#paint_linear_0)" fill-opacity="0.600000024" fill-rule="evenodd" transform="matrix(0,-1,1,0,15,19.9751)" />
			<path id="矩形 3067" d="M0.758672 0L2.27602 0C2.69502 0 3.03469 0.339669 3.03469 0.758672L3.03469 4.55203L0 4.55203L0 0.758672C0 0.339669 0.339669 0 0.758672 0Z" fill="rgb(182,182,182)" fill-rule="evenodd" transform="matrix(0,-1,1,0,15,27.3811)" />
			<path id="矩形 3067" d="M0.758672 0L2.27602 0C2.69502 0 3.03469 0.339669 3.03469 0.758672L3.03469 4.55203L0 4.55203L0 0.758672C0 0.339669 0.339669 0 0.758672 0Z" fill="url(#paint_linear_1)" fill-opacity="0.600000024" fill-rule="evenodd" transform="matrix(0,-1,1,0,15,27.3811)" />
			<path id="矩形 3067" d="M0.758672 0L2.27602 0C2.69502 0 3.03469 0.339669 3.03469 0.758672L3.03469 4.55203L0 4.55203L0 0.758672C0 0.339669 0.339669 0 0.758672 0Z" fill="rgb(182,182,182)" fill-rule="evenodd" transform="matrix(0,-1,1,0,15,34.7869)" />
			<path id="矩形 3067" d="M0.758672 0L2.27602 0C2.69502 0 3.03469 0.339669 3.03469 0.758672L3.03469 4.55203L0 4.55203L0 0.758672C0 0.339669 0.339669 0 0.758672 0Z" fill="url(#paint_linear_2)" fill-opacity="0.600000024" fill-rule="evenodd" transform="matrix(0,-1,1,0,15,34.7869)" />
			<path id="矩形 3067" d="M0.758672 0L2.27602 0C2.69502 0 3.03469 0.339669 3.03469 0.758672L3.03469 4.55203L0 4.55203L0 0.758672C0 0.339669 0.339669 0 0.758672 0Z" fill="rgb(182,182,182)" fill-rule="evenodd" transform="matrix(0,-1,1,0,15,42.1929)" />
			<path id="矩形 3067" d="M0.758672 0L2.27602 0C2.69502 0 3.03469 0.339669 3.03469 0.758672L3.03469 4.55203L0 4.55203L0 0.758672C0 0.339669 0.339669 0 0.758672 0Z" fill="url(#paint_linear_3)" fill-opacity="0.600000024" fill-rule="evenodd" transform="matrix(0,-1,1,0,15,42.1929)" />
		</g>
		<g id="画板 1659" customFrame="url(#clipPath_1)">
			<rect id="画板 1659" width="25.252510" height="4.551926" x="0.000000" y="0.000000" fill="rgb(255,255,255)" fill-opacity="0" transform="matrix(1,0,0,-1,27.9404,56)" />
			<path id="矩形 3067" d="M0.758672 0L2.27602 0C2.69502 0 3.03469 0.339669 3.03469 0.758672L3.03469 4.55203L0 4.55203L0 0.758672C0 0.339669 0.339669 0 0.758672 0Z" fill="rgb(182,182,182)" fill-rule="evenodd" transform="matrix(1,0,0,-1,50.1582,56)" />
			<path id="矩形 3067" d="M0.758672 0L2.27602 0C2.69502 0 3.03469 0.339669 3.03469 0.758672L3.03469 4.55203L0 4.55203L0 0.758672C0 0.339669 0.339669 0 0.758672 0Z" fill="url(#paint_linear_4)" fill-opacity="0.600000024" fill-rule="evenodd" transform="matrix(1,0,0,-1,50.1582,56)" />
			<path id="矩形 3067" d="M0.758672 0L2.27602 0C2.69502 0 3.03469 0.339669 3.03469 0.758672L3.03469 4.55203L0 4.55203L0 0.758672C0 0.339669 0.339669 0 0.758672 0Z" fill="rgb(182,182,182)" fill-rule="evenodd" transform="matrix(1,0,0,-1,42.7522,56)" />
			<path id="矩形 3067" d="M0.758672 0L2.27602 0C2.69502 0 3.03469 0.339669 3.03469 0.758672L3.03469 4.55203L0 4.55203L0 0.758672C0 0.339669 0.339669 0 0.758672 0Z" fill="url(#paint_linear_5)" fill-opacity="0.600000024" fill-rule="evenodd" transform="matrix(1,0,0,-1,42.7522,56)" />
			<path id="矩形 3067" d="M0.758672 0L2.27602 0C2.69502 0 3.03469 0.339669 3.03469 0.758672L3.03469 4.55203L0 4.55203L0 0.758672C0 0.339669 0.339669 0 0.758672 0Z" fill="rgb(182,182,182)" fill-rule="evenodd" transform="matrix(1,0,0,-1,35.3463,56)" />
			<path id="矩形 3067" d="M0.758672 0L2.27602 0C2.69502 0 3.03469 0.339669 3.03469 0.758672L3.03469 4.55203L0 4.55203L0 0.758672C0 0.339669 0.339669 0 0.758672 0Z" fill="url(#paint_linear_6)" fill-opacity="0.600000024" fill-rule="evenodd" transform="matrix(1,0,0,-1,35.3463,56)" />
			<path id="矩形 3067" d="M0.758672 0L2.27602 0C2.69502 0 3.03469 0.339669 3.03469 0.758672L3.03469 4.55203L0 4.55203L0 0.758672C0 0.339669 0.339669 0 0.758672 0Z" fill="rgb(182,182,182)" fill-rule="evenodd" transform="matrix(1,0,0,-1,27.9404,56)" />
			<path id="矩形 3067" d="M0.758672 0L2.27602 0C2.69502 0 3.03469 0.339669 3.03469 0.758672L3.03469 4.55203L0 4.55203L0 0.758672C0 0.339669 0.339669 0 0.758672 0Z" fill="url(#paint_linear_7)" fill-opacity="0.600000024" fill-rule="evenodd" transform="matrix(1,0,0,-1,27.9404,56)" />
		</g>
		<g id="画板 2495" customFrame="url(#clipPath_2)">
			<rect id="画板 2495" width="25.252510" height="4.551926" x="0.000000" y="0.000000" fill="rgb(255,255,255)" fill-opacity="0" transform="matrix(0,1,-1,0,67,16.9404)" />
			<path id="矩形 3067" d="M0.758672 0L2.27602 0C2.69502 0 3.03469 0.339669 3.03469 0.758672L3.03469 4.55203L0 4.55203L0 0.758672C0 0.339669 0.339669 0 0.758672 0Z" fill="rgb(182,182,182)" fill-rule="evenodd" transform="matrix(0,1,-1,0,67,39.1582)" />
			<path id="矩形 3067" d="M0.758672 0L2.27602 0C2.69502 0 3.03469 0.339669 3.03469 0.758672L3.03469 4.55203L0 4.55203L0 0.758672C0 0.339669 0.339669 0 0.758672 0Z" fill="url(#paint_linear_8)" fill-opacity="0.600000024" fill-rule="evenodd" transform="matrix(0,1,-1,0,67,39.1582)" />
			<path id="矩形 3067" d="M0.758672 0L2.27602 0C2.69502 0 3.03469 0.339669 3.03469 0.758672L3.03469 4.55203L0 4.55203L0 0.758672C0 0.339669 0.339669 0 0.758672 0Z" fill="rgb(182,182,182)" fill-rule="evenodd" transform="matrix(0,1,-1,0,67,31.7522)" />
			<path id="矩形 3067" d="M0.758672 0L2.27602 0C2.69502 0 3.03469 0.339669 3.03469 0.758672L3.03469 4.55203L0 4.55203L0 0.758672C0 0.339669 0.339669 0 0.758672 0Z" fill="url(#paint_linear_9)" fill-opacity="0.600000024" fill-rule="evenodd" transform="matrix(0,1,-1,0,67,31.7522)" />
			<path id="矩形 3067" d="M0.758672 0L2.27602 0C2.69502 0 3.03469 0.339669 3.03469 0.758672L3.03469 4.55203L0 4.55203L0 0.758672C0 0.339669 0.339669 0 0.758672 0Z" fill="rgb(182,182,182)" fill-rule="evenodd" transform="matrix(0,1,-1,0,67,24.3464)" />
			<path id="矩形 3067" d="M0.758672 0L2.27602 0C2.69502 0 3.03469 0.339669 3.03469 0.758672L3.03469 4.55203L0 4.55203L0 0.758672C0 0.339669 0.339669 0 0.758672 0Z" fill="url(#paint_linear_10)" fill-opacity="0.600000024" fill-rule="evenodd" transform="matrix(0,1,-1,0,67,24.3464)" />
			<path id="矩形 3067" d="M0.758672 0L2.27602 0C2.69502 0 3.03469 0.339669 3.03469 0.758672L3.03469 4.55203L0 4.55203L0 0.758672C0 0.339669 0.339669 0 0.758672 0Z" fill="rgb(182,182,182)" fill-rule="evenodd" transform="matrix(0,1,-1,0,67,16.9404)" />
			<path id="矩形 3067" d="M0.758672 0L2.27602 0C2.69502 0 3.03469 0.339669 3.03469 0.758672L3.03469 4.55203L0 4.55203L0 0.758672C0 0.339669 0.339669 0 0.758672 0Z" fill="url(#paint_linear_11)" fill-opacity="0.600000024" fill-rule="evenodd" transform="matrix(0,1,-1,0,67,16.9404)" />
		</g>
		<g id="画板 1659" customFrame="url(#clipPath_3)">
			<rect id="画板 1659" width="25.252510" height="4.552032" x="28.254517" y="4.000000" fill="rgb(255,255,255)" fill-opacity="0" />
			<path id="矩形 3067" d="M51.2311 4L52.7484 4C53.1674 4 53.5071 4.33967 53.5071 4.75867L53.5071 8.55203L50.4724 8.55203L50.4724 4.75867C50.4724 4.33967 50.8121 4 51.2311 4Z" fill="rgb(182,182,182)" fill-rule="evenodd" />
			<path id="矩形 3067" d="M51.2311 4L52.7484 4C53.1674 4 53.5071 4.33967 53.5071 4.75867L53.5071 8.55203L50.4724 8.55203L50.4724 4.75867C50.4724 4.33967 50.8121 4 51.2311 4Z" fill="url(#paint_linear_12)" fill-opacity="0.600000024" fill-rule="evenodd" />
			<path id="矩形 3067" d="M43.8251 4L45.3424 4C45.7614 4 46.1011 4.33967 46.1011 4.75867L46.1011 8.55203L43.0664 8.55203L43.0664 4.75867C43.0664 4.33967 43.4061 4 43.8251 4Z" fill="rgb(182,182,182)" fill-rule="evenodd" />
			<path id="矩形 3067" d="M43.8251 4L45.3424 4C45.7614 4 46.1011 4.33967 46.1011 4.75867L46.1011 8.55203L43.0664 8.55203L43.0664 4.75867C43.0664 4.33967 43.4061 4 43.8251 4Z" fill="url(#paint_linear_13)" fill-opacity="0.600000024" fill-rule="evenodd" />
			<path id="矩形 3067" d="M36.4191 4L37.9364 4C38.3554 4 38.6951 4.33967 38.6951 4.75867L38.6951 8.55203L35.6604 8.55203L35.6604 4.75867C35.6604 4.33967 36.0001 4 36.4191 4Z" fill="rgb(182,182,182)" fill-rule="evenodd" />
			<path id="矩形 3067" d="M36.4191 4L37.9364 4C38.3554 4 38.6951 4.33967 38.6951 4.75867L38.6951 8.55203L35.6604 8.55203L35.6604 4.75867C35.6604 4.33967 36.0001 4 36.4191 4Z" fill="url(#paint_linear_14)" fill-opacity="0.600000024" fill-rule="evenodd" />
			<path id="矩形 3067" d="M29.0132 4L30.5305 4C30.9495 4 31.2892 4.33967 31.2892 4.75867L31.2892 8.55203L28.2545 8.55203L28.2545 4.75867C28.2545 4.33967 28.5942 4 29.0132 4Z" fill="rgb(182,182,182)" fill-rule="evenodd" />
			<path id="矩形 3067" d="M29.0132 4L30.5305 4C30.9495 4 31.2892 4.33967 31.2892 4.75867L31.2892 8.55203L28.2545 8.55203L28.2545 4.75867C28.2545 4.33967 28.5942 4 29.0132 4Z" fill="url(#paint_linear_15)" fill-opacity="0.600000024" fill-rule="evenodd" />
		</g>
		<rect id="矩形 5798" width="43.134644" height="43.134647" x="19.313477" y="8.313477" rx="3.450772" fill="rgb(0,0,0)" />
		<rect id="矩形 5798" width="41.840603" height="41.840607" x="19.960497" y="8.960496" rx="2.803752" stroke="rgb(255,255,255)" stroke-width="1.294039" />
		<rect id="矩形 5800" width="34.507717" height="34.507717" x="23.626953" y="12.626953" rx="0.862693" fill="rgb(255,255,255)" fill-opacity="0.150000006" />
		<g id="CHIP(边框)">
			<path id="边框" d="M34.8876 28.124C35.0499 28.3479 35.1676 28.6181 35.2406 28.9347L35.2562 29.0022L34.254 29.6599L34.2419 29.4907C34.2191 29.1721 34.1477 28.9252 34.0276 28.7499L34.0163 28.7408L33.992 28.7043C33.8658 28.5309 33.7182 28.4088 33.549 28.338C33.4323 28.2891 33.3053 28.2647 33.168 28.2647C32.9945 28.2647 32.8376 28.2989 32.6975 28.3673C32.4506 28.4878 32.2555 28.7146 32.1123 29.0475C32.0021 29.3161 31.947 29.6974 31.947 30.1913L31.947 30.5645L31.9575 30.6003L31.9575 30.6887L31.966 30.7224L31.966 30.802C31.967 30.8046 31.968 30.8072 31.9688 30.8099C31.9725 30.8214 31.9744 30.8335 31.9744 30.8463L31.9744 30.8821L31.9723 30.8797L31.9828 30.9007L31.9828 30.9534L31.9912 30.9702L31.9912 31.0179L32.0017 31.0721L32.0165 31.1485L32.0165 31.1642C32.0176 31.1668 32.0185 31.1695 32.0194 31.1721C32.0211 31.1773 32.0224 31.1827 32.0233 31.1882L32.0308 31.2125L32.0318 31.2184C32.035 31.236 32.0407 31.2619 32.0491 31.2963C32.0578 31.3317 32.0639 31.3591 32.0672 31.3783L32.0735 31.4048C32.1167 31.5188 32.1599 31.6162 32.203 31.697C32.2801 31.843 32.3591 31.9599 32.4397 32.0478C32.5397 32.1594 32.6522 32.2419 32.7771 32.2953C32.8914 32.3441 33.0161 32.3685 33.1512 32.3685C33.4415 32.3685 33.6849 32.3006 33.8813 32.1648L33.8813 32.1648C33.9822 32.095 34.0707 32.0073 34.1469 31.9016L34.1469 31.7311L35.1167 32.3721L35.0628 32.455C34.8933 32.7154 34.6896 32.9237 34.4517 33.0799C34.095 33.3141 33.6615 33.4311 33.1512 33.4311C32.8551 33.4311 32.583 33.3766 32.3349 33.2674C31.9095 33.0803 31.5546 32.7328 31.2704 32.2248C31.1293 31.9791 31.028 31.6987 30.9663 31.3835L30.9644 31.3741L30.9644 31.332L30.939 31.2028L30.9286 31.151L30.9286 31.1152L30.9217 31.0809L30.9214 31.079C30.9183 31.0597 30.9153 31.0327 30.9124 30.9979C30.9098 30.9676 30.9074 30.9464 30.9051 30.9344L30.9033 30.9252L30.9033 30.8797C30.8921 30.786 30.8865 30.7145 30.8865 30.6652L30.8865 30.587L30.8781 30.5365L30.8781 30.1828C30.8781 29.5579 30.9606 29.0446 31.1258 28.643C31.2866 28.2552 31.5093 27.9398 31.7939 27.6968C31.839 27.6582 31.8857 27.6215 31.9339 27.5866C32.0864 27.4763 32.2477 27.3891 32.4177 27.3253C32.6513 27.2375 32.9014 27.1936 33.168 27.1936C33.4631 27.1936 33.7348 27.2475 33.983 27.3553C34.3303 27.5061 34.6319 27.7623 34.8876 28.124ZM34.3308 29.3713C34.2966 29.0727 34.2156 28.8426 34.1011 28.6811L34.0905 28.6727L34.0737 28.6474C33.8231 28.302 33.5556 28.1651 33.168 28.1651C32.6499 28.1651 32.254 28.4663 32.0202 29.0097C31.9001 29.3025 31.8475 29.69 31.8475 30.1913L31.8475 30.5788L31.858 30.6146L31.858 30.701L31.8664 30.7347L31.8664 30.8294C31.8748 30.8379 31.8748 30.8379 31.8748 30.8463L31.8748 30.8821C31.8748 30.8989 31.8748 30.9074 31.8833 30.9242L31.8833 30.96C31.8833 30.9685 31.8833 30.9769 31.8917 30.9937L31.8917 31.0274C31.9001 31.0717 31.9085 31.1138 31.917 31.158L31.917 31.1917C31.9254 31.2001 31.9254 31.2001 31.9254 31.2086L31.9338 31.2359C31.9443 31.2949 31.9612 31.3476 31.9696 31.3981L31.978 31.4339C32.0202 31.5455 32.0644 31.6487 32.1149 31.7435C32.1929 31.891 32.2708 32.011 32.3656 32.1142C32.5825 32.3564 32.8837 32.4681 33.1512 32.4681C33.6187 32.4681 33.9561 32.3105 34.196 32.0022C34.2133 31.98 34.2301 31.9569 34.2464 31.9331L34.2464 31.9162L34.3374 31.9764L34.9794 32.4007C34.9735 32.4097 34.9676 32.4186 34.9616 32.4275C34.949 32.4463 34.9362 32.4647 34.9232 32.4829C34.5178 33.0493 33.9094 33.3316 33.1512 33.3316C32.3656 33.3316 31.7716 32.9167 31.3567 32.1753C31.2177 31.9331 31.1229 31.6656 31.064 31.3644L31.064 31.3223C31.0555 31.2781 31.0471 31.2359 31.0366 31.1833L31.0282 31.1412L31.0282 31.1054L31.0197 31.0632C31.0113 31.0106 31.0113 30.96 31.0029 30.9158L31.0029 30.8737C30.9945 30.8042 30.986 30.7347 30.986 30.6652L30.986 30.5788L30.9776 30.5283L30.9776 30.1828C30.9776 29.5868 31.0471 29.0961 31.2177 28.6811C31.5716 27.8281 32.2792 27.2932 33.168 27.2932C33.8589 27.2932 34.3854 27.5859 34.8066 28.182C34.9625 28.3968 35.0741 28.6559 35.1436 28.957L34.436 29.4214L34.3412 29.4836C34.3384 29.4451 34.335 29.4077 34.3308 29.3713Z" fill="url(#paint_linear_16)" fill-opacity="0" fill-rule="evenodd" />
			<path id="边框" d="M36.0613 27.1936L37.1239 27.1936L37.1239 29.601L39.4185 29.601L39.4185 27.1936L40.4791 27.1936L40.4791 33.4311L39.4185 33.4311L39.4185 30.6615L37.1239 30.6615L37.1239 33.4311L36.0613 33.4311L36.0613 27.1936ZM37.0244 29.7005L39.5181 29.7005L39.5181 27.2932L40.3795 27.2932L40.3795 33.3316L39.5181 33.3316L39.5181 30.562L37.0244 30.562L37.0244 33.3316L36.1608 33.3316L36.1608 27.2932L37.0244 27.2932L37.0244 29.7005Z" fill="url(#paint_linear_17)" fill-opacity="0" fill-rule="evenodd" />
			<path id="边框" d="M41.3638 28.2541L41.649 27.1936L45.5697 27.1936L45.5697 28.2541L44.0174 28.2541L44.0174 32.3607L45.458 32.3691L45.458 33.4311L41.4889 33.4311L41.4889 32.3601L42.9463 32.3601L42.9463 28.2541L41.3638 28.2541ZM43.9179 28.1546L43.9179 32.4596L45.3585 32.4681L45.3585 33.3316L41.5884 33.3316L41.5884 32.4596L43.0459 32.4596L43.0459 28.1546L41.4936 28.1546L41.7253 27.2932L45.4701 27.2932L45.4701 28.1546L43.9179 28.1546Z" fill="url(#paint_linear_18)" fill-opacity="0" fill-rule="evenodd" />
			<path id="边框" d="M46.4827 27.1936L48.6716 27.1936C48.9883 27.1936 49.2804 27.251 49.5478 27.3659C49.8337 27.4888 50.0914 27.6773 50.3209 27.9315C50.5393 28.1734 50.6964 28.436 50.7923 28.7194C50.8932 29.0176 50.9263 29.3387 50.8916 29.6828C50.8641 29.9639 50.7914 30.2223 50.6733 30.458C50.5562 30.6916 50.3946 30.9028 50.1885 31.0918C50.1733 31.106 50.1578 31.1199 50.1421 31.1334C49.9076 31.3353 49.6133 31.4675 49.2591 31.5302C49.2432 31.5358 49.225 31.5394 49.2045 31.541L49.1858 31.5503L49.1623 31.5503L49.1563 31.5482L49.1353 31.5587L49.0752 31.5587L49.05 31.5672L48.972 31.5672L48.9468 31.5756L48.8167 31.5756L48.7661 31.584L47.5453 31.584L47.5453 33.4311L46.4827 33.4311L46.4827 27.1936ZM50.1206 31.019C49.87 31.2528 49.5856 31.3728 49.2318 31.4339C49.215 31.4423 49.1981 31.4423 49.1791 31.4423L49.1623 31.4508C49.1454 31.4508 49.1286 31.4508 49.1117 31.4592L49.0591 31.4592L49.0338 31.4676L48.9559 31.4676L48.9306 31.476L48.8085 31.476L48.7579 31.4845L47.4458 31.4845L47.4458 33.3316L46.5822 33.3316L46.5822 27.2932L48.6716 27.2932C49.9142 27.2932 50.9231 28.3799 50.7925 29.6731C50.7419 30.1913 50.525 30.6483 50.1206 31.019ZM49.9311 29.5868C49.8952 29.9069 49.7752 30.166 49.533 30.3808C49.5246 30.3892 49.5161 30.4061 49.4993 30.4166L49.4909 30.4251C49.4045 30.4925 49.3182 30.5367 49.1876 30.5704L49.1623 30.5704C49.1117 30.5788 49.0507 30.5978 48.9812 30.5978L48.9475 30.6062L48.8695 30.6062L48.8443 30.6146L48.739 30.6146L48.6968 30.623L47.4458 30.623L47.4458 28.1546L48.6884 28.1546C49.4214 28.1651 50.009 28.8201 49.9311 29.5868ZM49.4369 30.3382L49.4249 30.3502C49.3541 30.4044 49.2707 30.4446 49.1746 30.4708L49.1541 30.4708L49.1459 30.4722C49.1348 30.474 49.1181 30.4773 49.0957 30.4821C49.0455 30.4928 49.0073 30.4982 48.9812 30.4982L48.9689 30.4982L48.9352 30.5066L48.8534 30.5066L48.8281 30.5151L48.7291 30.5151L48.687 30.5235L47.5453 30.5235L47.5453 28.2541L48.6884 28.2541C48.8445 28.2564 48.989 28.2859 49.1218 28.3427C49.2767 28.4089 49.4158 28.5123 49.539 28.6528C49.6509 28.7805 49.7316 28.9186 49.7809 29.0671C49.8335 29.2252 49.8505 29.3951 49.832 29.5767C49.8104 29.7701 49.7522 29.9398 49.6576 30.0858C49.6052 30.1666 49.5416 30.2401 49.4669 30.3063L49.4647 30.3083L49.4626 30.3104C49.4575 30.3155 49.4516 30.3225 49.445 30.3312L49.4465 30.3322L49.4369 30.3382Z" fill="url(#paint_linear_19)" fill-opacity="0" fill-rule="evenodd" />
		</g>
	</g>
	<path id="" d="M28.7307 31.5027Q29.5698 31.5027 29.9612 30.7268L30.4653 31.0208Q30.2483 31.5164 29.7937 31.7966Q29.3391 32.0769 28.7444 32.0769Q28.0933 32.0769 27.5601 31.7419Q27.0286 31.4053 26.721 30.8037Q26.4133 30.2004 26.4133 29.4314Q26.4133 28.6606 26.721 28.0591Q27.0286 27.4575 27.5601 27.126Q28.0933 26.7927 28.7444 26.7927Q29.3391 26.7927 29.7937 27.073Q30.2483 27.3516 30.4653 27.8489L29.9612 28.1428Q29.5698 27.3652 28.7307 27.3652Q28.2402 27.3652 27.8609 27.625Q27.4832 27.8848 27.2764 28.353Q27.0713 28.8213 27.0713 29.4314Q27.0713 30.0398 27.2764 30.5132Q27.4832 30.9849 27.8609 31.2446Q28.2402 31.5027 28.7307 31.5027ZM30.9498 30.1799Q30.9498 29.6348 31.1908 29.2007Q31.4318 28.7666 31.83 28.5256Q32.2299 28.283 32.6913 28.283Q33.1544 28.283 33.5526 28.5222Q33.9525 28.7598 34.1901 29.1938Q34.4276 29.6262 34.4276 30.1799Q34.4276 30.7336 34.1901 31.1643Q33.9525 31.5933 33.5526 31.8359Q33.1544 32.0769 32.6913 32.0769Q32.2299 32.0769 31.8265 31.8359Q31.4249 31.5933 31.1874 31.1643Q30.9498 30.7336 30.9498 30.1799ZM31.5787 30.1799Q31.5787 30.5935 31.7257 30.8943Q31.8727 31.1951 32.1239 31.3557Q32.3768 31.5164 32.6913 31.5164Q33.0075 31.5164 33.2587 31.3557Q33.5116 31.1951 33.6552 30.8943Q33.7987 30.5935 33.7987 30.1799Q33.7987 29.7664 33.6552 29.4656Q33.5116 29.1648 33.2587 29.0042Q33.0075 28.8435 32.6913 28.8435Q32.3768 28.8435 32.1239 29.0042Q31.8727 29.1648 31.7257 29.4656Q31.5787 29.7664 31.5787 30.1799ZM39.0893 28.283Q39.6088 28.283 39.9301 28.6572Q40.2514 29.0315 40.2514 29.7322L40.2514 32L39.6635 32L39.6635 29.9287Q39.6635 29.4023 39.4806 29.1272Q39.2995 28.8503 38.9423 28.8503Q38.5783 28.8503 38.3219 29.1306Q38.0673 29.4092 38.0673 29.9355L38.0673 32L37.4794 32L37.4794 29.9287Q37.4794 29.4092 37.2966 29.1306Q37.1154 28.8503 36.7668 28.8503Q36.4028 28.8503 36.1464 29.134Q35.8918 29.4177 35.8918 29.9355L35.8918 32L35.2953 32L35.2953 28.3667L35.8217 28.3667Q35.8285 28.6042 35.8559 28.9204Q36.0387 28.6042 36.3139 28.4436Q36.5907 28.283 36.9206 28.283Q37.2846 28.283 37.5597 28.4761Q37.8366 28.6675 37.9631 29.0452Q38.1374 28.6606 38.4347 28.4727Q38.7338 28.283 39.0893 28.283ZM43.0592 28.283Q43.4728 28.283 43.8402 28.5103Q44.2077 28.7375 44.4315 29.1682Q44.6554 29.5989 44.6554 30.1799Q44.6554 30.7678 44.4315 31.1985Q44.2077 31.6292 43.8402 31.853Q43.4728 32.0769 43.0592 32.0769Q42.7089 32.0769 42.3893 31.9128Q42.0714 31.7488 41.8698 31.4258L41.8698 33.6235L41.2733 33.6235L41.2733 28.3667L41.7997 28.3667Q41.8134 28.717 41.8407 28.9836Q42.0372 28.6333 42.362 28.459Q42.6884 28.283 43.0592 28.283ZM42.9823 31.5164Q43.4574 31.5164 43.7445 31.1677Q44.0316 30.8174 44.0316 30.1799Q44.0316 29.5425 43.7445 29.1938Q43.4574 28.8435 42.9823 28.8435Q42.6952 28.8435 42.4423 28.9768Q42.1911 29.1084 42.0304 29.4109Q41.8698 29.7117 41.8698 30.1799Q41.8698 30.6482 42.0304 30.9507Q42.1911 31.2515 42.4423 31.3848Q42.6952 31.5164 42.9823 31.5164ZM46.1188 32L45.5223 32L45.5223 26.6731L46.1188 26.6731L46.1188 32ZM48.7078 28.283Q49.1778 28.283 49.5298 28.5034Q49.8836 28.7239 50.0716 29.1016Q50.2612 29.4792 50.2612 29.9424Q50.2612 30.1372 50.2339 30.2996L47.6157 30.2996Q47.6516 30.9216 47.9729 31.2275Q48.2942 31.5317 48.7847 31.5317Q49.3948 31.5317 49.6665 31.0413L50.1228 31.2993Q49.9827 31.6702 49.5999 31.8735Q49.2188 32.0769 48.7505 32.0769Q48.26 32.0769 47.8567 31.853Q47.4551 31.6292 47.221 31.1985Q46.9868 30.7678 46.9868 30.1663Q46.9868 29.5852 47.221 29.158Q47.4551 28.7307 47.8465 28.5068Q48.2395 28.283 48.7078 28.283ZM48.6873 28.8298Q48.2942 28.8298 48.0037 29.0811Q47.7132 29.3323 47.6362 29.8159L49.6187 29.8159Q49.5965 29.3477 49.3435 29.0896Q49.0923 28.8298 48.6873 28.8298ZM52.2217 29.7117L53.1804 28.3667L53.8606 28.3667L52.5447 30.1731L53.8606 32L53.1326 32L52.1943 30.6567L51.2288 32L50.5349 32L51.8645 30.2004L50.5349 28.3667L51.2766 28.3667L52.2217 29.7117Z" fill="rgb(230,230,230)" fill-rule="nonzero" />
</svg>
