<svg viewBox="0 0 82 60" xmlns="http://www.w3.org/2000/svg" xmlns:xlink="http://www.w3.org/1999/xlink" width="82.000000" height="60.000000" fill="none" customFrame="url(#clipPath_4)">
	<defs>
		<clipPath id="clipPath_4">
			<rect width="82.000000" height="60.000000" x="0.000000" y="0.000000" rx="4.000000" fill="rgb(255,255,255)" />
		</clipPath>
		<clipPath id="clipPath_5">
			<rect width="24.492668" height="4.415062" x="28.734619" y="8.000000" fill="rgb(255,255,255)" />
		</clipPath>
		<linearGradient id="paint_linear_24" x1="51.6526184" x2="51.6620445" y1="12.6020412" y2="7.58165073" gradientUnits="userSpaceOnUse">
			<stop stop-color="rgb(0,0,0)" offset="0" stop-opacity="0.5" />
			<stop stop-color="rgb(242,241,241)" offset="0.463651955" stop-opacity="1" />
			<stop stop-color="rgb(243,242,242)" offset="1" stop-opacity="0" />
		</linearGradient>
		<linearGradient id="paint_linear_25" x1="44.4695129" x2="44.4789391" y1="12.6020412" y2="7.58165073" gradientUnits="userSpaceOnUse">
			<stop stop-color="rgb(0,0,0)" offset="0" stop-opacity="0.5" />
			<stop stop-color="rgb(242,241,241)" offset="0.463651955" stop-opacity="1" />
			<stop stop-color="rgb(243,242,242)" offset="1" stop-opacity="0" />
		</linearGradient>
		<linearGradient id="paint_linear_26" x1="37.2864075" x2="37.2958336" y1="12.6020412" y2="7.58165073" gradientUnits="userSpaceOnUse">
			<stop stop-color="rgb(0,0,0)" offset="0" stop-opacity="0.5" />
			<stop stop-color="rgb(242,241,241)" offset="0.463651955" stop-opacity="1" />
			<stop stop-color="rgb(243,242,242)" offset="1" stop-opacity="0" />
		</linearGradient>
		<linearGradient id="paint_linear_27" x1="30.1033001" x2="30.11273" y1="12.6020412" y2="7.58165073" gradientUnits="userSpaceOnUse">
			<stop stop-color="rgb(0,0,0)" offset="0" stop-opacity="0.5" />
			<stop stop-color="rgb(242,241,241)" offset="0.463651955" stop-opacity="1" />
			<stop stop-color="rgb(243,242,242)" offset="1" stop-opacity="0" />
		</linearGradient>
		<clipPath id="clipPath_6">
			<rect width="24.492668" height="4.415062" x="0.000000" y="0.000000" fill="rgb(255,255,255)" transform="matrix(1,0,0,-1,28.7346,50.9048)" />
		</clipPath>
		<radialGradient id="paint_radial_0" cx="0" cy="0" r="1" gradientUnits="userSpaceOnUse" gradientTransform="matrix(0.00687879,-0.98231,5.5945,0.0391764,1.16118,3.23171)">
			<stop stop-color="rgb(161,161,163)" offset="0" stop-opacity="1" />
			<stop stop-color="rgb(242,241,241)" offset="0.966796875" stop-opacity="0.528735638" />
			<stop stop-color="rgb(243,242,242)" offset="1" stop-opacity="0" />
		</radialGradient>
		<radialGradient id="paint_radial_1" cx="0" cy="0" r="1" gradientUnits="userSpaceOnUse" gradientTransform="matrix(0.00687879,-0.98231,5.5945,0.0391764,1.16118,3.23171)">
			<stop stop-color="rgb(161,161,163)" offset="0" stop-opacity="1" />
			<stop stop-color="rgb(242,241,241)" offset="0.966796875" stop-opacity="0.528735638" />
			<stop stop-color="rgb(243,242,242)" offset="1" stop-opacity="0" />
		</radialGradient>
		<radialGradient id="paint_radial_2" cx="0" cy="0" r="1" gradientUnits="userSpaceOnUse" gradientTransform="matrix(0.00687879,-0.98231,5.5945,0.0391764,1.16118,3.23171)">
			<stop stop-color="rgb(161,161,163)" offset="0" stop-opacity="1" />
			<stop stop-color="rgb(242,241,241)" offset="0.966796875" stop-opacity="0.528735638" />
			<stop stop-color="rgb(243,242,242)" offset="1" stop-opacity="0" />
		</radialGradient>
		<radialGradient id="paint_radial_3" cx="0" cy="0" r="1" gradientUnits="userSpaceOnUse" gradientTransform="matrix(0.00687879,-0.98231,5.5945,0.0391764,1.16118,3.23171)">
			<stop stop-color="rgb(161,161,163)" offset="0" stop-opacity="1" />
			<stop stop-color="rgb(242,241,241)" offset="0.966796875" stop-opacity="0.528735638" />
			<stop stop-color="rgb(243,242,242)" offset="1" stop-opacity="0" />
		</radialGradient>
		<linearGradient id="paint_linear_28" x1="55.7024269" x2="24.4942265" y1="29.8707848" y2="15.4814129" gradientUnits="userSpaceOnUse">
			<stop stop-color="rgb(130,145.345,219)" offset="0" stop-opacity="1" />
			<stop stop-color="rgb(198.732,211.93,252.723)" offset="1" stop-opacity="1" />
		</linearGradient>
		<linearGradient id="paint_linear_29" x1="55.7024841" x2="24.4942837" y1="29.8708324" y2="15.4814625" gradientUnits="userSpaceOnUse">
			<stop stop-color="rgb(130,145.345,219)" offset="0" stop-opacity="1" />
			<stop stop-color="rgb(198.732,211.93,252.723)" offset="1" stop-opacity="1" />
		</linearGradient>
		<linearGradient id="paint_linear_30" x1="55.7023697" x2="24.4941864" y1="29.8707657" y2="15.4813967" gradientUnits="userSpaceOnUse">
			<stop stop-color="rgb(130,145.345,219)" offset="0" stop-opacity="1" />
			<stop stop-color="rgb(198.732,211.93,252.723)" offset="1" stop-opacity="1" />
		</linearGradient>
		<linearGradient id="paint_linear_31" x1="55.7024803" x2="24.4942684" y1="29.8708363" y2="15.4814558" gradientUnits="userSpaceOnUse">
			<stop stop-color="rgb(130,145.345,219)" offset="0" stop-opacity="1" />
			<stop stop-color="rgb(198.732,211.93,252.723)" offset="1" stop-opacity="1" />
		</linearGradient>
		<linearGradient id="paint_linear_32" x1="55.7024384" x2="24.4942665" y1="29.8708324" y2="15.4814978" gradientUnits="userSpaceOnUse">
			<stop stop-color="rgb(130,145.345,219)" offset="0" stop-opacity="1" />
			<stop stop-color="rgb(198.732,211.93,252.723)" offset="1" stop-opacity="1" />
		</linearGradient>
		<linearGradient id="paint_linear_33" x1="55.7024384" x2="24.4942417" y1="29.870718" y2="15.4813604" gradientUnits="userSpaceOnUse">
			<stop stop-color="rgb(130,145.345,219)" offset="0" stop-opacity="1" />
			<stop stop-color="rgb(198.732,211.93,252.723)" offset="1" stop-opacity="1" />
		</linearGradient>
		<linearGradient id="paint_linear_34" x1="28.7293129" x2="28.7293129" y1="26.8461914" y2="32.8960457" gradientUnits="userSpaceOnUse">
			<stop stop-color="rgb(42,44,68)" offset="0" stop-opacity="1" />
			<stop stop-color="rgb(86.1143,88.7724,120.67)" offset="0.530903637" stop-opacity="1" />
			<stop stop-color="rgb(37,40,64)" offset="1" stop-opacity="1" />
		</linearGradient>
		<linearGradient id="paint_linear_35" x1="33.5409775" x2="33.5409775" y1="28.1352539" y2="32.8960953" gradientUnits="userSpaceOnUse">
			<stop stop-color="rgb(42,44,68)" offset="0" stop-opacity="1" />
			<stop stop-color="rgb(86.1143,88.7724,120.67)" offset="0.530903637" stop-opacity="1" />
			<stop stop-color="rgb(37,40,64)" offset="1" stop-opacity="1" />
		</linearGradient>
		<linearGradient id="paint_linear_36" x1="38.7442894" x2="38.7442894" y1="28.1162109" y2="34.836525" gradientUnits="userSpaceOnUse">
			<stop stop-color="rgb(42,44,68)" offset="0" stop-opacity="1" />
			<stop stop-color="rgb(86.1143,88.7724,120.67)" offset="0.530903637" stop-opacity="1" />
			<stop stop-color="rgb(37,40,64)" offset="1" stop-opacity="1" />
		</linearGradient>
		<linearGradient id="paint_linear_37" x1="43.8164444" x2="43.8164444" y1="28.1352539" y2="32.9042664" gradientUnits="userSpaceOnUse">
			<stop stop-color="rgb(42,44,68)" offset="0" stop-opacity="1" />
			<stop stop-color="rgb(86.1143,88.7724,120.67)" offset="0.530903637" stop-opacity="1" />
			<stop stop-color="rgb(37,40,64)" offset="1" stop-opacity="1" />
		</linearGradient>
		<linearGradient id="paint_linear_38" x1="48.7904243" x2="48.7904243" y1="28.1352539" y2="32.8960953" gradientUnits="userSpaceOnUse">
			<stop stop-color="rgb(42,44,68)" offset="0" stop-opacity="1" />
			<stop stop-color="rgb(86.1143,88.7724,120.67)" offset="0.530903637" stop-opacity="1" />
			<stop stop-color="rgb(37,40,64)" offset="1" stop-opacity="1" />
		</linearGradient>
		<linearGradient id="paint_linear_39" x1="53.8598671" x2="53.8598671" y1="28.1433105" y2="32.9041519" gradientUnits="userSpaceOnUse">
			<stop stop-color="rgb(42,44,68)" offset="0" stop-opacity="1" />
			<stop stop-color="rgb(86.1143,88.7724,120.67)" offset="0.530903637" stop-opacity="1" />
			<stop stop-color="rgb(37,40,64)" offset="1" stop-opacity="1" />
		</linearGradient>
	</defs>
	<rect id="属性 1=Eeprom" width="82.000000" height="60.000000" x="0.000000" y="0.000000" rx="4.000000" />
	<g id="组合 4504">
		<g id="CHIP默认">
			<g id="画板 1661" customFrame="url(#clipPath_5)">
				<rect id="画板 1661" width="24.492668" height="4.415062" x="28.734619" y="8.000000" fill="rgb(255,255,255)" fill-opacity="0" />
				<path id="矩形 3067" d="M51.0198 8L52.4915 8C52.8979 8 53.2273 8.32945 53.2273 8.73584L53.2273 12.4151L50.2839 12.4151L50.2839 8.73584C50.2839 8.32945 50.6134 8 51.0198 8Z" fill="rgb(182,182,182)" fill-rule="evenodd" />
				<path id="矩形 3067" d="M51.0198 8L52.4915 8C52.8979 8 53.2273 8.32945 53.2273 8.73584L53.2273 12.4151L50.2839 12.4151L50.2839 8.73584C50.2839 8.32945 50.6134 8 51.0198 8Z" fill="url(#paint_linear_24)" fill-opacity="0.600000024" fill-rule="evenodd" />
				<path id="矩形 3067" d="M43.8367 8L45.3084 8C45.7148 8 46.0442 8.32945 46.0442 8.73584L46.0442 12.4151L43.1008 12.4151L43.1008 8.73584C43.1008 8.32945 43.4303 8 43.8367 8Z" fill="rgb(182,182,182)" fill-rule="evenodd" />
				<path id="矩形 3067" d="M43.8367 8L45.3084 8C45.7148 8 46.0442 8.32945 46.0442 8.73584L46.0442 12.4151L43.1008 12.4151L43.1008 8.73584C43.1008 8.32945 43.4303 8 43.8367 8Z" fill="url(#paint_linear_25)" fill-opacity="0.600000024" fill-rule="evenodd" />
				<path id="矩形 3067" d="M36.6536 8L38.1253 8C38.5317 8 38.8611 8.32945 38.8611 8.73584L38.8611 12.4151L35.9177 12.4151L35.9177 8.73584C35.9177 8.32945 36.2472 8 36.6536 8Z" fill="rgb(182,182,182)" fill-rule="evenodd" />
				<path id="矩形 3067" d="M36.6536 8L38.1253 8C38.5317 8 38.8611 8.32945 38.8611 8.73584L38.8611 12.4151L35.9177 12.4151L35.9177 8.73584C35.9177 8.32945 36.2472 8 36.6536 8Z" fill="url(#paint_linear_26)" fill-opacity="0.600000024" fill-rule="evenodd" />
				<path id="矩形 3067" d="M29.4705 8L30.9422 8C31.3485 8 31.678 8.32945 31.678 8.73584L31.678 12.4151L28.7346 12.4151L28.7346 8.73584C28.7346 8.32945 29.0641 8 29.4705 8Z" fill="rgb(182,182,182)" fill-rule="evenodd" />
				<path id="矩形 3067" d="M29.4705 8L30.9422 8C31.3485 8 31.678 8.32945 31.678 8.73584L31.678 12.4151L28.7346 12.4151L28.7346 8.73584C28.7346 8.32945 29.0641 8 29.4705 8Z" fill="url(#paint_linear_27)" fill-opacity="0.600000024" fill-rule="evenodd" />
			</g>
			<g id="画板 1660" customFrame="url(#clipPath_6)">
				<rect id="画板 1660" width="24.492668" height="4.415062" x="0.000000" y="0.000000" fill="rgb(255,255,255)" fill-opacity="0" transform="matrix(1,0,0,-1,28.7346,50.9048)" />
				<path id="矩形 3067" d="M0.735844 0L2.20753 0C2.61393 0 2.94337 0.329448 2.94337 0.735844L2.94337 4.41506L0 4.41506L0 0.735844C0 0.329448 0.329448 0 0.735844 0Z" fill="rgb(182,182,182)" fill-rule="evenodd" transform="matrix(1,0,0,-1,50.2839,50.9048)" />
				<path id="矩形 3067" d="M0.735844 0L2.20753 0C2.61393 0 2.94337 0.329448 2.94337 0.735844L2.94337 4.41506L0 4.41506L0 0.735844C0 0.329448 0.329448 0 0.735844 0Z" fill="url(#paint_radial_0)" fill-opacity="0.600000024" fill-rule="evenodd" transform="matrix(1,0,0,-1,50.2839,50.9048)" />
				<path id="矩形 3067" d="M0.735844 0L2.20753 0C2.61393 0 2.94337 0.329448 2.94337 0.735844L2.94337 4.41506L0 4.41506L0 0.735844C0 0.329448 0.329448 0 0.735844 0Z" fill="rgb(182,182,182)" fill-rule="evenodd" transform="matrix(1,0,0,-1,43.1008,50.9048)" />
				<path id="矩形 3067" d="M0.735844 0L2.20753 0C2.61393 0 2.94337 0.329448 2.94337 0.735844L2.94337 4.41506L0 4.41506L0 0.735844C0 0.329448 0.329448 0 0.735844 0Z" fill="url(#paint_radial_1)" fill-opacity="0.600000024" fill-rule="evenodd" transform="matrix(1,0,0,-1,43.1008,50.9048)" />
				<path id="矩形 3067" d="M0.735844 0L2.20753 0C2.61393 0 2.94337 0.329448 2.94337 0.735844L2.94337 4.41506L0 4.41506L0 0.735844C0 0.329448 0.329448 0 0.735844 0Z" fill="rgb(182,182,182)" fill-rule="evenodd" transform="matrix(1,0,0,-1,35.9177,50.9048)" />
				<path id="矩形 3067" d="M0.735844 0L2.20753 0C2.61393 0 2.94337 0.329448 2.94337 0.735844L2.94337 4.41506L0 4.41506L0 0.735844C0 0.329448 0.329448 0 0.735844 0Z" fill="url(#paint_radial_2)" fill-opacity="0.600000024" fill-rule="evenodd" transform="matrix(1,0,0,-1,35.9177,50.9048)" />
				<path id="矩形 3067" d="M0.735844 0L2.20753 0C2.61393 0 2.94337 0.329448 2.94337 0.735844L2.94337 4.41506L0 4.41506L0 0.735844C0 0.329448 0.329448 0 0.735844 0Z" fill="rgb(182,182,182)" fill-rule="evenodd" transform="matrix(1,0,0,-1,28.7346,50.9048)" />
				<path id="矩形 3067" d="M0.735844 0L2.20753 0C2.61393 0 2.94337 0.329448 2.94337 0.735844L2.94337 4.41506L0 4.41506L0 0.735844C0 0.329448 0.329448 0 0.735844 0Z" fill="url(#paint_radial_3)" fill-opacity="0.600000024" fill-rule="evenodd" transform="matrix(1,0,0,-1,28.7346,50.9048)" />
			</g>
			<rect id="矩形 5798" width="58.571430" height="34.306126" x="12.000000" y="12.183594" rx="3.346939" fill="rgb(0,0,0)" />
			<rect id="矩形 5798" width="57.316330" height="33.051025" x="12.627551" y="12.811145" rx="2.719388" stroke="rgb(255,255,255)" stroke-width="1.255102" />
			<rect id="矩形 5800" width="50.204090" height="25.938778" x="16.183594" y="16.367432" rx="0.836735" fill="rgb(255,255,255)" fill-opacity="0.150000006" />
			<g id="Eeprom">
				<path id="矢量 15191" d="M26.6425 32.7994L26.6425 26.9426L30.7853 26.9426L30.5504 27.7781L27.48 27.7781L27.48 29.3102L29.9232 29.3102L29.9232 30.1478L27.48 30.1478L27.48 31.9618L30.5504 31.9618L30.7853 32.7994L26.6425 32.7994Z" fill="url(#paint_linear_28)" fill-opacity="0" fill-rule="evenodd" />
				<path id="矢量 15191" d="M26.6425 32.7994L26.6425 26.9426L30.7853 26.9426L30.5504 27.7781L27.48 27.7781L27.48 29.3102L29.9232 29.3102L29.9232 30.1478L27.48 30.1478L27.48 31.9618L30.5504 31.9618L30.7853 32.7994L26.6425 32.7994Z" fill="rgb(255,255,255)" fill-rule="evenodd" />
				<path id="矢量 15192" d="M33.5869 32.064C34.0323 32.064 34.3326 31.9455 34.5409 31.6861L34.5757 31.6452L35.3192 32.0456L35.2784 32.0885C34.9107 32.5563 34.3244 32.7994 33.5869 32.7994C32.9026 32.7994 32.3245 32.4991 31.9302 31.921C31.8056 31.7372 31.7219 31.537 31.6626 31.302L31.6544 31.2775C31.6463 31.2428 31.6381 31.2019 31.6381 31.1672L31.6218 31.0753C31.6136 31.0426 31.6136 30.9997 31.6054 30.967L31.6054 30.9343C31.5972 30.8833 31.587 30.8322 31.587 30.7832L31.5789 30.6075L31.5789 30.4236C31.5789 29.9456 31.6544 29.5861 31.8056 29.2776C32.1406 28.6239 32.8086 28.2317 33.6053 28.2317C34.2406 28.2317 34.735 28.4482 35.1272 28.8997C35.3703 29.1755 35.4868 29.6535 35.5031 30.1213L35.5031 30.7832L32.4675 30.7832L32.4838 30.9078L32.4838 30.9343C32.4838 30.9425 32.4838 30.9507 32.492 30.9588L32.492 30.9834C32.492 30.9915 32.492 30.9997 32.5002 31.0079L32.5002 31.0344C32.5083 31.0671 32.5165 31.1018 32.5165 31.1345L32.5328 31.1938C32.541 31.2346 32.5594 31.2673 32.5676 31.3102L32.5757 31.3265C32.6084 31.4021 32.6432 31.4695 32.6922 31.5533C32.7596 31.6616 32.8352 31.7453 32.9108 31.8209C33.0865 31.97 33.3377 32.064 33.5869 32.064ZM33.6053 28.9671C33.162 28.9671 32.8086 29.1755 32.6166 29.5697C32.5512 29.7025 32.5002 29.8619 32.4757 30.0559L34.7003 30.0559L34.7003 30.0375C34.6921 29.7291 34.5757 29.4696 34.4408 29.3103L34.4163 29.2858C34.1977 29.0427 33.9485 28.9671 33.6053 28.9671Z" fill="url(#paint_linear_29)" fill-opacity="0" fill-rule="evenodd" />
				<path id="矢量 15192" d="M33.5869 32.064C34.0323 32.064 34.3326 31.9455 34.5409 31.6861L34.5757 31.6452L35.3192 32.0456L35.2784 32.0885C34.9107 32.5563 34.3244 32.7994 33.5869 32.7994C32.9026 32.7994 32.3245 32.4991 31.9302 31.921C31.8056 31.7372 31.7219 31.537 31.6626 31.302L31.6544 31.2775C31.6463 31.2428 31.6381 31.2019 31.6381 31.1672L31.6218 31.0753C31.6136 31.0426 31.6136 30.9997 31.6054 30.967L31.6054 30.9343C31.5972 30.8833 31.587 30.8322 31.587 30.7832L31.5789 30.6075L31.5789 30.4236C31.5789 29.9456 31.6544 29.5861 31.8056 29.2776C32.1406 28.6239 32.8086 28.2317 33.6053 28.2317C34.2406 28.2317 34.735 28.4482 35.1272 28.8997C35.3703 29.1755 35.4868 29.6535 35.5031 30.1213L35.5031 30.7832L32.4675 30.7832L32.4838 30.9078L32.4838 30.9343C32.4838 30.9425 32.4838 30.9507 32.492 30.9588L32.492 30.9834C32.492 30.9915 32.492 30.9997 32.5002 31.0079L32.5002 31.0344C32.5083 31.0671 32.5165 31.1018 32.5165 31.1345L32.5328 31.1938C32.541 31.2346 32.5594 31.2673 32.5676 31.3102L32.5757 31.3265C32.6084 31.4021 32.6432 31.4695 32.6922 31.5533C32.7596 31.6616 32.8352 31.7453 32.9108 31.8209C33.0865 31.97 33.3377 32.064 33.5869 32.064ZM33.6053 28.9671C33.162 28.9671 32.8086 29.1755 32.6166 29.5697C32.5512 29.7025 32.5002 29.8619 32.4757 30.0559L34.7003 30.0559L34.7003 30.0375C34.6921 29.7291 34.5757 29.4696 34.4408 29.3103L34.4163 29.2858C34.1977 29.0427 33.9485 28.9671 33.6053 28.9671Z" fill="rgb(255,255,255)" fill-rule="evenodd" />
				<path id="矢量 15193" d="M38.9757 28.2132C39.5028 28.2214 39.9297 28.3889 40.2239 28.7076C40.5916 29.0835 40.7428 29.6534 40.708 30.4399C40.6672 31.5451 40.1054 32.3132 39.0942 32.6563C38.6836 32.7993 38.0054 32.8239 37.605 32.8239L37.605 34.74L36.7756 34.74L36.7756 28.2132L37.605 28.2132L37.605 28.6749C38.0483 28.3399 38.5488 28.2051 38.9757 28.2132ZM38.8164 31.8617C39.5028 31.6288 39.8378 31.1671 39.8725 30.397C39.897 29.8618 39.8133 29.4859 39.6131 29.2775C39.4783 29.1345 39.2617 29.0099 38.9594 28.9997L38.9431 28.9997C38.5161 28.9997 37.9298 29.1345 37.605 29.4348L37.605 31.9883C37.8624 31.9802 38.5161 31.97 38.8164 31.8617Z" fill="url(#paint_linear_30)" fill-opacity="0" fill-rule="evenodd" />
				<path id="矢量 15193" d="M38.9757 28.2132C39.5028 28.2214 39.9297 28.3889 40.2239 28.7076C40.5916 29.0835 40.7428 29.6534 40.708 30.4399C40.6672 31.5451 40.1054 32.3132 39.0942 32.6563C38.6836 32.7993 38.0054 32.8239 37.605 32.8239L37.605 34.74L36.7756 34.74L36.7756 28.2132L37.605 28.2132L37.605 28.6749C38.0483 28.3399 38.5488 28.2051 38.9757 28.2132ZM38.8164 31.8617C39.5028 31.6288 39.8378 31.1671 39.8725 30.397C39.897 29.8618 39.8133 29.4859 39.6131 29.2775C39.4783 29.1345 39.2617 29.0099 38.9594 28.9997L38.9431 28.9997C38.5161 28.9997 37.9298 29.1345 37.605 29.4348L37.605 31.9883C37.8624 31.9802 38.5161 31.97 38.8164 31.8617Z" fill="rgb(255,255,255)" fill-rule="evenodd" />
				<path id="矢量 15194" d="M44.2217 28.2562C44.6569 28.2317 45.0429 28.3563 45.3269 28.6321C45.5536 28.8425 45.7028 29.1264 45.7702 29.4267L45.0184 29.678L45.0184 29.6371C45.0184 29.486 44.9081 29.3185 44.7835 29.2184C44.6487 29.1101 44.4812 29.059 44.2728 29.059C43.7784 29.0427 43.4026 29.2776 43.135 29.537C42.8347 29.8292 42.6753 30.1049 42.6488 30.1724L42.6488 32.8076L41.8459 32.8076L41.8459 28.2317L42.6488 28.2317L42.6488 29.0754C43.1268 28.6239 43.6865 28.2889 44.2217 28.2562Z" fill="url(#paint_linear_31)" fill-opacity="0" fill-rule="evenodd" />
				<path id="矢量 15194" d="M44.2217 28.2562C44.6569 28.2317 45.0429 28.3563 45.3269 28.6321C45.5536 28.8425 45.7028 29.1264 45.7702 29.4267L45.0184 29.678L45.0184 29.6371C45.0184 29.486 44.9081 29.3185 44.7835 29.2184C44.6487 29.1101 44.4812 29.059 44.2728 29.059C43.7784 29.0427 43.4026 29.2776 43.135 29.537C42.8347 29.8292 42.6753 30.1049 42.6488 30.1724L42.6488 32.8076L41.8459 32.8076L41.8459 28.2317L42.6488 28.2317L42.6488 29.0754C43.1268 28.6239 43.6865 28.2889 44.2217 28.2562Z" fill="rgb(255,255,255)" fill-rule="evenodd" />
				<path id="矢量 15195" d="M48.7914 28.2317C49.5023 28.2317 50.0457 28.4809 50.3726 28.9671C50.632 29.343 50.7566 29.8455 50.7566 30.5156C50.7566 31.159 50.6157 31.6861 50.3399 32.0722C50.0049 32.5481 49.4697 32.7994 48.7914 32.7994C48.1214 32.7994 47.5862 32.5481 47.243 32.0722C46.9672 31.6861 46.8242 31.159 46.8242 30.5156C46.8242 29.8455 46.9509 29.343 47.2103 28.9671C47.5453 28.4809 48.0887 28.2317 48.7914 28.2317ZM48.7914 32.0374C49.1755 32.0374 49.4349 31.8699 49.6188 31.6187C49.8047 31.3694 49.8966 30.9834 49.8966 30.5156C49.8966 30.4481 49.8966 30.3726 49.8864 30.3133L49.8864 30.2479C49.8864 30.2132 49.8782 30.1805 49.8782 30.1478L49.87 30.0804C49.8374 29.7965 49.7618 29.5697 49.6453 29.4104C49.4697 29.1591 49.202 28.9916 48.7914 28.9916C48.389 28.9916 48.1132 29.1591 47.9457 29.4104C47.8293 29.5697 47.7537 29.7965 47.721 30.0804L47.7128 30.1478C47.7026 30.1805 47.7026 30.2132 47.7026 30.2561L47.6945 30.3133L47.6945 30.5319C47.6945 30.9915 47.7864 31.3694 47.9621 31.6187C48.148 31.8699 48.4156 32.0374 48.7914 32.0374Z" fill="url(#paint_linear_32)" fill-opacity="0" fill-rule="evenodd" />
				<path id="矢量 15195" d="M48.7914 28.2317C49.5023 28.2317 50.0457 28.4809 50.3726 28.9671C50.632 29.343 50.7566 29.8455 50.7566 30.5156C50.7566 31.159 50.6157 31.6861 50.3399 32.0722C50.0049 32.5481 49.4697 32.7994 48.7914 32.7994C48.1214 32.7994 47.5862 32.5481 47.243 32.0722C46.9672 31.6861 46.8242 31.159 46.8242 30.5156C46.8242 29.8455 46.9509 29.343 47.2103 28.9671C47.5453 28.4809 48.0887 28.2317 48.7914 28.2317ZM48.7914 32.0374C49.1755 32.0374 49.4349 31.8699 49.6188 31.6187C49.8047 31.3694 49.8966 30.9834 49.8966 30.5156C49.8966 30.4481 49.8966 30.3726 49.8864 30.3133L49.8864 30.2479C49.8864 30.2132 49.8782 30.1805 49.8782 30.1478L49.87 30.0804C49.8374 29.7965 49.7618 29.5697 49.6453 29.4104C49.4697 29.1591 49.202 28.9916 48.7914 28.9916C48.389 28.9916 48.1132 29.1591 47.9457 29.4104C47.8293 29.5697 47.7537 29.7965 47.721 30.0804L47.7128 30.1478C47.7026 30.1805 47.7026 30.2132 47.7026 30.2561L47.6945 30.3133L47.6945 30.5319C47.6945 30.9915 47.7864 31.3694 47.9621 31.6187C48.148 31.8699 48.4156 32.0374 48.7914 32.0374Z" fill="rgb(255,255,255)" fill-rule="evenodd" />
				<path id="矢量 15196" d="M56.1721 29.8965L56.1721 29.9966L56.1802 30.0129L56.1721 30.0211L56.1721 32.8075L55.3672 32.8075L55.3672 29.8965C55.3672 29.586 55.2937 29.0344 54.8402 28.9833C54.4725 28.9506 54.213 29.3429 54.213 29.5941L54.213 32.8075L53.4776 32.8075L53.4776 30.0374C53.4776 30.0129 53.4694 29.9618 53.4694 29.8965C53.4694 29.586 53.351 29.0344 52.9158 28.9833C52.6074 28.9506 52.3643 29.3183 52.3316 29.5941L52.3316 32.8075L51.5186 32.8075L51.5186 28.2397L51.586 28.2397C51.921 28.2397 52.1804 28.5564 52.2642 28.7239C52.448 28.491 52.6911 28.2316 53.1508 28.2479C53.594 28.2724 53.8943 28.5564 54.0292 28.8424C54.213 28.5237 54.5562 28.2397 54.9586 28.2479C55.4101 28.2643 55.6695 28.4808 55.9126 28.9077C56.0801 29.1937 56.1721 29.5614 56.1721 29.8965Z" fill="url(#paint_linear_33)" fill-opacity="0" fill-rule="evenodd" />
				<path id="矢量 15196" d="M56.1721 29.8965L56.1721 29.9966L56.1802 30.0129L56.1721 30.0211L56.1721 32.8075L55.3672 32.8075L55.3672 29.8965C55.3672 29.586 55.2937 29.0344 54.8402 28.9833C54.4725 28.9506 54.213 29.3429 54.213 29.5941L54.213 32.8075L53.4776 32.8075L53.4776 30.0374C53.4776 30.0129 53.4694 29.9618 53.4694 29.8965C53.4694 29.586 53.351 29.0344 52.9158 28.9833C52.6074 28.9506 52.3643 29.3183 52.3316 29.5941L52.3316 32.8075L51.5186 32.8075L51.5186 28.2397L51.586 28.2397C51.921 28.2397 52.1804 28.5564 52.2642 28.7239C52.448 28.491 52.6911 28.2316 53.1508 28.2479C53.594 28.2724 53.8943 28.5564 54.0292 28.8424C54.213 28.5237 54.5562 28.2397 54.9586 28.2479C55.4101 28.2643 55.6695 28.4808 55.9126 28.9077C56.0801 29.1937 56.1721 29.5614 56.1721 29.8965Z" fill="rgb(255,255,255)" fill-rule="evenodd" />
			</g>
			<g id="Eeprom(边框)">
				<path id="边框" d="M26.5459 26.8462L30.9127 26.8462L30.6235 27.8748L27.5766 27.8748L27.5766 29.2138L30.0198 29.2138L30.0198 30.2445L27.5766 30.2445L27.5766 31.8654L30.6236 31.8654L30.9126 32.896L26.5459 32.896L26.5459 26.8462ZM27.48 27.7783L27.48 29.3104L29.9232 29.3104L29.9232 30.1479L27.48 30.1479L27.48 31.9619L30.5504 31.9619L30.7582 32.7029L30.7853 32.7995L26.6425 32.7995L26.6425 26.9428L30.7853 26.9428L30.7581 27.0393L30.5504 27.7783L27.48 27.7783Z" fill="url(#paint_linear_34)" fill-opacity="0" fill-rule="evenodd" />
				<path id="边框" d="M34.4665 31.6247L34.5527 31.5233L35.4764 32.0207L35.3514 32.152C35.2611 32.2663 35.1604 32.3675 35.0492 32.4555C34.678 32.7492 34.1906 32.8961 33.5869 32.8961C33.2218 32.8961 32.8958 32.8212 32.6089 32.6714C32.315 32.518 32.0621 32.2859 31.8503 31.9753C31.7261 31.7921 31.6327 31.5768 31.5699 31.3293L31.5615 31.304L31.5605 31.2998C31.5489 31.2509 31.5427 31.2098 31.5417 31.1767L31.5272 31.095C31.5237 31.08 31.5205 31.0589 31.5176 31.0316C31.5153 31.0109 31.5134 30.9972 31.5117 30.9906L31.5089 30.979L31.5089 30.9422C31.5081 30.9373 31.5071 30.9313 31.5059 30.9241C31.4959 30.8642 31.4907 30.818 31.4905 30.7857L31.4823 30.6098L31.4823 30.4237C31.4823 29.9533 31.5614 29.5566 31.7197 29.2337C31.8835 28.9139 32.0957 28.664 32.3561 28.4839C32.6922 28.2515 33.1086 28.1353 33.6053 28.1353C33.9908 28.1353 34.3331 28.2157 34.6321 28.3765L34.6322 28.3765C34.8428 28.4898 35.0319 28.6429 35.1997 28.836C35.4462 29.1157 35.5795 29.543 35.5996 30.118L35.5997 30.1197L35.5997 30.8798L32.5775 30.8798L32.5804 30.9016L32.5804 30.9108L32.5886 30.919L32.5886 30.9598L32.5967 30.968L32.5967 31.0229C32.6059 31.0613 32.6112 31.0937 32.6126 31.12L32.6269 31.1715L32.6275 31.1749C32.6293 31.1836 32.6336 31.1978 32.6406 31.2174C32.6489 31.2407 32.6552 31.2609 32.6593 31.2778L32.6633 31.2859L32.6644 31.2883C32.6934 31.3554 32.7302 31.4272 32.7749 31.5035C32.8243 31.5826 32.8914 31.6648 32.9762 31.7499C33.0471 31.8096 33.1232 31.857 33.2046 31.8921L33.2046 31.8921C33.3212 31.9424 33.4487 31.9676 33.5869 31.9676C33.9427 31.9676 34.2127 31.8787 34.397 31.7009L34.397 31.7009C34.4214 31.6774 34.4443 31.6524 34.4656 31.6257L34.4665 31.6247ZM35.3192 32.0457L35.2311 31.9983L34.5757 31.6453L34.5409 31.6862C34.3326 31.9456 34.0323 32.0641 33.5869 32.0641C33.3377 32.0641 33.0865 31.9702 32.9108 31.821C32.8352 31.7454 32.7596 31.6617 32.6922 31.5534C32.6432 31.4697 32.6084 31.4023 32.5757 31.3267L32.5676 31.3103C32.5594 31.2674 32.541 31.2347 32.5329 31.1939L32.5165 31.1346C32.5165 31.102 32.5083 31.0672 32.5002 31.0345L32.5002 31.008C32.492 30.9998 32.492 30.9916 32.492 30.9835L32.492 30.959C32.4838 30.9508 32.4838 30.9426 32.4838 30.9345L32.4838 30.9079L32.4801 30.8798L32.4675 30.7833L35.5031 30.7833L35.5031 30.1214C35.4868 29.6536 35.3703 29.1756 35.1272 28.8998C34.735 28.4484 34.2406 28.2318 33.6053 28.2318C32.8086 28.2318 32.1406 28.624 31.8056 29.2777C31.6544 29.5862 31.5789 29.9457 31.5789 30.4237L31.5789 30.6076L31.587 30.7833C31.587 30.8323 31.5972 30.8834 31.6054 30.9345L31.6054 30.9671C31.6136 30.9998 31.6136 31.0427 31.6218 31.0754L31.6381 31.1673C31.6381 31.2021 31.6463 31.2429 31.6544 31.2776L31.6626 31.3022C31.7219 31.5371 31.8056 31.7373 31.9302 31.9211C32.3245 32.4992 32.9026 32.7995 33.5869 32.7995C34.3078 32.7995 34.8842 32.5673 35.2532 32.1199C35.2617 32.1096 35.2701 32.0992 35.2784 32.0886L35.3192 32.0457ZM33.6053 28.9672C33.9485 28.9672 34.1977 29.0428 34.4163 29.2859L34.4408 29.3104C34.5641 29.4561 34.672 29.6855 34.6958 29.9595C34.6981 29.9852 34.6996 30.0112 34.7003 30.0377L34.7003 30.056L32.4757 30.056C32.4798 30.0229 32.4848 29.9907 32.4905 29.9595C32.5181 29.8083 32.5624 29.6799 32.6166 29.5699C32.8086 29.1756 33.162 28.9672 33.6053 28.9672ZM34.3462 29.3524L34.3697 29.3758C34.3994 29.4113 34.4264 29.4485 34.4505 29.4875L34.4505 29.4875C34.5346 29.6235 34.5842 29.7809 34.5993 29.9595L32.5888 29.9595C32.6131 29.8337 32.6513 29.718 32.7032 29.6125L32.7034 29.6121C32.7861 29.4423 32.8952 29.312 33.0308 29.2211C33.1872 29.1162 33.3787 29.0638 33.6053 29.0638C33.8667 29.0638 34.0787 29.1272 34.2412 29.2539C34.2782 29.2828 34.3126 29.315 34.3445 29.3505L34.3462 29.3524Z" fill="url(#paint_linear_35)" fill-opacity="0" fill-rule="evenodd" />
				<path id="边框" d="M37.7017 34.8365L37.7017 32.92C38.3361 32.9147 38.811 32.8572 39.1261 32.7475C39.6381 32.5737 40.0332 32.3086 40.3113 31.9523C40.6175 31.56 40.782 31.057 40.8047 30.4434C40.8407 29.6274 40.6705 29.0266 40.294 28.641C40.2293 28.571 40.1593 28.508 40.0841 28.452L40.084 28.4519C39.7932 28.2353 39.4243 28.1236 38.9774 28.1166C38.7919 28.1131 38.6115 28.1315 38.4361 28.172L38.4361 28.172C38.1805 28.2309 37.9357 28.3366 37.7017 28.489L37.7017 28.1166L36.6792 28.1166L36.6792 34.8365L37.7017 34.8365ZM38.9759 28.2132C39.5029 28.2214 39.9299 28.3889 40.224 28.7075C40.5917 29.0834 40.7429 29.6534 40.7082 30.4398C40.6673 31.545 40.1055 32.3131 39.0943 32.6563C38.6837 32.7993 38.0055 32.8238 37.6051 32.8238L37.6051 34.74L36.7758 34.74L36.7758 28.2132L37.6051 28.2132L37.6051 28.6749C37.637 28.6507 37.6692 28.6277 37.7017 28.6056C38.1201 28.3212 38.5796 28.2056 38.9759 28.2132ZM39.6132 29.2775C39.4784 29.1345 39.2619 29.0099 38.9595 28.9997L38.9432 28.9997C38.5162 28.9997 37.9299 29.1345 37.6051 29.4348L37.6051 31.9883C37.633 31.9874 37.6655 31.9865 37.7017 31.9855C37.9999 31.9768 38.5487 31.9582 38.8165 31.8616C39.5029 31.6288 39.8379 31.1671 39.8727 30.397C39.8972 29.8617 39.8134 29.4859 39.6132 29.2775ZM39.7762 30.3925C39.7997 29.8796 39.7219 29.53 39.543 29.3437C39.4994 29.2975 39.4516 29.2577 39.3998 29.2244L39.3997 29.2244C39.276 29.145 39.1287 29.1022 38.9579 29.0962L38.9432 29.0962C38.4092 29.0962 37.9954 29.2235 37.7017 29.4779L37.7017 31.8888C38.2517 31.8719 38.613 31.8324 38.7855 31.7702C39.0696 31.6738 39.2928 31.5272 39.455 31.3303C39.6517 31.0916 39.7588 30.779 39.7762 30.3926L39.7762 30.3925Z" fill="url(#paint_linear_36)" fill-opacity="0" fill-rule="evenodd" />
				<path id="边框" d="M42.7453 32.9043L42.7453 30.1915C42.8131 30.0318 42.9654 29.8368 43.2023 29.6064C43.4393 29.3766 43.6939 29.2345 43.966 29.1802C44.0649 29.1604 44.1661 29.1522 44.2696 29.1557L44.2712 29.1557L44.2728 29.1557C44.4536 29.1557 44.6008 29.1994 44.7142 29.2868C44.7156 29.2879 44.717 29.289 44.7184 29.2901C44.72 29.2913 44.7215 29.2925 44.723 29.2938C44.841 29.3885 44.9065 29.4896 44.9195 29.597L44.9195 29.5971C44.9211 29.6104 44.9219 29.6238 44.9219 29.6373L44.9219 29.8122L45.8835 29.4908L45.8644 29.4057C45.8091 29.1593 45.7121 28.9445 45.5735 28.7612L45.5734 28.7611C45.5196 28.6901 45.4596 28.6237 45.3934 28.5622C45.2994 28.4711 45.1971 28.3953 45.0864 28.3349C44.8384 28.1995 44.5484 28.1412 44.2163 28.1599C43.7407 28.189 43.2504 28.4217 42.7453 28.858L42.7453 28.1353L41.7494 28.1353L41.7494 32.9043L42.7453 32.9043ZM44.2217 28.2563C44.6569 28.2318 45.0429 28.3564 45.3269 28.6322C45.5536 28.8426 45.7028 29.1266 45.7702 29.4269L45.115 29.6458L45.0184 29.6781L45.0184 29.6373C45.0184 29.6178 45.0166 29.598 45.0131 29.5781C44.9897 29.444 44.892 29.3057 44.7835 29.2185C44.6487 29.1102 44.4812 29.0592 44.2728 29.0592C43.7784 29.0428 43.4026 29.2777 43.135 29.5372C42.8347 29.8293 42.6753 30.1051 42.6488 30.1725L42.6488 32.8077L41.8459 32.8077L41.8459 28.2318L42.6488 28.2318L42.6488 29.0755C42.6806 29.0454 42.7128 29.0159 42.7453 28.9869C43.2012 28.5808 43.7222 28.2868 44.2217 28.2563Z" fill="url(#paint_linear_37)" fill-opacity="0" fill-rule="evenodd" />
				<path id="边框" d="M50.4524 28.9129C50.7196 29.3003 50.8532 29.8346 50.8532 30.5157C50.8532 31.1851 50.7084 31.7225 50.4189 32.1279C50.2992 32.2979 50.1594 32.4398 49.9996 32.5534C49.678 32.7818 49.2753 32.8961 48.7914 32.8961C48.3268 32.8961 47.9352 32.7882 47.6166 32.5725C47.4446 32.4559 47.2938 32.3079 47.1644 32.1284C46.8733 31.7208 46.7277 31.1832 46.7277 30.5157C46.7277 29.8362 46.862 29.3018 47.1308 28.9124C47.239 28.7555 47.3651 28.6223 47.5094 28.5129C47.8412 28.2611 48.2686 28.1353 48.7914 28.1353C49.3314 28.1353 49.7675 28.2666 50.0999 28.5293C50.2344 28.6356 50.3519 28.7635 50.4524 28.9129ZM50.3726 28.9672C50.0457 28.481 49.5023 28.2318 48.7914 28.2318C48.0887 28.2318 47.5453 28.481 47.2103 28.9672C46.9509 29.3431 46.8242 29.8456 46.8242 30.5157C46.8242 31.1592 46.9672 31.6862 47.243 32.0723C47.5862 32.5483 48.1214 32.7995 48.7914 32.7995C49.4697 32.7995 50.0049 32.5483 50.3399 32.0723C50.6157 31.6862 50.7566 31.1592 50.7566 30.5157C50.7566 29.8456 50.632 29.3431 50.3726 28.9672ZM47.6945 30.3134L47.7026 30.2562C47.7026 30.2133 47.7026 30.1807 47.7128 30.148L47.721 30.0806C47.7537 29.7966 47.8293 29.5699 47.9457 29.4105C48.1132 29.1592 48.389 28.9917 48.7914 28.9917C49.202 28.9917 49.4697 29.1592 49.6453 29.4105C49.7618 29.5699 49.8374 29.7966 49.87 30.0806L49.8782 30.148C49.8782 30.1807 49.8864 30.2133 49.8864 30.2481L49.8864 30.3134C49.8966 30.3727 49.8966 30.4483 49.8966 30.5157C49.8966 30.9835 49.8047 31.3696 49.6188 31.6188C49.4349 31.8701 49.1755 32.0376 48.7914 32.0376C48.4156 32.0376 48.148 31.8701 47.9621 31.6188C47.7864 31.3696 47.6945 30.9916 47.6945 30.532L47.6945 30.3134ZM49.7864 30.2083C49.7837 30.1864 49.7821 30.1685 49.7818 30.1546L49.7741 30.0916C49.743 29.8216 49.6737 29.613 49.5662 29.4658C49.4993 29.3701 49.4204 29.2926 49.3297 29.2333C49.1819 29.1366 49.0024 29.0883 48.7914 29.0883C48.5701 29.0883 48.3854 29.1404 48.2374 29.2445C48.1558 29.3019 48.0854 29.3751 48.0261 29.4641L48.0249 29.4658L48.0237 29.4675C47.9169 29.6136 47.848 29.8218 47.8169 30.0922L47.8076 30.1683L47.805 30.1768C47.8011 30.1892 47.7992 30.2157 47.7992 30.2562L47.7992 30.2631L47.791 30.3203L47.791 30.532C47.791 30.9825 47.8741 31.3259 48.0404 31.5623C48.1345 31.6893 48.2446 31.7843 48.3708 31.8474C48.4954 31.9098 48.6356 31.941 48.7914 31.941C48.9504 31.941 49.0928 31.9087 49.2187 31.8442C49.3419 31.781 49.4493 31.6869 49.5409 31.5618L49.5414 31.5611C49.7138 31.3299 49.8001 30.9814 49.8 30.5157C49.8 30.4259 49.7971 30.3639 49.7912 30.3298L49.7898 30.3217L49.7898 30.2481C49.7898 30.2403 49.7887 30.227 49.7864 30.2083Z" fill="url(#paint_linear_38)" fill-opacity="0" fill-rule="evenodd" />
				<path id="边框" d="M56.2686 32.9042L56.2686 30.0612L56.2977 30.0321L56.2686 29.9739L56.2686 29.8966C56.2686 29.6257 56.2228 29.3727 56.131 29.1376L56.131 29.1376C56.0936 29.0418 56.0486 28.9489 55.996 28.8591C55.8132 28.5381 55.5885 28.3262 55.3217 28.2234C55.2093 28.1801 55.0894 28.1562 54.9621 28.1515C54.8177 28.1486 54.6833 28.1713 54.5588 28.2198C54.3585 28.2977 54.1841 28.442 54.0356 28.6528C53.9505 28.5174 53.8472 28.4093 53.7258 28.3285C53.567 28.2228 53.3771 28.1639 53.1561 28.1516C53.0642 28.1484 52.975 28.1567 52.8885 28.1768C52.6673 28.228 52.4637 28.3553 52.2778 28.5588C52.2247 28.4828 52.1594 28.4118 52.082 28.3457C51.9458 28.2294 51.8041 28.1632 51.657 28.1472L51.6567 28.1471C51.6333 28.1446 51.6097 28.1433 51.586 28.1433L51.422 28.1433L51.422 32.9042L52.4282 32.9042L52.4282 29.6002C52.4321 29.5692 52.4381 29.5388 52.4463 29.5089C52.473 29.4116 52.5222 29.3205 52.594 29.2355C52.675 29.1398 52.7601 29.0876 52.8494 29.0791C52.868 29.0774 52.8867 29.0775 52.9057 29.0795C52.9461 29.0842 52.9841 29.0944 53.0196 29.1101C53.1226 29.1554 53.2053 29.2464 53.268 29.383C53.3379 29.5353 53.3729 29.7065 53.3729 29.8966C53.3729 29.9265 53.3749 29.9634 53.3788 30.0074C53.3803 30.0242 53.3811 30.0342 53.3811 30.0375L53.3811 32.9042L54.3096 32.9042L54.3096 29.5943C54.3096 29.5895 54.3097 29.5848 54.3098 29.5801C54.3137 29.4673 54.3641 29.356 54.461 29.2463C54.5381 29.1592 54.6223 29.1059 54.7137 29.0864C54.7514 29.0784 54.7903 29.0761 54.8305 29.0795C54.8959 29.0871 54.9541 29.1064 55.0049 29.1377C55.1821 29.2466 55.2706 29.4996 55.2706 29.8966L55.2706 32.9042L56.2686 32.9042ZM56.1721 29.8966L56.1721 29.9967L56.1802 30.013L56.1721 30.0212L56.1721 32.8076L55.3672 32.8076L55.3672 29.8966C55.3672 29.5861 55.2937 29.0345 54.8402 28.9835C54.4725 28.9508 54.213 29.343 54.213 29.5943L54.213 32.8076L53.4776 32.8076L53.4776 30.0375C53.4776 30.013 53.4694 29.962 53.4694 29.8966C53.4694 29.5861 53.351 29.0345 52.9158 28.9835C52.6074 28.9508 52.3643 29.3185 52.3316 29.5943L52.3316 32.8076L51.5186 32.8076L51.5186 28.2399L51.586 28.2399C51.5957 28.2399 51.6055 28.2401 51.6151 28.2407C51.8837 28.2554 52.1005 28.4702 52.2117 28.6352C52.2333 28.6673 52.2509 28.6975 52.2642 28.724C52.2854 28.6971 52.3074 28.6699 52.3304 28.6428C52.507 28.4349 52.7442 28.2336 53.1508 28.248C53.5427 28.2697 53.8229 28.4942 53.9757 28.7436C53.9957 28.7763 54.0136 28.8094 54.0292 28.8425C54.0477 28.8103 54.0679 28.7785 54.0897 28.7472C54.283 28.4694 54.5969 28.2407 54.9586 28.248C55.4101 28.2644 55.6695 28.4809 55.9126 28.9079C56.0801 29.1939 56.1721 29.5616 56.1721 29.8966Z" fill="url(#paint_linear_39)" fill-opacity="0" fill-rule="evenodd" />
			</g>
		</g>
	</g>
</svg>
