<svg viewBox="0 0 82 60" xmlns="http://www.w3.org/2000/svg" xmlns:xlink="http://www.w3.org/1999/xlink" width="82.000000" height="60.000000" fill="none" customFrame="#000000">
	<defs>
		<clipPath id="clipPath_18">
			<rect width="48.530613" height="4.830959" x="17.020508" y="8.000000" fill="rgb(255,255,255)" />
		</clipPath>
		<linearGradient id="paint_linear_99" x1="63.7604408" x2="63.7711678" y1="13.2330236" y2="7.52429056" gradientUnits="userSpaceOnUse">
			<stop stop-color="rgb(0,0,0)" offset="0" stop-opacity="0.5" />
			<stop stop-color="rgb(242,241,241)" offset="0.463651955" stop-opacity="1" />
			<stop stop-color="rgb(243,242,242)" offset="1" stop-opacity="0" />
		</linearGradient>
		<linearGradient id="paint_linear_100" x1="56.2296791" x2="56.240406" y1="13.2330236" y2="7.52429056" gradientUnits="userSpaceOnUse">
			<stop stop-color="rgb(0,0,0)" offset="0" stop-opacity="0.5" />
			<stop stop-color="rgb(242,241,241)" offset="0.463651955" stop-opacity="1" />
			<stop stop-color="rgb(243,242,242)" offset="1" stop-opacity="0" />
		</linearGradient>
		<linearGradient id="paint_linear_101" x1="48.6991615" x2="48.7098885" y1="13.2330236" y2="7.52429056" gradientUnits="userSpaceOnUse">
			<stop stop-color="rgb(0,0,0)" offset="0" stop-opacity="0.5" />
			<stop stop-color="rgb(242,241,241)" offset="0.463651955" stop-opacity="1" />
			<stop stop-color="rgb(243,242,242)" offset="1" stop-opacity="0" />
		</linearGradient>
		<linearGradient id="paint_linear_102" x1="41.168644" x2="41.1793709" y1="13.2330236" y2="7.52429056" gradientUnits="userSpaceOnUse">
			<stop stop-color="rgb(0,0,0)" offset="0" stop-opacity="0.5" />
			<stop stop-color="rgb(242,241,241)" offset="0.463651955" stop-opacity="1" />
			<stop stop-color="rgb(243,242,242)" offset="1" stop-opacity="0" />
		</linearGradient>
		<linearGradient id="paint_linear_103" x1="33.6378822" x2="33.6486092" y1="13.2330236" y2="7.52429056" gradientUnits="userSpaceOnUse">
			<stop stop-color="rgb(0,0,0)" offset="0" stop-opacity="0.5" />
			<stop stop-color="rgb(242,241,241)" offset="0.463651955" stop-opacity="1" />
			<stop stop-color="rgb(243,242,242)" offset="1" stop-opacity="0" />
		</linearGradient>
		<linearGradient id="paint_linear_104" x1="26.1073666" x2="26.1180935" y1="13.2330236" y2="7.52429056" gradientUnits="userSpaceOnUse">
			<stop stop-color="rgb(0,0,0)" offset="0" stop-opacity="0.5" />
			<stop stop-color="rgb(242,241,241)" offset="0.463651955" stop-opacity="1" />
			<stop stop-color="rgb(243,242,242)" offset="1" stop-opacity="0" />
		</linearGradient>
		<linearGradient id="paint_linear_105" x1="18.576849" x2="18.5875759" y1="13.2330236" y2="7.52429056" gradientUnits="userSpaceOnUse">
			<stop stop-color="rgb(0,0,0)" offset="0" stop-opacity="0.5" />
			<stop stop-color="rgb(242,241,241)" offset="0.463651955" stop-opacity="1" />
			<stop stop-color="rgb(243,242,242)" offset="1" stop-opacity="0" />
		</linearGradient>
		<clipPath id="clipPath_19">
			<rect width="48.530613" height="4.830963" x="0.000000" y="0.000000" fill="rgb(255,255,255)" transform="matrix(1,0,0,-1,17.0205,50.6733)" />
		</clipPath>
		<linearGradient id="paint_linear_106" x1="1.55634093" x2="1.56706798" y1="5.23302364" y2="-0.475709438" gradientUnits="userSpaceOnUse">
			<stop stop-color="rgb(0,0,0)" offset="0" stop-opacity="0.5" />
			<stop stop-color="rgb(242,241,241)" offset="0.463651955" stop-opacity="1" />
			<stop stop-color="rgb(243,242,242)" offset="1" stop-opacity="0" />
		</linearGradient>
		<linearGradient id="paint_linear_107" x1="1.55634093" x2="1.56706798" y1="5.23302364" y2="-0.475709438" gradientUnits="userSpaceOnUse">
			<stop stop-color="rgb(0,0,0)" offset="0" stop-opacity="0.5" />
			<stop stop-color="rgb(242,241,241)" offset="0.463651955" stop-opacity="1" />
			<stop stop-color="rgb(243,242,242)" offset="1" stop-opacity="0" />
		</linearGradient>
		<linearGradient id="paint_linear_108" x1="1.55634093" x2="1.56706798" y1="5.23302364" y2="-0.475709438" gradientUnits="userSpaceOnUse">
			<stop stop-color="rgb(0,0,0)" offset="0" stop-opacity="0.5" />
			<stop stop-color="rgb(242,241,241)" offset="0.463651955" stop-opacity="1" />
			<stop stop-color="rgb(243,242,242)" offset="1" stop-opacity="0" />
		</linearGradient>
		<linearGradient id="paint_linear_109" x1="1.55634093" x2="1.56706798" y1="5.23302364" y2="-0.475709438" gradientUnits="userSpaceOnUse">
			<stop stop-color="rgb(0,0,0)" offset="0" stop-opacity="0.5" />
			<stop stop-color="rgb(242,241,241)" offset="0.463651955" stop-opacity="1" />
			<stop stop-color="rgb(243,242,242)" offset="1" stop-opacity="0" />
		</linearGradient>
		<linearGradient id="paint_linear_110" x1="1.55634093" x2="1.56706798" y1="5.23302364" y2="-0.475709438" gradientUnits="userSpaceOnUse">
			<stop stop-color="rgb(0,0,0)" offset="0" stop-opacity="0.5" />
			<stop stop-color="rgb(242,241,241)" offset="0.463651955" stop-opacity="1" />
			<stop stop-color="rgb(243,242,242)" offset="1" stop-opacity="0" />
		</linearGradient>
		<linearGradient id="paint_linear_111" x1="1.55634093" x2="1.56706798" y1="5.23302364" y2="-0.475709438" gradientUnits="userSpaceOnUse">
			<stop stop-color="rgb(0,0,0)" offset="0" stop-opacity="0.5" />
			<stop stop-color="rgb(242,241,241)" offset="0.463651955" stop-opacity="1" />
			<stop stop-color="rgb(243,242,242)" offset="1" stop-opacity="0" />
		</linearGradient>
		<linearGradient id="paint_linear_112" x1="1.55634093" x2="1.56706798" y1="5.23302364" y2="-0.475709438" gradientUnits="userSpaceOnUse">
			<stop stop-color="rgb(0,0,0)" offset="0" stop-opacity="0.5" />
			<stop stop-color="rgb(242,241,241)" offset="0.463651955" stop-opacity="1" />
			<stop stop-color="rgb(243,242,242)" offset="1" stop-opacity="0" />
		</linearGradient>
		<linearGradient id="paint_linear_113" x1="58.0091667" x2="23.8758163" y1="29.3368473" y2="11.0806618" gradientUnits="userSpaceOnUse">
			<stop stop-color="rgb(130,145.345,219)" offset="0" stop-opacity="1" />
			<stop stop-color="rgb(198.732,211.93,252.723)" offset="1" stop-opacity="1" />
		</linearGradient>
		<linearGradient id="paint_linear_114" x1="58.0090218" x2="23.8756866" y1="29.3368492" y2="11.0806904" gradientUnits="userSpaceOnUse">
			<stop stop-color="rgb(130,145.345,219)" offset="0" stop-opacity="1" />
			<stop stop-color="rgb(198.732,211.93,252.723)" offset="1" stop-opacity="1" />
		</linearGradient>
		<linearGradient id="paint_linear_115" x1="58.0090637" x2="23.8757095" y1="29.3368511" y2="11.0806561" gradientUnits="userSpaceOnUse">
			<stop stop-color="rgb(130,145.345,219)" offset="0" stop-opacity="1" />
			<stop stop-color="rgb(198.732,211.93,252.723)" offset="1" stop-opacity="1" />
		</linearGradient>
		<linearGradient id="paint_linear_116" x1="58.0090065" x2="23.8756638" y1="29.3367081" y2="11.0805416" gradientUnits="userSpaceOnUse">
			<stop stop-color="rgb(130,145.345,219)" offset="0" stop-opacity="1" />
			<stop stop-color="rgb(198.732,211.93,252.723)" offset="1" stop-opacity="1" />
		</linearGradient>
		<linearGradient id="paint_linear_117" x1="58.0091171" x2="23.8757744" y1="29.3367348" y2="11.0805664" gradientUnits="userSpaceOnUse">
			<stop stop-color="rgb(130,145.345,219)" offset="0" stop-opacity="1" />
			<stop stop-color="rgb(198.732,211.93,252.723)" offset="1" stop-opacity="1" />
		</linearGradient>
		<linearGradient id="paint_linear_118" x1="58.0089531" x2="23.8756104" y1="29.3367348" y2="11.0805664" gradientUnits="userSpaceOnUse">
			<stop stop-color="rgb(130,145.345,219)" offset="0" stop-opacity="1" />
			<stop stop-color="rgb(198.732,211.93,252.723)" offset="1" stop-opacity="1" />
		</linearGradient>
		<linearGradient id="paint_linear_119" x1="58.0092735" x2="23.875927" y1="29.3367348" y2="11.0805626" gradientUnits="userSpaceOnUse">
			<stop stop-color="rgb(130,145.345,219)" offset="0" stop-opacity="1" />
			<stop stop-color="rgb(198.732,211.93,252.723)" offset="1" stop-opacity="1" />
		</linearGradient>
		<linearGradient id="paint_linear_120" x1="26.2549438" x2="26.2549438" y1="26.3120117" y2="32.361866" gradientUnits="userSpaceOnUse">
			<stop stop-color="rgb(42,44,68)" offset="0" stop-opacity="1" />
			<stop stop-color="rgb(86.1143,88.7724,120.67)" offset="0.530903637" stop-opacity="1" />
			<stop stop-color="rgb(37,40,64)" offset="1" stop-opacity="1" />
		</linearGradient>
		<linearGradient id="paint_linear_121" x1="31.3141422" x2="31.3141422" y1="26.3120117" y2="32.361866" gradientUnits="userSpaceOnUse">
			<stop stop-color="rgb(42,44,68)" offset="0" stop-opacity="1" />
			<stop stop-color="rgb(86.1143,88.7724,120.67)" offset="0.530903637" stop-opacity="1" />
			<stop stop-color="rgb(37,40,64)" offset="1" stop-opacity="1" />
		</linearGradient>
		<linearGradient id="paint_linear_122" x1="36.361721" x2="36.361721" y1="26.3120117" y2="32.361866" gradientUnits="userSpaceOnUse">
			<stop stop-color="rgb(42,44,68)" offset="0" stop-opacity="1" />
			<stop stop-color="rgb(86.1143,88.7724,120.67)" offset="0.530903637" stop-opacity="1" />
			<stop stop-color="rgb(37,40,64)" offset="1" stop-opacity="1" />
		</linearGradient>
		<linearGradient id="paint_linear_123" x1="41.4124298" x2="41.4124298" y1="26.3120117" y2="32.3619843" gradientUnits="userSpaceOnUse">
			<stop stop-color="rgb(42,44,68)" offset="0" stop-opacity="1" />
			<stop stop-color="rgb(86.1143,88.7724,120.67)" offset="0.530903637" stop-opacity="1" />
			<stop stop-color="rgb(37,40,64)" offset="1" stop-opacity="1" />
		</linearGradient>
		<linearGradient id="paint_linear_124" x1="46.1866188" x2="46.1866188" y1="26.3203125" y2="32.3619957" gradientUnits="userSpaceOnUse">
			<stop stop-color="rgb(42,44,68)" offset="0" stop-opacity="1" />
			<stop stop-color="rgb(86.1143,88.7724,120.67)" offset="0.530903637" stop-opacity="1" />
			<stop stop-color="rgb(37,40,64)" offset="1" stop-opacity="1" />
		</linearGradient>
		<linearGradient id="paint_linear_125" x1="51.2405739" x2="51.2405739" y1="26.3203125" y2="32.3619957" gradientUnits="userSpaceOnUse">
			<stop stop-color="rgb(42,44,68)" offset="0" stop-opacity="1" />
			<stop stop-color="rgb(86.1143,88.7724,120.67)" offset="0.530903637" stop-opacity="1" />
			<stop stop-color="rgb(37,40,64)" offset="1" stop-opacity="1" />
		</linearGradient>
		<linearGradient id="paint_linear_126" x1="56.294529" x2="56.294529" y1="26.3203125" y2="32.3619957" gradientUnits="userSpaceOnUse">
			<stop stop-color="rgb(42,44,68)" offset="0" stop-opacity="1" />
			<stop stop-color="rgb(86.1143,88.7724,120.67)" offset="0.530903637" stop-opacity="1" />
			<stop stop-color="rgb(37,40,64)" offset="1" stop-opacity="1" />
		</linearGradient>
	</defs>
	<rect id="属性 1=Pca9555" width="82.000000" height="60.000000" x="0.000000" y="0.000000" />
	<g id="组合 8223">
		<rect id="矩形 3096" width="82.000000" height="60.000000" x="0.000000" y="0.000000" rx="4.000000" opacity="0" fill="rgb(24,27,32)" />
		<g id="组合 8351">
			<g id="组合 8349">
				<g id="画板 1659" customFrame="url(#clipPath_18)">
					<rect id="画板 1659" width="48.530613" height="4.830959" x="17.020508" y="8.000000" fill="rgb(255,255,255)" fill-opacity="0" />
					<path id="矩形 3070" d="M62.9399 8L64.8152 8C65.2216 8 65.551 8.32945 65.551 8.73584L65.551 13.0204L62.2041 13.0204L62.2041 8.73584C62.2041 8.32945 62.5336 8 62.9399 8Z" fill="rgb(182,182,182)" fill-rule="evenodd" />
					<path id="矩形 3070" d="M62.9399 8L64.8152 8C65.2216 8 65.551 8.32945 65.551 8.73584L65.551 13.0204L62.2041 13.0204L62.2041 8.73584C62.2041 8.32945 62.5336 8 62.9399 8Z" fill="url(#paint_linear_99)" fill-opacity="0.600000024" fill-rule="evenodd" />
					<path id="矩形 3069" d="M55.4092 8L57.2844 8C57.6908 8 58.0203 8.32945 58.0203 8.73584L58.0203 13.0204L54.6733 13.0204L54.6733 8.73584C54.6733 8.32945 55.0028 8 55.4092 8Z" fill="rgb(182,182,182)" fill-rule="evenodd" />
					<path id="矩形 3069" d="M55.4092 8L57.2844 8C57.6908 8 58.0203 8.32945 58.0203 8.73584L58.0203 13.0204L54.6733 13.0204L54.6733 8.73584C54.6733 8.32945 55.0028 8 55.4092 8Z" fill="url(#paint_linear_100)" fill-opacity="0.600000024" fill-rule="evenodd" />
					<path id="矩形 3068" d="M47.8787 8L49.7539 8C50.1603 8 50.4898 8.32945 50.4898 8.73584L50.4898 13.0204L47.1428 13.0204L47.1428 8.73584C47.1428 8.32945 47.4723 8 47.8787 8Z" fill="rgb(182,182,182)" fill-rule="evenodd" />
					<path id="矩形 3068" d="M47.8787 8L49.7539 8C50.1603 8 50.4898 8.32945 50.4898 8.73584L50.4898 13.0204L47.1428 13.0204L47.1428 8.73584C47.1428 8.32945 47.4723 8 47.8787 8Z" fill="url(#paint_linear_101)" fill-opacity="0.600000024" fill-rule="evenodd" />
					<path id="矩形 3067" d="M40.3481 8L42.2234 8C42.6298 8 42.9592 8.32945 42.9592 8.73584L42.9592 13.0204L39.6123 13.0204L39.6123 8.73584C39.6123 8.32945 39.9418 8 40.3481 8Z" fill="rgb(182,182,182)" fill-rule="evenodd" />
					<path id="矩形 3067" d="M40.3481 8L42.2234 8C42.6298 8 42.9592 8.32945 42.9592 8.73584L42.9592 13.0204L39.6123 13.0204L39.6123 8.73584C39.6123 8.32945 39.9418 8 40.3481 8Z" fill="url(#paint_linear_102)" fill-opacity="0.600000024" fill-rule="evenodd" />
					<path id="矩形 3067" d="M32.8174 8L34.6926 8C35.099 8 35.4285 8.32945 35.4285 8.73584L35.4285 13.0204L32.0815 13.0204L32.0815 8.73584C32.0815 8.32945 32.411 8 32.8174 8Z" fill="rgb(182,182,182)" fill-rule="evenodd" />
					<path id="矩形 3067" d="M32.8174 8L34.6926 8C35.099 8 35.4285 8.32945 35.4285 8.73584L35.4285 13.0204L32.0815 13.0204L32.0815 8.73584C32.0815 8.32945 32.411 8 32.8174 8Z" fill="url(#paint_linear_103)" fill-opacity="0.600000024" fill-rule="evenodd" />
					<path id="矩形 3067" d="M25.2869 8L27.1621 8C27.5685 8 27.898 8.32945 27.898 8.73584L27.898 13.0204L24.551 13.0204L24.551 8.73584C24.551 8.32945 24.8805 8 25.2869 8Z" fill="rgb(182,182,182)" fill-rule="evenodd" />
					<path id="矩形 3067" d="M25.2869 8L27.1621 8C27.5685 8 27.898 8.32945 27.898 8.73584L27.898 13.0204L24.551 13.0204L24.551 8.73584C24.551 8.32945 24.8805 8 25.2869 8Z" fill="url(#paint_linear_104)" fill-opacity="0.600000024" fill-rule="evenodd" />
					<path id="矩形 3067" d="M17.7564 8L19.6316 8C20.038 8 20.3674 8.32945 20.3674 8.73584L20.3674 13.0204L17.0205 13.0204L17.0205 8.73584C17.0205 8.32945 17.35 8 17.7564 8Z" fill="rgb(182,182,182)" fill-rule="evenodd" />
					<path id="矩形 3067" d="M17.7564 8L19.6316 8C20.038 8 20.3674 8.32945 20.3674 8.73584L20.3674 13.0204L17.0205 13.0204L17.0205 8.73584C17.0205 8.32945 17.35 8 17.7564 8Z" fill="url(#paint_linear_105)" fill-opacity="0.600000024" fill-rule="evenodd" />
				</g>
			</g>
			<g id="组合 8350">
				<g id="画板 1659" customFrame="url(#clipPath_19)">
					<rect id="画板 1659" width="48.530613" height="4.830963" x="0.000000" y="0.000000" fill="rgb(255,255,255)" fill-opacity="0" transform="matrix(1,0,0,-1,17.0205,50.6733)" />
					<path id="矩形 3070" d="M0.735844 0L2.6111 0C3.01749 0 3.34694 0.329448 3.34694 0.735844L3.34694 5.02041L0 5.02041L0 0.735844C0 0.329448 0.329448 0 0.735844 0Z" fill="rgb(182,182,182)" fill-rule="evenodd" transform="matrix(1,0,0,-1,62.2041,50.6733)" />
					<path id="矩形 3070" d="M0.735844 0L2.6111 0C3.01749 0 3.34694 0.329448 3.34694 0.735844L3.34694 5.02041L0 5.02041L0 0.735844C0 0.329448 0.329448 0 0.735844 0Z" fill="url(#paint_linear_106)" fill-opacity="0.600000024" fill-rule="evenodd" transform="matrix(1,0,0,-1,62.2041,50.6733)" />
					<path id="矩形 3069" d="M0.735844 0L2.6111 0C3.01749 0 3.34694 0.329448 3.34694 0.735844L3.34694 5.02041L0 5.02041L0 0.735844C0 0.329448 0.329448 0 0.735844 0Z" fill="rgb(182,182,182)" fill-rule="evenodd" transform="matrix(1,0,0,-1,54.6733,50.6733)" />
					<path id="矩形 3069" d="M0.735844 0L2.6111 0C3.01749 0 3.34694 0.329448 3.34694 0.735844L3.34694 5.02041L0 5.02041L0 0.735844C0 0.329448 0.329448 0 0.735844 0Z" fill="url(#paint_linear_107)" fill-opacity="0.600000024" fill-rule="evenodd" transform="matrix(1,0,0,-1,54.6733,50.6733)" />
					<path id="矩形 3068" d="M0.735844 0L2.6111 0C3.01749 0 3.34694 0.329448 3.34694 0.735844L3.34694 5.02041L0 5.02041L0 0.735844C0 0.329448 0.329448 0 0.735844 0Z" fill="rgb(182,182,182)" fill-rule="evenodd" transform="matrix(1,0,0,-1,47.1428,50.6733)" />
					<path id="矩形 3068" d="M0.735844 0L2.6111 0C3.01749 0 3.34694 0.329448 3.34694 0.735844L3.34694 5.02041L0 5.02041L0 0.735844C0 0.329448 0.329448 0 0.735844 0Z" fill="url(#paint_linear_108)" fill-opacity="0.600000024" fill-rule="evenodd" transform="matrix(1,0,0,-1,47.1428,50.6733)" />
					<path id="矩形 3067" d="M0.735844 0L2.6111 0C3.01749 0 3.34694 0.329448 3.34694 0.735844L3.34694 5.02041L0 5.02041L0 0.735844C0 0.329448 0.329448 0 0.735844 0Z" fill="rgb(182,182,182)" fill-rule="evenodd" transform="matrix(1,0,0,-1,39.6123,50.6733)" />
					<path id="矩形 3067" d="M0.735844 0L2.6111 0C3.01749 0 3.34694 0.329448 3.34694 0.735844L3.34694 5.02041L0 5.02041L0 0.735844C0 0.329448 0.329448 0 0.735844 0Z" fill="url(#paint_linear_109)" fill-opacity="0.600000024" fill-rule="evenodd" transform="matrix(1,0,0,-1,39.6123,50.6733)" />
					<path id="矩形 3067" d="M0.735844 0L2.6111 0C3.01749 0 3.34694 0.329448 3.34694 0.735844L3.34694 5.02041L0 5.02041L0 0.735844C0 0.329448 0.329448 0 0.735844 0Z" fill="rgb(182,182,182)" fill-rule="evenodd" transform="matrix(1,0,0,-1,32.0815,50.6733)" />
					<path id="矩形 3067" d="M0.735844 0L2.6111 0C3.01749 0 3.34694 0.329448 3.34694 0.735844L3.34694 5.02041L0 5.02041L0 0.735844C0 0.329448 0.329448 0 0.735844 0Z" fill="url(#paint_linear_110)" fill-opacity="0.600000024" fill-rule="evenodd" transform="matrix(1,0,0,-1,32.0815,50.6733)" />
					<path id="矩形 3067" d="M0.735844 0L2.6111 0C3.01749 0 3.34694 0.329448 3.34694 0.735844L3.34694 5.02041L0 5.02041L0 0.735844C0 0.329448 0.329448 0 0.735844 0Z" fill="rgb(182,182,182)" fill-rule="evenodd" transform="matrix(1,0,0,-1,24.551,50.6733)" />
					<path id="矩形 3067" d="M0.735844 0L2.6111 0C3.01749 0 3.34694 0.329448 3.34694 0.735844L3.34694 5.02041L0 5.02041L0 0.735844C0 0.329448 0.329448 0 0.735844 0Z" fill="url(#paint_linear_111)" fill-opacity="0.600000024" fill-rule="evenodd" transform="matrix(1,0,0,-1,24.551,50.6733)" />
					<path id="矩形 3067" d="M0.735844 0L2.6111 0C3.01749 0 3.34694 0.329448 3.34694 0.735844L3.34694 5.02041L0 5.02041L0 0.735844C0 0.329448 0.329448 0 0.735844 0Z" fill="rgb(182,182,182)" fill-rule="evenodd" transform="matrix(1,0,0,-1,17.0205,50.6733)" />
					<path id="矩形 3067" d="M0.735844 0L2.6111 0C3.01749 0 3.34694 0.329448 3.34694 0.735844L3.34694 5.02041L0 5.02041L0 0.735844C0 0.329448 0.329448 0 0.735844 0Z" fill="url(#paint_linear_112)" fill-opacity="0.600000024" fill-rule="evenodd" transform="matrix(1,0,0,-1,17.0205,50.6733)" />
				</g>
			</g>
			<rect id="矩形 5798" width="58.571430" height="33.011551" x="12.000000" y="12.831055" rx="3.346939" fill="rgb(0,0,0)" />
			<rect id="矩形 5798" width="57.316330" height="31.756449" x="12.627551" y="13.458606" rx="2.719388" stroke="rgb(255,255,255)" stroke-width="1.255102" />
			<rect id="矩形 5800" width="50.204090" height="24.959955" x="16.183594" y="16.856689" rx="0.836735" fill="rgb(255,255,255)" fill-opacity="0.150000006" />
			<g id="PCA9555">
				<path id="矢量 15240" d="M24.207 32.2654L24.207 26.4087L26.2335 26.4087C27.4388 26.4087 28.4173 27.4628 28.2906 28.7171C28.2416 29.2196 28.0312 29.6629 27.639 30.0224C27.3959 30.2492 27.1201 30.3656 26.7769 30.4249C26.7605 30.433 26.7442 30.433 26.7258 30.433L26.7095 30.4412C26.6931 30.4412 26.6768 30.4412 26.6604 30.4494L26.6094 30.4494L26.5849 30.4575L26.5093 30.4575L26.4848 30.4657L26.3663 30.4657L26.3173 30.4739L25.0446 30.4739L25.0446 32.2654L24.207 32.2654ZM25.0446 27.2442L25.0446 29.6384L26.258 29.6384L26.2989 29.6302L26.401 29.6302L26.4255 29.622L26.5011 29.622L26.5338 29.6139C26.6012 29.6139 26.6604 29.5955 26.7095 29.5873L26.734 29.5873C26.8606 29.5546 26.9444 29.5117 27.0282 29.4464L27.0363 29.4382C27.0527 29.428 27.0608 29.4116 27.069 29.4035C27.3039 29.1951 27.4204 28.9438 27.4551 28.6333C27.5307 27.8897 26.9607 27.2544 26.2498 27.2442L25.0446 27.2442Z" fill="url(#paint_linear_113)" fill-opacity="0" fill-rule="evenodd" />
				<path id="矢量 15240" d="M24.207 32.2654L24.207 26.4087L26.2335 26.4087C27.4388 26.4087 28.4173 27.4628 28.2906 28.7171C28.2416 29.2196 28.0312 29.6629 27.639 30.0224C27.3959 30.2492 27.1201 30.3656 26.7769 30.4249C26.7605 30.433 26.7442 30.433 26.7258 30.433L26.7095 30.4412C26.6931 30.4412 26.6768 30.4412 26.6604 30.4494L26.6094 30.4494L26.5849 30.4575L26.5093 30.4575L26.4848 30.4657L26.3663 30.4657L26.3173 30.4739L25.0446 30.4739L25.0446 32.2654L24.207 32.2654ZM25.0446 27.2442L25.0446 29.6384L26.258 29.6384L26.2989 29.6302L26.401 29.6302L26.4255 29.622L26.5011 29.622L26.5338 29.6139C26.6012 29.6139 26.6604 29.5955 26.7095 29.5873L26.734 29.5873C26.8606 29.5546 26.9444 29.5117 27.0282 29.4464L27.0363 29.4382C27.0527 29.428 27.0608 29.4116 27.069 29.4035C27.3039 29.1951 27.4204 28.9438 27.4551 28.6333C27.5307 27.8897 26.9607 27.2544 26.2498 27.2442L25.0446 27.2442Z" fill="rgb(255,255,255)" fill-rule="evenodd" />
				<path id="矢量 15241" d="M31.4119 26.4087C32.0819 26.4087 32.5926 26.6926 33.0012 27.2708C33.1523 27.4791 33.2606 27.7304 33.328 28.0225L32.5497 28.5332C32.5252 28.19 32.4415 27.9306 32.3168 27.7549L32.3066 27.7467L32.2903 27.7222C32.0472 27.3872 31.7878 27.2544 31.4119 27.2544C30.9093 27.2544 30.5253 27.5465 30.2985 28.0736C30.1821 28.3575 30.131 28.7334 30.131 29.2196L30.131 29.5955L30.1412 29.6302L30.1412 29.714L30.1494 29.7466L30.1494 29.8386C30.1576 29.8467 30.1576 29.8467 30.1576 29.8549L30.1576 29.8896C30.1576 29.906 30.1576 29.9142 30.1658 29.9305L30.1658 29.9652C30.1658 29.9734 30.1658 29.9816 30.1739 29.9979L30.1739 30.0306C30.1821 30.0735 30.1903 30.1143 30.1984 30.1572L30.1984 30.1899C30.2066 30.1981 30.2066 30.1981 30.2066 30.2063L30.2148 30.2328C30.225 30.29 30.2413 30.3411 30.2495 30.3901L30.2577 30.4249C30.2985 30.5331 30.3414 30.6332 30.3905 30.7251C30.4661 30.8681 30.5416 30.9846 30.6336 31.0847C30.844 31.3196 31.1361 31.4279 31.3955 31.4279C31.8817 31.4279 32.2229 31.2522 32.4578 30.909L32.4578 30.8927L33.1687 31.3625C32.7765 31.9651 32.1657 32.2654 31.3955 32.2654C30.6336 32.2654 30.0575 31.863 29.6551 31.1439C29.5202 30.909 29.4283 30.6496 29.3711 30.3574L29.3711 30.3166C29.3629 30.2737 29.3548 30.2328 29.3446 30.1818L29.3364 30.1409L29.3364 30.1062L29.3282 30.0653C29.32 30.0143 29.32 29.9652 29.3119 29.9223L29.3119 29.8815C29.3037 29.8141 29.2955 29.7466 29.2955 29.6792L29.2955 29.5955L29.2874 29.5464L29.2874 29.2114C29.2874 28.6333 29.3548 28.1573 29.5202 27.7549C29.8634 26.9276 30.5498 26.4087 31.4119 26.4087Z" fill="url(#paint_linear_114)" fill-opacity="0" fill-rule="evenodd" />
				<path id="矢量 15241" d="M31.4119 26.4087C32.0819 26.4087 32.5926 26.6926 33.0012 27.2708C33.1523 27.4791 33.2606 27.7304 33.328 28.0225L32.5497 28.5332C32.5252 28.19 32.4415 27.9306 32.3168 27.7549L32.3066 27.7467L32.2903 27.7222C32.0472 27.3872 31.7878 27.2544 31.4119 27.2544C30.9093 27.2544 30.5253 27.5465 30.2985 28.0736C30.1821 28.3575 30.131 28.7334 30.131 29.2196L30.131 29.5955L30.1412 29.6302L30.1412 29.714L30.1494 29.7466L30.1494 29.8386C30.1576 29.8467 30.1576 29.8467 30.1576 29.8549L30.1576 29.8896C30.1576 29.906 30.1576 29.9142 30.1658 29.9305L30.1658 29.9652C30.1658 29.9734 30.1658 29.9816 30.1739 29.9979L30.1739 30.0306C30.1821 30.0735 30.1903 30.1143 30.1984 30.1572L30.1984 30.1899C30.2066 30.1981 30.2066 30.1981 30.2066 30.2063L30.2148 30.2328C30.225 30.29 30.2413 30.3411 30.2495 30.3901L30.2577 30.4249C30.2985 30.5331 30.3414 30.6332 30.3905 30.7251C30.4661 30.8681 30.5416 30.9846 30.6336 31.0847C30.844 31.3196 31.1361 31.4279 31.3955 31.4279C31.8817 31.4279 32.2229 31.2522 32.4578 30.909L32.4578 30.8927L33.1687 31.3625C32.7765 31.9651 32.1657 32.2654 31.3955 32.2654C30.6336 32.2654 30.0575 31.863 29.6551 31.1439C29.5202 30.909 29.4283 30.6496 29.3711 30.3574L29.3711 30.3166C29.3629 30.2737 29.3548 30.2328 29.3446 30.1818L29.3364 30.1409L29.3364 30.1062L29.3282 30.0653C29.32 30.0143 29.32 29.9652 29.3119 29.9223L29.3119 29.8815C29.3037 29.8141 29.2955 29.7466 29.2955 29.6792L29.2955 29.5955L29.2874 29.5464L29.2874 29.2114C29.2874 28.6333 29.3548 28.1573 29.5202 27.7549C29.8634 26.9276 30.5498 26.4087 31.4119 26.4087Z" fill="rgb(255,255,255)" fill-rule="evenodd" />
				<path id="矢量 15242" d="M37.955 29.7221L37.9631 29.7466L38.4248 32.2654L37.5873 32.2654L37.4116 31.3441L35.3034 31.3441L35.1277 32.2654L34.2983 32.2654L34.76 29.7466L34.76 29.7221L34.7927 29.622L34.8254 29.479L34.8438 29.3789L34.8683 29.287L34.8928 29.1869L34.9173 29.095L34.9357 29.0276L34.952 28.9683L34.9766 28.8846L35.0011 28.7927L35.0092 28.7334L35.0276 28.6844C35.1114 28.3739 35.2196 28.0572 35.3361 27.7304L35.3361 27.7222L35.855 26.4087L36.8682 26.4087L37.3871 27.7222L37.3871 27.7304C37.5035 28.0572 37.6036 28.3739 37.6874 28.6844L37.7037 28.7334L37.7221 28.7927L37.7466 28.8846L37.7711 28.9683L37.7875 29.0276L37.7956 29.095L37.8222 29.1869L37.8467 29.287L37.8712 29.3789L37.8978 29.479L37.9305 29.622L37.955 29.7221ZM35.5792 29.9142L35.4709 30.5086L37.2522 30.5086L37.1358 29.9142L37.1195 29.8141L37.0847 29.6792L37.0602 29.571L37.0357 29.479C37.0275 29.4627 37.0275 29.4545 37.0275 29.4464L37.0092 29.3789L36.9356 29.1032L36.9172 29.0439L36.9009 28.9847L36.8845 28.9009C36.809 28.6333 36.717 28.3575 36.6169 28.0736L36.6006 28.0225L36.3575 27.4199L36.1226 28.0225L36.1062 28.0736C35.998 28.3575 35.9142 28.6333 35.8386 28.9009L35.8141 28.9847L35.7957 29.0439L35.7875 29.1032L35.714 29.3789L35.6956 29.4464C35.6956 29.4545 35.6875 29.4627 35.6875 29.479L35.6629 29.571L35.6384 29.6792L35.6037 29.8141L35.5792 29.9142Z" fill="url(#paint_linear_115)" fill-opacity="0" fill-rule="evenodd" />
				<path id="矢量 15242" d="M37.955 29.7221L37.9631 29.7466L38.4248 32.2654L37.5873 32.2654L37.4116 31.3441L35.3034 31.3441L35.1277 32.2654L34.2983 32.2654L34.76 29.7466L34.76 29.7221L34.7927 29.622L34.8254 29.479L34.8438 29.3789L34.8683 29.287L34.8928 29.1869L34.9173 29.095L34.9357 29.0276L34.952 28.9683L34.9766 28.8846L35.0011 28.7927L35.0092 28.7334L35.0276 28.6844C35.1114 28.3739 35.2196 28.0572 35.3361 27.7304L35.3361 27.7222L35.855 26.4087L36.8682 26.4087L37.3871 27.7222L37.3871 27.7304C37.5035 28.0572 37.6036 28.3739 37.6874 28.6844L37.7037 28.7334L37.7221 28.7927L37.7466 28.8846L37.7711 28.9683L37.7875 29.0276L37.7956 29.095L37.8222 29.1869L37.8467 29.287L37.8712 29.3789L37.8978 29.479L37.9305 29.622L37.955 29.7221ZM35.5792 29.9142L35.4709 30.5086L37.2522 30.5086L37.1358 29.9142L37.1195 29.8141L37.0847 29.6792L37.0602 29.571L37.0357 29.479C37.0275 29.4627 37.0275 29.4545 37.0275 29.4464L37.0092 29.3789L36.9356 29.1032L36.9172 29.0439L36.9009 28.9847L36.8845 28.9009C36.809 28.6333 36.717 28.3575 36.6169 28.0736L36.6006 28.0225L36.3575 27.4199L36.1226 28.0225L36.1062 28.0736C35.998 28.3575 35.9142 28.6333 35.8386 28.9009L35.8141 28.9847L35.7957 29.0439L35.7875 29.1032L35.714 29.3789L35.6956 29.4464C35.6956 29.4545 35.6875 29.4627 35.6875 29.479L35.6629 29.571L35.6384 29.6792L35.6037 29.8141L35.5792 29.9142Z" fill="rgb(255,255,255)" fill-rule="evenodd" />
				<path id="矢量 15243" d="M41.3031 26.4086C42.2979 26.4004 43.0088 26.8764 43.3193 27.7629C43.4603 28.1817 43.4787 28.6168 43.4603 29.2787L43.4603 29.3951C43.4439 29.9651 43.4276 30.7597 42.876 31.4032C42.6738 31.63 42.3572 31.9548 41.8301 32.1305C41.5543 32.2244 41.2356 32.2653 40.8761 32.2653C40.6085 32.2653 40.3143 32.2408 40.0059 32.1897L40.1387 31.3705C41.4869 31.5871 41.9302 31.2194 42.2387 30.8598C42.4573 30.6086 42.5492 30.2981 42.59 29.9896C42.2305 30.2572 41.7954 30.4084 41.3276 30.4084L41.3194 30.4084C40.7678 30.4084 40.2817 30.2245 39.9385 29.8813C39.5626 29.5034 39.3604 28.9682 39.3604 28.3574C39.3604 27.8814 39.5442 27.4034 39.8711 27.0439C40.2388 26.6414 40.7495 26.4167 41.3031 26.4086ZM41.3194 29.5708L41.3276 29.5708C41.6626 29.5708 42.2734 29.5381 42.6248 28.6842C42.6084 28.4493 42.5819 28.1899 42.5247 28.0305C42.3408 27.5035 41.9547 27.2441 41.3439 27.2441L41.3194 27.2441C40.9006 27.2543 40.6412 27.4463 40.49 27.6056C40.3062 27.814 40.1979 28.0898 40.1979 28.3574C40.1979 28.7435 40.3143 29.0683 40.5248 29.2869C40.7168 29.4789 40.9844 29.5708 41.3194 29.5708Z" fill="url(#paint_linear_116)" fill-opacity="0" fill-rule="evenodd" />
				<path id="矢量 15243" d="M41.3031 26.4086C42.2979 26.4004 43.0088 26.8764 43.3193 27.7629C43.4603 28.1817 43.4787 28.6168 43.4603 29.2787L43.4603 29.3951C43.4439 29.9651 43.4276 30.7597 42.876 31.4032C42.6738 31.63 42.3572 31.9548 41.8301 32.1305C41.5543 32.2244 41.2356 32.2653 40.8761 32.2653C40.6085 32.2653 40.3143 32.2408 40.0059 32.1897L40.1387 31.3705C41.4869 31.5871 41.9302 31.2194 42.2387 30.8598C42.4573 30.6086 42.5492 30.2981 42.59 29.9896C42.2305 30.2572 41.7954 30.4084 41.3276 30.4084L41.3194 30.4084C40.7678 30.4084 40.2817 30.2245 39.9385 29.8813C39.5626 29.5034 39.3604 28.9682 39.3604 28.3574C39.3604 27.8814 39.5442 27.4034 39.8711 27.0439C40.2388 26.6414 40.7495 26.4167 41.3031 26.4086ZM41.3194 29.5708L41.3276 29.5708C41.6626 29.5708 42.2734 29.5381 42.6248 28.6842C42.6084 28.4493 42.5819 28.1899 42.5247 28.0305C42.3408 27.5035 41.9547 27.2441 41.3439 27.2441L41.3194 27.2441C40.9006 27.2543 40.6412 27.4463 40.49 27.6056C40.3062 27.814 40.1979 28.0898 40.1979 28.3574C40.1979 28.7435 40.3143 29.0683 40.5248 29.2869C40.7168 29.4789 40.9844 29.5708 41.3194 29.5708Z" fill="rgb(255,255,255)" fill-rule="evenodd" />
				<path id="矢量 15244" d="M45.311 28.7333C46.1812 28.4841 47.0923 28.6087 47.6623 29.0683C48.1137 29.4279 48.3303 29.9733 48.2731 30.6086C48.2056 31.3869 47.4947 32.1979 46.2813 32.2653L46.1383 32.2653C45.0352 32.2653 44.1548 31.5953 44.1221 31.5626L44.6328 30.9007C44.6335 30.9007 44.6397 30.905 44.651 30.9127C44.7705 30.9946 45.4601 31.467 46.2384 31.4278C47.0596 31.3787 47.4028 30.868 47.4355 30.533C47.4682 30.1735 47.3681 29.9059 47.1352 29.722C46.7757 29.4381 46.1301 29.3707 45.5112 29.5545C45.3764 29.5954 45.1435 29.7384 45.0086 29.8303L44.3488 29.4462L44.6328 26.7845L44.6409 26.7845L44.6573 26.4167L47.9217 26.4167L47.6868 27.2543L45.4274 27.2543L45.2681 28.7517C45.2844 28.7435 45.2946 28.7435 45.3028 28.7435C45.3028 28.7333 45.311 28.7333 45.311 28.7333Z" fill="url(#paint_linear_117)" fill-opacity="0" fill-rule="evenodd" />
				<path id="矢量 15244" d="M45.311 28.7333C46.1812 28.4841 47.0923 28.6087 47.6623 29.0683C48.1137 29.4279 48.3303 29.9733 48.2731 30.6086C48.2056 31.3869 47.4947 32.1979 46.2813 32.2653L46.1383 32.2653C45.0352 32.2653 44.1548 31.5953 44.1221 31.5626L44.6328 30.9007C44.6335 30.9007 44.6397 30.905 44.651 30.9127C44.7705 30.9946 45.4601 31.467 46.2384 31.4278C47.0596 31.3787 47.4028 30.868 47.4355 30.533C47.4682 30.1735 47.3681 29.9059 47.1352 29.722C46.7757 29.4381 46.1301 29.3707 45.5112 29.5545C45.3764 29.5954 45.1435 29.7384 45.0086 29.8303L44.3488 29.4462L44.6328 26.7845L44.6409 26.7845L44.6573 26.4167L47.9217 26.4167L47.6868 27.2543L45.4274 27.2543L45.2681 28.7517C45.2844 28.7435 45.2946 28.7435 45.3028 28.7435C45.3028 28.7333 45.311 28.7333 45.311 28.7333Z" fill="rgb(255,255,255)" fill-rule="evenodd" />
				<path id="矢量 15245" d="M50.3647 28.7333C51.2349 28.4841 52.146 28.6087 52.716 29.0683C53.1674 29.4279 53.384 29.9733 53.3268 30.6086C53.2594 31.3869 52.5485 32.1979 51.335 32.2653L51.192 32.2653C50.0889 32.2653 49.2085 31.5953 49.1758 31.5626L49.6865 30.9007C49.6872 30.9007 49.6934 30.905 49.7047 30.9127C49.8242 30.9946 50.5139 31.467 51.2921 31.4278C52.1133 31.3787 52.4565 30.868 52.4892 30.533C52.5219 30.1735 52.4218 29.9059 52.1889 29.722C51.8294 29.4381 51.1839 29.3707 50.5649 29.5545C50.4301 29.5954 50.1972 29.7384 50.0624 29.8303L49.4025 29.4462L49.6865 26.7845L49.6947 26.7845L49.711 26.4167L52.9754 26.4167L52.7405 27.2543L50.4811 27.2543L50.3218 28.7517C50.3381 28.7435 50.3484 28.7435 50.3565 28.7435C50.3565 28.7333 50.3647 28.7333 50.3647 28.7333Z" fill="url(#paint_linear_118)" fill-opacity="0" fill-rule="evenodd" />
				<path id="矢量 15245" d="M50.3647 28.7333C51.2349 28.4841 52.146 28.6087 52.716 29.0683C53.1674 29.4279 53.384 29.9733 53.3268 30.6086C53.2594 31.3869 52.5485 32.1979 51.335 32.2653L51.192 32.2653C50.0889 32.2653 49.2085 31.5953 49.1758 31.5626L49.6865 30.9007C49.6872 30.9007 49.6934 30.905 49.7047 30.9127C49.8242 30.9946 50.5139 31.467 51.2921 31.4278C52.1133 31.3787 52.4565 30.868 52.4892 30.533C52.5219 30.1735 52.4218 29.9059 52.1889 29.722C51.8294 29.4381 51.1839 29.3707 50.5649 29.5545C50.4301 29.5954 50.1972 29.7384 50.0624 29.8303L49.4025 29.4462L49.6865 26.7845L49.6947 26.7845L49.711 26.4167L52.9754 26.4167L52.7405 27.2543L50.4811 27.2543L50.3218 28.7517C50.3381 28.7435 50.3484 28.7435 50.3565 28.7435C50.3565 28.7333 50.3647 28.7333 50.3647 28.7333Z" fill="rgb(255,255,255)" fill-rule="evenodd" />
				<path id="矢量 15246" d="M55.4189 28.7333C56.2891 28.4841 57.2002 28.6087 57.7702 29.0683C58.2216 29.4279 58.4382 29.9733 58.381 30.6086C58.3136 31.3869 57.6027 32.1979 56.3892 32.2653L56.2462 32.2653C55.1431 32.2653 54.2627 31.5953 54.23 31.5626L54.7407 30.9007C54.7414 30.9007 54.7476 30.905 54.7589 30.9127C54.8784 30.9946 55.5681 31.467 56.3463 31.4278C57.1675 31.3787 57.5107 30.868 57.5434 30.533C57.5761 30.1735 57.476 29.9059 57.2431 29.722C56.8836 29.4381 56.2381 29.3707 55.6191 29.5545C55.4843 29.5954 55.2514 29.7384 55.1166 29.8303L54.4567 29.4462L54.7407 26.7845L54.7489 26.7845L54.7652 26.4167L58.0296 26.4167L57.7947 27.2543L55.5353 27.2543L55.376 28.7517C55.3923 28.7435 55.4026 28.7435 55.4107 28.7435C55.4107 28.7333 55.4189 28.7333 55.4189 28.7333Z" fill="url(#paint_linear_119)" fill-opacity="0" fill-rule="evenodd" />
				<path id="矢量 15246" d="M55.4189 28.7333C56.2891 28.4841 57.2002 28.6087 57.7702 29.0683C58.2216 29.4279 58.4382 29.9733 58.381 30.6086C58.3136 31.3869 57.6027 32.1979 56.3892 32.2653L56.2462 32.2653C55.1431 32.2653 54.2627 31.5953 54.23 31.5626L54.7407 30.9007C54.7414 30.9007 54.7476 30.905 54.7589 30.9127C54.8784 30.9946 55.5681 31.467 56.3463 31.4278C57.1675 31.3787 57.5107 30.868 57.5434 30.533C57.5761 30.1735 57.476 29.9059 57.2431 29.722C56.8836 29.4381 56.2381 29.3707 55.6191 29.5545C55.4843 29.5954 55.2514 29.7384 55.1166 29.8303L54.4567 29.4462L54.7407 26.7845L54.7489 26.7845L54.7652 26.4167L58.0296 26.4167L57.7947 27.2543L55.5353 27.2543L55.376 28.7517C55.3923 28.7435 55.4026 28.7435 55.4107 28.7435C55.4107 28.7333 55.4189 28.7333 55.4189 28.7333Z" fill="rgb(255,255,255)" fill-rule="evenodd" />
			</g>
			<g id="PCA9555(边框)">
				<path id="边框" d="M24.1104 26.312L26.2334 26.312C26.5406 26.312 26.8238 26.3677 27.0831 26.4791C27.3605 26.5983 27.6105 26.7811 27.8331 27.0277C28.0449 27.2624 28.1974 27.5172 28.2904 27.792C28.3882 28.0812 28.4203 28.3926 28.3866 28.7263C28.36 28.999 28.2894 29.2497 28.1748 29.4783C28.0613 29.7048 27.9046 29.9097 27.7047 30.0929C27.6899 30.1067 27.6749 30.1201 27.6596 30.1333C27.4322 30.329 27.1468 30.4573 26.8032 30.5181C26.7878 30.5235 26.7702 30.527 26.7503 30.5286L26.7321 30.5376L26.7094 30.5376L26.7035 30.5356L26.6831 30.5458L26.6249 30.5458L26.6004 30.554L26.5248 30.554L26.5003 30.5621L26.3741 30.5621L26.3251 30.5703L25.141 30.5703L25.141 32.3619L24.1104 32.3619L24.1104 26.312ZM27.6388 30.0223C27.3957 30.2491 27.12 30.3655 26.7768 30.4247C26.7604 30.4329 26.7441 30.4329 26.7257 30.4329L26.7094 30.4411C26.693 30.4411 26.6767 30.4411 26.6603 30.4492L26.6093 30.4492L26.5847 30.4574L26.5092 30.4574L26.4846 30.4656L26.3662 30.4656L26.3171 30.4738L25.0445 30.4738L25.0445 32.2653L24.2069 32.2653L24.2069 26.4086L26.2334 26.4086C27.4386 26.4086 28.4171 27.4627 28.2905 28.7169C28.2415 29.2195 28.031 29.6628 27.6388 30.0223ZM27.455 28.6332C27.4202 28.9437 27.3038 29.195 27.0689 29.4033C27.0607 29.4115 27.0525 29.4278 27.0362 29.4381L27.028 29.4462C26.9443 29.5116 26.8605 29.5545 26.7339 29.5872L26.7094 29.5872C26.6603 29.5954 26.6011 29.6137 26.5337 29.6137L26.501 29.6219L26.4254 29.6219L26.4009 29.6301L26.2987 29.6301L26.2579 29.6383L25.0445 29.6383L25.0445 27.2441L26.2497 27.2441C26.9606 27.2543 27.5306 27.8896 27.455 28.6332ZM26.9757 29.362L26.9641 29.3736C26.8954 29.4262 26.8145 29.4652 26.7213 29.4906L26.7014 29.4906L26.6935 29.4919C26.6827 29.4937 26.6665 29.4969 26.6448 29.5016C26.596 29.512 26.559 29.5172 26.5337 29.5172L26.5218 29.5172L26.4891 29.5254L26.4097 29.5254L26.3852 29.5335L26.2892 29.5335L26.2483 29.5417L25.141 29.5417L25.141 27.3406L26.2497 27.3406C26.4012 27.3428 26.5413 27.3715 26.6701 27.4265C26.8203 27.4908 26.9552 27.591 27.0747 27.7273C27.1833 27.8512 27.2615 27.9851 27.3094 28.1292C27.3603 28.2825 27.3768 28.4473 27.3589 28.6234C27.3379 28.811 27.2815 28.9756 27.1897 29.1172C27.1389 29.1955 27.0773 29.2668 27.0048 29.3311L27.0026 29.333L27.0006 29.3351C26.9957 29.34 26.99 29.3467 26.9836 29.3552L26.985 29.3562L26.9757 29.362Z" fill="url(#paint_linear_120)" fill-opacity="0" fill-rule="evenodd" />
				<path id="边框" d="M33.0799 27.2145L33.0802 27.2149C33.2374 27.432 33.3514 27.6939 33.4222 28.0007L33.4374 28.0662L32.4653 28.7041L32.4535 28.54C32.4315 28.231 32.3622 27.9915 32.2457 27.8215L32.2347 27.8126L32.2112 27.7773C32.0888 27.6091 31.9456 27.4907 31.7815 27.422C31.6683 27.3746 31.5451 27.3509 31.412 27.3509C31.2437 27.3509 31.0916 27.384 30.9556 27.4504C30.7161 27.5673 30.5269 27.7872 30.388 28.1101C30.2811 28.3707 30.2277 28.7405 30.2277 29.2195L30.2277 29.5814L30.2379 29.6162L30.2379 29.702L30.2461 29.7346L30.2461 29.8118C30.2471 29.8143 30.248 29.8169 30.2489 29.8194C30.2525 29.8307 30.2543 29.8424 30.2543 29.8548L30.2543 29.8895L30.2523 29.8872L30.2624 29.9076L30.2624 29.9587L30.2706 29.975L30.2706 30.0212L30.2808 30.0738L30.2951 30.1479L30.2951 30.1632C30.2962 30.1657 30.2971 30.1682 30.2979 30.1708C30.2995 30.1759 30.3008 30.1811 30.3017 30.1864L30.3089 30.2099L30.31 30.2157C30.313 30.2327 30.3186 30.2579 30.3268 30.2912C30.3352 30.3256 30.341 30.3521 30.3443 30.3708L30.3504 30.3965C30.3923 30.5071 30.4342 30.6015 30.476 30.6799C30.5508 30.8215 30.6274 30.9349 30.7056 31.0201C30.8026 31.1284 30.9117 31.2084 31.0328 31.2602C31.1437 31.3075 31.2646 31.3312 31.3957 31.3312C31.6772 31.3312 31.9133 31.2653 32.1038 31.1336C32.2017 31.0659 32.2875 30.9808 32.3614 30.8784L32.3614 30.713L33.302 31.3347L33.2497 31.4151C33.0853 31.6677 32.8877 31.8697 32.6569 32.0213C32.311 32.2483 31.8906 32.3619 31.3957 32.3619C31.1085 32.3619 30.8445 32.3089 30.6039 32.2031C30.1913 32.0216 29.8472 31.6845 29.5714 31.1919C29.4346 30.9535 29.3363 30.6815 29.2765 30.3759L29.2747 30.3667L29.2747 30.3259L29.25 30.2006L29.2399 30.1503L29.2399 30.1156L29.2333 30.0823L29.233 30.0805C29.23 30.0618 29.2271 30.0356 29.2242 30.0018C29.2217 29.9724 29.2194 29.9519 29.2171 29.9403L29.2154 29.9313L29.2154 29.8871C29.2045 29.7963 29.1991 29.7269 29.1991 29.6791L29.1991 29.6033L29.1909 29.5543L29.1909 29.2113C29.1909 28.6052 29.271 28.1073 29.4312 27.7178C29.5872 27.3416 29.8032 27.0357 30.0792 26.8L30.0793 26.7999C30.123 26.7626 30.1683 26.727 30.215 26.6932C30.3629 26.5862 30.5194 26.5017 30.6842 26.4397C30.9108 26.3546 31.1534 26.312 31.412 26.312C31.6982 26.312 31.9617 26.3643 32.2025 26.4688C32.5393 26.6151 32.8318 26.8636 33.0799 27.2145ZM32.5398 28.4242C32.5067 28.1345 32.428 27.9114 32.317 27.7548L32.3068 27.7466L32.2904 27.7221C32.0473 27.3871 31.7879 27.2543 31.412 27.2543C30.9095 27.2543 30.5254 27.5464 30.2987 28.0735C30.1822 28.3574 30.1312 28.7333 30.1312 29.2195L30.1312 29.5954L30.1414 29.6301L30.1414 29.7138L30.1495 29.7465L30.1495 29.8384C30.1577 29.8466 30.1577 29.8466 30.1577 29.8548L30.1577 29.8895C30.1577 29.9059 30.1577 29.914 30.1659 29.9304L30.1659 29.9651C30.1659 29.9733 30.1659 29.9814 30.1741 29.9978L30.1741 30.0305C30.1822 30.0734 30.1904 30.1142 30.1986 30.1571L30.1986 30.1898C30.2067 30.198 30.2067 30.198 30.2067 30.2062L30.2149 30.2327C30.2251 30.2899 30.2415 30.341 30.2496 30.39L30.2578 30.4247C30.2987 30.533 30.3416 30.6331 30.3906 30.725C30.4662 30.868 30.5418 30.9845 30.6337 31.0846C30.8441 31.3195 31.1362 31.4278 31.3957 31.4278C31.8491 31.4278 32.1764 31.2749 32.409 30.9759C32.4258 30.9544 32.4421 30.932 32.4579 30.9089L32.4579 30.8925L32.5462 30.9509L33.1688 31.3624C33.1631 31.3711 33.1574 31.3798 33.1516 31.3884C33.1394 31.4066 33.127 31.4245 33.1144 31.4421C32.7211 31.9915 32.131 32.2653 31.3957 32.2653C30.6337 32.2653 30.0576 31.8629 29.6552 31.1438C29.5204 30.9089 29.4284 30.6494 29.3712 30.3573L29.3712 30.3165C29.3631 30.2736 29.3549 30.2327 29.3447 30.1816L29.3365 30.1408L29.3365 30.1061L29.3283 30.0652C29.3202 30.0141 29.3202 29.9651 29.312 29.9222L29.312 29.8813C29.3038 29.8139 29.2956 29.7465 29.2956 29.6791L29.2956 29.5954L29.2875 29.5463L29.2875 29.2113C29.2875 28.6332 29.3549 28.1572 29.5204 27.7548C29.8636 26.9274 30.5499 26.4086 31.412 26.4086C32.082 26.4086 32.5927 26.6925 33.0013 27.2706C33.1525 27.479 33.2607 27.7303 33.3282 28.0224L32.6418 28.4727L32.5498 28.5331C32.5472 28.4958 32.5438 28.4595 32.5398 28.4242Z" fill="url(#paint_linear_121)" fill-opacity="0" fill-rule="evenodd" />
				<path id="边框" d="M38.057 29.7224L38.5408 32.3619L37.5075 32.3619L37.3318 31.4406L35.3834 31.4406L35.2077 32.3619L34.1826 32.3619L34.6636 29.7378L34.6636 29.7066L34.6997 29.5961L34.7309 29.4594L34.7496 29.3576L34.7746 29.2639L34.7996 29.1619L34.8243 29.0695L34.8428 29.0018L34.8595 28.9411L34.8837 28.8584L34.9064 28.7734L34.9152 28.7094L34.9357 28.6546C35.0008 28.4141 35.1021 28.1004 35.2397 27.7136L35.2397 27.7037L35.7894 26.312L36.934 26.312L37.4838 27.7037L37.4838 27.7136C37.5998 28.0405 37.6985 28.3547 37.78 28.6564L37.7961 28.7047L37.815 28.7658L37.8397 28.8584L37.8643 28.9425L37.8826 29.0087L37.8907 29.0755L37.9156 29.1619L37.9401 29.262L37.9647 29.3541L37.9917 29.4558L38.0244 29.5989L38.048 29.6952L38.0549 29.716L38.057 29.7224ZM37.5874 32.2653L37.4117 31.344L35.3035 31.344L35.1279 32.2653L34.2985 32.2653L34.3162 32.1687L34.7602 29.7465L34.7602 29.722L34.7928 29.6219L34.8255 29.4789L34.8439 29.3788L34.8684 29.2869L34.8929 29.1868L34.9175 29.0949L34.9358 29.0275L34.9522 28.9682L34.9767 28.8845L35.0012 28.7925L35.0094 28.7333L35.0278 28.6843C35.1115 28.3738 35.2198 28.0571 35.3362 27.7303L35.3362 27.7221L35.8551 26.4086L36.8683 26.4086L37.3872 27.7221L37.3872 27.7303C37.5037 28.0571 37.6037 28.3738 37.6875 28.6843L37.7038 28.7333L37.7222 28.7925L37.7467 28.8845L37.7713 28.9682L37.7876 29.0275L37.7958 29.0949L37.8223 29.1868L37.8468 29.2869L37.8714 29.3788L37.8979 29.4789L37.9306 29.6219L37.9551 29.722L37.9633 29.7465L38.4073 32.1687L38.425 32.2653L37.5874 32.2653ZM35.6038 29.8139L35.6386 29.6791L35.6631 29.5708L35.6876 29.4789C35.6876 29.4626 35.6958 29.4544 35.6958 29.4462L35.7141 29.3788L35.7877 29.103L35.7959 29.0438L35.8142 28.9846L35.8388 28.9008C35.9143 28.6332 35.9981 28.3574 36.1064 28.0735L36.1227 28.0224L36.3065 27.551L36.3576 27.4198L36.4103 27.5504L36.6007 28.0224L36.6171 28.0735C36.7172 28.3574 36.8091 28.6332 36.8847 28.9008L36.901 28.9846L36.9174 29.0438L36.9357 29.103L37.0093 29.3788L37.0277 29.4462C37.0277 29.4544 37.0277 29.4626 37.0358 29.4789L37.0604 29.5708L37.0849 29.6791L37.1196 29.8139L37.1359 29.914L37.2335 30.4119L37.2524 30.5085L35.4711 30.5085L35.4886 30.4119L35.5793 29.914L35.6038 29.8139ZM35.7324 29.7018L35.7568 29.594L35.7842 29.4916L35.7842 29.4883C35.7869 29.4808 35.789 29.4735 35.7903 29.4664L35.8073 29.4042L35.832 29.3118L35.8565 29.2198L35.8825 29.1222L35.8904 29.0648L35.9065 29.0132L35.9314 28.9279C36.022 28.6074 36.1104 28.334 36.1966 28.1079L36.1975 28.1054L36.2138 28.0547L36.3592 27.6817L36.5099 28.0552L36.5255 28.1042L36.526 28.1056C36.6385 28.4247 36.7267 28.6972 36.7907 28.9232L36.807 29.0067L36.8247 29.071L36.843 29.1298L36.867 29.2198L36.916 29.4037L36.9319 29.4619L36.9322 29.4649L36.9325 29.4675C36.9345 29.4825 36.9385 29.4972 36.9446 29.5116L36.9666 29.594L36.991 29.7018L37.025 29.8338L37.0409 29.9311L37.1351 30.4119L35.5868 30.4119L35.6738 29.9342L35.6976 29.8369L35.7324 29.7018Z" fill="url(#paint_linear_122)" fill-opacity="0" fill-rule="evenodd" />
				<path id="边框" d="M43.4109 27.7323C43.5273 28.0779 43.5759 28.5938 43.5569 29.2802L43.5569 29.3967L43.5569 29.398L43.5563 29.4182C43.5443 29.839 43.5124 30.1679 43.4606 30.4047C43.378 30.7828 43.2295 31.1097 43.0152 31.3856C42.9935 31.4135 42.9712 31.4408 42.9482 31.4676C42.6164 31.8396 42.2542 32.0911 41.8614 32.222C41.5875 32.3153 41.2591 32.362 40.8762 32.362C40.5951 32.362 40.2998 32.3364 39.9902 32.2851L39.8953 32.2694L40.0589 31.26L40.1541 31.2753C40.7416 31.3697 41.206 31.3579 41.5472 31.2401C41.7729 31.1621 41.9792 31.0143 42.1659 30.7966C42.3006 30.6418 42.3968 30.4419 42.4545 30.1969C42.3142 30.2812 42.1683 30.3482 42.0166 30.3979C41.7987 30.4694 41.569 30.5051 41.3277 30.5051L41.3195 30.5051C40.8935 30.5051 40.5251 30.4104 40.2143 30.2211C40.0904 30.1457 39.9757 30.0551 39.8701 29.9496C39.7583 29.8372 39.662 29.7152 39.5811 29.5838C39.3696 29.2401 39.2639 28.8313 39.2639 28.3575C39.2639 28.1043 39.3053 27.8665 39.3881 27.6441C39.4773 27.4045 39.6146 27.1827 39.7999 26.9789C39.9844 26.777 40.1909 26.6209 40.4196 26.5107C40.6843 26.3831 40.9785 26.3169 41.3024 26.3121C41.883 26.3074 42.3553 26.4442 42.7194 26.7225C43.0271 26.9577 43.2574 27.2939 43.4106 27.7312L43.4109 27.7323ZM43.3194 27.7631C43.4604 28.1818 43.4788 28.617 43.4604 29.2788L43.4604 29.3953C43.444 29.9652 43.4277 30.7599 42.8761 31.4034C42.6739 31.6301 42.3573 31.9549 41.8302 32.1306C41.5545 32.2246 41.2358 32.2654 40.8762 32.2654C40.6364 32.2654 40.3751 32.2457 40.1014 32.2049C40.0833 32.2022 40.0651 32.1994 40.0468 32.1965C40.0332 32.1943 40.0196 32.1921 40.006 32.1898L40.1388 31.3707C41.487 31.5872 41.9303 31.2195 42.2388 30.86C42.4258 30.645 42.5201 30.3867 42.569 30.1234C42.5773 30.079 42.5843 30.0343 42.5902 29.9897C42.5545 30.0163 42.5181 30.0417 42.481 30.0659C42.144 30.2858 41.7491 30.4085 41.3277 30.4085L41.3195 30.4085C40.768 30.4085 40.2818 30.2247 39.9386 29.8815C39.5627 29.5035 39.3605 28.9683 39.3605 28.3575C39.3605 27.8816 39.5443 27.4035 39.8712 27.044C40.2389 26.6416 40.7496 26.4169 41.3032 26.4087C42.298 26.4005 43.0089 26.8765 43.3194 27.7631ZM41.3277 29.571L41.3195 29.571C40.9845 29.571 40.7169 29.479 40.5249 29.287C40.3145 29.0684 40.198 28.7436 40.198 28.3575C40.198 28.0899 40.3063 27.8141 40.4901 27.6058C40.6413 27.4464 40.9008 27.2544 41.3195 27.2442L41.344 27.2442C41.9548 27.2442 42.3409 27.5036 42.5248 28.0307C42.582 28.19 42.6085 28.4495 42.6249 28.6844C42.2735 29.5383 41.6627 29.571 41.3277 29.571ZM40.3364 28.0666C40.3789 27.925 40.4539 27.7931 40.5614 27.671C40.6499 27.578 40.7481 27.5046 40.8562 27.4508C40.9949 27.3818 41.1498 27.3451 41.3207 27.3408L41.344 27.3408C41.6613 27.3408 41.9156 27.4184 42.1068 27.5737C42.2522 27.6917 42.3611 27.8547 42.4336 28.0625C42.4749 28.1775 42.506 28.3794 42.5269 28.6683C42.4087 28.9467 42.2444 29.153 42.0341 29.2872C41.8384 29.412 41.603 29.4744 41.3277 29.4744L41.3195 29.4744C41.0349 29.4744 40.8093 29.4043 40.6426 29.2641C40.6255 29.2497 40.609 29.2346 40.5932 29.2187C40.5736 29.1985 40.5551 29.1774 40.5375 29.1556L40.5374 29.1555C40.3755 28.9548 40.2946 28.6888 40.2946 28.3575C40.2946 28.2564 40.3085 28.1594 40.3364 28.0666Z" fill="url(#paint_linear_123)" fill-opacity="0" fill-rule="evenodd" />
				<path id="边框" d="M46.6126 28.5395C47.0546 28.6018 47.4245 28.7529 47.7223 28.9929L47.7228 28.9933C47.9182 29.149 48.0701 29.3281 48.1783 29.5305C48.343 29.8386 48.4066 30.2008 48.3692 30.6171C48.3564 30.7643 48.326 30.9052 48.2778 31.0397C48.1809 31.3105 48.0123 31.5556 47.772 31.775C47.6779 31.8608 47.578 31.9373 47.4721 32.0045L47.472 32.0046C47.1364 32.2175 46.7412 32.3366 46.2866 32.3618L46.2839 32.362L46.1382 32.362C45.6611 32.362 45.1775 32.2459 44.6873 32.0136C44.3692 31.8628 44.158 31.7353 44.0537 31.631L43.9937 31.5709L44.5852 30.8043L44.6327 30.8043C44.6531 30.8043 44.6773 30.8139 44.7055 30.8332C45.227 31.1904 45.736 31.3565 46.2326 31.3315C46.5643 31.3117 46.8321 31.2159 47.0358 31.0442C47.0465 31.0352 47.0571 31.0259 47.0675 31.0164C47.2116 30.8849 47.2991 30.742 47.3299 30.5878C47.334 30.5669 47.3372 30.5457 47.3392 30.5244C47.3605 30.2908 47.3201 30.0993 47.218 29.9498C47.1793 29.8931 47.1317 29.8425 47.0753 29.7979C47.0287 29.7612 46.98 29.7282 46.9291 29.6991C46.5727 29.495 46.1093 29.4777 45.5391 29.647C45.4309 29.6798 45.2722 29.7675 45.063 29.9102L45.0126 29.9445L44.2461 29.4983L44.5459 26.688L44.5485 26.688L44.5648 26.3203L48.049 26.3203L47.7599 27.351L45.5142 27.351L45.3797 28.6147C45.7274 28.5253 46.071 28.493 46.4104 28.5179L46.4107 28.5179C46.4782 28.5228 46.5455 28.53 46.6126 28.5395ZM44.6327 26.7846L44.6408 26.7846L44.6572 26.4169L47.9216 26.4169L47.8945 26.5134L47.6867 27.2544L45.4273 27.2544L45.2799 28.6396L45.279 28.6486L45.2689 28.7436L45.268 28.7518C45.2843 28.7436 45.2945 28.7436 45.3027 28.7436C45.3027 28.7334 45.3109 28.7334 45.3109 28.7334C45.3302 28.7279 45.3494 28.7226 45.3688 28.7174C46.2213 28.4899 47.1048 28.619 47.6622 29.0684C48.1136 29.428 48.3302 29.9734 48.273 30.6087C48.2055 31.387 47.4947 32.198 46.2812 32.2654L46.1382 32.2654C45.2099 32.2654 44.4393 31.7909 44.1989 31.6211C44.1928 31.6167 44.187 31.6126 44.1816 31.6087C44.1469 31.5836 44.1265 31.5672 44.122 31.5627L44.6327 30.9008C44.6334 30.9008 44.6396 30.9051 44.6509 30.9128C44.7704 30.9947 45.46 31.4671 46.2383 31.4279C47.0595 31.3789 47.4027 30.8682 47.4354 30.5331C47.4681 30.1736 47.368 29.906 47.1351 29.7221C46.7756 29.4382 46.1301 29.3708 45.5111 29.5546C45.3763 29.5955 45.1434 29.7385 45.0086 29.8304L44.3487 29.4464L44.6327 26.7846Z" fill="url(#paint_linear_124)" fill-opacity="0" fill-rule="evenodd" />
				<path id="边框" d="M51.6666 28.5395C52.1086 28.6018 52.4785 28.7529 52.7763 28.9929L52.7767 28.9933C52.9722 29.149 53.124 29.3281 53.2323 29.5305C53.397 29.8386 53.4606 30.2008 53.4231 30.6171C53.4104 30.7643 53.3799 30.9052 53.3318 31.0397C53.2348 31.3105 53.0662 31.5556 52.8259 31.775C52.7318 31.8609 52.6318 31.9374 52.5259 32.0046C52.1903 32.2175 51.7951 32.3366 51.3405 32.3618L51.3378 32.362L51.1922 32.362C50.715 32.362 50.2314 32.2459 49.7413 32.0136C49.4232 31.8628 49.212 31.7353 49.1077 31.631L49.0476 31.5709L49.6392 30.8043L49.6866 30.8043C49.707 30.8043 49.7313 30.8139 49.7594 30.8332C50.2809 31.1904 50.79 31.3565 51.2865 31.3315C51.6183 31.3117 51.886 31.2159 52.0898 31.0442C52.1005 31.0352 52.1111 31.0259 52.1214 31.0164C52.2656 30.8849 52.3531 30.742 52.3838 30.5878L52.3838 30.5878C52.388 30.5669 52.3911 30.5457 52.3932 30.5244C52.4144 30.2908 52.374 30.0992 52.272 29.9498C52.2333 29.8931 52.1857 29.8425 52.1292 29.7979C52.0827 29.7612 52.034 29.7282 51.9831 29.6991C51.6266 29.495 51.1633 29.4777 50.593 29.647C50.4848 29.6798 50.3261 29.7675 50.1169 29.9102L50.0666 29.9445L49.3 29.4983L49.5998 26.688L49.6024 26.688L49.6188 26.3203L53.1029 26.3203L52.8138 27.351L50.5681 27.351L50.4336 28.6147C50.7814 28.5253 51.1251 28.493 51.4645 28.5179C51.532 28.5228 51.5994 28.53 51.6666 28.5395ZM49.6866 26.7846L49.6948 26.7846L49.7111 26.4169L52.9756 26.4169L52.9485 26.5134L52.7406 27.2544L50.4813 27.2544L50.3339 28.6396L50.3329 28.6486L50.3228 28.7436L50.3219 28.7518C50.3383 28.7436 50.3485 28.7436 50.3567 28.7436C50.3567 28.7334 50.3648 28.7334 50.3648 28.7334C50.3841 28.7279 50.4034 28.7226 50.4227 28.7174C51.2753 28.4899 52.1588 28.619 52.7161 29.0684C53.1676 29.428 53.3841 29.9734 53.3269 30.6087C53.2595 31.387 52.5486 32.198 51.3352 32.2654L51.1922 32.2654C50.2639 32.2654 49.4933 31.7909 49.2529 31.6211C49.2467 31.6167 49.241 31.6126 49.2355 31.6087C49.2008 31.5836 49.1804 31.5672 49.1759 31.5627L49.6866 30.9008C49.6873 30.9008 49.6935 30.9051 49.7048 30.9128C49.8244 30.9947 50.514 31.4671 51.2923 31.4279C52.1135 31.3789 52.4567 30.8682 52.4894 30.5331C52.522 30.1736 52.422 29.906 52.1891 29.7221C51.8295 29.4382 51.184 29.3708 50.565 29.5546C50.4302 29.5955 50.1973 29.7385 50.0625 29.8304L49.4027 29.4464L49.6866 26.7846Z" fill="url(#paint_linear_125)" fill-opacity="0" fill-rule="evenodd" />
				<path id="边框" d="M56.7205 28.5395C57.1625 28.6018 57.5325 28.7529 57.8303 28.9929L57.8307 28.9933C58.0262 29.149 58.178 29.3281 58.2862 29.5305C58.4509 29.8387 58.5146 30.2008 58.4771 30.6171C58.4643 30.7643 58.4339 30.9052 58.3857 31.0398C58.2888 31.3105 58.1202 31.5556 57.8799 31.775C57.7858 31.8609 57.6858 31.9374 57.5799 32.0046L57.5798 32.0046C57.2442 32.2175 56.8491 32.3366 56.3945 32.3618L56.3918 32.362L56.2461 32.362C55.769 32.362 55.2854 32.2459 54.7952 32.0136C54.4771 31.8628 54.2659 31.7353 54.1616 31.631L54.1016 31.5709L54.6931 30.8043L54.7406 30.8043C54.761 30.8043 54.7852 30.8139 54.8134 30.8332C55.3349 31.1904 55.8439 31.3565 56.3405 31.3315C56.6723 31.3117 56.94 31.2159 57.1437 31.0442L57.1469 31.0415C57.1565 31.0333 57.166 31.025 57.1754 31.0164C57.3196 30.8849 57.407 30.742 57.4378 30.5878L57.4378 30.5878C57.442 30.5669 57.4451 30.5457 57.4472 30.5244C57.4684 30.2908 57.428 30.0993 57.326 29.9498C57.2872 29.8931 57.2396 29.8425 57.1832 29.7979C57.1367 29.7612 57.088 29.7283 57.0371 29.6991L57.037 29.6991C56.6805 29.495 56.2172 29.4777 55.647 29.647C55.5388 29.6798 55.3801 29.7675 55.1709 29.9102L55.1205 29.9445L54.354 29.4983L54.6538 26.688L54.6564 26.688L54.6727 26.3203L58.1569 26.3203L57.8678 27.351L55.6221 27.351L55.4876 28.6147C55.8353 28.5253 56.1789 28.493 56.5183 28.5179C56.5859 28.5228 56.6533 28.53 56.7205 28.5395ZM54.7406 26.7846L54.7488 26.7846L54.7651 26.4169L58.0295 26.4169L58.0024 26.5134L57.7946 27.2544L55.5352 27.2544L55.3878 28.6396L55.3869 28.6486L55.3768 28.7436L55.3759 28.7518C55.3922 28.7436 55.4025 28.7436 55.4106 28.7436C55.4106 28.7334 55.4188 28.7334 55.4188 28.7334C55.4381 28.7279 55.4574 28.7226 55.4767 28.7174C56.3292 28.4899 57.2127 28.619 57.7701 29.0684C58.2215 29.428 58.4381 29.9734 58.3809 30.6087C58.3135 31.387 57.6026 32.198 56.3891 32.2654L56.2461 32.2654C55.3178 32.2654 54.5472 31.7909 54.3068 31.6211C54.3007 31.6167 54.2949 31.6126 54.2895 31.6087C54.2548 31.5836 54.2344 31.5672 54.2299 31.5627L54.7406 30.9008C54.7413 30.9008 54.7475 30.9051 54.7588 30.9128C54.8783 30.9947 55.568 31.4671 56.3462 31.4279C57.1674 31.3789 57.5106 30.8682 57.5433 30.5331C57.576 30.1736 57.4759 29.906 57.243 29.7221C56.8835 29.4382 56.238 29.3708 55.619 29.5546C55.4842 29.5955 55.2513 29.7385 55.1165 29.8304L54.4566 29.4464L54.7406 26.7846Z" fill="url(#paint_linear_126)" fill-opacity="0" fill-rule="evenodd" />
			</g>
		</g>
	</g>
</svg>
