<svg viewBox="0 0 63.5918 45.1633" xmlns="http://www.w3.org/2000/svg" xmlns:xlink="http://www.w3.org/1999/xlink" width="63.591797" height="45.163330" fill="none" customFrame="#000000">
	<defs>
		<clipPath id="clipPath_26">
			<rect width="43.000000" height="5.000000" x="10.000000" y="0.000000" fill="rgb(255,255,255)" />
		</clipPath>
		<linearGradient id="paint_linear_174" x1="51.2094154" x2="51.2201424" y1="5.23302317" y2="-0.475709438" gradientUnits="userSpaceOnUse">
			<stop stop-color="rgb(0,0,0)" offset="0" stop-opacity="0.5" />
			<stop stop-color="rgb(242,241,241)" offset="0.463651955" stop-opacity="1" />
			<stop stop-color="rgb(243,242,242)" offset="1" stop-opacity="0" />
		</linearGradient>
		<linearGradient id="paint_linear_175" x1="37.991642" x2="38.0023689" y1="5.23302317" y2="-0.475709438" gradientUnits="userSpaceOnUse">
			<stop stop-color="rgb(0,0,0)" offset="0" stop-opacity="0.5" />
			<stop stop-color="rgb(242,241,241)" offset="0.463651955" stop-opacity="1" />
			<stop stop-color="rgb(243,242,242)" offset="1" stop-opacity="0" />
		</linearGradient>
		<linearGradient id="paint_linear_176" x1="24.7741146" x2="24.7848415" y1="5.23302317" y2="-0.475709438" gradientUnits="userSpaceOnUse">
			<stop stop-color="rgb(0,0,0)" offset="0" stop-opacity="0.5" />
			<stop stop-color="rgb(242,241,241)" offset="0.463651955" stop-opacity="1" />
			<stop stop-color="rgb(243,242,242)" offset="1" stop-opacity="0" />
		</linearGradient>
		<linearGradient id="paint_linear_177" x1="11.5563412" x2="11.5670681" y1="5.23302317" y2="-0.475709438" gradientUnits="userSpaceOnUse">
			<stop stop-color="rgb(0,0,0)" offset="0" stop-opacity="0.5" />
			<stop stop-color="rgb(242,241,241)" offset="0.463651955" stop-opacity="1" />
			<stop stop-color="rgb(243,242,242)" offset="1" stop-opacity="0" />
		</linearGradient>
		<clipPath id="clipPath_27">
			<rect width="43.000000" height="5.000000" x="0.000000" y="0.000000" fill="rgb(255,255,255)" transform="matrix(1,0,0,-1,10,45.1633)" />
		</clipPath>
		<linearGradient id="paint_linear_178" x1="1.55634093" x2="1.56706798" y1="5.23302317" y2="-0.475709438" gradientUnits="userSpaceOnUse">
			<stop stop-color="rgb(0,0,0)" offset="0" stop-opacity="0.5" />
			<stop stop-color="rgb(242,241,241)" offset="0.463651955" stop-opacity="1" />
			<stop stop-color="rgb(243,242,242)" offset="1" stop-opacity="0" />
		</linearGradient>
		<linearGradient id="paint_linear_179" x1="1.55634093" x2="1.56706798" y1="5.23302317" y2="-0.475709438" gradientUnits="userSpaceOnUse">
			<stop stop-color="rgb(0,0,0)" offset="0" stop-opacity="0.5" />
			<stop stop-color="rgb(242,241,241)" offset="0.463651955" stop-opacity="1" />
			<stop stop-color="rgb(243,242,242)" offset="1" stop-opacity="0" />
		</linearGradient>
		<linearGradient id="paint_linear_180" x1="1.55634093" x2="1.56706798" y1="5.23302317" y2="-0.475709438" gradientUnits="userSpaceOnUse">
			<stop stop-color="rgb(0,0,0)" offset="0" stop-opacity="0.5" />
			<stop stop-color="rgb(242,241,241)" offset="0.463651955" stop-opacity="1" />
			<stop stop-color="rgb(243,242,242)" offset="1" stop-opacity="0" />
		</linearGradient>
		<linearGradient id="paint_linear_181" x1="1.55634093" x2="1.56706798" y1="5.23302317" y2="-0.475709438" gradientUnits="userSpaceOnUse">
			<stop stop-color="rgb(0,0,0)" offset="0" stop-opacity="0.5" />
			<stop stop-color="rgb(242,241,241)" offset="0.463651955" stop-opacity="1" />
			<stop stop-color="rgb(243,242,242)" offset="1" stop-opacity="0" />
		</linearGradient>
		<linearGradient id="paint_linear_182" x1="46.5292053" x2="13.7797737" y1="23.0103073" y2="6.70231056" gradientUnits="userSpaceOnUse">
			<stop stop-color="rgb(130,145.345,219)" offset="0" stop-opacity="1" />
			<stop stop-color="rgb(198.732,211.93,252.723)" offset="1" stop-opacity="1" />
		</linearGradient>
		<linearGradient id="paint_linear_183" x1="46.5290833" x2="13.7796593" y1="23.0103073" y2="6.70231819" gradientUnits="userSpaceOnUse">
			<stop stop-color="rgb(130,145.345,219)" offset="0" stop-opacity="1" />
			<stop stop-color="rgb(198.732,211.93,252.723)" offset="1" stop-opacity="1" />
		</linearGradient>
		<linearGradient id="paint_linear_184" x1="46.5291214" x2="13.7796688" y1="23.0103111" y2="6.70229149" gradientUnits="userSpaceOnUse">
			<stop stop-color="rgb(130,145.345,219)" offset="0" stop-opacity="1" />
			<stop stop-color="rgb(198.732,211.93,252.723)" offset="1" stop-opacity="1" />
		</linearGradient>
		<linearGradient id="paint_linear_185" x1="46.5293045" x2="13.779871" y1="23.0102901" y2="6.7022934" gradientUnits="userSpaceOnUse">
			<stop stop-color="rgb(130,145.345,219)" offset="0" stop-opacity="1" />
			<stop stop-color="rgb(198.732,211.93,252.723)" offset="1" stop-opacity="1" />
		</linearGradient>
		<linearGradient id="paint_linear_186" x1="46.5291748" x2="13.7797356" y1="23.0103168" y2="6.70232201" gradientUnits="userSpaceOnUse">
			<stop stop-color="rgb(130,145.345,219)" offset="0" stop-opacity="1" />
			<stop stop-color="rgb(198.732,211.93,252.723)" offset="1" stop-opacity="1" />
		</linearGradient>
		<linearGradient id="paint_linear_187" x1="46.5291634" x2="13.7797127" y1="23.0103111" y2="6.70229149" gradientUnits="userSpaceOnUse">
			<stop stop-color="rgb(130,145.345,219)" offset="0" stop-opacity="1" />
			<stop stop-color="rgb(198.732,211.93,252.723)" offset="1" stop-opacity="1" />
		</linearGradient>
		<linearGradient id="paint_linear_188" x1="46.5292358" x2="13.7797852" y1="23.0103073" y2="6.70228767" gradientUnits="userSpaceOnUse">
			<stop stop-color="rgb(130,145.345,219)" offset="0" stop-opacity="1" />
			<stop stop-color="rgb(198.732,211.93,252.723)" offset="1" stop-opacity="1" />
		</linearGradient>
		<linearGradient id="paint_linear_189" x1="15.9829712" x2="15.9829712" y1="19.9854736" y2="26.0353279" gradientUnits="userSpaceOnUse">
			<stop stop-color="rgb(42,44,68)" offset="0" stop-opacity="1" />
			<stop stop-color="rgb(86.1143,88.7724,120.67)" offset="0.530903637" stop-opacity="1" />
			<stop stop-color="rgb(37,40,64)" offset="1" stop-opacity="1" />
		</linearGradient>
		<linearGradient id="paint_linear_190" x1="21.0419235" x2="21.0419235" y1="19.9854736" y2="26.0353279" gradientUnits="userSpaceOnUse">
			<stop stop-color="rgb(42,44,68)" offset="0" stop-opacity="1" />
			<stop stop-color="rgb(86.1143,88.7724,120.67)" offset="0.530903637" stop-opacity="1" />
			<stop stop-color="rgb(37,40,64)" offset="1" stop-opacity="1" />
		</linearGradient>
		<linearGradient id="paint_linear_191" x1="26.0895042" x2="26.0895042" y1="19.9854736" y2="26.0353279" gradientUnits="userSpaceOnUse">
			<stop stop-color="rgb(42,44,68)" offset="0" stop-opacity="1" />
			<stop stop-color="rgb(86.1143,88.7724,120.67)" offset="0.530903637" stop-opacity="1" />
			<stop stop-color="rgb(37,40,64)" offset="1" stop-opacity="1" />
		</linearGradient>
		<linearGradient id="paint_linear_192" x1="31.1404572" x2="31.1404572" y1="19.9853516" y2="26.0353222" gradientUnits="userSpaceOnUse">
			<stop stop-color="rgb(42,44,68)" offset="0" stop-opacity="1" />
			<stop stop-color="rgb(86.1143,88.7724,120.67)" offset="0.530903637" stop-opacity="1" />
			<stop stop-color="rgb(37,40,64)" offset="1" stop-opacity="1" />
		</linearGradient>
		<linearGradient id="paint_linear_193" x1="35.9146423" x2="35.9146423" y1="19.9936523" y2="26.0353355" gradientUnits="userSpaceOnUse">
			<stop stop-color="rgb(42,44,68)" offset="0" stop-opacity="1" />
			<stop stop-color="rgb(86.1143,88.7724,120.67)" offset="0.530903637" stop-opacity="1" />
			<stop stop-color="rgb(37,40,64)" offset="1" stop-opacity="1" />
		</linearGradient>
		<linearGradient id="paint_linear_194" x1="40.8900452" x2="40.8900452" y1="19.9854736" y2="26.0353279" gradientUnits="userSpaceOnUse">
			<stop stop-color="rgb(42,44,68)" offset="0" stop-opacity="1" />
			<stop stop-color="rgb(86.1143,88.7724,120.67)" offset="0.530903637" stop-opacity="1" />
			<stop stop-color="rgb(37,40,64)" offset="1" stop-opacity="1" />
		</linearGradient>
		<linearGradient id="paint_linear_195" x1="45.9440002" x2="45.9440002" y1="19.9854736" y2="26.0353279" gradientUnits="userSpaceOnUse">
			<stop stop-color="rgb(42,44,68)" offset="0" stop-opacity="1" />
			<stop stop-color="rgb(86.1143,88.7724,120.67)" offset="0.530903637" stop-opacity="1" />
			<stop stop-color="rgb(37,40,64)" offset="1" stop-opacity="1" />
		</linearGradient>
	</defs>
	<g id="组合 91333972">
		<g id="组合 8348">
			<g id="画板 1659" customFrame="url(#clipPath_26)">
				<rect id="画板 1659" width="43.000000" height="5.000000" x="10.000000" y="0.000000" fill="rgb(255,255,255)" fill-opacity="0" />
				<path id="矩形 3067" d="M50.3889 0L52.2642 0C52.6706 0 53 0.329448 53 0.735844L53 5.02041L49.6531 5.02041L49.6531 0.735844C49.6531 0.329448 49.9825 0 50.3889 0Z" fill="rgb(182,182,182)" fill-rule="evenodd" />
				<path id="矩形 3067" d="M50.3889 0L52.2642 0C52.6706 0 53 0.329448 53 0.735844L53 5.02041L49.6531 5.02041L49.6531 0.735844C49.6531 0.329448 49.9825 0 50.3889 0Z" fill="url(#paint_linear_174)" fill-opacity="0.600000024" fill-rule="evenodd" />
				<path id="矩形 3067" d="M37.1711 0L39.0464 0C39.4528 0 39.7822 0.329448 39.7822 0.735844L39.7822 5.02041L36.4353 5.02041L36.4353 0.735844C36.4353 0.329448 36.7648 0 37.1711 0Z" fill="rgb(182,182,182)" fill-rule="evenodd" />
				<path id="矩形 3067" d="M37.1711 0L39.0464 0C39.4528 0 39.7822 0.329448 39.7822 0.735844L39.7822 5.02041L36.4353 5.02041L36.4353 0.735844C36.4353 0.329448 36.7648 0 37.1711 0Z" fill="url(#paint_linear_175)" fill-opacity="0.600000024" fill-rule="evenodd" />
				<path id="矩形 3067" d="M23.9536 0L25.8289 0C26.2353 0 26.5647 0.329448 26.5647 0.735844L26.5647 5.02041L23.2178 5.02041L23.2178 0.735844C23.2178 0.329448 23.5472 0 23.9536 0Z" fill="rgb(182,182,182)" fill-rule="evenodd" />
				<path id="矩形 3067" d="M23.9536 0L25.8289 0C26.2353 0 26.5647 0.329448 26.5647 0.735844L26.5647 5.02041L23.2178 5.02041L23.2178 0.735844C23.2178 0.329448 23.5472 0 23.9536 0Z" fill="url(#paint_linear_176)" fill-opacity="0.600000024" fill-rule="evenodd" />
				<path id="矩形 3067" d="M10.7358 0L12.6111 0C13.0175 0 13.3469 0.329448 13.3469 0.735844L13.3469 5.02041L10 5.02041L10 0.735844C10 0.329448 10.3294 0 10.7358 0Z" fill="rgb(182,182,182)" fill-rule="evenodd" />
				<path id="矩形 3067" d="M10.7358 0L12.6111 0C13.0175 0 13.3469 0.329448 13.3469 0.735844L13.3469 5.02041L10 5.02041L10 0.735844C10 0.329448 10.3294 0 10.7358 0Z" fill="url(#paint_linear_177)" fill-opacity="0.600000024" fill-rule="evenodd" />
			</g>
			<g id="画板 1660" customFrame="url(#clipPath_27)">
				<rect id="画板 1660" width="43.000000" height="5.000000" x="0.000000" y="0.000000" fill="rgb(255,255,255)" fill-opacity="0" transform="matrix(1,0,0,-1,10,45.1633)" />
				<path id="矩形 3067" d="M0.735844 0L2.6111 0C3.01749 0 3.34694 0.329448 3.34694 0.735844L3.34694 5.02041L0 5.02041L0 0.735844C0 0.329448 0.329448 0 0.735844 0Z" fill="rgb(182,182,182)" fill-rule="evenodd" transform="matrix(1,0,0,-1,49.6531,45.1633)" />
				<path id="矩形 3067" d="M0.735844 0L2.6111 0C3.01749 0 3.34694 0.329448 3.34694 0.735844L3.34694 5.02041L0 5.02041L0 0.735844C0 0.329448 0.329448 0 0.735844 0Z" fill="url(#paint_linear_178)" fill-opacity="0.600000024" fill-rule="evenodd" transform="matrix(1,0,0,-1,49.6531,45.1633)" />
				<path id="矩形 3067" d="M0.735844 0L2.6111 0C3.01749 0 3.34694 0.329448 3.34694 0.735844L3.34694 5.02041L0 5.02041L0 0.735844C0 0.329448 0.329448 0 0.735844 0Z" fill="rgb(182,182,182)" fill-rule="evenodd" transform="matrix(1,0,0,-1,36.4353,45.1633)" />
				<path id="矩形 3067" d="M0.735844 0L2.6111 0C3.01749 0 3.34694 0.329448 3.34694 0.735844L3.34694 5.02041L0 5.02041L0 0.735844C0 0.329448 0.329448 0 0.735844 0Z" fill="url(#paint_linear_179)" fill-opacity="0.600000024" fill-rule="evenodd" transform="matrix(1,0,0,-1,36.4353,45.1633)" />
				<path id="矩形 3067" d="M0.735844 0L2.6111 0C3.01749 0 3.34694 0.329448 3.34694 0.735844L3.34694 5.02041L0 5.02041L0 0.735844C0 0.329448 0.329448 0 0.735844 0Z" fill="rgb(182,182,182)" fill-rule="evenodd" transform="matrix(1,0,0,-1,23.2178,45.1633)" />
				<path id="矩形 3067" d="M0.735844 0L2.6111 0C3.01749 0 3.34694 0.329448 3.34694 0.735844L3.34694 5.02041L0 5.02041L0 0.735844C0 0.329448 0.329448 0 0.735844 0Z" fill="url(#paint_linear_180)" fill-opacity="0.600000024" fill-rule="evenodd" transform="matrix(1,0,0,-1,23.2178,45.1633)" />
				<path id="矩形 3067" d="M0.735844 0L2.6111 0C3.01749 0 3.34694 0.329448 3.34694 0.735844L3.34694 5.02041L0 5.02041L0 0.735844C0 0.329448 0.329448 0 0.735844 0Z" fill="rgb(182,182,182)" fill-rule="evenodd" transform="matrix(1,0,0,-1,10,45.1633)" />
				<path id="矩形 3067" d="M0.735844 0L2.6111 0C3.01749 0 3.34694 0.329448 3.34694 0.735844L3.34694 5.02041L0 5.02041L0 0.735844C0 0.329448 0.329448 0 0.735844 0Z" fill="url(#paint_linear_181)" fill-opacity="0.600000024" fill-rule="evenodd" transform="matrix(1,0,0,-1,10,45.1633)" />
			</g>
			<rect id="矩形 5799" width="63.591839" height="36.816326" x="0.000000" y="4.183716" rx="3.346939" fill="rgb(0,0,0)" />
			<rect id="矩形 5799" width="62.336739" height="35.561226" x="0.627551" y="4.811267" rx="2.719388" stroke="rgb(255,255,255)" stroke-width="1.255102" />
			<rect id="矩形 5800" width="55.224487" height="28.448978" x="4.183594" y="8.367310" rx="0.836735" fill="rgb(255,255,255)" fill-opacity="0.150000006" />
		</g>
		<g id="PCA9544" opacity="0">
			<path id="矢量 15233" d="M13.9348 25.9389L13.9348 20.0822L15.9613 20.0822C17.1665 20.0822 18.145 21.1362 18.0184 22.3905C17.9694 22.8931 17.759 23.3363 17.3667 23.6959C17.1236 23.9226 16.8479 24.0391 16.5047 24.0983C16.4883 24.1065 16.472 24.1065 16.4536 24.1065L16.4373 24.1147C16.4209 24.1147 16.4046 24.1147 16.3882 24.1228L16.3372 24.1228L16.3126 24.131L16.2371 24.131L16.2125 24.1392L16.0941 24.1392L16.045 24.1473L14.7724 24.1473L14.7724 25.9389L13.9348 25.9389ZM14.7724 20.9177L14.7724 23.3118L15.9858 23.3118L16.0267 23.3037L16.1288 23.3037L16.1533 23.2955L16.2289 23.2955L16.2616 23.2873C16.329 23.2873 16.3882 23.2689 16.4373 23.2608L16.4618 23.2608C16.5884 23.2281 16.6722 23.1852 16.7559 23.1198L16.7641 23.1116C16.7804 23.1014 16.7886 23.0851 16.7968 23.0769C17.0317 22.8685 17.1482 22.6173 17.1829 22.3068C17.2585 21.5632 16.6885 20.9279 15.9776 20.9177L14.7724 20.9177Z" fill="url(#paint_linear_182)" fill-opacity="0" fill-rule="evenodd" />
			<path id="矢量 15233" d="M13.9348 25.9389L13.9348 20.0822L15.9613 20.0822C17.1665 20.0822 18.145 21.1362 18.0184 22.3905C17.9694 22.8931 17.759 23.3363 17.3667 23.6959C17.1236 23.9226 16.8479 24.0391 16.5047 24.0983C16.4883 24.1065 16.472 24.1065 16.4536 24.1065L16.4373 24.1147C16.4209 24.1147 16.4046 24.1147 16.3882 24.1228L16.3372 24.1228L16.3126 24.131L16.2371 24.131L16.2125 24.1392L16.0941 24.1392L16.045 24.1473L14.7724 24.1473L14.7724 25.9389L13.9348 25.9389ZM14.7724 20.9177L14.7724 23.3118L15.9858 23.3118L16.0267 23.3037L16.1288 23.3037L16.1533 23.2955L16.2289 23.2955L16.2616 23.2873C16.329 23.2873 16.3882 23.2689 16.4373 23.2608L16.4618 23.2608C16.5884 23.2281 16.6722 23.1852 16.7559 23.1198L16.7641 23.1116C16.7804 23.1014 16.7886 23.0851 16.7968 23.0769C17.0317 22.8685 17.1482 22.6173 17.1829 22.3068C17.2585 21.5632 16.6885 20.9279 15.9776 20.9177L14.7724 20.9177Z" fill="rgb(255,255,255)" fill-rule="evenodd" />
			<path id="矢量 15234" d="M21.1397 20.0822C21.8097 20.0822 22.3204 20.3661 22.729 20.9442C22.8801 21.1526 22.9884 21.4039 23.0558 21.696L22.2775 22.2067C22.253 21.8635 22.1692 21.604 22.0446 21.4284L22.0344 21.4202L22.0181 21.3957C21.775 21.0607 21.5155 20.9279 21.1397 20.9279C20.6371 20.9279 20.2531 21.22 20.0263 21.747C19.9099 22.031 19.8588 22.4069 19.8588 22.8931L19.8588 23.2689L19.869 23.3037L19.869 23.3874L19.8772 23.4201L19.8772 23.512C19.8854 23.5202 19.8854 23.5202 19.8854 23.5284L19.8854 23.5631C19.8854 23.5794 19.8854 23.5876 19.8935 23.604L19.8935 23.6387C19.8935 23.6469 19.8935 23.655 19.9017 23.6714L19.9017 23.7041C19.9099 23.747 19.9181 23.7878 19.9262 23.8307L19.9262 23.8634C19.9344 23.8716 19.9344 23.8716 19.9344 23.8797L19.9426 23.9063C19.9528 23.9635 19.9691 24.0146 19.9773 24.0636L19.9855 24.0983C20.0263 24.2066 20.0692 24.3067 20.1183 24.3986C20.1938 24.5416 20.2694 24.658 20.3613 24.7581C20.5718 24.9931 20.8639 25.1013 21.1233 25.1013C21.6095 25.1013 21.9507 24.9257 22.1856 24.5825L22.1856 24.5661L22.8965 25.036C22.5043 25.6386 21.8935 25.9389 21.1233 25.9389C20.3613 25.9389 19.7853 25.5365 19.3828 24.8174C19.248 24.5825 19.1561 24.323 19.0989 24.0309L19.0989 23.99C19.0907 23.9471 19.0826 23.9063 19.0723 23.8552L19.0642 23.8144L19.0642 23.7796L19.056 23.7388C19.0478 23.6877 19.0478 23.6387 19.0396 23.5958L19.0396 23.5549C19.0315 23.4875 19.0233 23.4201 19.0233 23.3527L19.0233 23.2689L19.0151 23.2199L19.0151 22.8849C19.0151 22.3068 19.0826 21.8308 19.248 21.4284C19.5912 20.601 20.2776 20.0822 21.1397 20.0822Z" fill="url(#paint_linear_183)" fill-opacity="0" fill-rule="evenodd" />
			<path id="矢量 15234" d="M21.1397 20.0822C21.8097 20.0822 22.3204 20.3661 22.729 20.9442C22.8801 21.1526 22.9884 21.4039 23.0558 21.696L22.2775 22.2067C22.253 21.8635 22.1692 21.604 22.0446 21.4284L22.0344 21.4202L22.0181 21.3957C21.775 21.0607 21.5155 20.9279 21.1397 20.9279C20.6371 20.9279 20.2531 21.22 20.0263 21.747C19.9099 22.031 19.8588 22.4069 19.8588 22.8931L19.8588 23.2689L19.869 23.3037L19.869 23.3874L19.8772 23.4201L19.8772 23.512C19.8854 23.5202 19.8854 23.5202 19.8854 23.5284L19.8854 23.5631C19.8854 23.5794 19.8854 23.5876 19.8935 23.604L19.8935 23.6387C19.8935 23.6469 19.8935 23.655 19.9017 23.6714L19.9017 23.7041C19.9099 23.747 19.9181 23.7878 19.9262 23.8307L19.9262 23.8634C19.9344 23.8716 19.9344 23.8716 19.9344 23.8797L19.9426 23.9063C19.9528 23.9635 19.9691 24.0146 19.9773 24.0636L19.9855 24.0983C20.0263 24.2066 20.0692 24.3067 20.1183 24.3986C20.1938 24.5416 20.2694 24.658 20.3613 24.7581C20.5718 24.9931 20.8639 25.1013 21.1233 25.1013C21.6095 25.1013 21.9507 24.9257 22.1856 24.5825L22.1856 24.5661L22.8965 25.036C22.5043 25.6386 21.8935 25.9389 21.1233 25.9389C20.3613 25.9389 19.7853 25.5365 19.3828 24.8174C19.248 24.5825 19.1561 24.323 19.0989 24.0309L19.0989 23.99C19.0907 23.9471 19.0826 23.9063 19.0723 23.8552L19.0642 23.8144L19.0642 23.7796L19.056 23.7388C19.0478 23.6877 19.0478 23.6387 19.0396 23.5958L19.0396 23.5549C19.0315 23.4875 19.0233 23.4201 19.0233 23.3527L19.0233 23.2689L19.0151 23.2199L19.0151 22.8849C19.0151 22.3068 19.0826 21.8308 19.248 21.4284C19.5912 20.601 20.2776 20.0822 21.1397 20.0822Z" fill="rgb(255,255,255)" fill-rule="evenodd" />
			<path id="矢量 15235" d="M27.6828 23.3956L27.6909 23.4201L28.1526 25.9389L27.315 25.9389L27.1394 25.0176L25.0312 25.0176L24.8555 25.9389L24.0261 25.9389L24.4878 23.4201L24.4878 23.3956L24.5205 23.2955L24.5532 23.1525L24.5716 23.0524L24.5961 22.9605L24.6206 22.8604L24.6451 22.7684L24.6635 22.701L24.6798 22.6418L24.7043 22.558L24.7288 22.4661L24.737 22.4069L24.7554 22.3578C24.8392 22.0473 24.9474 21.7307 25.0639 21.4039L25.0639 21.3957L25.5827 20.0822L26.596 20.0822L27.1149 21.3957L27.1149 21.4039C27.2313 21.7307 27.3314 22.0473 27.4151 22.3578L27.4315 22.4069L27.4499 22.4661L27.4744 22.558L27.4989 22.6418L27.5152 22.701L27.5234 22.7684L27.55 22.8604L27.5745 22.9605L27.599 23.0524L27.6256 23.1525L27.6582 23.2955L27.6828 23.3956ZM25.307 23.5876L25.1987 24.1821L26.98 24.1821L26.8636 23.5876L26.8472 23.4875L26.8125 23.3527L26.788 23.2444L26.7635 23.1525C26.7553 23.1362 26.7553 23.128 26.7553 23.1198L26.7369 23.0524L26.6634 22.7766L26.645 22.7174L26.6287 22.6581L26.6123 22.5744C26.5367 22.3068 26.4448 22.031 26.3447 21.747L26.3284 21.696L26.0853 21.0933L25.8504 21.696L25.834 21.747C25.7257 22.031 25.642 22.3068 25.5664 22.5744L25.5419 22.6581L25.5235 22.7174L25.5153 22.7766L25.4418 23.0524L25.4234 23.1198C25.4234 23.128 25.4152 23.1362 25.4152 23.1525L25.3907 23.2444L25.3662 23.3527L25.3315 23.4875L25.307 23.5876Z" fill="url(#paint_linear_184)" fill-opacity="0" fill-rule="evenodd" />
			<path id="矢量 15235" d="M27.6828 23.3956L27.6909 23.4201L28.1526 25.9389L27.315 25.9389L27.1394 25.0176L25.0312 25.0176L24.8555 25.9389L24.0261 25.9389L24.4878 23.4201L24.4878 23.3956L24.5205 23.2955L24.5532 23.1525L24.5716 23.0524L24.5961 22.9605L24.6206 22.8604L24.6451 22.7684L24.6635 22.701L24.6798 22.6418L24.7043 22.558L24.7288 22.4661L24.737 22.4069L24.7554 22.3578C24.8392 22.0473 24.9474 21.7307 25.0639 21.4039L25.0639 21.3957L25.5827 20.0822L26.596 20.0822L27.1149 21.3957L27.1149 21.4039C27.2313 21.7307 27.3314 22.0473 27.4151 22.3578L27.4315 22.4069L27.4499 22.4661L27.4744 22.558L27.4989 22.6418L27.5152 22.701L27.5234 22.7684L27.55 22.8604L27.5745 22.9605L27.599 23.0524L27.6256 23.1525L27.6582 23.2955L27.6828 23.3956ZM25.307 23.5876L25.1987 24.1821L26.98 24.1821L26.8636 23.5876L26.8472 23.4875L26.8125 23.3527L26.788 23.2444L26.7635 23.1525C26.7553 23.1362 26.7553 23.128 26.7553 23.1198L26.7369 23.0524L26.6634 22.7766L26.645 22.7174L26.6287 22.6581L26.6123 22.5744C26.5367 22.3068 26.4448 22.031 26.3447 21.747L26.3284 21.696L26.0853 21.0933L25.8504 21.696L25.834 21.747C25.7257 22.031 25.642 22.3068 25.5664 22.5744L25.5419 22.6581L25.5235 22.7174L25.5153 22.7766L25.4418 23.0524L25.4234 23.1198C25.4234 23.128 25.4152 23.1362 25.4152 23.1525L25.3907 23.2444L25.3662 23.3527L25.3315 23.4875L25.307 23.5876Z" fill="rgb(255,255,255)" fill-rule="evenodd" />
			<path id="矢量 15236" d="M31.0311 20.0821C32.0259 20.074 32.7368 20.5499 33.0473 21.4365C33.1883 21.8553 33.2067 22.2904 33.1883 22.9523L33.1883 23.0687C33.172 23.6387 33.1556 24.4333 32.604 25.0768C32.4018 25.3036 32.0852 25.6284 31.5581 25.804C31.2824 25.898 30.9637 25.9389 30.6041 25.9389C30.3365 25.9389 30.0424 25.9144 29.7339 25.8633L29.8667 25.0441C31.2149 25.2607 31.6582 24.893 31.9667 24.5334C32.1853 24.2822 32.2772 23.9716 32.3181 23.6632C31.9585 23.9308 31.5234 24.082 31.0556 24.082L31.0474 24.082C30.4959 24.082 30.0097 23.8981 29.6665 23.5549C29.2906 23.177 29.0884 22.6418 29.0884 22.031C29.0884 21.555 29.2722 21.077 29.5991 20.7174C29.9668 20.315 30.4775 20.0903 31.0311 20.0821ZM31.0474 23.2444L31.0556 23.2444C31.3906 23.2444 32.0014 23.2117 32.3528 22.3578C32.3364 22.1229 32.3099 21.8635 32.2527 21.7041C32.0688 21.1771 31.6827 20.9176 31.0719 20.9176L31.0474 20.9176C30.6287 20.9279 30.3692 21.1199 30.2181 21.2792C30.0342 21.4876 29.9259 21.7634 29.9259 22.031C29.9259 22.4171 30.0424 22.7419 30.2528 22.9605C30.4448 23.1525 30.7124 23.2444 31.0474 23.2444Z" fill="url(#paint_linear_185)" fill-opacity="0" fill-rule="evenodd" />
			<path id="矢量 15236" d="M31.0311 20.0821C32.0259 20.074 32.7368 20.5499 33.0473 21.4365C33.1883 21.8553 33.2067 22.2904 33.1883 22.9523L33.1883 23.0687C33.172 23.6387 33.1556 24.4333 32.604 25.0768C32.4018 25.3036 32.0852 25.6284 31.5581 25.804C31.2824 25.898 30.9637 25.9389 30.6041 25.9389C30.3365 25.9389 30.0424 25.9144 29.7339 25.8633L29.8667 25.0441C31.2149 25.2607 31.6582 24.893 31.9667 24.5334C32.1853 24.2822 32.2772 23.9716 32.3181 23.6632C31.9585 23.9308 31.5234 24.082 31.0556 24.082L31.0474 24.082C30.4959 24.082 30.0097 23.8981 29.6665 23.5549C29.2906 23.177 29.0884 22.6418 29.0884 22.031C29.0884 21.555 29.2722 21.077 29.5991 20.7174C29.9668 20.315 30.4775 20.0903 31.0311 20.0821ZM31.0474 23.2444L31.0556 23.2444C31.3906 23.2444 32.0014 23.2117 32.3528 22.3578C32.3364 22.1229 32.3099 21.8635 32.2527 21.7041C32.0688 21.1771 31.6827 20.9176 31.0719 20.9176L31.0474 20.9176C30.6287 20.9279 30.3692 21.1199 30.2181 21.2792C30.0342 21.4876 29.9259 21.7634 29.9259 22.031C29.9259 22.4171 30.0424 22.7419 30.2528 22.9605C30.4448 23.1525 30.7124 23.2444 31.0474 23.2444Z" fill="rgb(255,255,255)" fill-rule="evenodd" />
			<path id="矢量 15237" d="M35.0388 22.4069C35.909 22.1577 36.8201 22.2823 37.39 22.7419C37.8415 23.1014 38.058 23.6469 38.0008 24.2822C37.9334 25.0605 37.2225 25.8715 36.0091 25.9389L35.8661 25.9389C34.763 25.9389 33.8825 25.2689 33.8499 25.2362L34.3606 24.5743C34.3613 24.5743 34.3675 24.5785 34.3788 24.5863C34.4983 24.6682 35.1879 25.1405 35.9662 25.1013C36.7874 25.0523 37.1306 24.5416 37.1633 24.2066C37.196 23.8471 37.0959 23.5795 36.863 23.3956C36.5035 23.1116 35.8579 23.0442 35.239 23.2281C35.1041 23.2689 34.8713 23.4119 34.7364 23.5039L34.0766 23.1198L34.3606 20.458L34.3687 20.458L34.3851 20.0903L37.6495 20.0903L37.4146 20.9279L35.1552 20.9279L34.9959 22.4253C35.0122 22.4171 35.0224 22.4171 35.0306 22.4171C35.0306 22.4069 35.0388 22.4069 35.0388 22.4069Z" fill="url(#paint_linear_186)" fill-opacity="0" fill-rule="evenodd" />
			<path id="矢量 15237" d="M35.0388 22.4069C35.909 22.1577 36.8201 22.2823 37.39 22.7419C37.8415 23.1014 38.058 23.6469 38.0008 24.2822C37.9334 25.0605 37.2225 25.8715 36.0091 25.9389L35.8661 25.9389C34.763 25.9389 33.8825 25.2689 33.8499 25.2362L34.3606 24.5743C34.3613 24.5743 34.3675 24.5785 34.3788 24.5863C34.4983 24.6682 35.1879 25.1405 35.9662 25.1013C36.7874 25.0523 37.1306 24.5416 37.1633 24.2066C37.196 23.8471 37.0959 23.5795 36.863 23.3956C36.5035 23.1116 35.8579 23.0442 35.239 23.2281C35.1041 23.2689 34.8713 23.4119 34.7364 23.5039L34.0766 23.1198L34.3606 20.458L34.3687 20.458L34.3851 20.0903L37.6495 20.0903L37.4146 20.9279L35.1552 20.9279L34.9959 22.4253C35.0122 22.4171 35.0224 22.4171 35.0306 22.4171C35.0306 22.4069 35.0388 22.4069 35.0388 22.4069Z" fill="rgb(255,255,255)" fill-rule="evenodd" />
			<path id="矢量 15238" d="M42.3596 23.7633L42.7028 23.7633L42.9378 24.6008L42.3596 24.6008L42.3596 25.9389L41.5221 25.9389L41.5221 24.6008L38.8113 24.6008L38.8113 23.7633L38.8195 23.7633L38.8195 23.7551L41.5139 20.0822L42.3596 20.0822L42.3596 23.7633ZM39.8572 23.7633L41.5221 23.7633L41.5221 21.4958L39.8572 23.7633Z" fill="url(#paint_linear_187)" fill-opacity="0" fill-rule="evenodd" />
			<path id="矢量 15238" d="M42.3596 23.7633L42.7028 23.7633L42.9378 24.6008L42.3596 24.6008L42.3596 25.9389L41.5221 25.9389L41.5221 24.6008L38.8113 24.6008L38.8113 23.7633L38.8195 23.7633L38.8195 23.7551L41.5139 20.0822L42.3596 20.0822L42.3596 23.7633ZM39.8572 23.7633L41.5221 23.7633L41.5221 21.4958L39.8572 23.7633Z" fill="rgb(255,255,255)" fill-rule="evenodd" />
			<path id="矢量 15239" d="M47.4136 23.7633L47.7568 23.7633L47.9917 24.6008L47.4136 24.6008L47.4136 25.9389L46.576 25.9389L46.576 24.6008L43.8652 24.6008L43.8652 23.7633L43.8734 23.7633L43.8734 23.7551L46.5679 20.0822L47.4136 20.0822L47.4136 23.7633ZM44.9112 23.7633L46.576 23.7633L46.576 21.4958L44.9112 23.7633Z" fill="url(#paint_linear_188)" fill-opacity="0" fill-rule="evenodd" />
			<path id="矢量 15239" d="M47.4136 23.7633L47.7568 23.7633L47.9917 24.6008L47.4136 24.6008L47.4136 25.9389L46.576 25.9389L46.576 24.6008L43.8652 24.6008L43.8652 23.7633L43.8734 23.7633L43.8734 23.7551L46.5679 20.0822L47.4136 20.0822L47.4136 23.7633ZM44.9112 23.7633L46.576 23.7633L46.576 21.4958L44.9112 23.7633Z" fill="rgb(255,255,255)" fill-rule="evenodd" />
		</g>
		<g id="PCA9544(边框)" opacity="0">
			<path id="边框" d="M13.8384 19.9855L15.9614 19.9855C16.2686 19.9855 16.5519 20.0412 16.8112 20.1526C17.0885 20.2717 17.3385 20.4546 17.5611 20.7012C17.773 20.9358 17.9254 21.1906 18.0184 21.4655C18.1162 21.7547 18.1483 22.0661 18.1146 22.3998C18.088 22.6725 18.0174 22.9231 17.9028 23.1518C17.7893 23.3783 17.6326 23.5831 17.4327 23.7664C17.418 23.7801 17.4029 23.7936 17.3877 23.8068C17.1603 24.0025 16.8748 24.1308 16.5313 24.1916C16.5158 24.197 16.4982 24.2005 16.4783 24.202L16.4602 24.2111L16.4374 24.2111L16.4315 24.2091L16.4111 24.2193L16.353 24.2193L16.3284 24.2274L16.2529 24.2274L16.2283 24.2356L16.1022 24.2356L16.0532 24.2438L14.869 24.2438L14.869 26.0353L13.8384 26.0353L13.8384 19.9855ZM17.3669 23.6958C17.1238 23.9225 16.848 24.039 16.5048 24.0982C16.4884 24.1064 16.4721 24.1064 16.4537 24.1064L16.4374 24.1145C16.421 24.1145 16.4047 24.1145 16.3884 24.1227L16.3373 24.1227L16.3128 24.1309L16.2372 24.1309L16.2127 24.1391L16.0942 24.1391L16.0452 24.1472L14.7725 24.1472L14.7725 25.9388L13.9349 25.9388L13.9349 20.082L15.9614 20.082C17.1667 20.082 18.1452 21.1361 18.0185 22.3904C17.9695 22.8929 17.7591 23.3362 17.3669 23.6958ZM17.183 22.3067C17.1483 22.6172 17.0318 22.8684 16.7969 23.0768C16.7887 23.085 16.7806 23.1013 16.7642 23.1115L16.7561 23.1197C16.6723 23.1851 16.5885 23.228 16.4619 23.2606L16.4374 23.2606C16.3884 23.2688 16.3291 23.2872 16.2617 23.2872L16.229 23.2954L16.1534 23.2954L16.1289 23.3035L16.0268 23.3035L15.9859 23.3117L14.7725 23.3117L14.7725 20.9175L15.9777 20.9175C16.6886 20.9278 17.2586 21.5631 17.183 22.3067ZM16.7037 23.0355L16.6921 23.0471C16.6234 23.0997 16.5425 23.1387 16.4493 23.1641L16.4294 23.1641L16.4215 23.1654C16.4107 23.1672 16.3945 23.1704 16.3728 23.175C16.3241 23.1854 16.287 23.1906 16.2617 23.1906L16.2498 23.1906L16.2171 23.1988L16.1378 23.1988L16.1132 23.207L16.0172 23.207L15.9764 23.2152L14.869 23.2152L14.869 21.0141L15.9777 21.0141C16.1292 21.0163 16.2693 21.0449 16.3981 21.1C16.5484 21.1643 16.6832 21.2645 16.8027 21.4007C16.9113 21.5246 16.9896 21.6586 17.0374 21.8026C17.0883 21.956 17.1048 22.1207 17.0869 22.2969C17.066 22.4844 17.0096 22.649 16.9177 22.7907C16.8669 22.869 16.8053 22.9403 16.7328 23.0046L16.7307 23.0065L16.7286 23.0085C16.7237 23.0135 16.718 23.0202 16.7116 23.0287L16.7131 23.0296L16.7037 23.0355Z" fill="url(#paint_linear_189)" fill-opacity="0" fill-rule="evenodd" />
			<path id="边框" d="M22.8076 20.888L22.8079 20.8884C22.9652 21.1054 23.0792 21.3674 23.15 21.6741L23.1651 21.7397L22.193 22.3776L22.1813 22.2134C22.1592 21.9044 22.09 21.6649 21.9735 21.4949L21.9625 21.4861L21.9389 21.4508C21.8166 21.2826 21.6733 21.1641 21.5093 21.0954C21.3961 21.048 21.2729 21.0243 21.1398 21.0243C20.9715 21.0243 20.8193 21.0575 20.6834 21.1239C20.4439 21.2408 20.2547 21.4607 20.1158 21.7836C20.0089 22.0441 19.9555 22.4139 19.9555 22.8929L19.9555 23.2549L19.9657 23.2896L19.9657 23.3754L19.9739 23.4081L19.9739 23.4853C19.9749 23.4878 19.9758 23.4903 19.9767 23.4929C19.9803 23.5041 19.9821 23.5159 19.9821 23.5283L19.9821 23.563L19.98 23.5607L19.9902 23.581L19.9902 23.6321L19.9984 23.6485L19.9984 23.6947L20.0086 23.7473L20.0229 23.8213L20.0229 23.8366C20.0239 23.8391 20.0249 23.8417 20.0257 23.8443C20.0273 23.8493 20.0286 23.8545 20.0295 23.8598L20.0367 23.8834L20.0378 23.8892C20.0408 23.9062 20.0464 23.9314 20.0546 23.9647C20.063 23.9991 20.0688 24.0256 20.0721 24.0442L20.0781 24.0699C20.1201 24.1805 20.162 24.275 20.2037 24.3534C20.2786 24.495 20.3551 24.6084 20.4334 24.6936C20.5304 24.8019 20.6395 24.8819 20.7606 24.9337C20.8714 24.981 20.9924 25.0047 21.1234 25.0047C21.405 25.0047 21.6411 24.9388 21.8316 24.8071L21.8316 24.8071C21.9295 24.7394 22.0153 24.6543 22.0891 24.5518L22.0891 24.3864L23.0298 25.0082L22.9775 25.0885C22.8131 25.3411 22.6155 25.5432 22.3847 25.6947C22.0389 25.9218 21.6184 26.0353 21.1234 26.0353C20.8362 26.0353 20.5723 25.9824 20.3316 25.8765C19.9191 25.695 19.5749 25.358 19.2992 24.8653C19.1624 24.627 19.0641 24.355 19.0043 24.0493L19.0025 24.0401L19.0025 23.9993L18.9778 23.874L18.9677 23.8238L18.9677 23.7891L18.9611 23.7558L18.9608 23.7539C18.9578 23.7353 18.9549 23.709 18.952 23.6753C18.9495 23.6459 18.9471 23.6254 18.9449 23.6137L18.9432 23.6048L18.9432 23.5606C18.9323 23.4697 18.9269 23.4004 18.9269 23.3526L18.9269 23.2768L18.9187 23.2278L18.9187 22.8848C18.9187 22.2786 18.9988 21.7808 19.159 21.3912C19.315 21.0151 19.531 20.7092 19.8069 20.4735C19.8507 20.4361 19.896 20.4005 19.9428 20.3667C20.0907 20.2596 20.2471 20.1751 20.412 20.1132C20.6386 20.028 20.8812 19.9855 21.1398 19.9855C21.426 19.9855 21.6895 20.0377 21.9303 20.1423C22.2671 20.2885 22.5596 20.5371 22.8076 20.888ZM22.2676 22.0977C22.2344 21.808 22.1558 21.5848 22.0447 21.4282L22.0345 21.4201L22.0182 21.3956C21.7751 21.0605 21.5157 20.9278 21.1398 20.9278C20.6373 20.9278 20.2532 21.2199 20.0265 21.7469C19.91 22.0309 19.8589 22.4067 19.8589 22.8929L19.8589 23.2688L19.8692 23.3035L19.8692 23.3873L19.8773 23.42L19.8773 23.5119C19.8855 23.5201 19.8855 23.5201 19.8855 23.5283L19.8855 23.563C19.8855 23.5793 19.8855 23.5875 19.8937 23.6038L19.8937 23.6386C19.8937 23.6467 19.8937 23.6549 19.9018 23.6712L19.9018 23.7039C19.91 23.7468 19.9182 23.7877 19.9264 23.8306L19.9264 23.8633C19.9345 23.8714 19.9345 23.8714 19.9345 23.8796L19.9427 23.9062C19.9529 23.9634 19.9693 24.0144 19.9774 24.0635L19.9856 24.0982C20.0265 24.2065 20.0693 24.3066 20.1184 24.3985C20.194 24.5415 20.2695 24.6579 20.3615 24.758C20.5719 24.9929 20.864 25.1012 21.1234 25.1012C21.5769 25.1012 21.9042 24.9484 22.1368 24.6494C22.1536 24.6278 22.1699 24.6055 22.1857 24.5823L22.1857 24.566L22.274 24.6243L22.8966 25.0358C22.8909 25.0446 22.8852 25.0533 22.8794 25.0619C22.8672 25.0801 22.8548 25.098 22.8422 25.1156C22.4489 25.665 21.8588 25.9388 21.1234 25.9388C20.3615 25.9388 19.7854 25.5363 19.383 24.8173C19.2481 24.5823 19.1562 24.3229 19.099 24.0308L19.099 23.9899C19.0908 23.947 19.0827 23.9062 19.0725 23.8551L19.0643 23.8142L19.0643 23.7795L19.0561 23.7387C19.0479 23.6876 19.0479 23.6386 19.0398 23.5957L19.0398 23.5548C19.0316 23.4874 19.0234 23.42 19.0234 23.3526L19.0234 23.2688L19.0153 23.2198L19.0153 22.8848C19.0153 22.3067 19.0827 21.8307 19.2481 21.4282C19.5913 20.6009 20.2777 20.082 21.1398 20.082C21.8098 20.082 22.3205 20.366 22.7291 20.9441C22.8803 21.1525 22.9885 21.4037 23.0559 21.6959L22.3696 22.1462L22.2776 22.2066C22.275 22.1693 22.2716 22.133 22.2676 22.0977Z" fill="url(#paint_linear_190)" fill-opacity="0" fill-rule="evenodd" />
			<path id="边框" d="M27.7848 23.3959L28.2686 26.0353L27.2353 26.0353L27.0596 25.114L25.1112 25.114L24.9355 26.0353L23.9104 26.0353L24.3914 23.4112L24.3914 23.3801L24.4275 23.2696L24.4587 23.1329L24.4774 23.0311L24.5024 22.9374L24.5274 22.8354L24.5521 22.7429L24.5705 22.6752L24.5873 22.6145L24.6115 22.5319L24.6342 22.4469L24.643 22.3829L24.6635 22.3281C24.7286 22.0875 24.8299 21.7739 24.9675 21.3871L24.9675 21.3772L25.5172 19.9855L26.6618 19.9855L27.2116 21.3772L27.2116 21.3871C27.3276 21.7139 27.4263 22.0282 27.5078 22.3299L27.5238 22.3781L27.5428 22.4392L27.5675 22.5319L27.5921 22.616L27.6104 22.6822L27.6185 22.749L27.6434 22.8353L27.6679 22.9355L27.6925 23.0275L27.7195 23.1292L27.7522 23.2724L27.7757 23.3687L27.7827 23.3894L27.7848 23.3959ZM27.3152 25.9388L27.1395 25.0175L25.0313 25.0175L24.8556 25.9388L24.0263 25.9388L24.044 25.8422L24.4879 23.42L24.4879 23.3955L24.5206 23.2954L24.5533 23.1524L24.5717 23.0523L24.5962 22.9604L24.6207 22.8603L24.6452 22.7683L24.6636 22.7009L24.68 22.6417L24.7045 22.5579L24.729 22.466L24.7372 22.4067L24.7555 22.3577C24.8393 22.0472 24.9476 21.7306 25.064 21.4037L25.064 21.3956L25.5829 20.082L26.5961 20.082L27.115 21.3956L27.115 21.4037C27.2314 21.7306 27.3315 22.0472 27.4153 22.3577L27.4316 22.4067L27.45 22.466L27.4745 22.5579L27.499 22.6417L27.5154 22.7009L27.5236 22.7683L27.5501 22.8603L27.5746 22.9604L27.5991 23.0523L27.6257 23.1524L27.6584 23.2954L27.6829 23.3955L27.6911 23.42L28.135 25.8422L28.1527 25.9388L27.3152 25.9388ZM25.3316 23.4874L25.3663 23.3526L25.3909 23.2443L25.4154 23.1524C25.4154 23.136 25.4235 23.1279 25.4235 23.1197L25.4419 23.0523L25.5155 22.7765L25.5236 22.7173L25.542 22.658L25.5665 22.5743C25.6421 22.3067 25.7259 22.0309 25.8342 21.7469L25.8505 21.6959L26.0342 21.2245L26.0854 21.0932L26.1381 21.2239L26.3285 21.6959L26.3449 21.7469C26.445 22.0309 26.5369 22.3067 26.6125 22.5743L26.6288 22.658L26.6451 22.7173L26.6635 22.7765L26.7371 23.0523L26.7555 23.1197C26.7555 23.1279 26.7555 23.136 26.7636 23.1524L26.7881 23.2443L26.8127 23.3526L26.8474 23.4874L26.8637 23.5875L26.9613 24.0854L26.9802 24.182L25.1988 24.182L25.2164 24.0854L25.3071 23.5875L25.3316 23.4874ZM25.4602 23.3753L25.4846 23.2674L25.5119 23.165L25.5119 23.1617C25.5147 23.1543 25.5168 23.147 25.5181 23.1399L25.5351 23.0777L25.5597 22.9852L25.5843 22.8933L25.6103 22.7956L25.6182 22.7383L25.6343 22.6866L25.6592 22.6014C25.7498 22.2808 25.8381 22.0075 25.9244 21.7813L25.9253 21.7789L25.9415 21.7281L26.087 21.3551L26.2376 21.7287L26.2533 21.7777L26.2538 21.779C26.3663 22.0981 26.4545 22.3707 26.5185 22.5967L26.5347 22.6801L26.5525 22.7444L26.5707 22.8033L26.5947 22.8933L26.6438 23.0772L26.6596 23.1353L26.66 23.1384L26.6603 23.141C26.6622 23.1559 26.6663 23.1706 26.6724 23.1851L26.6944 23.2674L26.7188 23.3753L26.7528 23.5073L26.7687 23.6046L26.8629 24.0854L25.3146 24.0854L25.4016 23.6076L25.4254 23.5104L25.4602 23.3753Z" fill="url(#paint_linear_191)" fill-opacity="0" fill-rule="evenodd" />
			<path id="边框" d="M33.139 21.4056C33.2553 21.7512 33.304 22.2672 33.285 22.9535L33.285 23.07L33.2849 23.0714L33.2844 23.0915C33.2724 23.5124 33.2405 23.8412 33.1887 24.0781C33.106 24.4561 32.9575 24.7831 32.7432 25.0589L32.7422 25.0602C32.7209 25.0877 32.6989 25.1146 32.6762 25.141C32.3445 25.513 31.9822 25.7644 31.5894 25.8953C31.3155 25.9887 30.9871 26.0353 30.6043 26.0353C30.3232 26.0353 30.0278 26.0097 29.7183 25.9584L29.6233 25.9427L29.7869 24.9334L29.8821 24.9487C30.4696 25.043 30.934 25.0313 31.2752 24.9134C31.5009 24.8355 31.7072 24.6876 31.894 24.4699C32.0286 24.3151 32.1248 24.1152 32.1826 23.8703C32.0423 23.9545 31.8963 24.0215 31.7447 24.0712C31.5267 24.1427 31.2971 24.1784 31.0557 24.1784L31.0476 24.1784C30.6215 24.1784 30.2532 24.0838 29.9424 23.8945C29.8185 23.819 29.7037 23.7285 29.5982 23.6229C29.4864 23.5105 29.39 23.3886 29.3092 23.2572C29.0977 22.9135 28.9919 22.5047 28.9919 22.0309C28.9919 21.7777 29.0333 21.5398 29.1161 21.3174C29.2053 21.0778 29.3426 20.8561 29.5279 20.6522C29.7124 20.4503 29.919 20.2942 30.1476 20.184C30.4123 20.0564 30.7066 19.9903 31.0304 19.9855C31.611 19.9807 32.0833 20.1175 32.4474 20.3958C32.7551 20.631 32.9855 20.9672 33.1386 21.4045L33.139 21.4056ZM33.0475 21.4364C33.1884 21.8552 33.2068 22.2903 33.1884 22.9522L33.1884 23.0686C33.1721 23.6386 33.1557 24.4332 32.6042 25.0767C32.4019 25.3034 32.0853 25.6283 31.5583 25.8039C31.2825 25.8979 30.9638 25.9388 30.6043 25.9388C30.3644 25.9388 30.1032 25.9191 29.8294 25.8782C29.8113 25.8755 29.7931 25.8727 29.7748 25.8698C29.7613 25.8676 29.7477 25.8654 29.734 25.8632L29.8668 25.044C31.2151 25.2605 31.6584 24.8928 31.9668 24.5333C32.1538 24.3184 32.2481 24.0601 32.297 23.7968C32.3053 23.7523 32.3123 23.7077 32.3182 23.6631C32.2825 23.6896 32.2461 23.715 32.209 23.7392C31.872 23.9592 31.4771 24.0818 31.0557 24.0818L31.0476 24.0818C30.496 24.0818 30.0098 23.898 29.6666 23.5548C29.2907 23.1769 29.0885 22.6417 29.0885 22.0309C29.0885 21.5549 29.2724 21.0769 29.5992 20.7173C29.9669 20.3149 30.4776 20.0902 31.0312 20.082C32.0261 20.0739 32.737 20.5498 33.0475 21.4364ZM31.0557 23.2443L31.0476 23.2443C30.7125 23.2443 30.4449 23.1524 30.2529 22.9603C30.0425 22.7418 29.9261 22.417 29.9261 22.0309C29.9261 21.7633 30.0343 21.4875 30.2182 21.2791C30.3693 21.1198 30.6288 20.9278 31.0476 20.9175L31.0721 20.9175C31.6829 20.9175 32.069 21.177 32.2528 21.704C32.31 21.8634 32.3366 22.1228 32.3529 22.3577C32.0015 23.2116 31.3907 23.2443 31.0557 23.2443ZM30.0644 21.7399C30.107 21.5983 30.182 21.4664 30.2894 21.3443C30.3779 21.2513 30.4762 21.1779 30.5842 21.1241C30.723 21.0551 30.8778 21.0184 31.0488 21.0141L31.0721 21.0141C31.3894 21.0141 31.6436 21.0917 31.8348 21.247C31.9802 21.3651 32.0891 21.528 32.1616 21.7358C32.2029 21.8508 32.234 22.0527 32.255 22.3417C32.1367 22.6201 31.9724 22.8263 31.7621 22.9605C31.5665 23.0853 31.331 23.1477 31.0557 23.1477L31.0476 23.1477C30.763 23.1477 30.5373 23.0776 30.3706 22.9374C30.3535 22.9231 30.337 22.9079 30.3212 22.8921C30.3017 22.8718 30.2831 22.8507 30.2655 22.8289L30.2654 22.8288C30.1036 22.6281 30.0226 22.3621 30.0226 22.0309C30.0226 21.9297 30.0365 21.8327 30.0644 21.7399Z" fill="url(#paint_linear_192)" fill-opacity="0" fill-rule="evenodd" />
			<path id="边框" d="M36.3406 22.2128C36.7827 22.2751 37.1526 22.4263 37.4504 22.6663L37.4508 22.6666C37.6463 22.8224 37.7981 23.0014 37.9063 23.2039C38.071 23.512 38.1347 23.8742 38.0972 24.2904C38.0844 24.4376 38.054 24.5785 38.0058 24.7131C37.9089 24.9838 37.7403 25.2289 37.5 25.4483C37.4059 25.5342 37.3059 25.6107 37.2 25.6779C36.8644 25.8908 36.4693 26.0099 36.0146 26.0352L36.0119 26.0353L35.8662 26.0353C35.3891 26.0353 34.9055 25.9192 34.4154 25.6869C34.0972 25.5362 33.886 25.4086 33.7817 25.3043L33.7217 25.2443L34.3132 24.4776L34.3607 24.4776C34.3811 24.4776 34.4054 24.4872 34.4335 24.5065C34.955 24.8637 35.464 25.0298 35.9606 25.0048C36.2924 24.985 36.5601 24.8893 36.7638 24.7176C36.7746 24.7085 36.7851 24.6992 36.7955 24.6898C36.9397 24.5582 37.0271 24.4154 37.0579 24.2612L37.0579 24.2611C37.0621 24.2402 37.0652 24.2191 37.0673 24.1977C37.0885 23.9641 37.0481 23.7726 36.9461 23.6232C36.9073 23.5665 36.8598 23.5158 36.8033 23.4713C36.7568 23.4345 36.708 23.4016 36.6571 23.3724C36.3007 23.1683 35.8373 23.151 35.2671 23.3204C35.1589 23.3532 35.0002 23.4409 34.791 23.5835L34.7406 23.6178L33.9741 23.1717L34.2739 20.3614L34.2765 20.3614L34.2929 19.9937L37.777 19.9937L37.4879 21.0243L35.2422 21.0243L35.1077 22.288C35.4555 22.1986 35.799 22.1664 36.1384 22.1912C36.206 22.1962 36.2734 22.2034 36.3406 22.2128ZM34.3607 20.4579L34.3689 20.4579L34.3852 20.0902L37.6496 20.0902L37.6225 20.1868L37.4147 20.9278L35.1554 20.9278L35.0079 22.313L35.007 22.322L34.9969 22.417L34.996 22.4251C35.0124 22.417 35.0226 22.417 35.0307 22.417C35.0307 22.4068 35.0389 22.4068 35.0389 22.4068C35.0582 22.4012 35.0775 22.3959 35.0968 22.3908C35.9493 22.1632 36.8329 22.2923 37.3902 22.7418C37.8416 23.1013 38.0582 23.6467 38.001 24.2821C37.9336 25.0604 37.2227 25.8714 36.0092 25.9388L35.8662 25.9388C34.938 25.9388 34.1673 25.4643 33.9269 25.2944C33.9208 25.2901 33.915 25.286 33.9096 25.282C33.8749 25.257 33.8545 25.2405 33.85 25.236L34.3607 24.5742C34.3614 24.5742 34.3676 24.5784 34.3789 24.5862C34.4985 24.6681 35.1881 25.1404 35.9663 25.1012C36.7876 25.0522 37.1307 24.5415 37.1634 24.2065C37.1961 23.8469 37.096 23.5793 36.8631 23.3955C36.5036 23.1115 35.8581 23.0441 35.2391 23.228C35.1043 23.2688 34.8714 23.4118 34.7366 23.5037L34.0768 23.1197L34.3607 20.4579Z" fill="url(#paint_linear_193)" fill-opacity="0" fill-rule="evenodd" />
			<path id="边框" d="M42.7762 23.6666L43.0652 24.6973L42.4563 24.6973L42.4563 26.0353L41.4257 26.0353L41.4257 24.6973L38.7148 24.6973L38.7148 23.6666L38.7647 23.6666L41.4651 19.9855L42.4563 19.9855L42.4563 23.6666L42.7762 23.6666ZM42.3598 24.6007L42.3598 25.9388L41.5222 25.9388L41.5222 24.6007L38.8114 24.6007L38.8114 23.7632L38.8196 23.7632L38.8196 23.755L41.514 20.082L42.3598 20.082L42.3598 23.7632L42.703 23.7632L42.9108 24.5042L42.9379 24.6007L42.3598 24.6007ZM39.8573 23.7632L41.5222 23.7632L41.5222 21.4957L39.8573 23.7632ZM40.048 23.6666L41.4257 23.6666L41.4257 21.7903L40.048 23.6666Z" fill="url(#paint_linear_194)" fill-opacity="0" fill-rule="evenodd" />
			<path id="边框" d="M47.8301 23.6666L48.1192 24.6973L47.5103 24.6973L47.5103 26.0353L46.4796 26.0353L46.4796 24.6973L43.7688 24.6973L43.7688 23.6666L43.8186 23.6666L46.5191 19.9855L47.5103 19.9855L47.5103 23.6666L47.8301 23.6666ZM47.4137 24.6007L47.4137 25.9388L46.5762 25.9388L46.5762 24.6007L43.8654 24.6007L43.8654 23.7632L43.8735 23.7632L43.8735 23.755L46.568 20.082L47.4137 20.082L47.4137 23.7632L47.7569 23.7632L47.9647 24.5042L47.9918 24.6007L47.4137 24.6007ZM44.9113 23.7632L46.5762 23.7632L46.5762 21.4957L44.9113 23.7632ZM45.102 23.6666L46.4796 23.6666L46.4796 21.7903L45.102 23.6666Z" fill="url(#paint_linear_195)" fill-opacity="0" fill-rule="evenodd" />
		</g>
		<g id="SPIFlash">
			<path id="矢量 15416" d="M18.9229 23.1468C19.1601 23.336 19.3094 23.5947 19.336 23.9C19.3775 24.2881 19.2414 24.6481 18.9627 24.9069C18.6774 25.164 18.2693 25.2934 17.7733 25.2934C17.2309 25.2934 16.5176 25.1375 16.0216 24.8588L16 24.8521L16.3401 24.2533C16.7199 24.4706 17.3321 24.6066 17.7733 24.6066C18.1134 24.6066 18.3589 24.5253 18.5082 24.396C18.6227 24.2881 18.6774 24.1388 18.6641 23.9613C18.6509 23.8187 18.548 23.6959 18.3506 23.5947L18.3307 23.5881C18.3174 23.5748 18.3042 23.5682 18.2909 23.5616L18.2693 23.5533L18.2494 23.5466L18.2428 23.54L18.2229 23.5334C18.2013 23.5267 18.188 23.5201 18.1681 23.5135L18.1482 23.5068L18.12 23.5002C18.12 23.4935 18.1134 23.4935 18.1134 23.4935L18.0869 23.4853L18.0653 23.4786L18.0387 23.4653L18.0255 23.4653L18.0056 23.4587L17.9707 23.4521L17.9309 23.4388L17.8961 23.4255L17.848 23.4106L17.7534 23.3907L17.5427 23.336L17.3934 23.2961C17.3735 23.2961 17.3586 23.2895 17.3387 23.2829C16.5773 23.0374 16.136 22.6293 16.0746 22.0586C15.9934 21.3055 16.6934 20.6188 17.5693 20.5441C17.916 20.5176 18.3108 20.5707 18.6376 20.7001C18.7869 20.7548 18.9296 20.8162 19.0656 20.8776L19.1054 20.8908L19.1336 20.9041L19.1535 20.9174L19.2 20.9373L19.2348 20.9588L19.2282 20.9787L18.7521 21.488C18.6442 21.4416 18.5215 21.3935 18.3987 21.3453C18.1615 21.2508 17.8695 21.2093 17.624 21.2309C17.1015 21.2707 16.7133 21.6522 16.7481 21.984C16.7747 22.2361 17.0136 22.4535 17.5427 22.6227L17.556 22.6293L17.5776 22.6359L17.5842 22.6359L17.7949 22.6907L17.9226 22.7255L17.9906 22.7454L18.052 22.7587L18.0935 22.7653L18.1333 22.7786L18.1681 22.7935L18.2013 22.8001L18.2229 22.8068L18.2428 22.8134C18.5148 22.9013 18.7388 23.0042 18.9229 23.1468Z" fill="rgb(230,230,230)" fill-rule="evenodd" />
			<path id="矢量 15417" d="M20.1172 25.2934L20.1172 20.5375L21.7628 20.5375C22.7415 20.5375 23.5361 21.3934 23.4333 22.412C23.3935 22.82 23.2226 23.18 22.9041 23.472C22.7067 23.6561 22.4827 23.7507 22.204 23.7988C22.1908 23.8054 22.1775 23.8054 22.1626 23.8054L22.1493 23.812C22.136 23.812 22.1228 23.812 22.1095 23.8187L22.068 23.8187L22.0481 23.8253L21.9867 23.8253L21.9668 23.8319L21.8706 23.8319L21.8308 23.8386L20.7973 23.8386L20.7973 25.2934L20.1172 25.2934ZM20.7973 21.2159L20.7973 23.1601L21.7827 23.1601L21.8159 23.1535L21.8988 23.1535L21.9187 23.1468L21.9801 23.1468L22.0066 23.1402C22.0614 23.1402 22.1095 23.1253 22.1493 23.1186L22.1692 23.1186C22.2721 23.0921 22.3401 23.0573 22.4081 23.0042L22.4147 22.9975C22.428 22.9892 22.4346 22.976 22.4413 22.9693C22.632 22.8001 22.7266 22.5961 22.7548 22.344C22.8162 21.7401 22.3533 21.2242 21.7761 21.2159L20.7973 21.2159Z" fill="rgb(230,230,230)" fill-rule="evenodd" />
			<path id="矢量 15418" d="M25.4992 21.2159L24.2766 21.2159L24.4591 20.5375L27.4085 20.5375L27.4085 21.2159L26.1859 21.2159L26.1859 24.6066L27.3206 24.6133L27.3206 25.2934L24.3513 25.2934L24.3513 24.6066L25.4992 24.6066L25.4992 21.2159Z" fill="rgb(230,230,230)" fill-rule="evenodd" />
			<path id="矢量 15419" d="M31.6152 20.5375L31.4245 21.2159L28.9511 21.2159L28.9511 22.4601L30.955 22.4601L30.955 23.1402L28.9511 23.1402L28.9511 25.2934L28.271 25.2934L28.271 20.5375L31.6152 20.5375Z" fill="rgb(230,230,230)" fill-rule="evenodd" />
			<path id="矢量 15420" d="M35.1819 24.6414L35.3113 24.6414L35.5004 25.2934L35.0193 25.2934C34.5167 25.2934 34.1551 25.2254 33.9112 25.0827C33.6591 24.9334 33.47 24.6547 33.4086 24.3428C33.3406 24.0161 33.3406 23.7108 33.3406 23.676L33.3406 20.6453L32.4033 20.6453L32.5924 20L33.9925 20L33.9925 23.6826C33.9925 23.6826 33.9925 23.948 34.0472 24.2201C34.0738 24.3694 34.1634 24.4772 34.2446 24.5253C34.3126 24.5668 34.5366 24.6613 35.1404 24.6481C35.162 24.6481 35.1752 24.6414 35.1819 24.6414Z" fill="rgb(230,230,230)" fill-rule="evenodd" />
			<path id="矢量 15421" d="M39.604 25.0959C39.6189 25.1573 39.6322 25.2187 39.6388 25.2519L39.6455 25.2933L38.9521 25.2933L38.9521 25.2801C38.9521 25.2801 38.9189 25.0014 38.8907 24.8388C38.5855 25.076 38.1094 25.2933 37.7229 25.2933C37.6549 25.2933 37.5869 25.2933 37.5255 25.2867C37.159 25.2452 36.8537 25.076 36.6696 24.8172C36.5535 24.6547 36.439 24.3627 36.5402 23.9546C36.6563 23.5001 37.0644 23.1468 37.6002 23.0373C38.068 22.9375 38.445 23.0792 38.7187 23.182C38.7633 23.1988 38.8052 23.2146 38.8443 23.2281L38.8443 22.9693L38.8447 22.9659C38.8498 22.9277 38.8965 22.5795 38.5789 22.3787C38.1094 22.0868 37.4841 22.2162 37.0229 22.4185L36.9881 22.4335L36.7177 21.8214L36.7509 21.8081C37.3829 21.5228 38.3068 21.4747 38.8575 21.7666C39.1827 21.9375 39.3801 22.1813 39.4696 22.5479C39.5183 22.747 39.5168 22.9238 39.5162 22.9942C39.5161 23.0006 39.5161 23.0062 39.5161 23.0108L39.5028 24.24C39.5028 24.308 39.5028 24.5054 39.5161 24.6132C39.5294 24.6961 39.5708 24.9267 39.604 25.0959ZM37.5936 24.7094C38.2521 24.8106 38.5921 24.5385 38.8293 24.3279L38.8376 23.8252L38.8293 23.6892C38.3417 23.5615 38.0763 23.5267 37.7428 23.6146C37.5189 23.676 37.2535 23.8734 37.1921 24.1172C37.159 24.2532 37.1789 24.376 37.227 24.4573C37.2883 24.5867 37.431 24.6878 37.5936 24.7094Z" fill="rgb(230,230,230)" fill-rule="evenodd" />
			<path id="矢量 15422" d="M43.295 23.4587C43.587 23.6147 43.7429 23.8801 43.7562 24.2334C43.7694 24.4988 43.6682 24.7427 43.4775 24.9334C43.2336 25.1706 42.867 25.3 42.4109 25.3C42.3561 25.3 42.2947 25.2934 42.2417 25.2934C41.5549 25.2735 40.9976 25.1375 40.6044 24.96L40.5696 24.9467L40.8416 24.3495L40.8748 24.3628C41.3442 24.5735 41.8469 24.6547 42.2616 24.6747C42.595 24.6879 42.8803 24.5934 43.0163 24.464C43.091 24.396 43.1175 24.2881 43.1042 24.2201C43.0777 24.0907 43.0296 23.9 42.4523 23.8054C42.2881 23.7789 42.0841 23.744 41.9149 23.6959C41.6909 23.6362 41.4056 23.608 41.1535 23.4106C40.8483 23.18 40.7056 22.9146 40.7255 22.5762C40.7537 22.1134 41.1203 21.5842 42.0774 21.5842L42.099 21.5842C42.799 21.5842 43.1308 21.7269 43.6002 21.9226L43.6749 21.9575L43.6749 21.9641L43.2204 22.4336C42.8521 22.2826 42.5535 22.1681 42.0924 22.1615C41.5815 22.1615 41.3924 22.4253 41.3857 22.6094C41.3642 22.9146 41.8203 23.0722 42.1056 23.1469C42.2483 23.1867 42.391 23.2082 42.5336 23.2348C42.8057 23.2746 43.0777 23.336 43.295 23.4587Z" fill="rgb(230,230,230)" fill-rule="evenodd" />
			<path id="矢量 15423" d="M47.5134 21.9442C47.7921 22.2228 47.9281 22.6508 47.9281 23.2148L47.9281 25.2934L47.2563 25.2934L47.2563 23.2148C47.2563 22.8333 47.1817 22.5695 47.0307 22.4186C46.9229 22.3041 46.752 22.2494 46.5148 22.2428L46.5015 22.2428C46.0453 22.2428 45.5361 22.6973 45.4067 22.8134L45.4067 25.2934L44.7349 25.2934L44.7349 20L45.4067 20L45.4067 22.0321C45.76 21.7733 46.1747 21.5626 46.5214 21.5693C46.9428 21.5759 47.2762 21.7053 47.5134 21.9442Z" fill="rgb(230,230,230)" fill-rule="evenodd" />
		</g>
	</g>
</svg>
