<svg viewBox="0 0 28 28" xmlns="http://www.w3.org/2000/svg" xmlns:xlink="http://www.w3.org/1999/xlink" width="28.000000" height="28.000000" fill="none" customFrame="#000000">
	<defs>
		<clipPath id="clipPath_5">
			<rect width="16.000000" height="16.000000" x="6.000000" y="6.000000" fill="rgb(255,255,255)" />
		</clipPath>
	</defs>
	<g id="组合 91332442">
		<rect id="悬浮" width="28.000000" height="28.000000" x="0.000000" y="0.000000" rx="8.000000" fill="rgb(206,209,219)" fill-opacity="0" />
		<g id="操作图标/删除" clip-path="url(#clipPath_5)" customFrame="url(#clipPath_5)">
			<rect id="操作图标/删除" width="16.000000" height="16.000000" x="6.000000" y="6.000000" />
			<path id="形状结合" d="M7.5 10C7.22386 10 7 9.77614 7 9.5C7 9.22386 7.22386 9 7.5 9L11 9L11 8C11 7.48716 11.386 7.06449 11.8834 7.00673L12 7L16 7C16.5128 7 16.9355 7.38604 16.9933 7.88338L17 8L17 9L20.5 9C20.7761 9 21 9.22386 21 9.5C21 9.77614 20.7761 10 20.5 10L7.5 10ZM16 8L12 8L12 9L16 9L16 8ZM18.5 11C18.7761 11 19 11.2239 19 11.5L19 19C19 20.0544 18.1841 20.9182 17.1493 20.9945L17 21L11 21C9.94564 21 9.08183 20.1841 9.00549 19.1493L9 19L9 11.5C9 11.2239 9.22386 11 9.5 11C9.77614 11 10 11.2239 10 11.5L10 19C10 19.5128 10.386 19.9355 10.8834 19.9933L11 20L17 20C17.5128 20 17.9355 19.614 17.9933 19.1166L18 19L18 11.5C18 11.2239 18.2239 11 18.5 11ZM12.5333 12C12.7952 12 13.0129 12.1769 13.0581 12.4101L13.0667 17.5C13.0667 17.7761 12.8279 18 12.5333 18C12.2715 18 12.0538 17.8231 12.0086 17.5899L12 12.5C12 12.2239 12.2388 12 12.5333 12ZM15.5333 12C15.7952 12 16.0129 12.1769 16.0581 12.4101L16.0667 17.5C16.0667 17.7761 15.8279 18 15.5333 18C15.2715 18 15.0538 17.8231 15.0086 17.5899L15 12.5C15 12.2239 15.2388 12 15.5333 12Z" fill="rgb(255,255,254)" fill-rule="evenodd" />
			<path id="形状结合" d="M7 9.5C7 9.22386 7.22386 9 7.5 9L11 9L11 8C11 7.48716 11.386 7.06449 11.8834 7.00673L12 7L16 7C16.5128 7 16.9355 7.38604 16.9933 7.88338L17 8L17 9L20.5 9C20.7761 9 21 9.22386 21 9.5C21 9.77614 20.7761 10 20.5 10L7.5 10C7.22386 10 7 9.77614 7 9.5ZM12 8L12 9L16 9L16 8L12 8ZM19 11.5L19 19C19 20.0544 18.1841 20.9182 17.1493 20.9945L17 21L11 21C9.94564 21 9.08183 20.1841 9.00549 19.1493L9 19L9 11.5C9 11.2239 9.22386 11 9.5 11C9.77614 11 10 11.2239 10 11.5L10 19C10 19.5128 10.386 19.9355 10.8834 19.9933L11 20L17 20C17.5128 20 17.9355 19.614 17.9933 19.1166L18 19L18 11.5C18 11.2239 18.2239 11 18.5 11C18.7761 11 19 11.2239 19 11.5ZM13.0581 12.4101L13.0667 17.5C13.0667 17.7761 12.8279 18 12.5333 18C12.2715 18 12.0538 17.8231 12.0086 17.5899L12 12.5C12 12.2239 12.2388 12 12.5333 12C12.7952 12 13.0129 12.1769 13.0581 12.4101ZM16.0581 12.4101L16.0667 17.5C16.0667 17.7761 15.8279 18 15.5333 18C15.2715 18 15.0538 17.8231 15.0086 17.5899L15 12.5C15 12.2239 15.2388 12 15.5333 12C15.7952 12 16.0129 12.1769 16.0581 12.4101Z" fill-rule="evenodd" stroke="rgb(0,0,0)" stroke-opacity="0" stroke-width="1" />
		</g>
	</g>
</svg>
