<svg viewBox="0 0 16 16" xmlns="http://www.w3.org/2000/svg" xmlns:xlink="http://www.w3.org/1999/xlink" width="16.000000" height="16.000000" fill="none" clip-path="url(#clipPath_12)" customFrame="url(#clipPath_12)">
	<defs>
		<clipPath id="clipPath_12">
			<rect width="16.000000" height="16.000000" x="0.000000" y="0.000000" rx="3.200000" fill="rgb(255,255,255)" />
		</clipPath>
	</defs>
	<rect id="24px/check/checkbox" width="16.000000" height="16.000000" x="0.000000" y="0.000000" rx="3.200000" />
	<path id="矢量 26" d="M3.85509 6.58414L7.17509 9.90533C7.62122 10.3515 8.33875 10.3607 8.79617 9.93322L12.1248 6.6055C12.2108 6.51959 12.2589 6.41019 12.2692 6.29796C12.2654 6.17517 12.2186 5.99213 12.1248 5.89841C11.9366 5.71011 11.6355 5.70339 11.4391 5.87822L8.35361 8.96252C8.16532 9.15082 7.86422 9.15754 7.66787 8.98271L4.58237 5.89841C4.38711 5.70314 4.07053 5.70314 3.87526 5.89841C3.78112 5.99254 3.73237 6.11489 3.729 6.23825C3.73285 6.3513 3.77495 6.49414 3.85509 6.58414Z" fill="rgb(128,128,128)" fill-rule="nonzero" />
</svg>
