<svg viewBox="0 0 16 16" xmlns="http://www.w3.org/2000/svg" xmlns:xlink="http://www.w3.org/1999/xlink" width="16.000000" height="16.000000" fill="none">
	<rect id="ic_huawei_cloud_eni" width="16.000000" height="16.000000" x="0.000000" y="0.000000" />
	<g id="ic_huawei_cloud_eni-弹性网卡/base/ic_huawei_cloud_eni">
		<path id="path1" d="M0.501823 7.99389C0.501823 6.82219 0.497722 5.6505 0.501823 4.47881C0.499465 3.91183 0.569153 3.34684 0.709212 2.79743C1.0162 1.63452 1.7737 0.944393 2.93543 0.676661C3.51794 0.550805 4.11291 0.491839 4.70879 0.500907C6.95571 0.500907 9.20282 0.500907 11.4501 0.500907C12.0177 0.497384 12.5836 0.562295 13.1356 0.694236C14.3325 0.98716 15.0507 1.74525 15.3243 2.93803C15.4473 3.50176 15.5061 4.07761 15.4995 4.65456C15.4995 6.92569 15.4995 9.19702 15.4995 11.4685C15.5026 12.0306 15.4379 12.591 15.3068 13.1376C15.0138 14.3351 14.2522 15.0498 13.0594 15.3234C12.4769 15.4488 11.882 15.5078 11.2861 15.4992C9.04855 15.4992 6.8112 15.4992 4.57404 15.4992C4.00215 15.5038 3.43176 15.4399 2.87509 15.3088C1.67293 15.0158 0.951167 14.2542 0.678163 13.0556C0.538731 12.4463 0.501823 11.8353 0.501823 11.219C0.501823 10.1441 0.501823 9.06911 0.501823 7.99389Z" fill="rgb(255,255,255)" fill-opacity="0" fill-rule="nonzero" />
		<path id="path1" d="M0.501823 4.47881C0.499465 3.91183 0.569153 3.34684 0.709212 2.79743C1.0162 1.63452 1.7737 0.944393 2.93543 0.676661C3.51794 0.550805 4.11291 0.491839 4.70879 0.500907C6.95571 0.500907 9.20282 0.500907 11.4501 0.500907C12.0177 0.497384 12.5836 0.562295 13.1356 0.694236C14.3325 0.98716 15.0507 1.74525 15.3243 2.93803C15.4473 3.50176 15.5061 4.07761 15.4995 4.65456C15.4995 6.92569 15.4995 9.19702 15.4995 11.4685C15.5026 12.0306 15.4379 12.591 15.3068 13.1376C15.0138 14.3351 14.2522 15.0498 13.0594 15.3234C12.4769 15.4488 11.882 15.5078 11.2861 15.4992C9.04855 15.4992 6.8112 15.4992 4.57404 15.4992C4.00215 15.5038 3.43176 15.4399 2.87509 15.3088C1.67293 15.0158 0.951167 14.2542 0.678163 13.0556C0.538731 12.4463 0.501823 11.8353 0.501823 11.219C0.501823 10.1441 0.501823 9.06911 0.501823 7.99389C0.501823 6.82219 0.497722 5.6505 0.501823 4.47881Z" fill-rule="nonzero" stroke="rgb(255,255,255)" stroke-opacity="0" stroke-width="1" />
		<path id="path2" d="M0.501823 4.47881C0.499465 3.91183 0.569153 3.34684 0.709212 2.79743C1.0162 1.63452 1.7737 0.944393 2.93543 0.676661C3.51794 0.550805 4.11291 0.491839 4.70879 0.500907C6.95571 0.500907 9.20282 0.500907 11.4501 0.500907C12.0177 0.497384 12.5836 0.562295 13.1356 0.694236C14.3325 0.98716 15.0507 1.74525 15.3243 2.93803C15.4473 3.50176 15.5061 4.07761 15.4995 4.65456C15.4995 6.92569 15.4995 9.19702 15.4995 11.4685C15.5026 12.0306 15.4379 12.591 15.3068 13.1376C15.0138 14.3351 14.2522 15.0498 13.0594 15.3234C12.4769 15.4488 11.882 15.5078 11.2861 15.4992C9.04855 15.4992 6.8112 15.4992 4.57404 15.4992C4.00215 15.5038 3.43176 15.4399 2.87509 15.3088C1.67293 15.0158 0.951167 14.2542 0.678163 13.0556C0.538731 12.4463 0.501823 11.8353 0.501823 11.219C0.501823 10.1441 0.501823 9.06911 0.501823 7.99389C0.501823 6.82219 0.497722 5.6505 0.501823 4.47881Z" opacity="0.200000003" fill-rule="nonzero" stroke="rgb(255,255,255)" stroke-opacity="0" stroke-width="1" />
		<circle id="path3" cx="8" cy="8" r="8" fill="rgb(255,255,255)" fill-opacity="0" />
		<path id="path4" d="M2.5 2.66699L13.5 2.66699C14.6046 2.66699 15.5 3.56242 15.5 4.66699L15.5 11.3337C15.5 12.4382 14.6046 13.3337 13.5 13.3337L2.5 13.3337C1.39543 13.3337 0.5 12.4382 0.5 11.3337L0.5 4.66699C0.5 3.56242 1.39543 2.66699 2.5 2.66699Z" fill="rgb(255,255,255)" fill-opacity="0" fill-rule="evenodd" />
		<path id="path4" d="M13.5 2.66699C14.6046 2.66699 15.5 3.56242 15.5 4.66699L15.5 11.3337C15.5 12.4382 14.6046 13.3337 13.5 13.3337L2.5 13.3337C1.39543 13.3337 0.5 12.4382 0.5 11.3337L0.5 4.66699C0.5 3.56242 1.39543 2.66699 2.5 2.66699L13.5 2.66699Z" fill-rule="evenodd" stroke="rgb(179,179,179)" stroke-linecap="round" stroke-linejoin="round" stroke-width="1" />
		<path id="path5" d="M7.5 6.33496L9.99599 6.33496L11.3278 7.66676L13.8333 7.66676" fill-rule="evenodd" stroke="rgb(179,179,179)" stroke-linecap="round" stroke-linejoin="round" stroke-width="1" />
		<path id="path6" d="M0 0L2.49599 0L3.82779 1.3318L6.33333 1.3318" fill-rule="evenodd" stroke="rgb(179,179,179)" stroke-linecap="round" stroke-linejoin="round" stroke-width="1" transform="matrix(-1,0,0,-1,8.5,9.66797)" />
		<path id="path7" d="M7.5 6.83496C7.77614 6.83496 8 6.6111 8 6.33496C8 6.05882 7.77614 5.83496 7.5 5.83496C7.22386 5.83496 7 6.05882 7 6.33496C7 6.6111 7.22386 6.83496 7.5 6.83496Z" fill="rgb(179,179,179)" fill-rule="evenodd" />
		<path id="path7" d="M8 6.33496C8 6.05882 7.77614 5.83496 7.5 5.83496C7.22386 5.83496 7 6.05882 7 6.33496C7 6.6111 7.22386 6.83496 7.5 6.83496C7.77614 6.83496 8 6.6111 8 6.33496Z" fill-rule="evenodd" stroke="rgb(179,179,179)" stroke-linecap="round" stroke-linejoin="round" stroke-width="1" />
		<path id="path8" d="M8.5 10.168C8.77614 10.168 9 9.94411 9 9.66797C9 9.39183 8.77614 9.16797 8.5 9.16797C8.22386 9.16797 8 9.39183 8 9.66797C8 9.94411 8.22386 10.168 8.5 10.168Z" fill="rgb(179,179,179)" fill-rule="evenodd" />
		<path id="path8" d="M9 9.66797C9 9.39183 8.77614 9.16797 8.5 9.16797C8.22386 9.16797 8 9.39183 8 9.66797C8 9.94411 8.22386 10.168 8.5 10.168C8.77614 10.168 9 9.94411 9 9.66797Z" fill-rule="evenodd" stroke="rgb(179,179,179)" stroke-linecap="round" stroke-linejoin="round" stroke-width="1" />
	</g>
</svg>
