<svg viewBox="0 0 16 16" xmlns="http://www.w3.org/2000/svg" xmlns:xlink="http://www.w3.org/1999/xlink" width="16.000000" height="16.000000" fill="none">
	<rect id="切换" width="16.000000" height="16.000000" x="0.000000" y="0.000000" />
	<path id="path1" d="M-0.000471643 7.99338C-0.000471643 6.74338 -0.00380498 5.49338 -0.000471643 4.24338C-0.00380498 3.63671 0.0728617 3.03338 0.219528 2.45005C0.549528 1.21005 1.3562 0.473381 2.5962 0.186714C3.2162 0.0533806 3.85286 -0.00995275 4.4862 4.72467e-05C6.88286 4.72467e-05 9.27953 4.72467e-05 11.6795 4.72467e-05C12.2829 -0.00328609 12.8862 0.0633806 13.4762 0.206714C14.7529 0.516714 15.5195 1.32671 15.8095 2.60005C15.9429 3.20005 16.0029 3.81338 15.9962 4.43005C15.9962 6.85338 15.9962 9.27671 15.9962 11.6967C15.9995 12.2967 15.9329 12.8967 15.7929 13.48C15.4795 14.7567 14.6662 15.5167 13.3962 15.81C12.7729 15.9434 12.1395 16.0067 11.5029 15.9967C9.11619 15.9967 6.72953 15.9967 4.34286 15.9967C3.73286 16.0034 3.12619 15.9334 2.53286 15.7934C1.24953 15.4834 0.479528 14.67 0.189528 13.39C0.0395283 12.74 -0.000471643 12.09 -0.000471643 11.4334C-0.000471643 10.2867 -0.000471643 9.14005 -0.000471643 7.99338Z" fill="rgb(255,255,255)" fill-opacity="0" fill-rule="evenodd" />
	<circle id="path2" cx="8" cy="8" r="8" fill="rgb(255,255,255)" fill-opacity="0" />
	<path id="path3" d="M14.8327 3.1665L14.8327 12.8332C14.8327 13.9365 13.936 14.8332 12.8327 14.8332L3.16602 14.8332C2.05935 14.8332 1.16602 13.9365 1.16602 12.8332L1.16602 3.1665C1.16602 2.05984 2.05935 1.1665 3.16602 1.1665L12.8327 1.1665C13.936 1.1665 14.8327 2.05984 14.8327 3.1665Z" fill-rule="nonzero" stroke="rgb(255,255,254)" stroke-width="1" />
	<path id="path4" d="M4.33398 6.3335L11.6673 6.3335L10.6007 5.3335M11.6673 9.66683L4.33398 9.66683L5.39732 10.6668" fill-rule="nonzero" stroke="rgb(255,255,254)" stroke-linecap="round" stroke-linejoin="round" stroke-width="1" />
	<path id="path5" d="M3.16602 0.666504L12.8327 0.666504C14.2134 0.666504 15.3327 1.78581 15.3327 3.1665L15.3327 12.8332C15.3327 14.2139 14.2134 15.3332 12.8327 15.3332L3.16602 15.3332C1.78532 15.3332 0.666016 14.2139 0.666016 12.8332L0.666016 3.1665C0.666016 1.78581 1.78532 0.666504 3.16602 0.666504ZM10.2375 4.99077C10.4293 4.78674 10.7402 4.77707 10.9443 4.9688L12.0084 5.9688C12.0609 6.0182 12.1003 6.07324 12.1266 6.13394C12.1529 6.19467 12.166 6.26107 12.166 6.33317C12.166 6.49984 12.1243 6.62484 12.041 6.70817C11.9577 6.7915 11.8327 6.83317 11.666 6.83317L4.33268 6.83317C4.05265 6.83317 3.83268 6.61317 3.83268 6.33317C3.83268 6.05317 4.05265 5.83317 4.33268 5.83317L10.4038 5.83317L10.2595 5.69754C10.0554 5.50577 10.0458 5.19484 10.2375 4.99077ZM11.666 10.1665L5.59488 10.1665L5.73918 10.3021C5.94328 10.4939 5.95288 10.8048 5.76115 11.0089C5.56942 11.2129 5.25845 11.2226 5.05445 11.0309L3.99032 10.0309C3.93775 9.98147 3.89835 9.92647 3.87208 9.86574C3.84578 9.80501 3.83268 9.7386 3.83268 9.6665C3.83268 9.49984 3.87435 9.37484 3.95768 9.2915C4.04102 9.20817 4.16602 9.1665 4.33268 9.1665L11.666 9.1665C11.946 9.1665 12.166 9.3865 12.166 9.6665C12.166 9.9465 11.946 10.1665 11.666 10.1665Z" fill="rgb(0,0,0)" fill-opacity="0" fill-rule="evenodd" />
</svg>
