<svg viewBox="0 0 28 28" xmlns="http://www.w3.org/2000/svg" xmlns:xlink="http://www.w3.org/1999/xlink" width="28.000000" height="28.000000" fill="none" customFrame="#000000">
	<defs>
		<clipPath id="clipPath_4">
			<rect width="16.000000" height="16.000000" x="6.000000" y="6.000000" fill="rgb(255,255,255)" />
		</clipPath>
	</defs>
	<g id="组合 91332442">
		<rect id="悬浮" width="28.000000" height="28.000000" x="0.000000" y="0.000000" rx="8.000000" fill="rgb(206,209,219)" fill-opacity="0" />
		<g id="操作图标/导入" clip-path="url(#clipPath_4)" customFrame="url(#clipPath_4)">
			<rect id="操作图标/导入" width="16.000000" height="16.000000" x="6.000000" y="6.000000" />
			<path id="形状结合" d="M12.3333 7.5C12.6095 7.5 12.8333 7.72386 12.8333 8C12.8333 8.24546 12.6565 8.44961 12.4232 8.49194L9 8.5C8.75454 8.5 8.55039 8.67688 8.50806 8.91012L8.5 19C8.5 19.2455 8.67687 19.4496 8.91012 19.4919L19 19.5C19.2455 19.5 19.4496 19.3231 19.4919 19.0899L19.5 15.6667C19.5 15.3905 19.7239 15.1667 20 15.1667C20.2455 15.1667 20.4496 15.3435 20.4919 15.5768L20.5 19C20.5 19.7797 19.9051 20.4205 19.1445 20.4931L19 20.5L9 20.5C8.2203 20.5 7.57955 19.9051 7.50687 19.1445L7.5 19L7.5 9C7.5 8.22031 8.09489 7.57955 8.85554 7.50687L9 7.5L12.3333 7.5ZM20.0911 8.14764C20.1937 8.40403 20.069 8.69501 19.8126 8.79757L19.3768 8.97626C19.3066 9.00583 19.2376 9.03532 19.1697 9.06479L18.7765 9.24164C18.7131 9.27118 18.6509 9.3008 18.5897 9.33053L18.235 9.51066C16.6925 10.3309 15.8613 11.3043 15 13.3659L14.8078 13.8423L14.6128 14.3568L14.4132 14.9117L14.2072 15.5093L17.049 14.5987C17.2819 14.5211 17.5315 14.6243 17.6454 14.8322C17.723 15.065 17.6559 15.3974 17.448 15.5113L13.3653 16.8807C13.1324 16.9583 12.8828 16.8551 12.7689 16.6472L11.3995 12.5645C11.3121 12.3025 11.4537 12.0193 11.7157 11.932C11.9486 11.8544 12.1982 11.9576 12.3121 12.1655L13.295 15.089L13.375 14.8533L13.5915 14.2422L13.8038 13.6731L14.0137 13.1438C15.1302 10.4227 16.2222 9.30267 18.5204 8.25961L18.9658 8.06456L19.4412 7.86909C19.6976 7.76654 19.9886 7.89124 20.0911 8.14764Z" fill="rgb(255,255,254)" fill-rule="nonzero" />
			<path id="形状结合" d="M12.8333 8C12.8333 8.24546 12.6565 8.44961 12.4232 8.49194L9 8.5C8.75454 8.5 8.55039 8.67688 8.50806 8.91012L8.5 19C8.5 19.2455 8.67687 19.4496 8.91012 19.4919L19 19.5C19.2455 19.5 19.4496 19.3231 19.4919 19.0899L19.5 15.6667C19.5 15.3905 19.7239 15.1667 20 15.1667C20.2455 15.1667 20.4496 15.3435 20.4919 15.5768L20.5 19C20.5 19.7797 19.9051 20.4205 19.1445 20.4931L19 20.5L9 20.5C8.2203 20.5 7.57955 19.9051 7.50687 19.1445L7.5 19L7.5 9C7.5 8.22031 8.09489 7.57955 8.85554 7.50687L9 7.5L12.3333 7.5C12.6095 7.5 12.8333 7.72386 12.8333 8ZM19.8126 8.79757L19.3768 8.97626C19.3066 9.00583 19.2376 9.03532 19.1697 9.06479L18.7765 9.24164C18.7131 9.27118 18.6509 9.3008 18.5897 9.33053L18.235 9.51066C16.6925 10.3309 15.8613 11.3043 15 13.3659L14.8078 13.8423L14.6128 14.3568L14.4132 14.9117L14.2072 15.5093L17.049 14.5987C17.2819 14.5211 17.5315 14.6243 17.6454 14.8322C17.723 15.065 17.6559 15.3974 17.448 15.5113L13.3653 16.8807C13.1324 16.9583 12.8828 16.8551 12.7689 16.6472L11.3995 12.5645C11.3121 12.3025 11.4537 12.0193 11.7157 11.932C11.9486 11.8544 12.1982 11.9576 12.3121 12.1655L13.295 15.089L13.375 14.8533L13.5915 14.2422L13.8038 13.6731L14.0137 13.1438C15.1302 10.4227 16.2222 9.30267 18.5204 8.25961L18.9658 8.06456L19.4412 7.86909C19.6976 7.76654 19.9886 7.89124 20.0911 8.14764C20.1937 8.40403 20.069 8.69501 19.8126 8.79757Z" fill-rule="nonzero" stroke="rgb(0,0,0)" stroke-opacity="0" stroke-width="1" />
		</g>
	</g>
</svg>
