<svg viewBox="0 0 16 16" xmlns="http://www.w3.org/2000/svg" xmlns:xlink="http://www.w3.org/1999/xlink" width="16.000000" height="16.000000" fill="none">
	<mask id="mask_5" width="16.000002" height="16.000002" x="0.000000" y="0.000000" maskUnits="userSpaceOnUse">
		<g filter="url(#pixso_custom_mask_type_alpha)">
			<g id="clip310_170">
				<rect id="矩形 542307" width="16.000002" height="16.000002" x="0.000000" y="0.000000" fill="rgb(141,152,170)" />
			</g>
		</g>
	</mask>
	<defs>
		<filter id="pixso_custom_mask_type_alpha">
			<feColorMatrix type="matrix" values="0 0 0 0 1 0 0 0 0 1 0 0 0 0 1 0 0 0 1 0 " />
		</filter>
	</defs>
	<mask id="mask_4" width="16.000002" height="16.000002" x="0.000000" y="0.000000" maskUnits="userSpaceOnUse">
		<g filter="url(#pixso_custom_mask_type_alpha)">
			<g id="clip310_169">
				<rect id="矩形 542308" width="16.000002" height="16.000002" x="0.000000" y="0.000000" fill="rgb(141,152,170)" />
			</g>
		</g>
	</mask>
	<rect id="ic_public_close" width="16.000002" height="16.000002" x="0.000000" y="0.000000" />
	<rect id="矩形 542306" width="16.000002" height="16.000002" x="0.000000" y="0.000000" fill="rgb(255,255,255)" fill-opacity="0" />
	<g id="clip path group" mask="url(#mask_4)">
		<g id="组合 91333320">
			<g id="clip path group" mask="url(#mask_5)">
				<g id="组合 91333322">
					<path id="矢量 15165" d="M1.6638e-05 7.99306C1.6638e-05 6.74306 -0.0033167 5.49306 1.6638e-05 4.24306C-0.0033167 3.63639 0.07335 3.03306 0.220017 2.44972C0.546683 1.20639 1.35335 0.469721 2.59668 0.186388C3.21335 0.0530547 3.85335 -0.013612 4.48668 -0.000278632C6.88002 -0.000278632 9.27668 -0.000278632 11.68 -0.000278632C12.2834 -0.00361197 12.8867 0.0630547 13.4767 0.206388C14.7534 0.513055 15.52 1.32639 15.81 2.59639C15.9434 3.19972 16.0034 3.81306 15.9967 4.42972C15.9967 6.85306 15.9967 9.27639 15.9967 11.6931C16 12.2964 15.9334 12.8964 15.79 13.4797C15.4767 14.7564 14.6667 15.5131 13.3934 15.8064C12.77 15.9431 12.1367 16.0064 11.5034 15.9964C9.11668 15.9964 6.72668 15.9964 4.34335 15.9964C3.73335 15.9997 3.12335 15.9297 2.53335 15.7897C1.25002 15.4831 0.476683 14.6664 0.186683 13.3864C0.0400166 12.7364 1.6638e-05 12.0897 1.6638e-05 11.4297C1.6638e-05 10.2864 1.6638e-05 9.13639 1.6638e-05 7.99306Z" fill="rgb(255,255,255)" fill-opacity="0" fill-rule="evenodd" />
					<circle id="椭圆 1771" cx="8.00000095" cy="8.00000095" r="8.00000095" fill="rgb(255,255,255)" fill-opacity="0" />
				</g>
			</g>
			<path id="矢量 15166" d="M1.85669 1.85742L14.14 14.1408M14.14 1.85742L1.85669 14.1408" stroke="rgb(78,88,101)" stroke-linecap="round" stroke-linejoin="round" stroke-width="1" />
			<path id="矢量 15167" d="M2.67994 1.49945C2.34994 1.16945 1.82994 1.16945 1.49994 1.49945C1.16994 1.82945 1.16994 2.34945 1.49994 2.67945L6.81994 7.99945L1.49994 13.3161C1.16994 13.6461 1.16994 14.1661 1.49994 14.4961C1.82994 14.8261 2.34994 14.8261 2.67994 14.4961L7.99994 9.17612L13.3166 14.4961C13.6466 14.8261 14.1666 14.8261 14.4966 14.4961C14.8266 14.1661 14.8266 13.6461 14.4966 13.3161L9.17661 7.99945L14.4966 2.67945C14.8266 2.34945 14.8266 1.82945 14.4966 1.49945C14.1666 1.16945 13.6466 1.16945 13.3166 1.49945L7.99994 6.81945L2.67994 1.49945Z" fill="rgb(255,255,255)" fill-opacity="0" fill-rule="evenodd" />
		</g>
	</g>
</svg>
