<svg viewBox="0 0 16 16" xmlns="http://www.w3.org/2000/svg" xmlns:xlink="http://www.w3.org/1999/xlink" width="16.000000" height="16.000000" fill="none">
	<mask id="mask_1" width="16.000002" height="16.000002" x="0.000000" y="0.000000" maskUnits="userSpaceOnUse">
		<g filter="url(#pixso_custom_mask_type_alpha)">
			<g id="clip246_6282">
				<rect id="support" width="16.000002" height="16.000002" x="0.000000" y="0.000000" fill="rgb(141,152,170)" />
			</g>
		</g>
	</mask>
	<defs>
		<filter id="pixso_custom_mask_type_alpha">
			<feColorMatrix type="matrix" values="0 0 0 0 1 0 0 0 0 1 0 0 0 0 1 0 0 0 1 0 " />
		</filter>
	</defs>
	<mask id="mask_0" width="16.000002" height="16.000002" x="0.000000" y="0.000000" maskUnits="userSpaceOnUse">
		<g filter="url(#pixso_custom_mask_type_alpha)">
			<g id="clip246_6281">
				<rect id="alarm-告警/base/alarm" width="16.000002" height="16.000002" x="0.000000" y="0.000000" fill="rgb(141,152,170)" />
			</g>
		</g>
	</mask>
	<rect id="ic_public_notice" width="16.000002" height="16.000002" x="0.000000" y="0.000000" />
	<rect id="alarm-告警/base/alarm" width="16.000002" height="16.000002" x="0.000000" y="0.000000" fill="rgb(255,255,255)" fill-opacity="0" />
	<g id="clip path group" mask="url(#mask_0)">
		<g id="组合 91333310">
			<g id="clip path group" mask="url(#mask_1)">
				<g id="组合 91333312">
					<path id="path1" d="M3.32759e-05 7.99338C3.32759e-05 6.74338 -0.00663339 5.49338 3.32759e-05 4.24338C-0.00663339 3.63672 0.0733666 3.03338 0.220033 2.45005C0.550033 1.21005 1.3567 0.473382 2.5967 0.183382C3.2167 0.0533816 3.85337 -0.0099517 4.4867 4.82998e-05C6.88337 4.82998e-05 9.28003 4.82998e-05 11.68 4.82998e-05C12.2834 -0.00661837 12.8867 0.0633816 13.4767 0.203382C14.7534 0.516715 15.52 1.32672 15.81 2.60005C15.9434 3.20005 16.0034 3.81338 15.9967 4.43005C15.9967 6.85338 15.9967 9.27672 15.9967 11.6967C16 12.2967 15.9334 12.8934 15.7934 13.4767C15.48 14.7567 14.6667 15.5167 13.3967 15.8101C12.7734 15.9434 12.1367 16.0067 11.5 15.9967C9.1167 15.9967 6.73003 15.9967 4.34337 15.9967C3.73337 16.0034 3.1267 15.9334 2.53337 15.7934C1.25003 15.4834 0.480033 14.67 0.190033 13.3867C0.0367 12.7401 3.32759e-05 12.09 3.32759e-05 11.4334C3.32759e-05 10.2867 3.32759e-05 9.14005 3.32759e-05 7.99338Z" fill="rgb(255,255,255)" fill-opacity="0" fill-rule="evenodd" />
					<circle id="path2" cx="8.00000095" cy="8.00000095" r="8.00000095" fill="rgb(255,255,255)" fill-opacity="0" />
				</g>
			</g>
			<path id="path" d="M8 0.663086L8 1.32975" stroke="rgb(211,220,233)" stroke-linecap="round" stroke-linejoin="round" stroke-width="1" />
			<path id="path" d="M12.6668 9.36016C12.6668 10.6335 13.1201 11.8635 13.9501 12.8302L14.1935 13.1135C14.3801 13.3302 14.2268 13.6668 13.9401 13.6668L2.0568 13.6668C1.77013 13.6668 1.6168 13.3302 1.80346 13.1135L2.0468 12.8302C2.8768 11.8635 3.33346 10.6335 3.33346 9.36016L3.33346 7.8335L3.33346 6.00016C3.33346 3.42016 5.42013 1.3335 8.00013 1.3335C10.5768 1.3335 12.6668 3.42016 12.6668 6.00016L12.6668 7.8335L12.6668 9.36016Z" fill-rule="nonzero" stroke="rgb(211,220,233)" stroke-linejoin="round" stroke-width="1" />
			<path id="path" d="M5.79297 14.8335C6.27297 15.5368 7.08297 16.0002 7.99964 16.0002C8.91297 16.0002 9.72297 15.5368 10.203 14.8335L5.79297 14.8335Z" fill="rgb(211,220,233)" fill-rule="evenodd" />
			<path id="path" d="M7.16626 0.893333C6.76293 0.953333 6.37959 1.06 6.01293 1.21C5.40626 1.46333 4.84959 1.84 4.34293 2.34333C3.83959 2.85 3.46293 3.40667 3.20959 4.01333C2.95626 4.62333 2.83293 5.28333 2.83293 6L2.83293 7.83333L2.83293 9.36C2.83293 9.95333 2.73293 10.5133 2.53959 11.04C2.34626 11.5633 2.05626 12.0533 1.66626 12.5033L1.42292 12.79C1.19292 13.06 1.14959 13.3567 1.29959 13.68C1.37293 13.84 1.47293 13.9633 1.59959 14.0433C1.72626 14.1233 1.87959 14.1667 2.05626 14.1667L13.9396 14.1667C14.2963 14.1667 14.5496 14.0033 14.6963 13.68C14.8463 13.3567 14.8029 13.06 14.5729 12.79L14.3296 12.5033C13.9396 12.0533 13.6496 11.5633 13.4563 11.04C13.2629 10.5133 13.1663 9.95333 13.1663 9.36L13.1663 6C13.1663 5.28333 13.0396 4.62333 12.7863 4.01333C12.5329 3.40667 12.1563 2.85 11.6529 2.34333C11.1463 1.84 10.5896 1.46333 9.98293 1.21C9.61626 1.06 9.23293 0.953333 8.83293 0.893333L8.83293 0.833333C8.83293 0.363333 8.46626 0 7.99959 0C7.53293 0 7.16626 0.363333 7.16626 0.833333L7.16626 0.893333Z" fill="rgb(255,255,255)" fill-opacity="0" fill-rule="evenodd" />
			<path id="path" d="M5.79297 14.8335C6.27297 15.5368 7.08297 16.0002 7.99964 16.0002C8.91297 16.0002 9.72297 15.5368 10.203 14.8335L5.79297 14.8335Z" fill="rgb(255,255,255)" fill-opacity="0" fill-rule="evenodd" />
			<path id="path" d="M5.79297 14.8335C6.27297 15.5368 7.08297 16.0002 7.99964 16.0002C8.91297 16.0002 9.72297 15.5368 10.203 14.8335L5.79297 14.8335Z" fill="rgb(255,255,255)" fill-opacity="0" fill-rule="evenodd" />
		</g>
	</g>
</svg>
