<svg viewBox="0 0 53.6003 46.666" xmlns="http://www.w3.org/2000/svg" xmlns:xlink="http://www.w3.org/1999/xlink" width="53.600342" height="46.666016" fill="none" customFrame="#000000">
	<defs>
		<g id="pixso_custom_effect_6">
			<effect x="0.000000" y="5.000000" visibility="visible" fill="rgb(12,100,173)" fill-opacity="0.250980407" effectType="dropShadow" stdDeviation="12.5" radius="0" />
			<effect x="0.000000" y="-1.250000" visibility="visible" fill="rgb(16,95,156)" fill-opacity="0.501960814" effectType="innerShadow" stdDeviation="2.5" radius="0" />
		</g>
		<filter id="filter_6" width="45.000000" height="46.666016" x="0.000000" y="0.000000" filterUnits="userSpaceOnUse" customEffect="url(#pixso_custom_effect_6)" color-interpolation-filters="sRGB">
			<feFlood flood-opacity="0" result="BackgroundImageFix" />
			<feOffset dx="0.000000" dy="5.000000" in="SourceAlpha" />
			<feGaussianBlur stdDeviation="4.16666651" />
			<feColorMatrix type="matrix" values="0 0 0 0 0.0470588 0 0 0 0 0.392157 0 0 0 0 0.678431 0 0 0 0.25098 0 " />
			<feBlend result="effect_dropShadow_1" in2="BackgroundImageFix" mode="normal" />
			<feBlend result="shape" in="SourceGraphic" in2="effect_dropShadow_1" mode="normal" />
			<feOffset dx="0.000000" dy="-1.250000" in="SourceAlpha" />
			<feGaussianBlur stdDeviation="0.833333313" />
			<feComposite k2="-1" k3="1" in2="SourceAlpha" operator="arithmetic" />
			<feColorMatrix type="matrix" values="0 0 0 0 0.0627451 0 0 0 0 0.372549 0 0 0 0 0.611765 0 0 0 0.501961 0 " />
			<feBlend result="effect_innerShadow_2" in2="shape" mode="normal" />
		</filter>
		<linearGradient id="paint_linear_8" x1="22.5" x2="22.5" y1="7.5" y2="28.6615658" gradientUnits="userSpaceOnUse">
			<stop stop-color="rgb(108,191,249)" offset="0" stop-opacity="1" />
			<stop stop-color="rgb(9,159,255)" offset="1" stop-opacity="1" />
		</linearGradient>
		<g id="pixso_custom_effect_7">
			<effect x="0.000000" y="3.000000" visibility="visible" fill="rgb(12,142,173)" fill-opacity="0.501960814" effectType="dropShadow" showShadowBehind="1" stdDeviation="7.25" radius="0" />
		</g>
		<filter id="filter_7" width="27.525146" height="20.451172" x="9.000000" y="7.000000" filterUnits="userSpaceOnUse" customEffect="url(#pixso_custom_effect_7)" color-interpolation-filters="sRGB">
			<feFlood flood-opacity="0" result="BackgroundImageFix" />
			<feColorMatrix result="hardAlpha" in="SourceAlpha" type="matrix" values="0 0 0 0 0 0 0 0 0 0 0 0 0 0 0 0 0 0 127 0 " />
			<feOffset dx="0.000000" dy="3.000000" in="hardAlpha" />
			<feGaussianBlur stdDeviation="2.41666675" />
			<feColorMatrix type="matrix" values="0 0 0 0 0.0470588 0 0 0 0 0.556863 0 0 0 0 0.678431 0 0 0 0.501961 0 " />
			<feBlend result="effect_dropShadow_1" in2="BackgroundImageFix" mode="normal" />
			<feBlend result="shape" in="SourceGraphic" in2="effect_dropShadow_1" mode="normal" />
		</filter>
		<g id="pixso_custom_effect_8">
			<effect x="0.000000" y="0.000000" visibility="visible" fill="rgb(108,185,249)" fill-opacity="0.200000003" effectType="dropShadow" stdDeviation="10.250001" radius="0" />
			<effect x="0.000000" y="0.000000" visibility="visible" fill="rgb(140,211,255)" fill-opacity="1" effectType="innerShadow" stdDeviation="3" radius="0" />
			<effect visibility="visible" effectType="backgroundBlur" saturation="0" stdDeviation="30.0000019" />
		</g>
		<filter id="filter_8" width="40.500000" height="40.500000" x="13.100342" y="5.583984" filterUnits="userSpaceOnUse" customEffect="url(#pixso_custom_effect_8)" color-interpolation-filters="sRGB">
			<feFlood flood-opacity="0" result="BackgroundImageFix" />
			<feColorMatrix result="hardAlpha" in="SourceAlpha" type="matrix" values="0 0 0 0 0 0 0 0 0 0 0 0 0 0 0 0 0 0 5 0 " />
			<feOffset dx="0.000000" dy="0.000000" in="hardAlpha" />
			<feGaussianBlur stdDeviation="3.41666698" />
			<feComposite k2="-1" k3="1" in2="hardAlpha" operator="out" />
			<feColorMatrix type="matrix" values="0 0 0 0 0.423529 0 0 0 0 0.72549 0 0 0 0 0.976471 0 0 0 0.2 0 " />
			<feBlend result="effect_dropShadow_1" in2="BackgroundImageFix" mode="normal" />
			<feBlend result="shape" in="SourceGraphic" in2="effect_dropShadow_1" mode="normal" />
			<feColorMatrix result="hardAlpha" in="SourceAlpha" type="matrix" values="0 0 0 0 0 0 0 0 0 0 0 0 0 0 0 0 0 0 5 0 " />
			<feOffset dx="0.000000" dy="0.000000" in="hardAlpha" />
			<feGaussianBlur stdDeviation="1" />
			<feComposite k2="-1" k3="1" in2="hardAlpha" operator="arithmetic" />
			<feColorMatrix type="matrix" values="0 0 0 0 0.54902 0 0 0 0 0.827451 0 0 0 0 1 0 0 0 1 0 " />
			<feBlend result="effect_innerShadow_2" in2="shape" mode="normal" />
		</filter>
		<clipPath id="outline_mask_1" transform="matrix(1,0,0,1,-13.1003,-5.58398)">
			<path d="M23.3503 25.834C23.3503 20.3111 27.8275 15.834 33.3503 15.834C38.8732 15.834 43.3503 20.3111 43.3503 25.834C43.3503 31.3568 38.8732 35.834 33.3503 35.834C27.8275 35.834 23.3503 31.3568 23.3503 25.834L23.3503 25.834Z" fill="rgb(255,255,255)" fill-rule="evenodd" />
		</clipPath>
		<g id="pixso_custom_effect_9">
			<effect x="-1.500001" y="2.598076" visibility="visible" fill="rgb(108,170,249)" fill-opacity="0.501960814" effectType="dropShadow" stdDeviation="7.25" radius="0" />
		</g>
		<filter id="filter_9" width="24.843506" height="26.607422" x="18.360107" y="14.927734" filterUnits="userSpaceOnUse" customEffect="url(#pixso_custom_effect_9)" color-interpolation-filters="sRGB">
			<feFlood flood-opacity="0" result="BackgroundImageFix" />
			<feOffset dx="-1.500001" dy="2.598076" in="SourceAlpha" />
			<feGaussianBlur stdDeviation="2.41666675" />
			<feColorMatrix type="matrix" values="0 0 0 0 0.423529 0 0 0 0 0.666667 0 0 0 0 0.976471 0 0 0 0.501961 0 " />
			<feBlend result="effect_dropShadow_1" in2="BackgroundImageFix" mode="normal" />
			<feBlend result="shape" in="SourceGraphic" in2="effect_dropShadow_1" mode="normal" />
		</filter>
	</defs>
	<g id="icon快速入门">
		<path id="矩形" d="M49.1667 0.833984L49.1667 35.834C49.1667 38.5954 46.9282 40.834 44.1667 40.834L14.1667 40.834C11.4053 40.834 9.16675 38.5954 9.16675 35.834L9.16675 5.83398C9.16675 3.07256 11.4053 0.833984 14.1667 0.833984L49.1667 0.833984L49.1667 0.833984Z" fill="rgb(216,216,216)" fill-opacity="0" fill-rule="evenodd" />
		<path id="矩形" d="M49.1667 35.834L49.1667 0.833984L14.1667 0.833984C11.4053 0.833984 9.16675 3.07256 9.16675 5.83398L9.16675 35.834C9.16675 38.5954 11.4053 40.834 14.1667 40.834L44.1667 40.834C46.9282 40.834 49.1667 38.5954 49.1667 35.834ZM47.9167 2.08398L14.1667 2.08398Q13.3901 2.08398 12.7272 2.35857Q12.0643 2.63316 11.5151 3.18233Q10.9659 3.73151 10.6913 4.39442Q10.4167 5.05733 10.4167 5.83398L10.4167 35.834Q10.4167 36.6106 10.6913 37.2735Q10.9659 37.9365 11.5151 38.4856Q12.0643 39.0348 12.7272 39.3094Q13.3901 39.584 14.1667 39.584L44.1667 39.584Q44.9434 39.584 45.6063 39.3094Q46.2692 39.0348 46.8184 38.4856Q47.3676 37.9365 47.6422 37.2735Q47.9167 36.6106 47.9167 35.834L47.9167 2.08398Z" fill="rgb(151,151,151)" fill-opacity="0" fill-rule="evenodd" />
		<g filter="url(#filter_6)">
			<path id="矩形 77" d="M30.8333 7.5C31.7538 7.5 32.5 8.2462 32.5 9.16667L32.5 27.5C32.5 28.4205 31.7538 29.1667 30.8333 29.1667L14.1667 29.1667C13.2462 29.1667 12.5 28.4205 12.5 27.5L12.5 9.16667C12.5 8.2462 13.2462 7.5 14.1667 7.5L30.8333 7.5L30.8333 7.5Z" fill="url(#paint_linear_8)" fill-rule="evenodd" />
		</g>
		<g id="组合 84" filter="url(#filter_7)">
			<path id="矩形 58" d="M28.3826 11.25C28.8757 11.25 29.2755 11.6497 29.2755 12.1429C29.2755 12.636 28.8757 13.0357 28.3826 13.0357L17.1431 13.0357C16.65 13.0357 16.2502 12.636 16.2502 12.1429C16.2502 11.6497 16.65 11.25 17.1431 11.25L28.3826 11.25L28.3826 11.25Z" fill="rgb(255,255,255)" fill-rule="evenodd" />
			<path id="矩形 59" d="M22.5936 15.418C23.0867 15.418 23.4865 15.8177 23.4865 16.3108C23.4865 16.8039 23.0867 17.2037 22.5936 17.2037L17.1431 17.2037C16.65 17.2037 16.2502 16.8039 16.2502 16.3108C16.2502 15.8177 16.65 15.418 17.1431 15.418L22.5936 15.418L22.5936 15.418Z" fill="rgb(255,255,255)" fill-rule="evenodd" />
		</g>
		<g data-pixso-skip-parse="true">
			<foreignObject width="40.500000" height="40.500000" x="13.100342" y="5.583984">
				<div xmlns="http://www.w3.org/1999/xhtml" style="clip-path:url(#outline_mask_1);height:100%;backdrop-filter:blur(15.000001px);width:100%;-webkit-backdrop-filter:blur(15.000001px);" />
			</foreignObject>
		</g>
		<g filter="url(#filter_8)">
			<path id="矩形 83" d="M23.3503 25.834C23.3503 20.3111 27.8275 15.834 33.3503 15.834C38.8732 15.834 43.3503 20.3111 43.3503 25.834C43.3503 31.3568 38.8732 35.834 33.3503 35.834C27.8275 35.834 23.3503 31.3568 23.3503 25.834L23.3503 25.834Z" fill="rgb(57,142,227)" fill-opacity="0.200000003" fill-rule="evenodd" />
		</g>
		<g filter="url(#filter_9)">
			<path id="多边形 7" d="M0.072384 10.0254C-0.205707 10.5801 0.368124 11.1761 0.932892 10.9192L5.23276 8.96328C5.40583 8.88455 5.60449 8.88455 5.77755 8.96328L10.0774 10.9192C10.6422 11.1761 11.216 10.5801 10.9379 10.0254L6.09327 0.363025C5.85058 -0.121008 5.15974 -0.121008 4.91705 0.363025L0.072384 10.0254L0.072384 10.0254Z" fill="rgb(255,255,255)" fill-rule="evenodd" transform="matrix(0.866025,0.5,-0.5,0.866026,32.3569,16.916)" />
		</g>
	</g>
</svg>
