<svg viewBox="0 0 32 32" xmlns="http://www.w3.org/2000/svg" xmlns:xlink="http://www.w3.org/1999/xlink" width="32.000000" height="32.000000" fill="none" clip-path="url(#clipPath_2)" customFrame="url(#clipPath_2)">
	<defs>
		<linearGradient id="paint_linear_2" x1="23.5555515" x2="3.45733833" y1="7.55555344" y2="17.552475" gradientUnits="userSpaceOnUse">
			<stop stop-color="rgb(255,125,112)" offset="0.0042194128" stop-opacity="1" />
			<stop stop-color="rgb(255,226,81)" offset="1" stop-opacity="1" />
		</linearGradient>
		<radialGradient id="paint_radial_2" cx="0" cy="0" r="1" gradientUnits="userSpaceOnUse" gradientTransform="matrix(-14.7861,-8.5132,8.44444,-14.6667,18.6667,14.6667)">
			<stop stop-color="rgb(243,102,197)" offset="0" stop-opacity="1" />
			<stop stop-color="rgb(243,102,197)" offset="1" stop-opacity="0" />
		</radialGradient>
		<clipPath id="clipPath_2">
			<rect width="32.000000" height="31.999996" x="0.000000" y="0.000000" rx="10.666665" fill="rgb(255,255,255)" transform="matrix(-1,0,0,1,32,0)" />
		</clipPath>
	</defs>
	<rect id="logo/2" width="32.000000" height="31.999996" x="0.000000" y="0.000000" rx="10.666665" fill="url(#paint_linear_2)" transform="matrix(-1,0,0,1,32,0)" />
	<rect id="logo/2" width="32.000000" height="31.999996" x="0.000000" y="0.000000" rx="10.666665" fill="url(#paint_radial_2)" transform="matrix(-1,0,0,1,32,0)" />
	<g id="组合 29064">
		<path id="合并" d="M21.7778 7.11108C23.0051 7.11108 24 8.10601 24 9.33331C24 10.5606 23.0051 11.5555 21.7778 11.5555L12.4444 11.5555L12.4444 21.3333L21.7778 21.3333C23.0051 21.3333 24 22.3282 24 23.5555C24 24.7828 23.0051 25.7777 21.7778 25.7777L10.2222 25.7777C8.99492 25.7777 8 24.7828 8 23.5555L8 10.2222C8 10.07 8.0153 9.92135 8.04445 9.77775C8.0153 9.63415 8 9.48551 8 9.33331C8 8.10601 8.99492 7.11108 10.2222 7.11108L21.7778 7.11108Z" opacity="0.819999993" fill="rgb(255,255,255)" fill-rule="evenodd" />
		<rect id="矩形 6044" width="4.512820" height="4.490565" x="19.555664" y="21.288086" rx="0.657005" fill="rgb(255,255,255)" />
		<rect id="矩形 6045" width="4.512820" height="4.490565" x="19.555664" y="7.111084" rx="0.657005" fill="rgb(255,255,255)" />
		<ellipse id="椭圆 741" rx="2.256410" ry="2.245283" cx="10.2564096" cy="9.35636711" fill="rgb(255,255,255)" />
		<ellipse id="椭圆 742" rx="2.256410" ry="2.245283" cx="10.2564096" cy="23.5785351" fill="rgb(255,255,255)" />
	</g>
</svg>
