<svg viewBox="0 0 82 82" xmlns="http://www.w3.org/2000/svg" xmlns:xlink="http://www.w3.org/1999/xlink" width="82.000000" height="82.000000" fill="none" customFrame="#000000">
	<defs>
		<clipPath id="clipPath_0">
			<rect width="25.252510" height="4.552032" x="0.000000" y="0.000000" fill="rgb(255,255,255)" transform="matrix(0,-1,1,0,15,53.1929)" />
		</clipPath>
		<linearGradient id="paint_linear_0" x1="1.41114271" x2="1.42086494" y1="4.74481153" y2="-0.431328297" gradientUnits="userSpaceOnUse">
			<stop stop-color="rgb(0,0,0)" offset="0" stop-opacity="0.5" />
			<stop stop-color="rgb(242,241,241)" offset="0.463651955" stop-opacity="1" />
			<stop stop-color="rgb(243,242,242)" offset="1" stop-opacity="0" />
		</linearGradient>
		<linearGradient id="paint_linear_1" x1="1.41114271" x2="1.42086494" y1="4.74481153" y2="-0.431328297" gradientUnits="userSpaceOnUse">
			<stop stop-color="rgb(0,0,0)" offset="0" stop-opacity="0.5" />
			<stop stop-color="rgb(242,241,241)" offset="0.463651955" stop-opacity="1" />
			<stop stop-color="rgb(243,242,242)" offset="1" stop-opacity="0" />
		</linearGradient>
		<linearGradient id="paint_linear_2" x1="1.41114271" x2="1.42086494" y1="4.74481153" y2="-0.431328297" gradientUnits="userSpaceOnUse">
			<stop stop-color="rgb(0,0,0)" offset="0" stop-opacity="0.5" />
			<stop stop-color="rgb(242,241,241)" offset="0.463651955" stop-opacity="1" />
			<stop stop-color="rgb(243,242,242)" offset="1" stop-opacity="0" />
		</linearGradient>
		<linearGradient id="paint_linear_3" x1="1.41114271" x2="1.42086494" y1="4.74481153" y2="-0.431328297" gradientUnits="userSpaceOnUse">
			<stop stop-color="rgb(0,0,0)" offset="0" stop-opacity="0.5" />
			<stop stop-color="rgb(242,241,241)" offset="0.463651955" stop-opacity="1" />
			<stop stop-color="rgb(243,242,242)" offset="1" stop-opacity="0" />
		</linearGradient>
		<clipPath id="clipPath_1">
			<rect width="25.252510" height="4.551926" x="0.000000" y="0.000000" fill="rgb(255,255,255)" transform="matrix(1,0,0,-1,27.9404,67)" />
		</clipPath>
		<linearGradient id="paint_linear_4" x1="1.41114271" x2="1.42086494" y1="4.74481153" y2="-0.431328297" gradientUnits="userSpaceOnUse">
			<stop stop-color="rgb(0,0,0)" offset="0" stop-opacity="0.5" />
			<stop stop-color="rgb(242,241,241)" offset="0.463651955" stop-opacity="1" />
			<stop stop-color="rgb(243,242,242)" offset="1" stop-opacity="0" />
		</linearGradient>
		<linearGradient id="paint_linear_5" x1="1.41114271" x2="1.42086494" y1="4.74481153" y2="-0.431328297" gradientUnits="userSpaceOnUse">
			<stop stop-color="rgb(0,0,0)" offset="0" stop-opacity="0.5" />
			<stop stop-color="rgb(242,241,241)" offset="0.463651955" stop-opacity="1" />
			<stop stop-color="rgb(243,242,242)" offset="1" stop-opacity="0" />
		</linearGradient>
		<linearGradient id="paint_linear_6" x1="1.41114271" x2="1.42086494" y1="4.74481153" y2="-0.431328297" gradientUnits="userSpaceOnUse">
			<stop stop-color="rgb(0,0,0)" offset="0" stop-opacity="0.5" />
			<stop stop-color="rgb(242,241,241)" offset="0.463651955" stop-opacity="1" />
			<stop stop-color="rgb(243,242,242)" offset="1" stop-opacity="0" />
		</linearGradient>
		<linearGradient id="paint_linear_7" x1="1.41114271" x2="1.42086494" y1="4.74481153" y2="-0.431328297" gradientUnits="userSpaceOnUse">
			<stop stop-color="rgb(0,0,0)" offset="0" stop-opacity="0.5" />
			<stop stop-color="rgb(242,241,241)" offset="0.463651955" stop-opacity="1" />
			<stop stop-color="rgb(243,242,242)" offset="1" stop-opacity="0" />
		</linearGradient>
		<clipPath id="clipPath_2">
			<rect width="25.252510" height="4.551926" x="0.000000" y="0.000000" fill="rgb(255,255,255)" transform="matrix(0,1,-1,0,67,27.9404)" />
		</clipPath>
		<linearGradient id="paint_linear_8" x1="1.41114271" x2="1.42086494" y1="4.74481153" y2="-0.431328297" gradientUnits="userSpaceOnUse">
			<stop stop-color="rgb(0,0,0)" offset="0" stop-opacity="0.5" />
			<stop stop-color="rgb(242,241,241)" offset="0.463651955" stop-opacity="1" />
			<stop stop-color="rgb(243,242,242)" offset="1" stop-opacity="0" />
		</linearGradient>
		<linearGradient id="paint_linear_9" x1="1.41114271" x2="1.42086494" y1="4.74481153" y2="-0.431328297" gradientUnits="userSpaceOnUse">
			<stop stop-color="rgb(0,0,0)" offset="0" stop-opacity="0.5" />
			<stop stop-color="rgb(242,241,241)" offset="0.463651955" stop-opacity="1" />
			<stop stop-color="rgb(243,242,242)" offset="1" stop-opacity="0" />
		</linearGradient>
		<linearGradient id="paint_linear_10" x1="1.41114271" x2="1.42086494" y1="4.74481153" y2="-0.431328297" gradientUnits="userSpaceOnUse">
			<stop stop-color="rgb(0,0,0)" offset="0" stop-opacity="0.5" />
			<stop stop-color="rgb(242,241,241)" offset="0.463651955" stop-opacity="1" />
			<stop stop-color="rgb(243,242,242)" offset="1" stop-opacity="0" />
		</linearGradient>
		<linearGradient id="paint_linear_11" x1="1.41114271" x2="1.42086494" y1="4.74481153" y2="-0.431328297" gradientUnits="userSpaceOnUse">
			<stop stop-color="rgb(0,0,0)" offset="0" stop-opacity="0.5" />
			<stop stop-color="rgb(242,241,241)" offset="0.463651955" stop-opacity="1" />
			<stop stop-color="rgb(243,242,242)" offset="1" stop-opacity="0" />
		</linearGradient>
		<clipPath id="clipPath_3">
			<rect width="25.252510" height="4.552032" x="28.254517" y="15.000000" fill="rgb(255,255,255)" />
		</clipPath>
		<linearGradient id="paint_linear_12" x1="51.8834953" x2="51.8932152" y1="19.744812" y2="14.5686722" gradientUnits="userSpaceOnUse">
			<stop stop-color="rgb(0,0,0)" offset="0" stop-opacity="0.5" />
			<stop stop-color="rgb(242,241,241)" offset="0.463651955" stop-opacity="1" />
			<stop stop-color="rgb(243,242,242)" offset="1" stop-opacity="0" />
		</linearGradient>
		<linearGradient id="paint_linear_13" x1="44.4775505" x2="44.4872704" y1="19.744812" y2="14.5686722" gradientUnits="userSpaceOnUse">
			<stop stop-color="rgb(0,0,0)" offset="0" stop-opacity="0.5" />
			<stop stop-color="rgb(242,241,241)" offset="0.463651955" stop-opacity="1" />
			<stop stop-color="rgb(243,242,242)" offset="1" stop-opacity="0" />
		</linearGradient>
		<linearGradient id="paint_linear_14" x1="37.0716057" x2="37.0813255" y1="19.744812" y2="14.5686722" gradientUnits="userSpaceOnUse">
			<stop stop-color="rgb(0,0,0)" offset="0" stop-opacity="0.5" />
			<stop stop-color="rgb(242,241,241)" offset="0.463651955" stop-opacity="1" />
			<stop stop-color="rgb(243,242,242)" offset="1" stop-opacity="0" />
		</linearGradient>
		<linearGradient id="paint_linear_15" x1="29.665659" x2="29.6753807" y1="19.744812" y2="14.5686722" gradientUnits="userSpaceOnUse">
			<stop stop-color="rgb(0,0,0)" offset="0" stop-opacity="0.5" />
			<stop stop-color="rgb(242,241,241)" offset="0.463651955" stop-opacity="1" />
			<stop stop-color="rgb(243,242,242)" offset="1" stop-opacity="0" />
		</linearGradient>
		<linearGradient id="paint_linear_16" x1="53.366478" x2="24.8673782" y1="41.312088" y2="30.2742729" gradientUnits="userSpaceOnUse">
			<stop stop-color="rgb(130,145.345,219)" offset="0" stop-opacity="1" />
			<stop stop-color="rgb(198.732,211.93,252.723)" offset="1" stop-opacity="1" />
		</linearGradient>
		<linearGradient id="paint_linear_17" x1="53.3663101" x2="24.8672028" y1="41.3120918" y2="30.2742691" gradientUnits="userSpaceOnUse">
			<stop stop-color="rgb(130,145.345,219)" offset="0" stop-opacity="1" />
			<stop stop-color="rgb(198.732,211.93,252.723)" offset="1" stop-opacity="1" />
		</linearGradient>
		<linearGradient id="paint_linear_18" x1="53.366497" x2="24.8673859" y1="41.312088" y2="30.2742615" gradientUnits="userSpaceOnUse">
			<stop stop-color="rgb(130,145.345,219)" offset="0" stop-opacity="1" />
			<stop stop-color="rgb(198.732,211.93,252.723)" offset="1" stop-opacity="1" />
		</linearGradient>
		<linearGradient id="paint_linear_19" x1="53.3663673" x2="24.8672562" y1="41.3120918" y2="30.2742691" gradientUnits="userSpaceOnUse">
			<stop stop-color="rgb(130,145.345,219)" offset="0" stop-opacity="1" />
			<stop stop-color="rgb(198.732,211.93,252.723)" offset="1" stop-opacity="1" />
		</linearGradient>
		<linearGradient id="paint_linear_20" x1="33.0671463" x2="33.0671463" y1="38.1936035" y2="44.4311447" gradientUnits="userSpaceOnUse">
			<stop stop-color="rgb(42,44,68)" offset="0" stop-opacity="1" />
			<stop stop-color="rgb(86.1143,88.7724,120.67)" offset="0.530903637" stop-opacity="1" />
			<stop stop-color="rgb(37,40,64)" offset="1" stop-opacity="1" />
		</linearGradient>
		<linearGradient id="paint_linear_21" x1="38.2701759" x2="38.2701759" y1="38.1936035" y2="44.4311447" gradientUnits="userSpaceOnUse">
			<stop stop-color="rgb(42,44,68)" offset="0" stop-opacity="1" />
			<stop stop-color="rgb(86.1143,88.7724,120.67)" offset="0.530903637" stop-opacity="1" />
			<stop stop-color="rgb(37,40,64)" offset="1" stop-opacity="1" />
		</linearGradient>
		<linearGradient id="paint_linear_22" x1="43.4667778" x2="43.4667778" y1="38.1936035" y2="44.4311447" gradientUnits="userSpaceOnUse">
			<stop stop-color="rgb(42,44,68)" offset="0" stop-opacity="1" />
			<stop stop-color="rgb(86.1143,88.7724,120.67)" offset="0.530903637" stop-opacity="1" />
			<stop stop-color="rgb(37,40,64)" offset="1" stop-opacity="1" />
		</linearGradient>
		<linearGradient id="paint_linear_23" x1="48.6937866" x2="48.6937866" y1="38.1936035" y2="44.4311447" gradientUnits="userSpaceOnUse">
			<stop stop-color="rgb(42,44,68)" offset="0" stop-opacity="1" />
			<stop stop-color="rgb(86.1143,88.7724,120.67)" offset="0.530903637" stop-opacity="1" />
			<stop stop-color="rgb(37,40,64)" offset="1" stop-opacity="1" />
		</linearGradient>
	</defs>
	<rect id="属性 1=CHIP" width="82.000000" height="82.000000" x="0.000000" y="0.000000" />
	<rect id="矩形 3085" width="68.612244" height="68.612251" x="0.000000" y="0.000000" />
	<g id="CHIP浅色">
		<g id="画板 2494" customFrame="url(#clipPath_0)">
			<rect id="画板 2494" width="25.252510" height="4.552032" x="0.000000" y="0.000000" fill="rgb(255,255,255)" fill-opacity="0" transform="matrix(0,-1,1,0,15,53.1929)" />
			<path id="矩形 3067" d="M0.758672 0L2.27602 0C2.69502 0 3.03469 0.339669 3.03469 0.758672L3.03469 4.55203L0 4.55203L0 0.758672C0 0.339669 0.339669 0 0.758672 0Z" fill="rgb(182,182,182)" fill-rule="evenodd" transform="matrix(0,-1,1,0,15,30.9751)" />
			<path id="矩形 3067" d="M0.758672 0L2.27602 0C2.69502 0 3.03469 0.339669 3.03469 0.758672L3.03469 4.55203L0 4.55203L0 0.758672C0 0.339669 0.339669 0 0.758672 0Z" fill="url(#paint_linear_0)" fill-opacity="0.600000024" fill-rule="evenodd" transform="matrix(0,-1,1,0,15,30.9751)" />
			<path id="矩形 3067" d="M0.758672 0L2.27602 0C2.69502 0 3.03469 0.339669 3.03469 0.758672L3.03469 4.55203L0 4.55203L0 0.758672C0 0.339669 0.339669 0 0.758672 0Z" fill="rgb(182,182,182)" fill-rule="evenodd" transform="matrix(0,-1,1,0,15,38.381)" />
			<path id="矩形 3067" d="M0.758672 0L2.27602 0C2.69502 0 3.03469 0.339669 3.03469 0.758672L3.03469 4.55203L0 4.55203L0 0.758672C0 0.339669 0.339669 0 0.758672 0Z" fill="url(#paint_linear_1)" fill-opacity="0.600000024" fill-rule="evenodd" transform="matrix(0,-1,1,0,15,38.381)" />
			<path id="矩形 3067" d="M0.758672 0L2.27602 0C2.69502 0 3.03469 0.339669 3.03469 0.758672L3.03469 4.55203L0 4.55203L0 0.758672C0 0.339669 0.339669 0 0.758672 0Z" fill="rgb(182,182,182)" fill-rule="evenodd" transform="matrix(0,-1,1,0,15,45.787)" />
			<path id="矩形 3067" d="M0.758672 0L2.27602 0C2.69502 0 3.03469 0.339669 3.03469 0.758672L3.03469 4.55203L0 4.55203L0 0.758672C0 0.339669 0.339669 0 0.758672 0Z" fill="url(#paint_linear_2)" fill-opacity="0.600000024" fill-rule="evenodd" transform="matrix(0,-1,1,0,15,45.787)" />
			<path id="矩形 3067" d="M0.758672 0L2.27602 0C2.69502 0 3.03469 0.339669 3.03469 0.758672L3.03469 4.55203L0 4.55203L0 0.758672C0 0.339669 0.339669 0 0.758672 0Z" fill="rgb(182,182,182)" fill-rule="evenodd" transform="matrix(0,-1,1,0,15,53.1929)" />
			<path id="矩形 3067" d="M0.758672 0L2.27602 0C2.69502 0 3.03469 0.339669 3.03469 0.758672L3.03469 4.55203L0 4.55203L0 0.758672C0 0.339669 0.339669 0 0.758672 0Z" fill="url(#paint_linear_3)" fill-opacity="0.600000024" fill-rule="evenodd" transform="matrix(0,-1,1,0,15,53.1929)" />
		</g>
		<g id="画板 1659" customFrame="url(#clipPath_1)">
			<rect id="画板 1659" width="25.252510" height="4.551926" x="0.000000" y="0.000000" fill="rgb(255,255,255)" fill-opacity="0" transform="matrix(1,0,0,-1,27.9404,67)" />
			<path id="矩形 3067" d="M0.758672 0L2.27602 0C2.69502 0 3.03469 0.339669 3.03469 0.758672L3.03469 4.55203L0 4.55203L0 0.758672C0 0.339669 0.339669 0 0.758672 0Z" fill="rgb(182,182,182)" fill-rule="evenodd" transform="matrix(1,0,0,-1,50.1582,67)" />
			<path id="矩形 3067" d="M0.758672 0L2.27602 0C2.69502 0 3.03469 0.339669 3.03469 0.758672L3.03469 4.55203L0 4.55203L0 0.758672C0 0.339669 0.339669 0 0.758672 0Z" fill="url(#paint_linear_4)" fill-opacity="0.600000024" fill-rule="evenodd" transform="matrix(1,0,0,-1,50.1582,67)" />
			<path id="矩形 3067" d="M0.758672 0L2.27602 0C2.69502 0 3.03469 0.339669 3.03469 0.758672L3.03469 4.55203L0 4.55203L0 0.758672C0 0.339669 0.339669 0 0.758672 0Z" fill="rgb(182,182,182)" fill-rule="evenodd" transform="matrix(1,0,0,-1,42.7523,67)" />
			<path id="矩形 3067" d="M0.758672 0L2.27602 0C2.69502 0 3.03469 0.339669 3.03469 0.758672L3.03469 4.55203L0 4.55203L0 0.758672C0 0.339669 0.339669 0 0.758672 0Z" fill="url(#paint_linear_5)" fill-opacity="0.600000024" fill-rule="evenodd" transform="matrix(1,0,0,-1,42.7523,67)" />
			<path id="矩形 3067" d="M0.758672 0L2.27602 0C2.69502 0 3.03469 0.339669 3.03469 0.758672L3.03469 4.55203L0 4.55203L0 0.758672C0 0.339669 0.339669 0 0.758672 0Z" fill="rgb(182,182,182)" fill-rule="evenodd" transform="matrix(1,0,0,-1,35.3463,67)" />
			<path id="矩形 3067" d="M0.758672 0L2.27602 0C2.69502 0 3.03469 0.339669 3.03469 0.758672L3.03469 4.55203L0 4.55203L0 0.758672C0 0.339669 0.339669 0 0.758672 0Z" fill="url(#paint_linear_6)" fill-opacity="0.600000024" fill-rule="evenodd" transform="matrix(1,0,0,-1,35.3463,67)" />
			<path id="矩形 3067" d="M0.758672 0L2.27602 0C2.69502 0 3.03469 0.339669 3.03469 0.758672L3.03469 4.55203L0 4.55203L0 0.758672C0 0.339669 0.339669 0 0.758672 0Z" fill="rgb(182,182,182)" fill-rule="evenodd" transform="matrix(1,0,0,-1,27.9404,67)" />
			<path id="矩形 3067" d="M0.758672 0L2.27602 0C2.69502 0 3.03469 0.339669 3.03469 0.758672L3.03469 4.55203L0 4.55203L0 0.758672C0 0.339669 0.339669 0 0.758672 0Z" fill="url(#paint_linear_7)" fill-opacity="0.600000024" fill-rule="evenodd" transform="matrix(1,0,0,-1,27.9404,67)" />
		</g>
		<g id="画板 2495" customFrame="url(#clipPath_2)">
			<rect id="画板 2495" width="25.252510" height="4.551926" x="0.000000" y="0.000000" fill="rgb(255,255,255)" fill-opacity="0" transform="matrix(0,1,-1,0,67,27.9404)" />
			<path id="矩形 3067" d="M0.758672 0L2.27602 0C2.69502 0 3.03469 0.339669 3.03469 0.758672L3.03469 4.55203L0 4.55203L0 0.758672C0 0.339669 0.339669 0 0.758672 0Z" fill="rgb(182,182,182)" fill-rule="evenodd" transform="matrix(0,1,-1,0,67,50.1582)" />
			<path id="矩形 3067" d="M0.758672 0L2.27602 0C2.69502 0 3.03469 0.339669 3.03469 0.758672L3.03469 4.55203L0 4.55203L0 0.758672C0 0.339669 0.339669 0 0.758672 0Z" fill="url(#paint_linear_8)" fill-opacity="0.600000024" fill-rule="evenodd" transform="matrix(0,1,-1,0,67,50.1582)" />
			<path id="矩形 3067" d="M0.758672 0L2.27602 0C2.69502 0 3.03469 0.339669 3.03469 0.758672L3.03469 4.55203L0 4.55203L0 0.758672C0 0.339669 0.339669 0 0.758672 0Z" fill="rgb(182,182,182)" fill-rule="evenodd" transform="matrix(0,1,-1,0,67,42.7523)" />
			<path id="矩形 3067" d="M0.758672 0L2.27602 0C2.69502 0 3.03469 0.339669 3.03469 0.758672L3.03469 4.55203L0 4.55203L0 0.758672C0 0.339669 0.339669 0 0.758672 0Z" fill="url(#paint_linear_9)" fill-opacity="0.600000024" fill-rule="evenodd" transform="matrix(0,1,-1,0,67,42.7523)" />
			<path id="矩形 3067" d="M0.758672 0L2.27602 0C2.69502 0 3.03469 0.339669 3.03469 0.758672L3.03469 4.55203L0 4.55203L0 0.758672C0 0.339669 0.339669 0 0.758672 0Z" fill="rgb(182,182,182)" fill-rule="evenodd" transform="matrix(0,1,-1,0,67,35.3463)" />
			<path id="矩形 3067" d="M0.758672 0L2.27602 0C2.69502 0 3.03469 0.339669 3.03469 0.758672L3.03469 4.55203L0 4.55203L0 0.758672C0 0.339669 0.339669 0 0.758672 0Z" fill="url(#paint_linear_10)" fill-opacity="0.600000024" fill-rule="evenodd" transform="matrix(0,1,-1,0,67,35.3463)" />
			<path id="矩形 3067" d="M0.758672 0L2.27602 0C2.69502 0 3.03469 0.339669 3.03469 0.758672L3.03469 4.55203L0 4.55203L0 0.758672C0 0.339669 0.339669 0 0.758672 0Z" fill="rgb(182,182,182)" fill-rule="evenodd" transform="matrix(0,1,-1,0,67,27.9404)" />
			<path id="矩形 3067" d="M0.758672 0L2.27602 0C2.69502 0 3.03469 0.339669 3.03469 0.758672L3.03469 4.55203L0 4.55203L0 0.758672C0 0.339669 0.339669 0 0.758672 0Z" fill="url(#paint_linear_11)" fill-opacity="0.600000024" fill-rule="evenodd" transform="matrix(0,1,-1,0,67,27.9404)" />
		</g>
		<g id="画板 1659" customFrame="url(#clipPath_3)">
			<rect id="画板 1659" width="25.252510" height="4.552032" x="28.254517" y="15.000000" fill="rgb(255,255,255)" fill-opacity="0" />
			<path id="矩形 3067" d="M51.231 15L52.7484 15C53.1674 15 53.507 15.3397 53.507 15.7587L53.507 19.552L50.4724 19.552L50.4724 15.7587C50.4724 15.3397 50.812 15 51.231 15Z" fill="rgb(182,182,182)" fill-rule="evenodd" />
			<path id="矩形 3067" d="M51.231 15L52.7484 15C53.1674 15 53.507 15.3397 53.507 15.7587L53.507 19.552L50.4724 19.552L50.4724 15.7587C50.4724 15.3397 50.812 15 51.231 15Z" fill="url(#paint_linear_12)" fill-opacity="0.600000024" fill-rule="evenodd" />
			<path id="矩形 3067" d="M43.8251 15L45.3424 15C45.7614 15 46.1011 15.3397 46.1011 15.7587L46.1011 19.552L43.0664 19.552L43.0664 15.7587C43.0664 15.3397 43.4061 15 43.8251 15Z" fill="rgb(182,182,182)" fill-rule="evenodd" />
			<path id="矩形 3067" d="M43.8251 15L45.3424 15C45.7614 15 46.1011 15.3397 46.1011 15.7587L46.1011 19.552L43.0664 19.552L43.0664 15.7587C43.0664 15.3397 43.4061 15 43.8251 15Z" fill="url(#paint_linear_13)" fill-opacity="0.600000024" fill-rule="evenodd" />
			<path id="矩形 3067" d="M36.4191 15L37.9365 15C38.3555 15 38.6951 15.3397 38.6951 15.7587L38.6951 19.552L35.6605 19.552L35.6605 15.7587C35.6605 15.3397 36.0001 15 36.4191 15Z" fill="rgb(182,182,182)" fill-rule="evenodd" />
			<path id="矩形 3067" d="M36.4191 15L37.9365 15C38.3555 15 38.6951 15.3397 38.6951 15.7587L38.6951 19.552L35.6605 19.552L35.6605 15.7587C35.6605 15.3397 36.0001 15 36.4191 15Z" fill="url(#paint_linear_14)" fill-opacity="0.600000024" fill-rule="evenodd" />
			<path id="矩形 3067" d="M29.0132 15L30.5305 15C30.9495 15 31.2892 15.3397 31.2892 15.7587L31.2892 19.552L28.2545 19.552L28.2545 15.7587C28.2545 15.3397 28.5942 15 29.0132 15Z" fill="rgb(182,182,182)" fill-rule="evenodd" />
			<path id="矩形 3067" d="M29.0132 15L30.5305 15C30.9495 15 31.2892 15.3397 31.2892 15.7587L31.2892 19.552L28.2545 19.552L28.2545 15.7587C28.2545 15.3397 28.5942 15 29.0132 15Z" fill="url(#paint_linear_15)" fill-opacity="0.600000024" fill-rule="evenodd" />
		</g>
		<rect id="矩形 5798" width="43.134644" height="43.134647" x="19.313477" y="19.313477" rx="3.450772" fill="rgb(0,0,0)" />
		<rect id="矩形 5798" width="41.840603" height="41.840607" x="19.960497" y="19.960497" rx="2.803752" stroke="rgb(255,255,255)" stroke-width="1.294039" />
		<rect id="矩形 5800" width="34.507717" height="34.507717" x="23.626953" y="23.626953" rx="0.862693" fill="rgb(255,255,255)" fill-opacity="0.150000006" />
		<g id="CHIP">
			<g id="组合 91334918" opacity="0">
				<path id="矢量 15207" d="M33.168 38.2931C33.8588 38.2931 34.3853 38.5858 34.8066 39.1819C34.9624 39.3967 35.0741 39.6558 35.1436 39.957L34.3411 40.4835C34.3158 40.1297 34.2295 39.8622 34.101 39.6811L34.0905 39.6726L34.0736 39.6474C33.823 39.302 33.5555 39.1651 33.168 39.1651C32.6498 39.1651 32.2539 39.4662 32.0201 40.0096C31.9 40.3024 31.8474 40.6899 31.8474 41.1912L31.8474 41.5787L31.8579 41.6145L31.8579 41.7009L31.8663 41.7346L31.8663 41.8294C31.8748 41.8378 31.8748 41.8378 31.8748 41.8462L31.8748 41.882C31.8748 41.8989 31.8748 41.9073 31.8832 41.9242L31.8832 41.96C31.8832 41.9684 31.8832 41.9768 31.8916 41.9937L31.8916 42.0274C31.9 42.0716 31.9085 42.1137 31.9169 42.1579L31.9169 42.1916C31.9253 42.2001 31.9253 42.2001 31.9253 42.2085L31.9337 42.2359C31.9443 42.2948 31.9611 42.3475 31.9696 42.398L31.978 42.4338C32.0201 42.5455 32.0643 42.6487 32.1149 42.7435C32.1928 42.8909 32.2707 43.0109 32.3655 43.1141C32.5825 43.3564 32.8836 43.468 33.1511 43.468C33.6524 43.468 34.0041 43.2869 34.2463 42.933L34.2463 42.9162L34.9793 43.4006C34.5749 44.0219 33.9452 44.3315 33.1511 44.3315C32.3655 44.3315 31.7716 43.9166 31.3567 43.1752C31.2176 42.933 31.1229 42.6655 31.0639 42.3643L31.0639 42.3222C31.0555 42.278 31.047 42.2359 31.0365 42.1832L31.0281 42.1411L31.0281 42.1053L31.0197 42.0632C31.0112 42.0105 31.0112 41.96 31.0028 41.9157L31.0028 41.8736C30.9944 41.8041 30.986 41.7346 30.986 41.6651L30.986 41.5787L30.9775 41.5282L30.9775 41.1828C30.9775 40.5867 31.047 40.096 31.2176 39.6811C31.5715 38.8281 32.2792 38.2931 33.168 38.2931Z" fill="url(#paint_linear_16)" fill-opacity="0" fill-rule="evenodd" />
				<path id="矢量 15207" d="M33.168 38.2931C33.8588 38.2931 34.3853 38.5858 34.8066 39.1819C34.9624 39.3967 35.0741 39.6558 35.1436 39.957L34.3411 40.4835C34.3158 40.1297 34.2295 39.8622 34.101 39.6811L34.0905 39.6726L34.0736 39.6474C33.823 39.302 33.5555 39.1651 33.168 39.1651C32.6498 39.1651 32.2539 39.4662 32.0201 40.0096C31.9 40.3024 31.8474 40.6899 31.8474 41.1912L31.8474 41.5787L31.8579 41.6145L31.8579 41.7009L31.8663 41.7346L31.8663 41.8294C31.8748 41.8378 31.8748 41.8378 31.8748 41.8462L31.8748 41.882C31.8748 41.8989 31.8748 41.9073 31.8832 41.9242L31.8832 41.96C31.8832 41.9684 31.8832 41.9768 31.8916 41.9937L31.8916 42.0274C31.9 42.0716 31.9085 42.1137 31.9169 42.1579L31.9169 42.1916C31.9253 42.2001 31.9253 42.2001 31.9253 42.2085L31.9337 42.2359C31.9443 42.2948 31.9611 42.3475 31.9696 42.398L31.978 42.4338C32.0201 42.5455 32.0643 42.6487 32.1149 42.7435C32.1928 42.8909 32.2707 43.0109 32.3655 43.1141C32.5825 43.3564 32.8836 43.468 33.1511 43.468C33.6524 43.468 34.0041 43.2869 34.2463 42.933L34.2463 42.9162L34.9793 43.4006C34.5749 44.0219 33.9452 44.3315 33.1511 44.3315C32.3655 44.3315 31.7716 43.9166 31.3567 43.1752C31.2176 42.933 31.1229 42.6655 31.0639 42.3643L31.0639 42.3222C31.0555 42.278 31.047 42.2359 31.0365 42.1832L31.0281 42.1411L31.0281 42.1053L31.0197 42.0632C31.0112 42.0105 31.0112 41.96 31.0028 41.9157L31.0028 41.8736C30.9944 41.8041 30.986 41.7346 30.986 41.6651L30.986 41.5787L30.9775 41.5282L30.9775 41.1828C30.9775 40.5867 31.047 40.096 31.2176 39.6811C31.5715 38.8281 32.2792 38.2931 33.168 38.2931Z" fill="rgb(255,255,255)" fill-rule="evenodd" />
				<path id="矢量 15208" d="M36.1606 44.3315L36.1606 38.2931L37.0242 38.2931L37.0242 40.7005L39.5179 40.7005L39.5179 38.2931L40.3793 38.2931L40.3793 44.3315L39.5179 44.3315L39.5179 41.5619L37.0242 41.5619L37.0242 44.3315L36.1606 44.3315Z" fill="url(#paint_linear_17)" fill-opacity="0" fill-rule="evenodd" />
				<path id="矢量 15208" d="M36.1606 44.3315L36.1606 38.2931L37.0242 38.2931L37.0242 40.7005L39.5179 40.7005L39.5179 38.2931L40.3793 38.2931L40.3793 44.3315L39.5179 44.3315L39.5179 41.5619L37.0242 41.5619L37.0242 44.3315L36.1606 44.3315Z" fill="rgb(255,255,255)" fill-rule="evenodd" />
				<path id="矢量 15209" d="M43.0459 39.1545L41.4937 39.1545L41.7253 38.2931L45.4701 38.2931L45.4701 39.1545L43.9179 39.1545L43.9179 43.4596L45.3585 43.468L45.3585 44.3315L41.5884 44.3315L41.5884 43.4596L43.0459 43.4596L43.0459 39.1545Z" fill="url(#paint_linear_18)" fill-opacity="0" fill-rule="evenodd" />
				<path id="矢量 15209" d="M43.0459 39.1545L41.4937 39.1545L41.7253 38.2931L45.4701 38.2931L45.4701 39.1545L43.9179 39.1545L43.9179 43.4596L45.3585 43.468L45.3585 44.3315L41.5884 44.3315L41.5884 43.4596L43.0459 43.4596L43.0459 39.1545Z" fill="rgb(255,255,255)" fill-rule="evenodd" />
				<path id="矢量 15210" d="M46.582 44.3315L46.582 38.2931L48.6714 38.2931C49.914 38.2931 50.9229 39.3799 50.7923 40.6731C50.7417 41.1912 50.5248 41.6482 50.1204 42.0189C49.8698 42.2527 49.5854 42.3728 49.2316 42.4338C49.2148 42.4423 49.1979 42.4423 49.179 42.4423L49.1621 42.4507C49.1453 42.4507 49.1284 42.4507 49.1116 42.4591L49.0589 42.4591L49.0336 42.4675L48.9557 42.4675L48.9304 42.476L48.8083 42.476L48.7577 42.4844L47.4456 42.4844L47.4456 44.3315L46.582 44.3315ZM47.4456 39.1545L47.4456 41.623L48.6966 41.623L48.7388 41.6145L48.8441 41.6145L48.8693 41.6061L48.9473 41.6061L48.981 41.5977C49.0505 41.5977 49.1116 41.5787 49.1621 41.5703L49.1874 41.5703C49.318 41.5366 49.4043 41.4924 49.4907 41.425L49.4991 41.4166C49.5159 41.406 49.5244 41.3892 49.5328 41.3808C49.775 41.1659 49.8951 40.9069 49.9309 40.5867C50.0088 39.8201 49.4212 39.1651 48.6882 39.1545L47.4456 39.1545Z" fill="url(#paint_linear_19)" fill-opacity="0" fill-rule="evenodd" />
				<path id="矢量 15210" d="M46.582 44.3315L46.582 38.2931L48.6714 38.2931C49.914 38.2931 50.9229 39.3799 50.7923 40.6731C50.7417 41.1912 50.5248 41.6482 50.1204 42.0189C49.8698 42.2527 49.5854 42.3728 49.2316 42.4338C49.2148 42.4423 49.1979 42.4423 49.179 42.4423L49.1621 42.4507C49.1453 42.4507 49.1284 42.4507 49.1116 42.4591L49.0589 42.4591L49.0336 42.4675L48.9557 42.4675L48.9304 42.476L48.8083 42.476L48.7577 42.4844L47.4456 42.4844L47.4456 44.3315L46.582 44.3315ZM47.4456 39.1545L47.4456 41.623L48.6966 41.623L48.7388 41.6145L48.8441 41.6145L48.8693 41.6061L48.9473 41.6061L48.981 41.5977C49.0505 41.5977 49.1116 41.5787 49.1621 41.5703L49.1874 41.5703C49.318 41.5366 49.4043 41.4924 49.4907 41.425L49.4991 41.4166C49.5159 41.406 49.5244 41.3892 49.5328 41.3808C49.775 41.1659 49.8951 40.9069 49.9309 40.5867C50.0088 39.8201 49.4212 39.1651 48.6882 39.1545L47.4456 39.1545Z" fill="rgb(255,255,255)" fill-rule="evenodd" />
			</g>
			<g id="Chip">
				<path id="矢量 15251" d="M36.3312 38.4146C36.751 38.4146 37.071 38.5925 37.327 38.9547C37.4217 39.0852 37.4895 39.2426 37.5317 39.4257L37.0441 39.7456C37.0287 39.5306 36.9763 39.3681 36.8982 39.258L36.8918 39.2529L36.8816 39.2375C36.7292 39.0276 36.5667 38.9444 36.3312 38.9444C36.0163 38.9444 35.7757 39.1274 35.6337 39.4577C35.5607 39.6356 35.5287 39.8711 35.5287 40.1757L35.5287 40.4112L35.5351 40.4329L35.5351 40.4854L35.5402 40.5059L35.5402 40.5635C35.5454 40.5686 35.5454 40.5686 35.5454 40.5737L35.5454 40.5955C35.5454 40.6057 35.5454 40.6108 35.5505 40.6211L35.5505 40.6428C35.5505 40.6479 35.5505 40.6531 35.5556 40.6633L35.5556 40.6838C35.5607 40.7107 35.5658 40.7363 35.5709 40.7631L35.5709 40.7836C35.5761 40.7887 35.5761 40.7887 35.5761 40.7939L35.5812 40.8105C35.5876 40.8463 35.5978 40.8783 35.6029 40.909L35.6081 40.9308C35.6337 40.9986 35.6605 41.0614 35.6913 41.1189C35.7386 41.2085 35.786 41.2815 35.8436 41.3442C35.9754 41.4914 36.1584 41.5592 36.321 41.5592C36.6256 41.5592 36.8393 41.4492 36.9865 41.2341L36.9865 41.2239L37.4319 41.5183C37.1862 41.8958 36.8035 42.084 36.321 42.084C35.8436 42.084 35.4826 41.8318 35.2305 41.3813C35.146 41.2341 35.0884 41.0716 35.0526 40.8886L35.0526 40.863C35.0475 40.8361 35.0424 40.8105 35.036 40.7785L35.0308 40.7529L35.0308 40.7311L35.0257 40.7055C35.0206 40.6735 35.0206 40.6428 35.0155 40.616L35.0155 40.5904C35.0104 40.5481 35.0052 40.5059 35.0052 40.4636L35.0052 40.4112L35.0001 40.3805L35.0001 40.1706C35.0001 39.8083 35.0424 39.5101 35.146 39.258C35.361 38.7396 35.7911 38.4146 36.3312 38.4146Z" fill="rgb(230,230,230)" fill-rule="evenodd" />
				<path id="矢量 15252" d="M40.3206 39.4999C40.5356 39.7149 40.6405 40.0451 40.6405 40.4803L40.6405 42.084L40.1222 42.084L40.1222 40.4803C40.1222 40.1859 40.0646 39.9824 39.9481 39.8659C39.8649 39.7776 39.7331 39.7354 39.5501 39.7303L39.5398 39.7303C39.1879 39.7303 38.7949 40.081 38.6951 40.1706L38.6951 42.084L38.1768 42.084L38.1768 37.9999L38.6951 37.9999L38.6951 39.5677C38.9677 39.3681 39.2877 39.2055 39.5552 39.2106C39.8803 39.2158 40.1375 39.3156 40.3206 39.4999Z" fill="rgb(230,230,230)" fill-rule="evenodd" />
				<path id="矢量 15253" d="M42.9584 38.005L42.9584 38.5554L42.1713 38.5554L42.1713 38.005L42.9584 38.005ZM42.9584 39.2004L42.9584 41.5708L43.8646 41.5708L43.8646 42.0891L41.5428 42.0891L41.5428 41.5708L42.4541 41.5708L42.4541 39.7252L41.5838 39.7252L41.731 39.2004L42.9584 39.2004Z" fill="rgb(230,230,230)" fill-rule="evenodd" />
				<path id="矢量 15254" d="M45.9456 39.2107C46.2758 39.2158 46.5433 39.3207 46.7276 39.5204C46.958 39.7559 47.0527 40.113 47.031 40.6057C47.0054 41.2982 46.6534 41.7794 46.0199 41.9944C45.7626 42.084 45.3377 42.0994 45.0868 42.0994L45.0868 43.2999L44.5672 43.2999L44.5672 39.2107L45.0868 39.2107L45.0868 39.4999C45.3646 39.29 45.6781 39.2055 45.9456 39.2107ZM45.8458 41.4965C46.2758 41.3506 46.4857 41.0614 46.5075 40.5789C46.5229 40.2435 46.4704 40.008 46.345 39.8775C46.2605 39.7879 46.1248 39.7098 45.9354 39.7034L45.9252 39.7034C45.6577 39.7034 45.2903 39.7879 45.0868 39.976L45.0868 41.5759C45.2481 41.5708 45.6577 41.5644 45.8458 41.4965Z" fill="rgb(230,230,230)" fill-rule="evenodd" />
			</g>
		</g>
		<g id="CHIP(边框)">
			<path id="边框" d="M34.8876 39.124C35.0499 39.3479 35.1676 39.6181 35.2406 39.9347L35.2562 40.0022L34.254 40.6599L34.2419 40.4907C34.2191 40.1721 34.1477 39.9252 34.0276 39.7499L34.0163 39.7408L33.992 39.7043C33.8658 39.5309 33.7182 39.4088 33.549 39.338C33.4323 39.2891 33.3053 39.2647 33.168 39.2647C32.9945 39.2647 32.8376 39.2989 32.6975 39.3673C32.4506 39.4878 32.2555 39.7146 32.1123 40.0475C32.0021 40.3161 31.947 40.6974 31.947 41.1913L31.947 41.5645L31.9575 41.6003L31.9575 41.6887L31.966 41.7224L31.966 41.802C31.967 41.8046 31.968 41.8072 31.9688 41.8099C31.9725 41.8214 31.9744 41.8335 31.9744 41.8463L31.9744 41.8821L31.9723 41.8797L31.9828 41.9007L31.9828 41.9534L31.9912 41.9702L31.9912 42.0179L32.0017 42.0721L32.0165 42.1485L32.0165 42.1642C32.0176 42.1668 32.0185 42.1695 32.0194 42.1721C32.0211 42.1773 32.0224 42.1827 32.0233 42.1882L32.0308 42.2125L32.0318 42.2184C32.035 42.236 32.0407 42.2619 32.0491 42.2963C32.0578 42.3317 32.0639 42.3591 32.0672 42.3783L32.0735 42.4048C32.1167 42.5188 32.1599 42.6162 32.203 42.697C32.2801 42.843 32.3591 42.9599 32.4397 43.0478C32.5397 43.1594 32.6522 43.2419 32.7771 43.2953C32.8914 43.3441 33.0161 43.3685 33.1512 43.3685C33.4415 43.3685 33.6849 43.3006 33.8813 43.1648L33.8813 43.1648C33.9822 43.095 34.0707 43.0073 34.1469 42.9016L34.1469 42.7311L35.1167 43.3721L35.0628 43.455C34.8933 43.7154 34.6896 43.9237 34.4517 44.0799C34.095 44.3141 33.6615 44.4311 33.1512 44.4311C32.8551 44.4311 32.583 44.3766 32.3349 44.2674C31.9095 44.0803 31.5546 43.7328 31.2704 43.2248C31.1293 42.9791 31.028 42.6987 30.9663 42.3835L30.9644 42.3741L30.9644 42.332L30.939 42.2028L30.9286 42.151L30.9286 42.1152L30.9217 42.0809L30.9214 42.079C30.9183 42.0597 30.9153 42.0327 30.9124 41.9979C30.9098 41.9676 30.9074 41.9464 30.9051 41.9344L30.9033 41.9252L30.9033 41.8797C30.8921 41.786 30.8865 41.7145 30.8865 41.6652L30.8865 41.587L30.8781 41.5365L30.8781 41.1828C30.8781 40.5579 30.9606 40.0446 31.1258 39.643C31.2866 39.2552 31.5093 38.9398 31.7939 38.6968C31.839 38.6582 31.8857 38.6215 31.9339 38.5866C32.0864 38.4763 32.2477 38.3891 32.4177 38.3253C32.6513 38.2375 32.9014 38.1936 33.168 38.1936C33.4631 38.1936 33.7348 38.2475 33.983 38.3553C34.3303 38.5061 34.6319 38.7623 34.8876 39.124ZM34.3308 40.3713C34.2966 40.0727 34.2156 39.8426 34.1011 39.6811L34.0905 39.6727L34.0737 39.6474C33.8231 39.302 33.5556 39.1651 33.168 39.1651C32.6499 39.1651 32.254 39.4663 32.0202 40.0097C31.9001 40.3025 31.8475 40.69 31.8475 41.1913L31.8475 41.5788L31.858 41.6146L31.858 41.701L31.8664 41.7347L31.8664 41.8294C31.8748 41.8379 31.8748 41.8379 31.8748 41.8463L31.8748 41.8821C31.8748 41.8989 31.8748 41.9074 31.8833 41.9242L31.8833 41.96C31.8833 41.9685 31.8833 41.9769 31.8917 41.9937L31.8917 42.0274C31.9001 42.0717 31.9085 42.1138 31.917 42.158L31.917 42.1917C31.9254 42.2001 31.9254 42.2001 31.9254 42.2086L31.9338 42.2359C31.9443 42.2949 31.9612 42.3476 31.9696 42.3981L31.978 42.4339C32.0202 42.5455 32.0644 42.6488 32.1149 42.7435C32.1929 42.891 32.2708 43.011 32.3656 43.1142C32.5825 43.3564 32.8837 43.4681 33.1512 43.4681C33.6187 43.4681 33.9561 43.3105 34.196 43.0022C34.2133 42.98 34.2301 42.9569 34.2464 42.9331L34.2464 42.9162L34.3374 42.9764L34.9794 43.4007C34.9735 43.4097 34.9676 43.4186 34.9616 43.4275C34.949 43.4463 34.9362 43.4647 34.9232 43.4829C34.5178 44.0493 33.9094 44.3316 33.1512 44.3316C32.3656 44.3316 31.7716 43.9167 31.3567 43.1753C31.2177 42.9331 31.1229 42.6656 31.064 42.3644L31.064 42.3223C31.0555 42.2781 31.0471 42.2359 31.0366 42.1833L31.0282 42.1412L31.0282 42.1054L31.0197 42.0632C31.0113 42.0106 31.0113 41.96 31.0029 41.9158L31.0029 41.8737C30.9945 41.8042 30.986 41.7347 30.986 41.6652L30.986 41.5788L30.9776 41.5283L30.9776 41.1828C30.9776 40.5868 31.0471 40.0961 31.2177 39.6811C31.5716 38.8281 32.2792 38.2932 33.168 38.2932C33.8589 38.2932 34.3854 38.5859 34.8066 39.182C34.9625 39.3968 35.0741 39.6559 35.1436 39.957L34.436 40.4214L34.3412 40.4836C34.3384 40.4451 34.335 40.4077 34.3308 40.3713Z" fill="url(#paint_linear_20)" fill-opacity="0" fill-rule="evenodd" />
			<path id="边框" d="M36.0613 38.1936L37.1239 38.1936L37.1239 40.601L39.4185 40.601L39.4185 38.1936L40.4791 38.1936L40.4791 44.4311L39.4185 44.4311L39.4185 41.6615L37.1239 41.6615L37.1239 44.4311L36.0613 44.4311L36.0613 38.1936ZM37.0244 40.7005L39.5181 40.7005L39.5181 38.2932L40.3795 38.2932L40.3795 44.3316L39.5181 44.3316L39.5181 41.562L37.0244 41.562L37.0244 44.3316L36.1608 44.3316L36.1608 38.2932L37.0244 38.2932L37.0244 40.7005Z" fill="url(#paint_linear_21)" fill-opacity="0" fill-rule="evenodd" />
			<path id="边框" d="M41.3638 39.2541L41.6491 38.1936L45.5697 38.1936L45.5697 39.2541L44.0175 39.2541L44.0175 43.3607L45.4581 43.3691L45.4581 44.4311L41.4889 44.4311L41.4889 43.3601L42.9464 43.3601L42.9464 39.2541L41.3638 39.2541ZM43.9179 39.1546L43.9179 43.4596L45.3585 43.4681L45.3585 44.3316L41.5885 44.3316L41.5885 43.4596L43.046 43.4596L43.046 39.1546L41.4937 39.1546L41.7254 38.2932L45.4702 38.2932L45.4702 39.1546L43.9179 39.1546Z" fill="url(#paint_linear_22)" fill-opacity="0" fill-rule="evenodd" />
			<path id="边框" d="M46.4827 38.1936L48.6716 38.1936C48.9883 38.1936 49.2804 38.251 49.5478 38.3659C49.8337 38.4888 50.0914 38.6773 50.3209 38.9315C50.5393 39.1734 50.6964 39.436 50.7923 39.7194C50.8932 40.0176 50.9263 40.3387 50.8916 40.6828C50.8641 40.9639 50.7914 41.2223 50.6733 41.458C50.5562 41.6916 50.3946 41.9028 50.1885 42.0918C50.1733 42.106 50.1578 42.1199 50.1421 42.1334C49.9076 42.3353 49.6133 42.4675 49.2591 42.5302C49.2432 42.5358 49.225 42.5394 49.2045 42.541L49.1858 42.5503L49.1623 42.5503L49.1563 42.5482L49.1353 42.5587L49.0752 42.5587L49.05 42.5672L48.972 42.5672L48.9468 42.5756L48.8167 42.5756L48.7661 42.584L47.5453 42.584L47.5453 44.4311L46.4827 44.4311L46.4827 38.1936ZM50.1206 42.019C49.87 42.2528 49.5856 42.3728 49.2318 42.4339C49.215 42.4423 49.1981 42.4423 49.1791 42.4423L49.1623 42.4508C49.1454 42.4508 49.1286 42.4508 49.1117 42.4592L49.0591 42.4592L49.0338 42.4676L48.9559 42.4676L48.9306 42.476L48.8085 42.476L48.7579 42.4845L47.4458 42.4845L47.4458 44.3316L46.5822 44.3316L46.5822 38.2932L48.6716 38.2932C49.9142 38.2932 50.9231 39.38 50.7925 40.6731C50.7419 41.1913 50.525 41.6483 50.1206 42.019ZM49.9311 40.5868C49.8952 40.9069 49.7752 41.166 49.533 41.3808C49.5246 41.3893 49.5161 41.4061 49.4993 41.4166L49.4909 41.4251C49.4045 41.4925 49.3182 41.5367 49.1876 41.5704L49.1623 41.5704C49.1117 41.5788 49.0507 41.5978 48.9812 41.5978L48.9475 41.6062L48.8695 41.6062L48.8443 41.6146L48.739 41.6146L48.6968 41.623L47.4458 41.623L47.4458 39.1546L48.6884 39.1546C49.4214 39.1651 50.009 39.8201 49.9311 40.5868ZM49.4369 41.3382L49.4249 41.3502C49.3541 41.4044 49.2707 41.4446 49.1746 41.4708L49.1541 41.4708L49.1459 41.4722C49.1348 41.474 49.1181 41.4773 49.0957 41.4821C49.0455 41.4928 49.0073 41.4982 48.9812 41.4982L48.9689 41.4982L48.9352 41.5066L48.8534 41.5066L48.8281 41.5151L48.7291 41.5151L48.687 41.5235L47.5453 41.5235L47.5453 39.2541L48.6884 39.2541C48.8445 39.2564 48.989 39.2859 49.1218 39.3427C49.2767 39.4089 49.4158 39.5123 49.539 39.6528C49.6509 39.7805 49.7316 39.9186 49.7809 40.0671C49.8335 40.2252 49.8505 40.3951 49.832 40.5767C49.8104 40.7701 49.7522 40.9398 49.6576 41.0858C49.6052 41.1666 49.5416 41.2401 49.4669 41.3063L49.4647 41.3083L49.4626 41.3104C49.4575 41.3155 49.4516 41.3225 49.445 41.3312L49.4465 41.3322L49.4369 41.3382Z" fill="url(#paint_linear_23)" fill-opacity="0" fill-rule="evenodd" />
		</g>
	</g>
</svg>
