<svg viewBox="0 0 82 82" xmlns="http://www.w3.org/2000/svg" xmlns:xlink="http://www.w3.org/1999/xlink" width="82.000000" height="82.000000" fill="none" customFrame="#000000">
	<rect id="属性 1=Connector" width="82.000000" height="82.000000" x="0.000000" y="0.000000" />
	<rect id="矩形 3085" width="68.612244" height="68.612251" x="0.000000" y="0.000000" />
	<g id="connector">
		<g id="组合 29034">
			<path id="合并" d="M45 1.85714L45 6.30137C45 7.16925 45.7036 7.8728 46.5714 7.8728C47.5971 7.8728 48.4286 8.70427 48.4286 9.72994L48.4286 17.1585C48.4286 18.1842 47.5971 19.0157 46.5714 19.0157C45.7036 19.0157 45 19.7192 45 20.5871L45 32.3014C45 33.1693 45.7036 33.8729 46.5715 33.8729C47.5972 33.8729 48.4286 34.7044 48.4286 35.73L48.4286 43.1586C48.4286 44.1843 47.5972 45.0158 46.5715 45.0158C45.7036 45.0158 45 45.7193 45 46.5872L45 50.1429C45 51.1685 44.1685 52 43.1429 52L4.85714 52C3.83147 52 3 51.1685 3 50.1429L3 37.1429C3 36.5117 2.48832 36 1.85714 36C0.831471 36 0 35.1685 0 34.1429L0 17.8571C0 16.8315 0.831471 16 1.85714 16C2.48832 16 3 15.4883 3 14.8571L3 1.85714C3 0.831471 3.83147 0 4.85714 0L43.1429 0C44.1685 0 45 0.831471 45 1.85714Z" fill="rgb(0,0,0)" fill-rule="evenodd" transform="matrix(0,1,-1,0,67,17)" />
			<path id="合并" d="M45 1.85714L45 6.30137C45 7.16925 45.7036 7.8728 46.5714 7.8728C47.5971 7.8728 48.4286 8.70427 48.4286 9.72994L48.4286 17.1585C48.4286 18.1842 47.5971 19.0157 46.5714 19.0157C45.7036 19.0157 45 19.7192 45 20.5871L45 32.3014C45 33.1693 45.7036 33.8729 46.5715 33.8729C47.5972 33.8729 48.4286 34.7044 48.4286 35.73L48.4286 43.1586C48.4286 44.1843 47.5972 45.0158 46.5715 45.0158C45.7036 45.0158 45 45.7193 45 46.5872L45 50.1429C45 51.1685 44.1685 52 43.1429 52L4.85714 52C3.83147 52 3 51.1685 3 50.1429L3 37.1429C3 36.5117 2.48832 36 1.85714 36C0.831471 36 0 35.1685 0 34.1429L0 17.8571C0 16.8315 0.831471 16 1.85714 16C2.48832 16 3 15.4883 3 14.8571L3 1.85714C3 0.831471 3.83147 0 4.85714 0L43.1429 0C44.1685 0 45 0.831471 45 1.85714ZM43.7 1.85714C43.7 1.70329 43.6456 1.57197 43.5368 1.46318C43.428 1.35439 43.2967 1.3 43.1429 1.3L4.85714 1.3Q4.74175 1.3 4.64326 1.3408L4.64319 1.34082Q4.54474 1.38162 4.46318 1.46318Q4.3816 1.54477 4.3408 1.64325L4.3408 1.64326Q4.3 1.74175 4.3 1.85714L4.3 14.8571Q4.3 15.3631 4.12112 15.7949L4.12112 15.7949Q3.94224 16.2268 3.5845 16.5845Q3.22676 16.9422 2.79492 17.1211Q2.36307 17.3 1.85714 17.3Q1.74176 17.3 1.64326 17.3408Q1.54477 17.3816 1.46318 17.4632C1.35439 17.572 1.3 17.7033 1.3 17.8571L1.3 34.1429C1.3 34.2967 1.35439 34.428 1.46318 34.5368C1.57197 34.6456 1.70329 34.7 1.85714 34.7Q2.36307 34.7 2.79491 34.8789Q3.22675 35.0577 3.5845 35.4155Q3.94226 35.7733 4.12114 36.2051Q4.3 36.6369 4.3 37.1429L4.3 50.1429C4.3 50.2967 4.35439 50.428 4.46318 50.5368C4.57197 50.6456 4.70329 50.7 4.85714 50.7L43.1429 50.7C43.2967 50.7 43.428 50.6456 43.5368 50.5368C43.6456 50.428 43.7 50.2967 43.7 50.1429L43.7 46.5872C43.7 45.7943 43.9803 45.1175 44.541 44.5568C45.1017 43.9961 45.7786 43.7158 46.5715 43.7158C46.7253 43.7158 46.8567 43.6614 46.9655 43.5526C47.0742 43.4438 47.1286 43.3125 47.1286 43.1586L47.1286 35.73C47.1286 35.5762 47.0742 35.4449 46.9655 35.3361C46.8567 35.2273 46.7253 35.1729 46.5715 35.1729C45.7786 35.1729 45.1017 34.8926 44.541 34.3319C43.9803 33.7712 43.7 33.0943 43.7 32.3014L43.7 20.5871C43.7 19.7942 43.9803 19.1174 44.541 18.5567C45.1017 17.996 45.7785 17.7157 46.5714 17.7157C46.7253 17.7157 46.8566 17.6613 46.9654 17.5525C47.0742 17.4437 47.1286 17.3124 47.1286 17.1585L47.1286 9.72994C47.1286 9.57609 47.0742 9.44478 46.9654 9.33599C46.8566 9.2272 46.7253 9.1728 46.5714 9.1728C45.7785 9.1728 45.1017 8.89246 44.541 8.33178C43.9803 7.7711 43.7 7.0943 43.7 6.30137L43.7 1.85714Z" fill="rgb(255,255,255)" fill-rule="evenodd" transform="matrix(0,1,-1,0,67,17)" />
			<rect id="矩形 6030" width="34.000000" height="44.000000" x="0.000000" y="0.000000" rx="0.836735" fill="rgb(255,255,255)" fill-opacity="0.150000006" transform="matrix(0,1,-1,0,63,24)" />
		</g>
		<g id="Connector">
			<path id="矢量 15424" d="M22.9152 38C23.5193 38 23.9797 38.256 24.348 38.7771C24.4842 38.965 24.5818 39.1915 24.6426 39.4548L23.941 39.9152C23.9189 39.6058 23.8434 39.372 23.731 39.2136L23.7218 39.2062L23.7071 39.1841C23.488 38.8821 23.2541 38.7624 22.9152 38.7624C22.4622 38.7624 22.116 39.0258 21.9116 39.5009C21.8066 39.7569 21.7606 40.0957 21.7606 40.534L21.7606 40.8728L21.7698 40.9042L21.7698 40.9797L21.7771 41.0091L21.7771 41.092C21.7845 41.0994 21.7845 41.0994 21.7845 41.1067L21.7845 41.138C21.7845 41.1528 21.7845 41.1601 21.7919 41.1749L21.7919 41.2062C21.7919 41.2135 21.7919 41.2209 21.7992 41.2356L21.7992 41.2651C21.8066 41.3038 21.814 41.3406 21.8213 41.3793L21.8213 41.4087C21.8287 41.4161 21.8287 41.4161 21.8287 41.4235L21.8361 41.4474C21.8453 41.499 21.86 41.545 21.8674 41.5892L21.8747 41.6205C21.9116 41.7181 21.9502 41.8084 21.9944 41.8912C22.0626 42.0201 22.1307 42.1251 22.2136 42.2153C22.4033 42.4271 22.6666 42.5247 22.9005 42.5247C23.3388 42.5247 23.6463 42.3664 23.8581 42.057L23.8581 42.0422L24.499 42.4658C24.1454 43.0091 23.5948 43.2798 22.9005 43.2798C22.2136 43.2798 21.6943 42.917 21.3315 42.2688C21.2099 42.057 21.1271 41.8231 21.0755 41.5597L21.0755 41.5229C21.0681 41.4842 21.0608 41.4474 21.0516 41.4014L21.0442 41.3645L21.0442 41.3332L21.0368 41.2964C21.0295 41.2504 21.0295 41.2062 21.0221 41.1675L21.0221 41.1307C21.0147 41.0699 21.0074 41.0091 21.0074 40.9483L21.0074 40.8728L21 40.8286L21 40.5266C21 40.0055 21.0608 39.5764 21.2099 39.2136C21.5193 38.4678 22.1381 38 22.9152 38Z" fill="rgb(230,230,230)" fill-rule="evenodd" />
			<path id="矢量 15425" d="M27.3132 39.162C27.9541 39.162 28.4439 39.3867 28.7386 39.825C28.9725 40.1638 29.0848 40.6168 29.0848 41.2209C29.0848 41.801 28.9577 42.2761 28.7091 42.6241C28.4071 43.0532 27.9246 43.2797 27.3132 43.2797C26.7092 43.2797 26.2267 43.0532 25.9173 42.6241C25.6687 42.2761 25.5398 41.801 25.5398 41.2209C25.5398 40.6168 25.654 40.1638 25.8879 39.825C26.1899 39.3867 26.6797 39.162 27.3132 39.162ZM27.3132 42.5928C27.6594 42.5928 27.8933 42.4418 28.0591 42.2153C28.2266 41.9906 28.3095 41.6426 28.3095 41.2209C28.3095 41.1601 28.3095 41.0919 28.3003 41.0385L28.3003 40.9796C28.3003 40.9483 28.2929 40.9188 28.2929 40.8894L28.2856 40.8286C28.2561 40.5726 28.188 40.3682 28.083 40.2246C27.9246 39.9981 27.6834 39.847 27.3132 39.847C26.9504 39.847 26.7018 39.9981 26.5508 40.2246C26.4458 40.3682 26.3777 40.5726 26.3482 40.8286L26.3409 40.8894C26.3317 40.9188 26.3317 40.9483 26.3317 40.987L26.3243 41.0385L26.3243 41.2356C26.3243 41.6499 26.4072 41.9906 26.5655 42.2153C26.7331 42.4418 26.9744 42.5928 27.3132 42.5928Z" fill="rgb(230,230,230)" fill-rule="evenodd" />
			<path id="矢量 15426" d="M32.0885 39.1694C32.5488 39.1694 32.9172 39.313 33.1823 39.5763C33.4825 39.8857 33.6409 40.3608 33.6335 40.9796L33.6335 43.2797L32.8951 43.2797L32.8951 40.9796C32.8951 40.5634 32.8122 40.2706 32.6464 40.1049C32.5249 39.976 32.3371 39.9152 32.0719 39.9078L32.0572 39.9078C31.5599 39.9078 31.0554 40.3222 30.8509 40.5413L30.8509 43.2797L30.1033 43.2797L30.1033 39.162L30.8509 39.162L30.8509 39.696C31.28 39.3646 31.6354 39.162 32.0885 39.1694Z" fill="rgb(230,230,230)" fill-rule="evenodd" />
			<path id="矢量 15427" d="M36.6444 39.1694C37.1048 39.1694 37.4731 39.313 37.7382 39.5763C38.0384 39.8857 38.1968 40.3608 38.1894 40.9796L38.1894 43.2797L37.451 43.2797L37.451 40.9796C37.451 40.5634 37.3681 40.2706 37.2024 40.1049C37.0808 39.976 36.893 39.9152 36.6278 39.9078L36.6131 39.9078C36.1158 39.9078 35.6113 40.3222 35.4068 40.5413L35.4068 43.2797L34.6592 43.2797L34.6592 39.162L35.4068 39.162L35.4068 39.696C35.8359 39.3646 36.1913 39.162 36.6444 39.1694Z" fill="rgb(230,230,230)" fill-rule="evenodd" />
			<path id="矢量 15428" d="M40.9426 42.6168C41.344 42.6168 41.6148 42.51 41.8026 42.2761L41.8339 42.2392L42.5042 42.6002L42.4674 42.6389C42.1359 43.0606 41.6074 43.2797 40.9426 43.2797C40.3257 43.2797 39.8045 43.009 39.4491 42.4879C39.3367 42.3221 39.2612 42.1416 39.2078 41.9299L39.2005 41.9078C39.1931 41.8765 39.1857 41.8396 39.1857 41.8083L39.171 41.7254C39.1636 41.696 39.1636 41.6573 39.1563 41.6278L39.1563 41.5984C39.1489 41.5523 39.1397 41.5063 39.1397 41.4621L39.1323 41.3037L39.1323 41.138C39.1323 40.7071 39.2005 40.3829 39.3367 40.1049C39.6388 39.5156 40.2409 39.162 40.9592 39.162C41.5319 39.162 41.9775 39.3572 42.3311 39.7642C42.5503 40.0128 42.6552 40.4437 42.67 40.8654L42.67 41.4621L39.9334 41.4621L39.9481 41.5744L39.9481 41.5984C39.9481 41.6057 39.9481 41.6131 39.9555 41.6205L39.9555 41.6426C39.9555 41.6499 39.9555 41.6573 39.9629 41.6647L39.9629 41.6886C39.9702 41.7181 39.9776 41.7494 39.9776 41.7789L39.9923 41.8323C39.9997 41.8691 40.0163 41.8986 40.0236 41.9372L40.031 41.952C40.0605 42.0201 40.0918 42.0809 40.136 42.1564C40.1968 42.254 40.2649 42.3295 40.333 42.3976C40.4914 42.5321 40.7179 42.6168 40.9426 42.6168ZM40.9592 39.825C40.5595 39.825 40.2409 40.0128 40.0678 40.3682C40.0089 40.4879 39.9629 40.6316 39.9408 40.8065L41.9462 40.8065L41.9462 40.7899C41.9389 40.5119 41.8339 40.278 41.7124 40.1343L41.6903 40.1122C41.4932 39.8931 41.2685 39.825 40.9592 39.825Z" fill="rgb(230,230,230)" fill-rule="evenodd" />
			<path id="矢量 15429" d="M45.5981 42.6168C45.9978 42.6168 46.2685 42.51 46.4582 42.2761L46.4876 42.2392L47.1506 42.6002L47.1211 42.6389C46.7823 43.0606 46.2611 43.2871 45.5981 43.2871C44.972 43.2871 44.4582 43.009 44.1046 42.4879C43.9905 42.3221 43.9076 42.1416 43.8634 41.9299L43.8542 41.9078C43.8468 41.8765 43.8394 41.8396 43.8321 41.8083L43.8173 41.7254C43.8173 41.696 43.81 41.6573 43.81 41.6278L43.8026 41.5984C43.8026 41.5523 43.7952 41.5063 43.7952 41.4621L43.7879 41.3037L43.7805 41.1527L43.7805 41.138C43.7879 40.7071 43.8468 40.3829 43.9905 40.1049C44.2851 39.5156 44.8965 39.162 45.6129 39.162C46.1782 39.162 46.6313 39.3572 46.9848 39.7642C47.1432 39.9465 47.25 40.1804 47.2942 40.4585L46.5337 40.7899C46.5245 40.5119 46.4655 40.2927 46.344 40.1564L46.3219 40.1343C46.1248 39.9152 45.9149 39.825 45.6129 39.825C45.2133 39.825 44.8965 40.0128 44.7142 40.3682C44.624 40.5561 44.5798 40.8065 44.5724 41.138L44.5724 41.1675L44.5798 41.3406L44.5798 41.394L44.5871 41.5063L44.6019 41.5984L44.6019 41.6205L44.6092 41.6426L44.6092 41.6647L44.6166 41.6886C44.6166 41.7181 44.624 41.7494 44.6313 41.7789L44.6479 41.8323C44.6553 41.8691 44.6626 41.8986 44.6774 41.9372L44.6847 41.952C44.7068 42.0201 44.7381 42.0809 44.7897 42.1564C44.8505 42.254 44.9112 42.3295 44.9867 42.3976C45.1378 42.5321 45.3716 42.6168 45.5981 42.6168Z" fill="rgb(230,230,230)" fill-rule="evenodd" />
			<path id="矢量 15430" d="M51.1727 42.5634L51.565 42.556L51.7823 43.2798L51.1801 43.2798C50.8468 43.2798 50.4711 43.1435 50.1764 42.917C49.9351 42.7218 49.6184 42.3737 49.4894 41.7789C49.4821 41.7568 49.4747 41.7329 49.4747 41.696C49.4526 41.5745 49.4452 41.4474 49.4452 41.3259L49.4452 39.8784L48.2297 39.8784L48.4415 39.162L49.4526 39.162L49.4526 38L50.1764 38L50.1764 39.162L51.7602 39.162L51.7602 39.8784L50.169 39.8784L50.169 41.3259C50.169 41.4161 50.1764 41.499 50.1838 41.5818C50.1911 41.6132 50.1911 41.6205 50.1911 41.6205C50.2593 41.9299 50.4029 42.1785 50.6221 42.3443C50.7878 42.4732 51.0143 42.5634 51.1727 42.5634Z" fill="rgb(230,230,230)" fill-rule="evenodd" />
			<path id="矢量 15431" d="M54.6116 39.162C55.2524 39.162 55.7423 39.3867 56.0369 39.825C56.2708 40.1638 56.3832 40.6168 56.3832 41.2209C56.3832 41.801 56.2561 42.2761 56.0075 42.6241C55.7055 43.0532 55.223 43.2797 54.6116 43.2797C54.0075 43.2797 53.525 43.0532 53.2157 42.6241C52.967 42.2761 52.8381 41.801 52.8381 41.2209C52.8381 40.6168 52.9523 40.1638 53.1862 39.825C53.4882 39.3867 53.9781 39.162 54.6116 39.162ZM54.6116 42.5928C54.9578 42.5928 55.1917 42.4418 55.3574 42.2153C55.525 41.9906 55.6079 41.6426 55.6079 41.2209C55.6079 41.1601 55.6079 41.0919 55.5986 41.0385L55.5986 40.9796C55.5986 40.9483 55.5913 40.9188 55.5913 40.8894L55.5839 40.8286C55.5544 40.5726 55.4863 40.3682 55.3813 40.2246C55.223 39.9981 54.9817 39.847 54.6116 39.847C54.2488 39.847 54.0002 39.9981 53.8492 40.2246C53.7442 40.3682 53.676 40.5726 53.6466 40.8286L53.6392 40.8894C53.63 40.9188 53.63 40.9483 53.63 40.987L53.6226 41.0385L53.6226 41.2356C53.6226 41.6499 53.7055 41.9906 53.8639 42.2153C54.0315 42.4418 54.2727 42.5928 54.6116 42.5928Z" fill="rgb(230,230,230)" fill-rule="evenodd" />
			<path id="矢量 15432" d="M59.6041 39.1841C59.9964 39.162 60.3445 39.2743 60.6004 39.5229C60.8048 39.7126 60.9393 39.9686 61.0001 40.2393L60.3224 40.4658L60.3224 40.429C60.3224 40.2927 60.2229 40.1417 60.1106 40.0515C59.989 39.9539 59.838 39.9078 59.6502 39.9078C59.2045 39.8931 58.8657 40.1049 58.6244 40.3387C58.3537 40.6021 58.2101 40.8507 58.1861 40.9115L58.1861 43.2871L57.4624 43.2871L57.4624 39.162L58.1861 39.162L58.1861 39.9226C58.6171 39.5156 59.1217 39.2136 59.6041 39.1841Z" fill="rgb(230,230,230)" fill-rule="evenodd" />
		</g>
	</g>
</svg>
