<svg viewBox="0 0 52 52" xmlns="http://www.w3.org/2000/svg" xmlns:xlink="http://www.w3.org/1999/xlink" width="52.000000" height="52.000000" fill="none" customFrame="#000000">
	<defs>
		<clipPath id="clipPath_28">
			<rect width="25.252510" height="4.552032" x="0.000000" y="0.000000" fill="rgb(255,255,255)" transform="matrix(0,-1,1,0,0,38.1929)" />
		</clipPath>
		<linearGradient id="paint_linear_196" x1="1.41114271" x2="1.42086494" y1="4.74481153" y2="-0.431328297" gradientUnits="userSpaceOnUse">
			<stop stop-color="rgb(0,0,0)" offset="0" stop-opacity="0.5" />
			<stop stop-color="rgb(242,241,241)" offset="0.463651955" stop-opacity="1" />
			<stop stop-color="rgb(243,242,242)" offset="1" stop-opacity="0" />
		</linearGradient>
		<linearGradient id="paint_linear_197" x1="1.41114271" x2="1.42086494" y1="4.74481153" y2="-0.431328297" gradientUnits="userSpaceOnUse">
			<stop stop-color="rgb(0,0,0)" offset="0" stop-opacity="0.5" />
			<stop stop-color="rgb(242,241,241)" offset="0.463651955" stop-opacity="1" />
			<stop stop-color="rgb(243,242,242)" offset="1" stop-opacity="0" />
		</linearGradient>
		<linearGradient id="paint_linear_198" x1="1.41114271" x2="1.42086494" y1="4.74481153" y2="-0.431328297" gradientUnits="userSpaceOnUse">
			<stop stop-color="rgb(0,0,0)" offset="0" stop-opacity="0.5" />
			<stop stop-color="rgb(242,241,241)" offset="0.463651955" stop-opacity="1" />
			<stop stop-color="rgb(243,242,242)" offset="1" stop-opacity="0" />
		</linearGradient>
		<linearGradient id="paint_linear_199" x1="1.41114271" x2="1.42086494" y1="4.74481153" y2="-0.431328297" gradientUnits="userSpaceOnUse">
			<stop stop-color="rgb(0,0,0)" offset="0" stop-opacity="0.5" />
			<stop stop-color="rgb(242,241,241)" offset="0.463651955" stop-opacity="1" />
			<stop stop-color="rgb(243,242,242)" offset="1" stop-opacity="0" />
		</linearGradient>
		<clipPath id="clipPath_29">
			<rect width="25.252510" height="4.551926" x="0.000000" y="0.000000" fill="rgb(255,255,255)" transform="matrix(1,0,0,-1,12.9404,52)" />
		</clipPath>
		<linearGradient id="paint_linear_200" x1="1.41114271" x2="1.42086494" y1="4.74481153" y2="-0.431328297" gradientUnits="userSpaceOnUse">
			<stop stop-color="rgb(0,0,0)" offset="0" stop-opacity="0.5" />
			<stop stop-color="rgb(242,241,241)" offset="0.463651955" stop-opacity="1" />
			<stop stop-color="rgb(243,242,242)" offset="1" stop-opacity="0" />
		</linearGradient>
		<linearGradient id="paint_linear_201" x1="1.41114271" x2="1.42086494" y1="4.74481153" y2="-0.431328297" gradientUnits="userSpaceOnUse">
			<stop stop-color="rgb(0,0,0)" offset="0" stop-opacity="0.5" />
			<stop stop-color="rgb(242,241,241)" offset="0.463651955" stop-opacity="1" />
			<stop stop-color="rgb(243,242,242)" offset="1" stop-opacity="0" />
		</linearGradient>
		<linearGradient id="paint_linear_202" x1="1.41114271" x2="1.42086494" y1="4.74481153" y2="-0.431328297" gradientUnits="userSpaceOnUse">
			<stop stop-color="rgb(0,0,0)" offset="0" stop-opacity="0.5" />
			<stop stop-color="rgb(242,241,241)" offset="0.463651955" stop-opacity="1" />
			<stop stop-color="rgb(243,242,242)" offset="1" stop-opacity="0" />
		</linearGradient>
		<linearGradient id="paint_linear_203" x1="1.41114271" x2="1.42086494" y1="4.74481153" y2="-0.431328297" gradientUnits="userSpaceOnUse">
			<stop stop-color="rgb(0,0,0)" offset="0" stop-opacity="0.5" />
			<stop stop-color="rgb(242,241,241)" offset="0.463651955" stop-opacity="1" />
			<stop stop-color="rgb(243,242,242)" offset="1" stop-opacity="0" />
		</linearGradient>
		<clipPath id="clipPath_30">
			<rect width="25.252510" height="4.551926" x="0.000000" y="0.000000" fill="rgb(255,255,255)" transform="matrix(0,1,-1,0,52,12.9404)" />
		</clipPath>
		<linearGradient id="paint_linear_204" x1="1.41114271" x2="1.42086494" y1="4.74481153" y2="-0.431328297" gradientUnits="userSpaceOnUse">
			<stop stop-color="rgb(0,0,0)" offset="0" stop-opacity="0.5" />
			<stop stop-color="rgb(242,241,241)" offset="0.463651955" stop-opacity="1" />
			<stop stop-color="rgb(243,242,242)" offset="1" stop-opacity="0" />
		</linearGradient>
		<linearGradient id="paint_linear_205" x1="1.41114271" x2="1.42086494" y1="4.74481153" y2="-0.431328297" gradientUnits="userSpaceOnUse">
			<stop stop-color="rgb(0,0,0)" offset="0" stop-opacity="0.5" />
			<stop stop-color="rgb(242,241,241)" offset="0.463651955" stop-opacity="1" />
			<stop stop-color="rgb(243,242,242)" offset="1" stop-opacity="0" />
		</linearGradient>
		<linearGradient id="paint_linear_206" x1="1.41114271" x2="1.42086494" y1="4.74481153" y2="-0.431328297" gradientUnits="userSpaceOnUse">
			<stop stop-color="rgb(0,0,0)" offset="0" stop-opacity="0.5" />
			<stop stop-color="rgb(242,241,241)" offset="0.463651955" stop-opacity="1" />
			<stop stop-color="rgb(243,242,242)" offset="1" stop-opacity="0" />
		</linearGradient>
		<linearGradient id="paint_linear_207" x1="1.41114271" x2="1.42086494" y1="4.74481153" y2="-0.431328297" gradientUnits="userSpaceOnUse">
			<stop stop-color="rgb(0,0,0)" offset="0" stop-opacity="0.5" />
			<stop stop-color="rgb(242,241,241)" offset="0.463651955" stop-opacity="1" />
			<stop stop-color="rgb(243,242,242)" offset="1" stop-opacity="0" />
		</linearGradient>
		<clipPath id="clipPath_31">
			<rect width="25.252510" height="4.552032" x="13.254395" y="0.000000" fill="rgb(255,255,255)" />
		</clipPath>
		<linearGradient id="paint_linear_208" x1="36.8835564" x2="36.8932762" y1="4.74481153" y2="-0.431328297" gradientUnits="userSpaceOnUse">
			<stop stop-color="rgb(0,0,0)" offset="0" stop-opacity="0.5" />
			<stop stop-color="rgb(242,241,241)" offset="0.463651955" stop-opacity="1" />
			<stop stop-color="rgb(243,242,242)" offset="1" stop-opacity="0" />
		</linearGradient>
		<linearGradient id="paint_linear_209" x1="29.4775486" x2="29.4872704" y1="4.74481153" y2="-0.431328297" gradientUnits="userSpaceOnUse">
			<stop stop-color="rgb(0,0,0)" offset="0" stop-opacity="0.5" />
			<stop stop-color="rgb(242,241,241)" offset="0.463651955" stop-opacity="1" />
			<stop stop-color="rgb(243,242,242)" offset="1" stop-opacity="0" />
		</linearGradient>
		<linearGradient id="paint_linear_210" x1="22.0717869" x2="22.0815086" y1="4.74481153" y2="-0.431328297" gradientUnits="userSpaceOnUse">
			<stop stop-color="rgb(0,0,0)" offset="0" stop-opacity="0.5" />
			<stop stop-color="rgb(242,241,241)" offset="0.463651955" stop-opacity="1" />
			<stop stop-color="rgb(243,242,242)" offset="1" stop-opacity="0" />
		</linearGradient>
		<linearGradient id="paint_linear_211" x1="14.6655369" x2="14.6752596" y1="4.74481153" y2="-0.431328297" gradientUnits="userSpaceOnUse">
			<stop stop-color="rgb(0,0,0)" offset="0" stop-opacity="0.5" />
			<stop stop-color="rgb(242,241,241)" offset="0.463651955" stop-opacity="1" />
			<stop stop-color="rgb(243,242,242)" offset="1" stop-opacity="0" />
		</linearGradient>
		<linearGradient id="paint_linear_212" x1="18.0670223" x2="18.0670223" y1="23.1936035" y2="29.4311447" gradientUnits="userSpaceOnUse">
			<stop stop-color="rgb(42,44,68)" offset="0" stop-opacity="1" />
			<stop stop-color="rgb(86.1143,88.7724,120.67)" offset="0.530903637" stop-opacity="1" />
			<stop stop-color="rgb(37,40,64)" offset="1" stop-opacity="1" />
		</linearGradient>
		<linearGradient id="paint_linear_213" x1="23.2701778" x2="23.2701778" y1="23.1936035" y2="29.4311447" gradientUnits="userSpaceOnUse">
			<stop stop-color="rgb(42,44,68)" offset="0" stop-opacity="1" />
			<stop stop-color="rgb(86.1143,88.7724,120.67)" offset="0.530903637" stop-opacity="1" />
			<stop stop-color="rgb(37,40,64)" offset="1" stop-opacity="1" />
		</linearGradient>
		<linearGradient id="paint_linear_214" x1="28.4667187" x2="28.4667187" y1="23.1936035" y2="29.4311447" gradientUnits="userSpaceOnUse">
			<stop stop-color="rgb(42,44,68)" offset="0" stop-opacity="1" />
			<stop stop-color="rgb(86.1143,88.7724,120.67)" offset="0.530903637" stop-opacity="1" />
			<stop stop-color="rgb(37,40,64)" offset="1" stop-opacity="1" />
		</linearGradient>
		<linearGradient id="paint_linear_215" x1="33.6937866" x2="33.6937866" y1="23.1936035" y2="29.4311447" gradientUnits="userSpaceOnUse">
			<stop stop-color="rgb(42,44,68)" offset="0" stop-opacity="1" />
			<stop stop-color="rgb(86.1143,88.7724,120.67)" offset="0.530903637" stop-opacity="1" />
			<stop stop-color="rgb(37,40,64)" offset="1" stop-opacity="1" />
		</linearGradient>
	</defs>
	<g id="CHIP浅色">
		<g id="画板 2494" customFrame="url(#clipPath_28)">
			<rect id="画板 2494" width="25.252510" height="4.552032" x="0.000000" y="0.000000" fill="rgb(255,255,255)" fill-opacity="0" transform="matrix(0,-1,1,0,0,38.1929)" />
			<path id="矩形 3067" d="M0.758672 0L2.27602 0C2.69502 0 3.03469 0.339669 3.03469 0.758672L3.03469 4.55203L0 4.55203L0 0.758672C0 0.339669 0.339669 0 0.758672 0Z" fill="rgb(182,182,182)" fill-rule="evenodd" transform="matrix(0,-1,1,0,0,15.9751)" />
			<path id="矩形 3067" d="M0.758672 0L2.27602 0C2.69502 0 3.03469 0.339669 3.03469 0.758672L3.03469 4.55203L0 4.55203L0 0.758672C0 0.339669 0.339669 0 0.758672 0Z" fill="url(#paint_linear_196)" fill-opacity="0.600000024" fill-rule="evenodd" transform="matrix(0,-1,1,0,0,15.9751)" />
			<path id="矩形 3067" d="M0.758672 0L2.27602 0C2.69502 0 3.03469 0.339669 3.03469 0.758672L3.03469 4.55203L0 4.55203L0 0.758672C0 0.339669 0.339669 0 0.758672 0Z" fill="rgb(182,182,182)" fill-rule="evenodd" transform="matrix(0,-1,1,0,0,23.381)" />
			<path id="矩形 3067" d="M0.758672 0L2.27602 0C2.69502 0 3.03469 0.339669 3.03469 0.758672L3.03469 4.55203L0 4.55203L0 0.758672C0 0.339669 0.339669 0 0.758672 0Z" fill="url(#paint_linear_197)" fill-opacity="0.600000024" fill-rule="evenodd" transform="matrix(0,-1,1,0,0,23.381)" />
			<path id="矩形 3067" d="M0.758672 0L2.27602 0C2.69502 0 3.03469 0.339669 3.03469 0.758672L3.03469 4.55203L0 4.55203L0 0.758672C0 0.339669 0.339669 0 0.758672 0Z" fill="rgb(182,182,182)" fill-rule="evenodd" transform="matrix(0,-1,1,0,0,30.787)" />
			<path id="矩形 3067" d="M0.758672 0L2.27602 0C2.69502 0 3.03469 0.339669 3.03469 0.758672L3.03469 4.55203L0 4.55203L0 0.758672C0 0.339669 0.339669 0 0.758672 0Z" fill="url(#paint_linear_198)" fill-opacity="0.600000024" fill-rule="evenodd" transform="matrix(0,-1,1,0,0,30.787)" />
			<path id="矩形 3067" d="M0.758672 0L2.27602 0C2.69502 0 3.03469 0.339669 3.03469 0.758672L3.03469 4.55203L0 4.55203L0 0.758672C0 0.339669 0.339669 0 0.758672 0Z" fill="rgb(182,182,182)" fill-rule="evenodd" transform="matrix(0,-1,1,0,0,38.1929)" />
			<path id="矩形 3067" d="M0.758672 0L2.27602 0C2.69502 0 3.03469 0.339669 3.03469 0.758672L3.03469 4.55203L0 4.55203L0 0.758672C0 0.339669 0.339669 0 0.758672 0Z" fill="url(#paint_linear_199)" fill-opacity="0.600000024" fill-rule="evenodd" transform="matrix(0,-1,1,0,0,38.1929)" />
		</g>
		<g id="画板 1659" customFrame="url(#clipPath_29)">
			<rect id="画板 1659" width="25.252510" height="4.551926" x="0.000000" y="0.000000" fill="rgb(255,255,255)" fill-opacity="0" transform="matrix(1,0,0,-1,12.9404,52)" />
			<path id="矩形 3067" d="M0.758672 0L2.27602 0C2.69502 0 3.03469 0.339669 3.03469 0.758672L3.03469 4.55203L0 4.55203L0 0.758672C0 0.339669 0.339669 0 0.758672 0Z" fill="rgb(182,182,182)" fill-rule="evenodd" transform="matrix(1,0,0,-1,35.1582,52)" />
			<path id="矩形 3067" d="M0.758672 0L2.27602 0C2.69502 0 3.03469 0.339669 3.03469 0.758672L3.03469 4.55203L0 4.55203L0 0.758672C0 0.339669 0.339669 0 0.758672 0Z" fill="url(#paint_linear_200)" fill-opacity="0.600000024" fill-rule="evenodd" transform="matrix(1,0,0,-1,35.1582,52)" />
			<path id="矩形 3067" d="M0.758672 0L2.27602 0C2.69502 0 3.03469 0.339669 3.03469 0.758672L3.03469 4.55203L0 4.55203L0 0.758672C0 0.339669 0.339669 0 0.758672 0Z" fill="rgb(182,182,182)" fill-rule="evenodd" transform="matrix(1,0,0,-1,27.7524,52)" />
			<path id="矩形 3067" d="M0.758672 0L2.27602 0C2.69502 0 3.03469 0.339669 3.03469 0.758672L3.03469 4.55203L0 4.55203L0 0.758672C0 0.339669 0.339669 0 0.758672 0Z" fill="url(#paint_linear_201)" fill-opacity="0.600000024" fill-rule="evenodd" transform="matrix(1,0,0,-1,27.7524,52)" />
			<path id="矩形 3067" d="M0.758672 0L2.27602 0C2.69502 0 3.03469 0.339669 3.03469 0.758672L3.03469 4.55203L0 4.55203L0 0.758672C0 0.339669 0.339669 0 0.758672 0Z" fill="rgb(182,182,182)" fill-rule="evenodd" transform="matrix(1,0,0,-1,20.3462,52)" />
			<path id="矩形 3067" d="M0.758672 0L2.27602 0C2.69502 0 3.03469 0.339669 3.03469 0.758672L3.03469 4.55203L0 4.55203L0 0.758672C0 0.339669 0.339669 0 0.758672 0Z" fill="url(#paint_linear_202)" fill-opacity="0.600000024" fill-rule="evenodd" transform="matrix(1,0,0,-1,20.3462,52)" />
			<path id="矩形 3067" d="M0.758672 0L2.27602 0C2.69502 0 3.03469 0.339669 3.03469 0.758672L3.03469 4.55203L0 4.55203L0 0.758672C0 0.339669 0.339669 0 0.758672 0Z" fill="rgb(182,182,182)" fill-rule="evenodd" transform="matrix(1,0,0,-1,12.9404,52)" />
			<path id="矩形 3067" d="M0.758672 0L2.27602 0C2.69502 0 3.03469 0.339669 3.03469 0.758672L3.03469 4.55203L0 4.55203L0 0.758672C0 0.339669 0.339669 0 0.758672 0Z" fill="url(#paint_linear_203)" fill-opacity="0.600000024" fill-rule="evenodd" transform="matrix(1,0,0,-1,12.9404,52)" />
		</g>
		<g id="画板 2495" customFrame="url(#clipPath_30)">
			<rect id="画板 2495" width="25.252510" height="4.551926" x="0.000000" y="0.000000" fill="rgb(255,255,255)" fill-opacity="0" transform="matrix(0,1,-1,0,52,12.9404)" />
			<path id="矩形 3067" d="M0.758672 0L2.27602 0C2.69502 0 3.03469 0.339669 3.03469 0.758672L3.03469 4.55203L0 4.55203L0 0.758672C0 0.339669 0.339669 0 0.758672 0Z" fill="rgb(182,182,182)" fill-rule="evenodd" transform="matrix(0,1,-1,0,52,35.1582)" />
			<path id="矩形 3067" d="M0.758672 0L2.27602 0C2.69502 0 3.03469 0.339669 3.03469 0.758672L3.03469 4.55203L0 4.55203L0 0.758672C0 0.339669 0.339669 0 0.758672 0Z" fill="url(#paint_linear_204)" fill-opacity="0.600000024" fill-rule="evenodd" transform="matrix(0,1,-1,0,52,35.1582)" />
			<path id="矩形 3067" d="M0.758672 0L2.27602 0C2.69502 0 3.03469 0.339669 3.03469 0.758672L3.03469 4.55203L0 4.55203L0 0.758672C0 0.339669 0.339669 0 0.758672 0Z" fill="rgb(182,182,182)" fill-rule="evenodd" transform="matrix(0,1,-1,0,52,27.7523)" />
			<path id="矩形 3067" d="M0.758672 0L2.27602 0C2.69502 0 3.03469 0.339669 3.03469 0.758672L3.03469 4.55203L0 4.55203L0 0.758672C0 0.339669 0.339669 0 0.758672 0Z" fill="url(#paint_linear_205)" fill-opacity="0.600000024" fill-rule="evenodd" transform="matrix(0,1,-1,0,52,27.7523)" />
			<path id="矩形 3067" d="M0.758672 0L2.27602 0C2.69502 0 3.03469 0.339669 3.03469 0.758672L3.03469 4.55203L0 4.55203L0 0.758672C0 0.339669 0.339669 0 0.758672 0Z" fill="rgb(182,182,182)" fill-rule="evenodd" transform="matrix(0,1,-1,0,52,20.3463)" />
			<path id="矩形 3067" d="M0.758672 0L2.27602 0C2.69502 0 3.03469 0.339669 3.03469 0.758672L3.03469 4.55203L0 4.55203L0 0.758672C0 0.339669 0.339669 0 0.758672 0Z" fill="url(#paint_linear_206)" fill-opacity="0.600000024" fill-rule="evenodd" transform="matrix(0,1,-1,0,52,20.3463)" />
			<path id="矩形 3067" d="M0.758672 0L2.27602 0C2.69502 0 3.03469 0.339669 3.03469 0.758672L3.03469 4.55203L0 4.55203L0 0.758672C0 0.339669 0.339669 0 0.758672 0Z" fill="rgb(182,182,182)" fill-rule="evenodd" transform="matrix(0,1,-1,0,52,12.9404)" />
			<path id="矩形 3067" d="M0.758672 0L2.27602 0C2.69502 0 3.03469 0.339669 3.03469 0.758672L3.03469 4.55203L0 4.55203L0 0.758672C0 0.339669 0.339669 0 0.758672 0Z" fill="url(#paint_linear_207)" fill-opacity="0.600000024" fill-rule="evenodd" transform="matrix(0,1,-1,0,52,12.9404)" />
		</g>
		<g id="画板 1659" customFrame="url(#clipPath_31)">
			<rect id="画板 1659" width="25.252510" height="4.552032" x="13.254395" y="0.000000" fill="rgb(255,255,255)" fill-opacity="0" />
			<path id="矩形 3067" d="M36.2311 0L37.7484 0C38.1674 0 38.5071 0.339669 38.5071 0.758672L38.5071 4.55203L35.4724 4.55203L35.4724 0.758672C35.4724 0.339669 35.8121 0 36.2311 0Z" fill="rgb(182,182,182)" fill-rule="evenodd" />
			<path id="矩形 3067" d="M36.2311 0L37.7484 0C38.1674 0 38.5071 0.339669 38.5071 0.758672L38.5071 4.55203L35.4724 4.55203L35.4724 0.758672C35.4724 0.339669 35.8121 0 36.2311 0Z" fill="url(#paint_linear_208)" fill-opacity="0.600000024" fill-rule="evenodd" />
			<path id="矩形 3067" d="M28.8251 0L30.3424 0C30.7614 0 31.1011 0.339669 31.1011 0.758672L31.1011 4.55203L28.0664 4.55203L28.0664 0.758672C28.0664 0.339669 28.4061 0 28.8251 0Z" fill="rgb(182,182,182)" fill-rule="evenodd" />
			<path id="矩形 3067" d="M28.8251 0L30.3424 0C30.7614 0 31.1011 0.339669 31.1011 0.758672L31.1011 4.55203L28.0664 4.55203L28.0664 0.758672C28.0664 0.339669 28.4061 0 28.8251 0Z" fill="url(#paint_linear_209)" fill-opacity="0.600000024" fill-rule="evenodd" />
			<path id="矩形 3067" d="M21.4193 0L22.9367 0C23.3557 0 23.6953 0.339669 23.6953 0.758672L23.6953 4.55203L20.6606 4.55203L20.6606 0.758672C20.6606 0.339669 21.0003 0 21.4193 0Z" fill="rgb(182,182,182)" fill-rule="evenodd" />
			<path id="矩形 3067" d="M21.4193 0L22.9367 0C23.3557 0 23.6953 0.339669 23.6953 0.758672L23.6953 4.55203L20.6606 4.55203L20.6606 0.758672C20.6606 0.339669 21.0003 0 21.4193 0Z" fill="url(#paint_linear_210)" fill-opacity="0.600000024" fill-rule="evenodd" />
			<path id="矩形 3067" d="M14.0131 0L15.5304 0C15.9494 0 16.2891 0.339669 16.2891 0.758672L16.2891 4.55203L13.2544 4.55203L13.2544 0.758672C13.2544 0.339669 13.5941 0 14.0131 0Z" fill="rgb(182,182,182)" fill-rule="evenodd" />
			<path id="矩形 3067" d="M14.0131 0L15.5304 0C15.9494 0 16.2891 0.339669 16.2891 0.758672L16.2891 4.55203L13.2544 4.55203L13.2544 0.758672C13.2544 0.339669 13.5941 0 14.0131 0Z" fill="url(#paint_linear_211)" fill-opacity="0.600000024" fill-rule="evenodd" />
		</g>
		<rect id="矩形 5798" width="43.134644" height="43.134647" x="4.313477" y="4.313477" rx="3.450772" fill="rgb(0,0,0)" />
		<rect id="矩形 5798" width="41.840603" height="41.840607" x="4.960496" y="4.960496" rx="2.803752" stroke="rgb(255,255,255)" stroke-width="1.294039" />
		<rect id="矩形 5800" width="34.507717" height="34.507717" x="8.626953" y="8.626953" rx="0.862693" fill="rgb(255,255,255)" fill-opacity="0.150000006" />
		<g id="CpldRegister">
			<g id="组合 91334920">
				<path id="矢量 15404" d="M21.3311 20.4147C21.7509 20.4147 22.0709 20.5926 22.3269 20.9548C22.4216 21.0853 22.4894 21.2428 22.5316 21.4258L22.044 21.7458C22.0286 21.5307 21.9762 21.3682 21.8981 21.2581L21.8917 21.253L21.8815 21.2376C21.7291 21.0277 21.5666 20.9446 21.3311 20.9446C21.0162 20.9446 20.7756 21.1276 20.6336 21.4578C20.5606 21.6357 20.5286 21.8712 20.5286 22.1758L20.5286 22.4113L20.535 22.4331L20.535 22.4856L20.5401 22.506L20.5401 22.5636C20.5452 22.5687 20.5452 22.5687 20.5452 22.5739L20.5452 22.5956C20.5452 22.6059 20.5452 22.611 20.5504 22.6212L20.5504 22.643C20.5504 22.6481 20.5504 22.6532 20.5555 22.6635L20.5555 22.6839C20.5606 22.7108 20.5657 22.7364 20.5708 22.7633L20.5708 22.7838C20.576 22.7889 20.576 22.7889 20.576 22.794L20.5811 22.8106C20.5875 22.8465 20.5977 22.8785 20.6028 22.9092L20.608 22.931C20.6336 22.9988 20.6604 23.0615 20.6911 23.1191C20.7385 23.2087 20.7859 23.2816 20.8435 23.3444C20.9753 23.4916 21.1583 23.5594 21.3209 23.5594C21.6255 23.5594 21.8392 23.4493 21.9864 23.2343L21.9864 23.2241L22.4318 23.5184C22.1861 23.896 21.8034 24.0841 21.3209 24.0841C20.8435 24.0841 20.4825 23.832 20.2304 23.3815C20.1459 23.2343 20.0883 23.0717 20.0525 22.8887L20.0525 22.8631C20.0474 22.8362 20.0422 22.8106 20.0358 22.7786L20.0307 22.753L20.0307 22.7313L20.0256 22.7057C20.0205 22.6737 20.0205 22.643 20.0154 22.6161L20.0154 22.5905C20.0102 22.5483 20.0051 22.506 20.0051 22.4638L20.0051 22.4113L20 22.3806L20 22.1707C20 21.8085 20.0422 21.5103 20.1459 21.2581C20.3609 20.7398 20.791 20.4147 21.3311 20.4147Z" fill="rgb(230,230,230)" fill-rule="evenodd" />
				<path id="矢量 15405" d="M24.6128 21.2107C24.943 21.2158 25.2105 21.3207 25.3948 21.5204C25.6252 21.7559 25.7199 22.113 25.6981 22.6058C25.6725 23.2982 25.3206 23.7794 24.687 23.9944C24.4298 24.084 24.0049 24.0994 23.754 24.0994L23.754 25.2999L23.2344 25.2999L23.2344 21.2107L23.754 21.2107L23.754 21.4999C24.0317 21.29 24.3453 21.2055 24.6128 21.2107ZM24.513 23.4966C24.943 23.3507 25.1529 23.0614 25.1747 22.5789C25.19 22.2435 25.1376 22.008 25.0121 21.8775C24.9277 21.7879 24.792 21.7098 24.6026 21.7034L24.5923 21.7034C24.3248 21.7034 23.9575 21.7879 23.754 21.976L23.754 23.5759C23.9153 23.5708 24.3248 23.5644 24.513 23.4966Z" fill="rgb(230,230,230)" fill-rule="evenodd" />
				<path id="矢量 15406" d="M28.4717 23.5812L28.5715 23.5812L28.7175 24.0842L28.3463 24.0842C27.9585 24.0842 27.6795 24.0317 27.4913 23.9216C27.2968 23.8064 27.1509 23.5914 27.1035 23.3508C27.051 23.0986 27.051 22.8631 27.051 22.8363L27.051 20.4979L26.3279 20.4979L26.4738 20L27.554 20L27.554 22.8414C27.554 22.8414 27.554 23.0462 27.5963 23.2561C27.6167 23.3713 27.6859 23.4545 27.7486 23.4916C27.801 23.5236 27.9738 23.5965 28.4397 23.5863C28.4564 23.5863 28.4666 23.5812 28.4717 23.5812Z" fill="rgb(230,230,230)" fill-rule="evenodd" />
				<path id="矢量 15407" d="M31.8689 23.9319C31.8791 23.9843 31.8842 24.0112 31.8893 24.0419L31.9009 24.0842L31.3659 24.0842L31.3608 24.0637C31.3608 24.0586 31.3236 23.8115 31.3032 23.6695C31.0037 23.9267 30.6888 24.0893 30.4162 24.0842C30.086 24.079 29.8249 23.9638 29.6406 23.7693C29.4153 23.5287 29.3206 23.1818 29.3424 22.6955C29.368 22.0082 29.7148 21.5308 30.3433 21.3209C30.6005 21.2325 31.0254 21.2159 31.2712 21.2159L31.2712 20L31.7959 20L31.7959 22.4638L31.7908 22.4638L31.7908 23.2868C31.7908 23.3393 31.7908 23.4916 31.801 23.576C31.8062 23.6388 31.842 23.8013 31.8689 23.9319ZM31.266 23.2241L31.2712 22.3064L31.2712 21.7099C31.0037 21.7099 30.6683 21.7407 30.5109 21.7983C30.086 21.9403 29.8825 22.2437 29.8607 22.7159C29.8454 23.0513 29.8979 23.2817 30.0182 23.4135C30.1078 23.5018 30.2383 23.5543 30.4277 23.5543C30.8155 23.5543 31.1713 23.3137 31.266 23.2241Z" fill="rgb(230,230,230)" fill-rule="evenodd" />
			</g>
			<g id="组合 91334919">
				<path id="矢量 15408" d="M14 31.0869L14 27.4104L15.4234 27.4104C16.0697 27.4104 16.5583 27.8041 16.5583 28.3978C16.5583 28.7761 16.4057 29.1018 16.0697 29.3224C15.9697 29.3852 15.8594 29.4327 15.744 29.4635L16.5904 31.0869L15.9864 31.0869L15.1875 29.5263L14.5258 29.5263L14.5258 31.0869L14 31.0869ZM14.5258 27.9349L14.5258 29.0018L15.3349 29.0018L15.3503 28.9967L15.408 28.9967L15.4183 28.9916L15.4555 28.9916L15.4709 28.9864L15.4811 28.9864L15.4978 28.9813L15.5132 28.9813C15.6183 28.9595 15.7068 28.9287 15.7863 28.8761C15.9594 28.7659 16.0274 28.6081 16.0274 28.3978C16.0274 28.1247 15.8068 27.9413 15.4337 27.9349L14.5258 27.9349Z" fill="rgb(230,230,230)" fill-rule="evenodd" />
				<path id="矢量 15409" d="M18.4378 30.6252C18.7174 30.6252 18.9059 30.5508 19.0367 30.388L19.0585 30.3623L19.5252 30.6137L19.4996 30.6406C19.2688 30.9342 18.9007 31.0868 18.4378 31.0868C18.0082 31.0868 17.6453 30.8983 17.3978 30.5354C17.3196 30.42 17.267 30.2943 17.2298 30.1469L17.2247 30.1315C17.2196 30.1097 17.2144 30.084 17.2144 30.0622L17.2042 30.0045C17.199 29.984 17.199 29.9571 17.1939 29.9366L17.1939 29.916C17.1888 29.884 17.1824 29.8519 17.1824 29.8212L17.1772 29.7109L17.1772 29.5955C17.1772 29.2954 17.2247 29.0697 17.3196 28.8761C17.5299 28.4657 17.9492 28.2195 18.4493 28.2195C18.8482 28.2195 19.1585 28.3554 19.4047 28.6388C19.5573 28.8119 19.6304 29.112 19.6407 29.4057L19.6407 29.8212L17.7351 29.8212L17.7453 29.8994L17.7453 29.916C17.7453 29.9212 17.7453 29.9263 17.7505 29.9314L17.7505 29.9468C17.7505 29.952 17.7505 29.9571 17.7556 29.9622L17.7556 29.9789C17.7607 29.9994 17.7659 30.0212 17.7659 30.0417L17.7761 30.0789C17.7812 30.1046 17.7928 30.1251 17.7979 30.152L17.803 30.1623C17.8236 30.2097 17.8454 30.252 17.8761 30.3046C17.9185 30.3726 17.9659 30.4251 18.0133 30.4726C18.1236 30.5662 18.2814 30.6252 18.4378 30.6252ZM18.4493 28.6811C18.1711 28.6811 17.9492 28.8119 17.8287 29.0594C17.7877 29.1428 17.7556 29.2428 17.7402 29.3646L19.1367 29.3646L19.1367 29.3531C19.1316 29.1595 19.0585 28.9966 18.9738 28.8966L18.9584 28.8812C18.8212 28.7286 18.6648 28.6811 18.4493 28.6811Z" fill="rgb(230,230,230)" fill-rule="evenodd" />
				<path id="矢量 15410" d="M21.1644 30.5881C21.8428 30.5881 22.4827 30.6458 22.7251 31.0549C22.8713 31.3075 22.8828 31.5653 22.761 31.7858C22.5353 32.1898 21.9582 32.2847 21.5171 32.2949C21.4427 32.3 21.3747 32.3 21.3068 32.3C20.7028 32.3 20.5078 32.2218 20.4027 32.1744L20.3668 32.159L20.5553 31.6909L20.5976 31.7063L20.602 31.7079C20.6807 31.737 20.9394 31.8327 21.5004 31.8012C21.6171 31.7961 22.1942 31.7589 22.3147 31.5383C22.357 31.4652 22.3519 31.3601 22.2942 31.2921C22.2519 31.2395 22.1313 31.1293 21.7158 31.0818C21.417 31.0446 21.1118 31.0613 20.849 31.0767C20.7656 31.0818 20.6079 31.1075 20.6079 31.1075L20.4194 30.7086L20.8708 30.147C20.5245 29.952 20.3193 29.6212 20.3193 29.2647C20.3193 28.9698 20.4347 28.7017 20.6502 28.5132C20.8759 28.3132 21.1862 28.208 21.5581 28.208C21.6056 28.208 21.653 28.208 21.7004 28.2132C21.9313 28.1555 22.2147 28.0247 22.6622 27.7887L22.6827 27.7784L22.7148 28.335C22.7148 28.335 22.5622 28.4132 22.4199 28.476C22.6622 28.671 22.793 28.9441 22.793 29.2647C22.793 29.852 22.2519 30.3201 21.5581 30.3201C21.5004 30.3201 21.3747 30.315 21.317 30.3098L21.1644 30.5881ZM20.9913 28.8915C20.8861 28.9864 20.8284 29.1172 20.8284 29.2647C20.8284 29.5686 21.149 29.811 21.5581 29.811C21.9633 29.811 22.2839 29.5686 22.2839 29.2647C22.2839 29.1172 22.2313 28.9864 22.1262 28.8915C21.9941 28.7761 21.8005 28.7133 21.5581 28.7133C21.317 28.7133 21.117 28.7761 20.9913 28.8915Z" fill="rgb(230,230,230)" fill-rule="evenodd" />
				<path id="矢量 15411" d="M25.1732 27L25.1732 27.5514L24.3845 27.5514L24.3845 27L25.1732 27ZM25.1732 28.1977L25.1732 30.5727L26.0811 30.5727L26.0811 31.092L23.7549 31.092L23.7549 30.5727L24.6679 30.5727L24.6679 28.7235L23.7959 28.7235L23.9434 28.1977L25.1732 28.1977Z" fill="rgb(230,230,230)" fill-rule="evenodd" />
				<path id="矢量 15412" d="M28.7866 29.6686C29.0123 29.7891 29.1328 29.9943 29.1431 30.2674C29.1533 30.4726 29.0751 30.6611 28.9276 30.8086C28.7391 30.9919 28.4557 31.092 28.1031 31.092C28.0608 31.092 28.0133 31.0868 27.9723 31.0868C27.4414 31.0715 27.0105 30.9663 26.7066 30.8291L26.6797 30.8188L26.89 30.3572L26.9156 30.3674C27.2785 30.5303 27.6671 30.5931 27.9877 30.6085C28.2454 30.6188 28.466 30.5457 28.5711 30.4457C28.6288 30.3931 28.6494 30.3097 28.6391 30.2572C28.6186 30.1571 28.5814 30.0097 28.1351 29.9366C28.0082 29.916 27.8505 29.8891 27.7197 29.8519C27.5465 29.8058 27.326 29.784 27.1311 29.6314C26.8951 29.4531 26.7848 29.2479 26.8002 28.9863C26.822 28.6286 27.1054 28.2195 27.8453 28.2195L27.862 28.2195C28.4032 28.2195 28.6596 28.3298 29.0225 28.4811L29.0802 28.508L29.0802 28.5131L28.7289 28.8761C28.4442 28.7594 28.2134 28.6709 27.8569 28.6657C27.4619 28.6657 27.3157 28.8696 27.3106 29.012C27.2939 29.2479 27.6466 29.3698 27.8671 29.4275C27.9774 29.4582 28.0877 29.4749 28.198 29.4954C28.4083 29.5262 28.6186 29.5737 28.7866 29.6686Z" fill="rgb(230,230,230)" fill-rule="evenodd" />
				<path id="矢量 15413" d="M31.9066 30.5881L32.1798 30.583L32.3311 31.0869L31.9118 31.0869C31.6797 31.0869 31.4181 30.992 31.2129 30.8343C31.0449 30.6984 30.8243 30.456 30.7346 30.0418C30.7294 30.0264 30.7243 30.0097 30.7243 29.9841C30.7089 29.8995 30.7038 29.811 30.7038 29.7263L30.7038 28.7184L29.8574 28.7184L30.0049 28.2196L30.7089 28.2196L30.7089 27.4104L31.2129 27.4104L31.2129 28.2196L32.3157 28.2196L32.3157 28.7184L31.2077 28.7184L31.2077 29.7263C31.2077 29.7892 31.2129 29.8469 31.218 29.9046C31.2231 29.9264 31.2231 29.9315 31.2231 29.9315C31.2706 30.147 31.3706 30.3201 31.5232 30.4355C31.6386 30.5253 31.7964 30.5881 31.9066 30.5881Z" fill="rgb(230,230,230)" fill-rule="evenodd" />
				<path id="矢量 15414" d="M34.2747 30.6252C34.5543 30.6252 34.7428 30.5508 34.8736 30.388L34.8954 30.3623L35.3622 30.6137L35.3365 30.6406C35.1057 30.9342 34.7377 31.0868 34.2747 31.0868C33.8451 31.0868 33.4822 30.8983 33.2347 30.5354C33.1565 30.42 33.1039 30.2943 33.0667 30.1469L33.0616 30.1315C33.0565 30.1097 33.0513 30.084 33.0513 30.0622L33.0411 30.0045C33.036 29.984 33.036 29.9571 33.0308 29.9366L33.0308 29.916C33.0257 29.884 33.0193 29.8519 33.0193 29.8212L33.0142 29.7109L33.0142 29.5955C33.0142 29.2954 33.0616 29.0697 33.1565 28.8761C33.3668 28.4657 33.7861 28.2195 34.2863 28.2195C34.6851 28.2195 34.9954 28.3554 35.2416 28.6388C35.3942 28.8119 35.4673 29.112 35.4776 29.4057L35.4776 29.8212L33.572 29.8212L33.5822 29.8994L33.5822 29.916C33.5822 29.9212 33.5822 29.9263 33.5874 29.9314L33.5874 29.9468C33.5874 29.952 33.5874 29.9571 33.5925 29.9622L33.5925 29.9789C33.5976 29.9994 33.6028 30.0212 33.6028 30.0417L33.613 30.0789C33.6182 30.1046 33.6297 30.1251 33.6348 30.152L33.64 30.1623C33.6605 30.2097 33.6823 30.252 33.713 30.3046C33.7554 30.3726 33.8028 30.4251 33.8503 30.4726C33.9605 30.5662 34.1183 30.6252 34.2747 30.6252ZM34.2863 28.6811C34.008 28.6811 33.7861 28.8119 33.6656 29.0594C33.6246 29.1428 33.5925 29.2428 33.5771 29.3646L34.9736 29.3646L34.9736 29.3531C34.9685 29.1595 34.8954 28.9966 34.8107 28.8966L34.7954 28.8812C34.6581 28.7286 34.5017 28.6811 34.2863 28.6811Z" fill="rgb(230,230,230)" fill-rule="evenodd" />
				<path id="矢量 15415" d="M37.778 28.2349C38.0511 28.2195 38.2935 28.2977 38.4718 28.4708C38.6141 28.6029 38.7077 28.7812 38.75 28.9697L38.2781 29.1274L38.2781 29.1017C38.2781 29.0069 38.2089 28.9017 38.1307 28.8389C38.046 28.7709 37.9409 28.7388 37.8101 28.7388C37.4997 28.7286 37.2638 28.8761 37.0958 29.0389C36.9073 29.2223 36.8073 29.3954 36.7906 29.4377L36.7906 31.092L36.2866 31.092L36.2866 28.2195L36.7906 28.2195L36.7906 28.7491C37.0907 28.4657 37.442 28.2554 37.778 28.2349Z" fill="rgb(230,230,230)" fill-rule="evenodd" />
			</g>
		</g>
		<g id="CHIP(边框)">
			<path id="边框" d="M19.8875 24.124C20.0498 24.3479 20.1675 24.6181 20.2405 24.9347L20.2561 25.0022L19.2538 25.6599L19.2418 25.4907C19.219 25.1721 19.1476 24.9252 19.0275 24.7499L19.0162 24.7408L18.9919 24.7043C18.8657 24.5309 18.718 24.4088 18.5489 24.338C18.4321 24.2891 18.3052 24.2647 18.1679 24.2647C17.9944 24.2647 17.8375 24.2989 17.6974 24.3673C17.4505 24.4878 17.2554 24.7146 17.1122 25.0475C17.002 25.3161 16.9469 25.6974 16.9469 26.1913L16.9469 26.5645L16.9574 26.6003L16.9574 26.6887L16.9658 26.7224L16.9658 26.802C16.9669 26.8046 16.9679 26.8072 16.9687 26.8099C16.9724 26.8214 16.9743 26.8335 16.9743 26.8463L16.9743 26.8821L16.9722 26.8797L16.9827 26.9007L16.9827 26.9534L16.9911 26.9702L16.9911 27.0179L17.0016 27.0721L17.0164 27.1485L17.0164 27.1642C17.0174 27.1668 17.0184 27.1695 17.0193 27.1721C17.0209 27.1773 17.0222 27.1827 17.0232 27.1882L17.0306 27.2125L17.0317 27.2184C17.0348 27.236 17.0406 27.2619 17.049 27.2963C17.0577 27.3317 17.0637 27.3591 17.0671 27.3783L17.0733 27.4048C17.1166 27.5188 17.1598 27.6162 17.2028 27.697C17.28 27.843 17.3589 27.9599 17.4396 28.0478C17.5396 28.1594 17.6521 28.2419 17.777 28.2953C17.8913 28.3441 18.016 28.3685 18.1511 28.3685C18.4414 28.3685 18.6848 28.3006 18.8812 28.1648L18.8812 28.1648C18.9821 28.095 19.0706 28.0073 19.1467 27.9016L19.1467 27.7311L20.1166 28.3721L20.0627 28.455C19.8932 28.7154 19.6895 28.9237 19.4515 29.0799C19.0949 29.3141 18.6614 29.4311 18.1511 29.4311C17.855 29.4311 17.5828 29.3766 17.3347 29.2674C16.9093 29.0803 16.5545 28.7328 16.2703 28.2248C16.1292 27.9791 16.0278 27.6987 15.9661 27.3835L15.9643 27.3741L15.9643 27.332L15.9388 27.2028L15.9285 27.151L15.9285 27.1152L15.9216 27.0809L15.9213 27.079C15.9182 27.0597 15.9152 27.0327 15.9122 26.9979C15.9097 26.9676 15.9072 26.9464 15.905 26.9344L15.9032 26.9252L15.9032 26.8797C15.892 26.786 15.8864 26.7145 15.8864 26.6652L15.8864 26.587L15.8779 26.5365L15.8779 26.1828C15.8779 25.5579 15.9605 25.0446 16.1256 24.643C16.2865 24.2552 16.5092 23.9398 16.7938 23.6968C16.8389 23.6582 16.8856 23.6215 16.9338 23.5866C17.0863 23.4763 17.2476 23.3891 17.4176 23.3253C17.6512 23.2375 17.9013 23.1936 18.1679 23.1936C18.463 23.1936 18.7346 23.2475 18.9829 23.3553C19.3302 23.5061 19.6317 23.7623 19.8875 24.124ZM19.3307 25.3713C19.2965 25.0727 19.2155 24.8426 19.101 24.6811L19.0904 24.6727L19.0736 24.6474C18.8229 24.302 18.5555 24.1651 18.1679 24.1651C17.6498 24.1651 17.2538 24.4663 17.02 25.0097C16.9 25.3025 16.8473 25.69 16.8473 26.1913L16.8473 26.5788L16.8579 26.6146L16.8579 26.701L16.8663 26.7347L16.8663 26.8294C16.8747 26.8379 16.8747 26.8379 16.8747 26.8463L16.8747 26.8821C16.8747 26.8989 16.8747 26.9074 16.8831 26.9242L16.8831 26.96C16.8831 26.9685 16.8831 26.9769 16.8916 26.9937L16.8916 27.0274C16.9 27.0717 16.9084 27.1138 16.9168 27.158L16.9168 27.1917C16.9253 27.2001 16.9253 27.2001 16.9253 27.2086L16.9337 27.2359C16.9442 27.2949 16.9611 27.3476 16.9695 27.3981L16.9779 27.4339C17.02 27.5455 17.0643 27.6487 17.1148 27.7435C17.1928 27.891 17.2707 28.011 17.3655 28.1142C17.5824 28.3564 17.8836 28.4681 18.1511 28.4681C18.6186 28.4681 18.956 28.3105 19.1958 28.0022C19.2132 27.98 19.23 27.9569 19.2463 27.9331L19.2463 27.9162L19.3373 27.9764L19.9792 28.4007C19.9734 28.4097 19.9674 28.4186 19.9615 28.4275C19.9489 28.4463 19.9361 28.4647 19.9231 28.4829C19.5177 29.0493 18.9093 29.3316 18.1511 29.3316C17.3655 29.3316 16.7715 28.9167 16.3566 28.1753C16.2176 27.9331 16.1228 27.6656 16.0638 27.3644L16.0638 27.3223C16.0554 27.2781 16.047 27.2359 16.0365 27.1833L16.028 27.1412L16.028 27.1054L16.0196 27.0632C16.0112 27.0106 16.0112 26.96 16.0028 26.9158L16.0028 26.8737C15.9943 26.8042 15.9859 26.7347 15.9859 26.6652L15.9859 26.5788L15.9775 26.5283L15.9775 26.1828C15.9775 25.5868 16.047 25.0961 16.2176 24.6811C16.5714 23.8281 17.2791 23.2932 18.1679 23.2932C18.8587 23.2932 19.3853 23.5859 19.8065 24.182C19.9624 24.3968 20.074 24.6559 20.1435 24.957L19.4359 25.4214L19.3411 25.4836C19.3383 25.4451 19.3348 25.4077 19.3307 25.3713Z" fill="url(#paint_linear_212)" fill-opacity="0" fill-rule="evenodd" />
			<path id="边框" d="M21.0613 23.1936L22.1239 23.1936L22.1239 25.601L24.4185 25.601L24.4185 23.1936L25.4791 23.1936L25.4791 29.4311L24.4185 29.4311L24.4185 26.6615L22.1239 26.6615L22.1239 29.4311L21.0613 29.4311L21.0613 23.1936ZM22.0244 25.7005L24.5181 25.7005L24.5181 23.2932L25.3795 23.2932L25.3795 29.3316L24.5181 29.3316L24.5181 26.562L22.0244 26.562L22.0244 29.3316L21.1608 29.3316L21.1608 23.2932L22.0244 23.2932L22.0244 25.7005Z" fill="url(#paint_linear_213)" fill-opacity="0" fill-rule="evenodd" />
			<path id="边框" d="M26.3638 24.2541L26.649 23.1936L30.5697 23.1936L30.5697 24.2541L29.0174 24.2541L29.0174 28.3607L30.458 28.3691L30.458 29.4311L26.4889 29.4311L26.4889 28.3601L27.9463 28.3601L27.9463 24.2541L26.3638 24.2541ZM28.9179 24.1546L28.9179 28.4596L30.3585 28.4681L30.3585 29.3316L26.5884 29.3316L26.5884 28.4596L28.0459 28.4596L28.0459 24.1546L26.4936 24.1546L26.7253 23.2932L30.4701 23.2932L30.4701 24.1546L28.9179 24.1546Z" fill="url(#paint_linear_214)" fill-opacity="0" fill-rule="evenodd" />
			<path id="边框" d="M31.4827 23.1936L33.6716 23.1936C33.9883 23.1936 34.2804 23.251 34.5478 23.3659C34.8337 23.4888 35.0914 23.6773 35.3209 23.9315C35.5393 24.1734 35.6964 24.436 35.7923 24.7194C35.8932 25.0176 35.9263 25.3387 35.8916 25.6828C35.8641 25.9639 35.7914 26.2223 35.6733 26.458C35.5562 26.6916 35.3946 26.9028 35.1885 27.0918C35.1733 27.106 35.1578 27.1199 35.1421 27.1334C34.9076 27.3353 34.6133 27.4675 34.2591 27.5302C34.2432 27.5358 34.225 27.5394 34.2045 27.541L34.1858 27.5503L34.1623 27.5503L34.1563 27.5482L34.1353 27.5587L34.0752 27.5587L34.05 27.5672L33.972 27.5672L33.9468 27.5756L33.8167 27.5756L33.7661 27.584L32.5453 27.584L32.5453 29.4311L31.4827 29.4311L31.4827 23.1936ZM35.1206 27.019C34.87 27.2528 34.5856 27.3728 34.2318 27.4339C34.215 27.4423 34.1981 27.4423 34.1791 27.4423L34.1623 27.4508C34.1454 27.4508 34.1286 27.4508 34.1117 27.4592L34.0591 27.4592L34.0338 27.4676L33.9559 27.4676L33.9306 27.476L33.8085 27.476L33.7579 27.4845L32.4458 27.4845L32.4458 29.3316L31.5822 29.3316L31.5822 23.2932L33.6716 23.2932C34.9142 23.2932 35.9231 24.3799 35.7925 25.6731C35.7419 26.1913 35.525 26.6483 35.1206 27.019ZM34.9311 25.5868C34.8952 25.9069 34.7752 26.166 34.533 26.3808C34.5246 26.3892 34.5161 26.4061 34.4993 26.4166L34.4909 26.4251C34.4045 26.4925 34.3182 26.5367 34.1876 26.5704L34.1623 26.5704C34.1117 26.5788 34.0507 26.5978 33.9812 26.5978L33.9475 26.6062L33.8695 26.6062L33.8443 26.6146L33.739 26.6146L33.6968 26.623L32.4458 26.623L32.4458 24.1546L33.6884 24.1546C34.4214 24.1651 35.009 24.8201 34.9311 25.5868ZM34.4369 26.3382L34.4249 26.3502C34.3541 26.4044 34.2707 26.4446 34.1746 26.4708L34.1541 26.4708L34.1459 26.4722C34.1348 26.474 34.1181 26.4773 34.0957 26.4821C34.0455 26.4928 34.0073 26.4982 33.9812 26.4982L33.9689 26.4982L33.9352 26.5066L33.8534 26.5066L33.8281 26.5151L33.7291 26.5151L33.687 26.5235L32.5453 26.5235L32.5453 24.2541L33.6884 24.2541C33.8445 24.2564 33.989 24.2859 34.1218 24.3427C34.2767 24.4089 34.4158 24.5123 34.539 24.6528C34.6509 24.7805 34.7316 24.9186 34.7809 25.0671C34.8335 25.2252 34.8505 25.3951 34.832 25.5767C34.8104 25.7701 34.7522 25.9398 34.6576 26.0858C34.6052 26.1666 34.5416 26.2401 34.4669 26.3063L34.4647 26.3083L34.4626 26.3104C34.4575 26.3155 34.4516 26.3225 34.445 26.3312L34.4465 26.3322L34.4369 26.3382Z" fill="url(#paint_linear_215)" fill-opacity="0" fill-rule="evenodd" />
		</g>
	</g>
</svg>
