<svg viewBox="0 0 82 60" xmlns="http://www.w3.org/2000/svg" xmlns:xlink="http://www.w3.org/1999/xlink" width="82.000000" height="60.000000" fill="none" customFrame="url(#clipPath_7)">
	<defs>
		<clipPath id="clipPath_7">
			<rect width="82.000000" height="60.000000" x="0.000000" y="0.000000" rx="4.000000" fill="rgb(255,255,255)" />
		</clipPath>
		<g id="pixso_custom_effect_0">
			<effect visibility="visible" effectType="backgroundBlur" saturation="0" stdDeviation="9.90869999" />
		</g>
		<filter id="filter_0" width="82.000000" height="60.000000" x="0.000000" y="0.000000" filterUnits="userSpaceOnUse" customEffect="url(#pixso_custom_effect_0)" color-interpolation-filters="sRGB">
			<feFlood flood-opacity="0" result="BackgroundImageFix" />
			<feBlend result="shape" in="SourceGraphic" in2="BackgroundImageFix" mode="normal" />
		</filter>
		<clipPath id="outline_mask_0" transform="matrix(1,0,0,1,-0,-0)">
			<path d="" fill="rgb(255,255,255)" fill-rule="nonzero" />
		</clipPath>
		<linearGradient id="paint_linear_40" x1="40.9999924" x2="40.9999924" y1="0" y2="42.2448959" gradientUnits="userSpaceOnUse">
			<stop stop-color="rgb(24,27,32)" offset="0.0133746602" stop-opacity="0.5" />
			<stop stop-color="rgb(31,35,41)" offset="1" stop-opacity="1" />
		</linearGradient>
		<clipPath id="clipPath_8">
			<rect width="29.271729" height="5.276538" x="26.000000" y="5.000000" fill="rgb(255,255,255)" />
		</clipPath>
		<linearGradient id="paint_linear_41" x1="53.3897705" x2="53.4010391" y1="10.5000019" y2="4.50002146" gradientUnits="userSpaceOnUse">
			<stop stop-color="rgb(0,0,0)" offset="0" stop-opacity="0.5" />
			<stop stop-color="rgb(242,241,241)" offset="0.463651955" stop-opacity="1" />
			<stop stop-color="rgb(243,242,242)" offset="1" stop-opacity="0" />
		</linearGradient>
		<linearGradient id="paint_linear_42" x1="44.8051758" x2="44.8164444" y1="10.5000019" y2="4.50002146" gradientUnits="userSpaceOnUse">
			<stop stop-color="rgb(0,0,0)" offset="0" stop-opacity="0.5" />
			<stop stop-color="rgb(242,241,241)" offset="0.463651955" stop-opacity="1" />
			<stop stop-color="rgb(243,242,242)" offset="1" stop-opacity="0" />
		</linearGradient>
		<linearGradient id="paint_linear_43" x1="36.220459" x2="36.2317276" y1="10.5000019" y2="4.50002146" gradientUnits="userSpaceOnUse">
			<stop stop-color="rgb(0,0,0)" offset="0" stop-opacity="0.5" />
			<stop stop-color="rgb(242,241,241)" offset="0.463651955" stop-opacity="1" />
			<stop stop-color="rgb(243,242,242)" offset="1" stop-opacity="0" />
		</linearGradient>
		<linearGradient id="paint_linear_44" x1="27.6357422" x2="27.6470127" y1="10.5000019" y2="4.50002146" gradientUnits="userSpaceOnUse">
			<stop stop-color="rgb(0,0,0)" offset="0" stop-opacity="0.5" />
			<stop stop-color="rgb(242,241,241)" offset="0.463651955" stop-opacity="1" />
			<stop stop-color="rgb(243,242,242)" offset="1" stop-opacity="0" />
		</linearGradient>
		<clipPath id="clipPath_9">
			<rect width="29.271729" height="5.276538" x="0.000000" y="0.000000" fill="rgb(255,255,255)" transform="matrix(1,0,0,-1,25.9999,55.2766)" />
		</clipPath>
		<linearGradient id="paint_linear_45" x1="1.63574171" x2="1.64701188" y1="5.50000143" y2="-0.499978542" gradientUnits="userSpaceOnUse">
			<stop stop-color="rgb(0,0,0)" offset="0" stop-opacity="0.5" />
			<stop stop-color="rgb(242,241,241)" offset="0.463651955" stop-opacity="1" />
			<stop stop-color="rgb(243,242,242)" offset="1" stop-opacity="0" />
		</linearGradient>
		<linearGradient id="paint_linear_46" x1="1.63574171" x2="1.64701188" y1="5.50000143" y2="-0.499978542" gradientUnits="userSpaceOnUse">
			<stop stop-color="rgb(0,0,0)" offset="0" stop-opacity="0.5" />
			<stop stop-color="rgb(242,241,241)" offset="0.463651955" stop-opacity="1" />
			<stop stop-color="rgb(243,242,242)" offset="1" stop-opacity="0" />
		</linearGradient>
		<linearGradient id="paint_linear_47" x1="1.63574171" x2="1.64701188" y1="5.50000143" y2="-0.499978542" gradientUnits="userSpaceOnUse">
			<stop stop-color="rgb(0,0,0)" offset="0" stop-opacity="0.5" />
			<stop stop-color="rgb(242,241,241)" offset="0.463651955" stop-opacity="1" />
			<stop stop-color="rgb(243,242,242)" offset="1" stop-opacity="0" />
		</linearGradient>
		<linearGradient id="paint_linear_48" x1="1.63574171" x2="1.64701188" y1="5.50000143" y2="-0.499978542" gradientUnits="userSpaceOnUse">
			<stop stop-color="rgb(0,0,0)" offset="0" stop-opacity="0.5" />
			<stop stop-color="rgb(242,241,241)" offset="0.463651955" stop-opacity="1" />
			<stop stop-color="rgb(243,242,242)" offset="1" stop-opacity="0" />
		</linearGradient>
		<linearGradient id="paint_linear_49" x1="52.716217" x2="24.7146511" y1="31.1381779" y2="22.3587875" gradientUnits="userSpaceOnUse">
			<stop stop-color="rgb(130,145.345,219)" offset="0" stop-opacity="1" />
			<stop stop-color="rgb(198.732,211.93,252.723)" offset="1" stop-opacity="1" />
		</linearGradient>
		<linearGradient id="paint_linear_50" x1="52.7162628" x2="24.7146931" y1="31.138176" y2="22.3587837" gradientUnits="userSpaceOnUse">
			<stop stop-color="rgb(130,145.345,219)" offset="0" stop-opacity="1" />
			<stop stop-color="rgb(198.732,211.93,252.723)" offset="1" stop-opacity="1" />
		</linearGradient>
		<linearGradient id="paint_linear_51" x1="52.7161751" x2="24.7146091" y1="31.1381779" y2="22.3587875" gradientUnits="userSpaceOnUse">
			<stop stop-color="rgb(130,145.345,219)" offset="0" stop-opacity="1" />
			<stop stop-color="rgb(198.732,211.93,252.723)" offset="1" stop-opacity="1" />
		</linearGradient>
		<linearGradient id="paint_linear_52" x1="52.7161903" x2="24.7146225" y1="31.138176" y2="22.3587856" gradientUnits="userSpaceOnUse">
			<stop stop-color="rgb(130,145.345,219)" offset="0" stop-opacity="1" />
			<stop stop-color="rgb(198.732,211.93,252.723)" offset="1" stop-opacity="1" />
		</linearGradient>
		<linearGradient id="paint_linear_53" x1="32.232933" x2="32.232933" y1="27.5234375" y2="34.7537498" gradientUnits="userSpaceOnUse">
			<stop stop-color="rgb(42,44,68)" offset="0" stop-opacity="1" />
			<stop stop-color="rgb(86.1143,88.7724,120.67)" offset="0.530903637" stop-opacity="1" />
			<stop stop-color="rgb(37,40,64)" offset="1" stop-opacity="1" />
		</linearGradient>
		<linearGradient id="paint_linear_54" x1="38.1751785" x2="38.1751785" y1="27.5222168" y2="34.7536278" gradientUnits="userSpaceOnUse">
			<stop stop-color="rgb(42,44,68)" offset="0" stop-opacity="1" />
			<stop stop-color="rgb(86.1143,88.7724,120.67)" offset="0.530903637" stop-opacity="1" />
			<stop stop-color="rgb(37,40,64)" offset="1" stop-opacity="1" />
		</linearGradient>
		<linearGradient id="paint_linear_55" x1="44.1973572" x2="44.1973572" y1="27.5234375" y2="34.7537498" gradientUnits="userSpaceOnUse">
			<stop stop-color="rgb(42,44,68)" offset="0" stop-opacity="1" />
			<stop stop-color="rgb(86.1143,88.7724,120.67)" offset="0.530903637" stop-opacity="1" />
			<stop stop-color="rgb(37,40,64)" offset="1" stop-opacity="1" />
		</linearGradient>
		<linearGradient id="paint_linear_56" x1="49.8372879" x2="49.8372879" y1="27.5332031" y2="34.7537498" gradientUnits="userSpaceOnUse">
			<stop stop-color="rgb(42,44,68)" offset="0" stop-opacity="1" />
			<stop stop-color="rgb(86.1143,88.7724,120.67)" offset="0.530903637" stop-opacity="1" />
			<stop stop-color="rgb(37,40,64)" offset="1" stop-opacity="1" />
		</linearGradient>
	</defs>
	<rect id="属性 1=LM75" width="82.000000" height="60.000000" x="0.000000" y="0.000000" rx="4.000000" />
	<g id="组合 4504">
		<g data-pixso-skip-parse="true">
			<foreignObject width="82.000000" height="60.000000" x="0.000000" y="0.000000">
				<div xmlns="http://www.w3.org/1999/xhtml" style="clip-path:url(#outline_mask_0);height:100%;backdrop-filter:blur(4.954350px);width:100%;-webkit-backdrop-filter:blur(4.954350px);" />
			</foreignObject>
		</g>
		<g filter="url(#filter_0)">
			<rect id="矩形 3084" width="82.000000" height="60.000000" x="0.000000" y="0.000000" rx="4.954350" fill="url(#paint_linear_40)" fill-opacity="0" />
			<rect id="矩形 3084" width="82.000000" height="60.000000" x="0.000000" y="0.000000" rx="4.954350" fill="rgb(26.5453,28.4081,30.7366)" fill-opacity="0" />
			<rect id="矩形 3084" width="81.174278" height="59.174274" x="0.412863" y="0.412863" rx="4.541488" stroke="rgb(31,35,41)" stroke-opacity="0" stroke-width="0.825725" />
		</g>
		<g id="CHIP默认">
			<g id="画板 1661" customFrame="url(#clipPath_8)">
				<rect id="画板 1661" width="29.271729" height="5.276538" x="26.000000" y="5.000000" fill="rgb(255,255,255)" fill-opacity="0" />
				<path id="矩形 3067" d="M52.6334 5L54.3923 5C54.878 5 55.2717 5.39373 55.2717 5.87942L55.2717 10.2765L51.754 10.2765L51.754 5.87942C51.754 5.39373 52.1478 5 52.6334 5Z" fill="rgb(182,182,182)" fill-rule="evenodd" />
				<path id="矩形 3067" d="M52.6334 5L54.3923 5C54.878 5 55.2717 5.39373 55.2717 5.87942L55.2717 10.2765L51.754 10.2765L51.754 5.87942C51.754 5.39373 52.1478 5 52.6334 5Z" fill="url(#paint_linear_41)" fill-opacity="0.600000024" fill-rule="evenodd" />
				<path id="矩形 3067" d="M44.0489 5L45.8077 5C46.2934 5 46.6871 5.39373 46.6871 5.87942L46.6871 10.2765L43.1694 10.2765L43.1694 5.87942C43.1694 5.39373 43.5632 5 44.0489 5Z" fill="rgb(182,182,182)" fill-rule="evenodd" />
				<path id="矩形 3067" d="M44.0489 5L45.8077 5C46.2934 5 46.6871 5.39373 46.6871 5.87942L46.6871 10.2765L43.1694 10.2765L43.1694 5.87942C43.1694 5.39373 43.5632 5 44.0489 5Z" fill="url(#paint_linear_42)" fill-opacity="0.600000024" fill-rule="evenodd" />
				<path id="矩形 3067" d="M35.4641 5L37.223 5C37.7087 5 38.1024 5.39373 38.1024 5.87942L38.1024 10.2765L34.5847 10.2765L34.5847 5.87942C34.5847 5.39373 34.9784 5 35.4641 5Z" fill="rgb(182,182,182)" fill-rule="evenodd" />
				<path id="矩形 3067" d="M35.4641 5L37.223 5C37.7087 5 38.1024 5.39373 38.1024 5.87942L38.1024 10.2765L34.5847 10.2765L34.5847 5.87942C34.5847 5.39373 34.9784 5 35.4641 5Z" fill="url(#paint_linear_43)" fill-opacity="0.600000024" fill-rule="evenodd" />
				<path id="矩形 3067" d="M26.8794 5L28.6383 5C29.124 5 29.5177 5.39373 29.5177 5.87942L29.5177 10.2765L26 10.2765L26 5.87942C26 5.39373 26.3937 5 26.8794 5Z" fill="rgb(182,182,182)" fill-rule="evenodd" />
				<path id="矩形 3067" d="M26.8794 5L28.6383 5C29.124 5 29.5177 5.39373 29.5177 5.87942L29.5177 10.2765L26 10.2765L26 5.87942C26 5.39373 26.3937 5 26.8794 5Z" fill="url(#paint_linear_44)" fill-opacity="0.600000024" fill-rule="evenodd" />
			</g>
			<g id="画板 1662" customFrame="url(#clipPath_9)">
				<rect id="画板 1662" width="29.271729" height="5.276538" x="0.000000" y="0.000000" fill="rgb(255,255,255)" fill-opacity="0" transform="matrix(1,0,0,-1,25.9999,55.2766)" />
				<path id="矩形 3067" d="M0.879423 0L2.63827 0C3.12396 0 3.51769 0.393731 3.51769 0.879423L3.51769 5.27654L0 5.27654L0 0.879423C0 0.393731 0.393731 0 0.879423 0Z" fill="rgb(182,182,182)" fill-rule="evenodd" transform="matrix(1,0,0,-1,51.7539,55.2766)" />
				<path id="矩形 3067" d="M0.879423 0L2.63827 0C3.12396 0 3.51769 0.393731 3.51769 0.879423L3.51769 5.27654L0 5.27654L0 0.879423C0 0.393731 0.393731 0 0.879423 0Z" fill="url(#paint_linear_45)" fill-opacity="0.600000024" fill-rule="evenodd" transform="matrix(1,0,0,-1,51.7539,55.2766)" />
				<path id="矩形 3067" d="M0.879423 0L2.63827 0C3.12396 0 3.51769 0.393731 3.51769 0.879423L3.51769 5.27654L0 5.27654L0 0.879423C0 0.393731 0.393731 0 0.879423 0Z" fill="rgb(182,182,182)" fill-rule="evenodd" transform="matrix(1,0,0,-1,43.1692,55.2766)" />
				<path id="矩形 3067" d="M0.879423 0L2.63827 0C3.12396 0 3.51769 0.393731 3.51769 0.879423L3.51769 5.27654L0 5.27654L0 0.879423C0 0.393731 0.393731 0 0.879423 0Z" fill="url(#paint_linear_46)" fill-opacity="0.600000024" fill-rule="evenodd" transform="matrix(1,0,0,-1,43.1692,55.2766)" />
				<path id="矩形 3067" d="M0.879423 0L2.63827 0C3.12396 0 3.51769 0.393731 3.51769 0.879423L3.51769 5.27654L0 5.27654L0 0.879423C0 0.393731 0.393731 0 0.879423 0Z" fill="rgb(182,182,182)" fill-rule="evenodd" transform="matrix(1,0,0,-1,34.5845,55.2766)" />
				<path id="矩形 3067" d="M0.879423 0L2.63827 0C3.12396 0 3.51769 0.393731 3.51769 0.879423L3.51769 5.27654L0 5.27654L0 0.879423C0 0.393731 0.393731 0 0.879423 0Z" fill="url(#paint_linear_47)" fill-opacity="0.600000024" fill-rule="evenodd" transform="matrix(1,0,0,-1,34.5845,55.2766)" />
				<path id="矩形 3067" d="M0.879423 0L2.63827 0C3.12396 0 3.51769 0.393731 3.51769 0.879423L3.51769 5.27654L0 5.27654L0 0.879423C0 0.393731 0.393731 0 0.879423 0Z" fill="rgb(182,182,182)" fill-rule="evenodd" transform="matrix(1,0,0,-1,25.9999,55.2766)" />
				<path id="矩形 3067" d="M0.879423 0L2.63827 0C3.12396 0 3.51769 0.393731 3.51769 0.879423L3.51769 5.27654L0 5.27654L0 0.879423C0 0.393731 0.393731 0 0.879423 0Z" fill="url(#paint_linear_48)" fill-opacity="0.600000024" fill-rule="evenodd" transform="matrix(1,0,0,-1,25.9999,55.2766)" />
			</g>
			<rect id="矩形 5798" width="52.000004" height="41.000004" x="15.000000" y="9.638184" rx="4.000000" fill="rgb(0,0,0)" />
			<rect id="矩形 5798" width="50.500004" height="39.500004" x="15.750000" y="10.388184" rx="3.250000" stroke="rgb(255,255,255)" stroke-width="1.500000" />
			<rect id="矩形 5800" width="44.000000" height="31.000010" x="19.000000" y="14.638184" rx="1.000000" fill="rgb(255,255,255)" fill-opacity="0.150000006" />
			<g id="LM75">
				<path id="矢量 15247" d="M34.6595 34.6382L29.7694 34.6382L29.7694 27.6387L30.8802 27.6387L30.8802 33.6372L34.3788 33.6372L34.6595 34.6382Z" fill="url(#paint_linear_49)" fill-opacity="0" fill-rule="evenodd" />
				<path id="矢量 15247" d="M34.6595 34.6382L29.7694 34.6382L29.7694 27.6387L30.8802 27.6387L30.8802 33.6372L34.3788 33.6372L34.6595 34.6382Z" fill="rgb(255,255,255)" fill-rule="evenodd" />
				<path id="矢量 15248" d="M39.1005 27.6484L40.4188 27.6484L40.4603 28.0879L40.4896 28.5591L40.5189 28.979L40.5507 29.3184L40.5604 29.5991L40.58 29.7871L40.58 29.9287L40.5897 30.0874L40.5995 30.1875L40.6093 30.3291L40.6093 30.5488L40.619 30.5781L40.619 30.7686L40.6801 34.6382L39.6693 34.6382L39.6205 30.749L39.6205 30.6294L39.6107 30.5586L39.6107 30.439L39.601 30.3389L39.601 30.1777L39.5912 30.0386L39.579 29.8872L39.5692 29.6992L39.5497 29.4575L39.5399 29.2378L39.5204 28.9985L39.5106 29.0181L39.4911 29.0693L39.4691 29.1279L39.4496 29.189L39.4301 29.2378C39.4301 29.2476 39.4203 29.2573 39.4203 29.2671L39.4008 29.3281L39.3812 29.3794C39.3812 29.3989 39.369 29.4087 39.3593 29.4282L39.3593 29.4478L38.6195 31.8574L37.7089 31.8574L36.9691 29.4478L36.9691 29.4282C36.9594 29.4087 36.9594 29.3989 36.9496 29.3794L36.9301 29.3281L36.9105 29.2671L36.891 29.2183L36.869 29.1572L36.8495 29.0986C36.8495 29.0889 36.8495 29.0791 36.8397 29.0693L36.8202 29.0278L36.8104 29.228L36.7909 29.4771L36.7689 29.7773L36.7592 30.0093L36.7396 30.2876L36.7396 30.4976L36.7299 30.5781L36.7299 30.7588L36.6688 34.6382L35.6703 34.6382L35.7289 30.7588L35.7289 30.5073L35.7411 30.439L35.7411 30.2681L35.7509 30.1191L35.7606 30.019L35.7704 29.8774L35.7802 29.7188L35.7997 29.2793L35.8192 29.0571L35.8412 28.7275L35.8607 28.4175L35.89 28.0488L35.9193 27.6387L36.8812 27.6484L37.2303 27.6484C37.2303 27.6582 37.2401 27.6582 37.2401 27.668C37.3304 27.8486 37.4305 28.0586 37.5306 28.3076L37.5404 28.3394L37.5697 28.3979L37.5892 28.4688L37.621 28.5371L37.6405 28.5981L37.6698 28.6592L37.6893 28.7275L37.7089 28.7886L37.7406 28.8472L37.7797 28.9692L37.7992 29.0181C37.7992 29.0278 37.809 29.0376 37.809 29.0474L37.8309 29.1084L37.8505 29.1572L37.8505 29.167L38.1703 30.1973L38.4803 29.167L38.4901 29.1572L38.4999 29.1084L38.5194 29.0474L38.5389 28.9888L38.5609 28.9375C38.5707 28.9277 38.5707 28.918 38.5707 28.9082L38.6 28.8472L38.6195 28.7886L38.639 28.7275L38.661 28.6592L38.6903 28.5981L38.7098 28.5371L38.7391 28.4688L38.7611 28.3979L38.7904 28.3394L38.8002 28.3076C38.8099 28.2979 38.8099 28.2881 38.8099 28.2783L38.8392 28.2173C38.9296 28.0073 39.0101 27.8071 39.1005 27.6484Z" fill="url(#paint_linear_50)" fill-opacity="0" fill-rule="evenodd" />
				<path id="矢量 15248" d="M39.1005 27.6484L40.4188 27.6484L40.4603 28.0879L40.4896 28.5591L40.5189 28.979L40.5507 29.3184L40.5604 29.5991L40.58 29.7871L40.58 29.9287L40.5897 30.0874L40.5995 30.1875L40.6093 30.3291L40.6093 30.5488L40.619 30.5781L40.619 30.7686L40.6801 34.6382L39.6693 34.6382L39.6205 30.749L39.6205 30.6294L39.6107 30.5586L39.6107 30.439L39.601 30.3389L39.601 30.1777L39.5912 30.0386L39.579 29.8872L39.5692 29.6992L39.5497 29.4575L39.5399 29.2378L39.5204 28.9985L39.5106 29.0181L39.4911 29.0693L39.4691 29.1279L39.4496 29.189L39.4301 29.2378C39.4301 29.2476 39.4203 29.2573 39.4203 29.2671L39.4008 29.3281L39.3812 29.3794C39.3812 29.3989 39.369 29.4087 39.3593 29.4282L39.3593 29.4478L38.6195 31.8574L37.7089 31.8574L36.9691 29.4478L36.9691 29.4282C36.9594 29.4087 36.9594 29.3989 36.9496 29.3794L36.9301 29.3281L36.9105 29.2671L36.891 29.2183L36.869 29.1572L36.8495 29.0986C36.8495 29.0889 36.8495 29.0791 36.8397 29.0693L36.8202 29.0278L36.8104 29.228L36.7909 29.4771L36.7689 29.7773L36.7592 30.0093L36.7396 30.2876L36.7396 30.4976L36.7299 30.5781L36.7299 30.7588L36.6688 34.6382L35.6703 34.6382L35.7289 30.7588L35.7289 30.5073L35.7411 30.439L35.7411 30.2681L35.7509 30.1191L35.7606 30.019L35.7704 29.8774L35.7802 29.7188L35.7997 29.2793L35.8192 29.0571L35.8412 28.7275L35.8607 28.4175L35.89 28.0488L35.9193 27.6387L36.8812 27.6484L37.2303 27.6484C37.2303 27.6582 37.2401 27.6582 37.2401 27.668C37.3304 27.8486 37.4305 28.0586 37.5306 28.3076L37.5404 28.3394L37.5697 28.3979L37.5892 28.4688L37.621 28.5371L37.6405 28.5981L37.6698 28.6592L37.6893 28.7275L37.7089 28.7886L37.7406 28.8472L37.7797 28.9692L37.7992 29.0181C37.7992 29.0278 37.809 29.0376 37.809 29.0474L37.8309 29.1084L37.8505 29.1572L37.8505 29.167L38.1703 30.1973L38.4803 29.167L38.4901 29.1572L38.4999 29.1084L38.5194 29.0474L38.5389 28.9888L38.5609 28.9375C38.5707 28.9277 38.5707 28.918 38.5707 28.9082L38.6 28.8472L38.6195 28.7886L38.639 28.7275L38.661 28.6592L38.6903 28.5981L38.7098 28.5371L38.7391 28.4688L38.7611 28.3979L38.7904 28.3394L38.8002 28.3076C38.8099 28.2979 38.8099 28.2881 38.8099 28.2783L38.8392 28.2173C38.9296 28.0073 39.0101 27.8071 39.1005 27.6484Z" fill="rgb(255,255,255)" fill-rule="evenodd" />
				<path id="矢量 15249" d="M41.7493 28.6372L42.0203 27.6387L46.6809 27.6387L46.6809 28.6372L44.01 34.6382L42.9211 34.6382L45.5798 28.6372L41.7493 28.6372Z" fill="url(#paint_linear_51)" fill-opacity="0" fill-rule="evenodd" />
				<path id="矢量 15249" d="M41.7493 28.6372L42.0203 27.6387L46.6809 27.6387L46.6809 28.6372L44.01 34.6382L42.9211 34.6382L45.5798 28.6372L41.7493 28.6372Z" fill="rgb(255,255,255)" fill-rule="evenodd" />
				<path id="矢量 15250" d="M48.7906 30.417C49.8307 30.1191 50.9196 30.2681 51.6007 30.8174C52.1403 31.2471 52.3991 31.8989 52.3307 32.6582C52.2501 33.5884 51.4005 34.5576 49.9503 34.6382L49.7794 34.6382C48.4611 34.6382 47.4088 33.8374 47.3698 33.7983L47.9801 33.0073C47.9809 33.0073 47.9884 33.0124 48.0019 33.0217C48.1447 33.1195 48.9689 33.684 49.899 33.6372C50.8805 33.5786 51.2907 32.9683 51.3297 32.5679C51.3688 32.1382 51.2491 31.8184 50.9708 31.5986C50.5411 31.2593 49.7697 31.1787 49.0299 31.3984C48.8688 31.4473 48.5905 31.6182 48.4293 31.728L47.6407 31.269L47.9801 28.0879L47.9899 28.0879L48.0094 27.6484L51.9108 27.6484L51.63 28.6494L48.9298 28.6494L48.7394 30.439C48.7589 30.4292 48.7711 30.4292 48.7809 30.4292C48.7809 30.417 48.7906 30.417 48.7906 30.417Z" fill="url(#paint_linear_52)" fill-opacity="0" fill-rule="evenodd" />
				<path id="矢量 15250" d="M48.7906 30.417C49.8307 30.1191 50.9196 30.2681 51.6007 30.8174C52.1403 31.2471 52.3991 31.8989 52.3307 32.6582C52.2501 33.5884 51.4005 34.5576 49.9503 34.6382L49.7794 34.6382C48.4611 34.6382 47.4088 33.8374 47.3698 33.7983L47.9801 33.0073C47.9809 33.0073 47.9884 33.0124 48.0019 33.0217C48.1447 33.1195 48.9689 33.684 49.899 33.6372C50.8805 33.5786 51.2907 32.9683 51.3297 32.5679C51.3688 32.1382 51.2491 31.8184 50.9708 31.5986C50.5411 31.2593 49.7697 31.1787 49.0299 31.3984C48.8688 31.4473 48.5905 31.6182 48.4293 31.728L47.6407 31.269L47.9801 28.0879L47.9899 28.0879L48.0094 27.6484L51.9108 27.6484L51.63 28.6494L48.9298 28.6494L48.7394 30.439C48.7589 30.4292 48.7711 30.4292 48.7809 30.4292C48.7809 30.417 48.7906 30.417 48.7906 30.417Z" fill="rgb(255,255,255)" fill-rule="evenodd" />
			</g>
			<g id="LM75(边框)">
				<path id="边框" d="M29.6541 34.7537L29.6541 27.5234L30.9957 27.5234L30.9957 33.522L34.4663 33.522L34.8118 34.7537L29.6541 34.7537ZM30.8803 33.6374L34.3788 33.6374L34.6272 34.5229L34.6596 34.6383L29.7695 34.6383L29.7695 27.6388L30.8803 27.6388L30.8803 33.6374Z" fill="url(#paint_linear_53)" fill-opacity="0" fill-rule="evenodd" />
				<path id="边框" d="M40.5754 28.0789L40.5238 27.5331L39.0333 27.5331L39.0001 27.5914C38.948 27.6831 38.874 27.8414 38.7783 28.0662C38.759 28.1115 38.7443 28.1459 38.7341 28.1696L38.6945 28.2521L38.6945 28.2586L38.6829 28.2963L38.6537 28.3548L38.6307 28.4288L38.6016 28.4967L38.5828 28.5554L38.5535 28.6164L38.5291 28.6923L38.5096 28.7534L38.4928 28.8038L38.4552 28.882L38.4552 28.8911L38.431 28.9478L38.4099 29.0109L38.388 29.0794L38.3838 29.1004L38.3782 29.106L38.1685 29.8025L37.9658 29.1495L37.9658 29.135L37.9388 29.0675L37.9206 29.0169C37.919 29.0105 37.917 29.0041 37.9146 28.9977L37.9146 28.9959L37.8883 28.9302L37.87 28.8731L37.8472 28.8018L37.8154 28.7432L37.7998 28.6941L37.778 28.6181L37.748 28.5554L37.7287 28.4951L37.6979 28.4289L37.6779 28.3565L37.6479 28.2963L37.6395 28.2691L37.6377 28.2646C37.5579 28.0662 37.4619 27.8543 37.3496 27.629C37.3491 27.6276 37.3486 27.6261 37.3481 27.6247C37.3474 27.6227 37.3466 27.6206 37.3457 27.6186L37.3457 27.5331L36.8812 27.5331L35.8119 27.5222L35.7749 28.0406L35.7457 28.4084L35.726 28.7203L35.704 29.0495L35.6845 29.2717L35.6746 29.4939L35.6648 29.7137L35.6552 29.8704L35.6456 30.0095L35.6358 30.1098L35.6257 30.2643L35.6257 30.4288L35.6134 30.4971L35.6134 30.7588L35.5531 34.7536L36.7824 34.7536L36.8452 30.7606L36.8452 30.7173L36.8452 30.5851L36.855 30.5046L36.855 30.2917L36.8645 30.1566L36.8744 30.0158L36.8841 29.784L36.8971 29.6065L37.6235 31.9729L38.7048 31.9729L39.4428 29.5686L39.454 29.7069L39.4638 29.8949L39.4761 30.0479L39.4855 30.1818L39.4855 30.3445L39.4953 30.4446L39.4953 30.5666L39.5051 30.6374L39.5051 30.7491L39.5553 34.7536L40.7973 34.7536L40.7344 30.7668L40.7344 30.7491L40.7344 30.5594L40.7246 30.5301L40.7246 30.3252L40.7145 30.178L40.7047 30.0783L40.6953 29.9252L40.6953 29.7812L40.6756 29.5912L40.6658 29.311L40.6339 28.9696L40.6047 28.5511L40.5754 28.0789ZM39.3409 29.1499L39.36 29.0901L39.383 29.0289L39.4048 28.9716L39.6018 28.5777L39.6551 29.2306L39.6648 29.4503L39.6843 29.6916L39.6941 29.8796L39.7062 30.0293L39.7163 30.1737L39.7163 30.3333L39.7261 30.4334L39.7261 30.5507L39.7359 30.6215L39.7359 30.7491L39.7832 34.5228L40.5628 34.5228L40.5036 30.7704L40.5036 30.7491L40.5036 30.5969L40.4938 30.5676L40.4938 30.3331L40.4844 30.1971L40.4746 30.0966L40.4645 29.9323L40.4645 29.7931L40.4452 29.6072L40.4354 29.3258L40.4039 28.9884L40.3745 28.5672L40.3452 28.097L40.3138 27.7639L39.1694 27.7639C39.124 27.8523 39.0644 27.9832 38.9906 28.1566C38.9706 28.2036 38.9555 28.2391 38.9452 28.2629L38.9443 28.2651L38.9226 28.3102C38.9198 28.3267 38.9145 28.3419 38.9069 28.3558C38.9063 28.3569 38.9057 28.3581 38.905 28.3592L38.8979 28.3825L38.8685 28.4412L38.8475 28.5087L38.818 28.5776L38.7978 28.6409L38.7684 28.702L38.7489 28.7629L38.7294 28.8238L38.7071 28.8906L38.6834 28.94C38.6805 28.9565 38.6753 28.9718 38.6677 28.9857C38.6657 28.9893 38.6635 28.9929 38.6612 28.9963L38.6469 29.0299L38.6289 29.0839L38.6117 29.1374L38.5964 29.2142L38.5825 29.2281L38.172 30.5921L37.735 29.1845L37.735 29.1795L37.723 29.1494L37.6948 29.0711C37.6921 29.0645 37.6899 29.058 37.6882 29.0515L37.671 29.0083L37.6502 28.9434L37.6339 28.8927L37.6022 28.8341L37.5788 28.761L37.5615 28.7003L37.533 28.6409L37.5132 28.5792L37.4805 28.5087L37.4614 28.4395L37.4329 28.3825L37.4217 28.3462C37.3484 28.1642 37.2608 27.9701 37.1589 27.7639L36.8812 27.7639L36.0267 27.7552L36.0051 28.0571L35.9757 28.4267L35.9563 28.7348L35.9343 29.0648L35.9148 29.287L35.9052 29.5042L35.8954 29.7239L35.8855 29.8846L35.8756 30.0287L35.8659 30.1286L35.8565 30.2719L35.8565 30.4492L35.8442 30.5176L35.8442 30.7588L35.7874 34.5228L36.5552 34.5228L36.6144 30.757L36.6144 30.7173L36.6144 30.5712L36.6242 30.4906L36.6242 30.2836L36.6342 30.1404L36.6439 30.0029L36.6537 29.7708L36.6758 29.4687L36.6952 29.2208L36.7049 29.0223L36.9246 28.9787L36.9385 29.0083C36.9414 29.0125 36.944 29.0168 36.9465 29.0212C36.9554 29.0377 36.9611 29.0559 36.9635 29.076L36.978 29.1195L36.9989 29.1773L37.0192 29.2281L37.039 29.29L37.0557 29.3339C37.0603 29.3438 37.0647 29.355 37.0688 29.3674C37.0703 29.3719 37.0715 29.375 37.0723 29.3767L37.0845 29.401L37.0845 29.4305L37.7941 31.7421L38.5342 31.7421L39.2438 29.4305L39.2438 29.401L39.256 29.3767C39.2587 29.3713 39.2619 29.3655 39.2658 29.3591L39.2658 29.3582L39.2918 29.29L39.3079 29.2395C39.3095 29.2322 39.3118 29.2248 39.3146 29.2174L39.3146 29.2156L39.3409 29.1499Z" fill="url(#paint_linear_54)" fill-opacity="0" fill-rule="evenodd" />
				<path id="边框" d="M41.932 27.5234L46.7963 27.5234L46.7963 28.6619L44.085 34.7537L42.7438 34.7537L45.4025 28.7528L41.5984 28.7528L41.9089 27.6086L41.932 27.5234ZM45.5799 28.6374L41.7493 28.6374L41.7806 28.522L42.0203 27.6388L46.6809 27.6388L46.6809 28.6374L44.01 34.6383L42.9212 34.6383L42.9723 34.5229L45.5287 28.7528L45.5799 28.6374Z" fill="url(#paint_linear_55)" fill-opacity="0" fill-rule="evenodd" />
				<path id="边框" d="M51.6726 30.7273L51.6732 30.7277C51.9068 30.9138 52.0882 31.1278 52.2175 31.3697C52.4144 31.738 52.4905 32.1708 52.4457 32.6683C52.4305 32.8443 52.394 33.0128 52.3364 33.1736C52.2206 33.4971 52.0191 33.79 51.732 34.0522C51.6196 34.1548 51.5001 34.2463 51.3735 34.3266L51.3734 34.3266C50.9723 34.5811 50.5001 34.7234 49.9568 34.7536L49.9535 34.7537L49.7795 34.7537C49.2092 34.7537 48.6312 34.615 48.0455 34.3374C47.6653 34.1572 47.4128 34.0048 47.2882 33.8801L47.2164 33.8083L47.9234 32.8921L47.9801 32.8921C48.0045 32.8921 48.0335 32.9036 48.0671 32.9266C48.6904 33.3535 49.2988 33.5521 49.8922 33.5222C50.2887 33.4985 50.6087 33.384 50.8522 33.1788C50.865 33.168 50.8776 33.1569 50.89 33.1456C51.0623 32.9884 51.1668 32.8177 51.2036 32.6334C51.2086 32.6084 51.2123 32.5831 51.2148 32.5576C51.2402 32.2784 51.1919 32.0495 51.07 31.8709C51.0237 31.8032 50.9668 31.7426 50.8993 31.6894C50.8437 31.6454 50.7855 31.6061 50.7247 31.5712C50.2987 31.3273 49.7449 31.3066 49.0634 31.509C48.9341 31.5482 48.7444 31.6531 48.4944 31.8235L48.4342 31.8645L47.5181 31.3313L47.8764 27.9727L47.8795 27.9727L47.8991 27.5332L52.063 27.5332L51.7175 28.765L49.0336 28.765L48.8729 30.2752C49.2886 30.1684 49.6992 30.1299 50.1049 30.1596C50.1856 30.1655 50.2661 30.1741 50.3464 30.1854C50.8747 30.2598 51.3167 30.4404 51.6726 30.7273ZM47.9801 28.0881L47.9899 28.0881L48.0094 27.6486L51.9108 27.6486L51.8784 27.764L51.63 28.6496L48.9298 28.6496L48.7537 30.3051L48.7525 30.3158L48.7405 30.4294L48.7394 30.4391C48.7589 30.4294 48.7712 30.4294 48.7809 30.4294C48.7809 30.4172 48.7907 30.4172 48.7907 30.4172C48.8137 30.4106 48.8368 30.4042 48.8598 30.398C49.8787 30.1261 50.9347 30.2804 51.6007 30.8175C52.1403 31.2472 52.3991 31.8991 52.3307 32.6584C52.2502 33.5885 51.4006 34.5578 49.9504 34.6383L49.7795 34.6383C48.67 34.6383 47.7491 34.0713 47.4617 33.8683C47.4544 33.8631 47.4475 33.8581 47.441 33.8535C47.3995 33.8235 47.3751 33.8039 47.3698 33.7985L47.9801 33.0075C47.981 33.0075 47.9884 33.0126 48.0019 33.0218C48.1448 33.1197 48.9689 33.6842 49.8991 33.6374C50.8805 33.5788 51.2907 32.9684 51.3298 32.568C51.3688 32.1383 51.2492 31.8185 50.9709 31.5988C50.5412 31.2594 49.7697 31.1789 49.0299 31.3986C48.8688 31.4474 48.5905 31.6183 48.4294 31.7282L47.6408 31.2692L47.9801 28.0881Z" fill="url(#paint_linear_56)" fill-opacity="0" fill-rule="evenodd" />
			</g>
		</g>
	</g>
</svg>
