<svg viewBox="0 0 82 60" xmlns="http://www.w3.org/2000/svg" xmlns:xlink="http://www.w3.org/1999/xlink" width="82.000000" height="60.000000" fill="none" customFrame="#000000">
	<defs>
		<clipPath id="clipPath_27">
			<rect width="48.530613" height="4.830958" x="15.693848" y="7.000000" fill="rgb(255,255,255)" />
		</clipPath>
		<linearGradient id="paint_linear_193" x1="62.4337807" x2="62.4445076" y1="12.2330227" y2="6.52429056" gradientUnits="userSpaceOnUse">
			<stop stop-color="rgb(0,0,0)" offset="0" stop-opacity="0.5" />
			<stop stop-color="rgb(242,241,241)" offset="0.463651955" stop-opacity="1" />
			<stop stop-color="rgb(243,242,242)" offset="1" stop-opacity="0" />
		</linearGradient>
		<linearGradient id="paint_linear_194" x1="54.9032631" x2="54.91399" y1="12.2330227" y2="6.52429056" gradientUnits="userSpaceOnUse">
			<stop stop-color="rgb(0,0,0)" offset="0" stop-opacity="0.5" />
			<stop stop-color="rgb(242,241,241)" offset="0.463651955" stop-opacity="1" />
			<stop stop-color="rgb(243,242,242)" offset="1" stop-opacity="0" />
		</linearGradient>
		<linearGradient id="paint_linear_195" x1="47.3727455" x2="47.3834724" y1="12.2330227" y2="6.52429056" gradientUnits="userSpaceOnUse">
			<stop stop-color="rgb(0,0,0)" offset="0" stop-opacity="0.5" />
			<stop stop-color="rgb(242,241,241)" offset="0.463651955" stop-opacity="1" />
			<stop stop-color="rgb(243,242,242)" offset="1" stop-opacity="0" />
		</linearGradient>
		<linearGradient id="paint_linear_196" x1="39.8419838" x2="39.8527107" y1="12.2330227" y2="6.52429056" gradientUnits="userSpaceOnUse">
			<stop stop-color="rgb(0,0,0)" offset="0" stop-opacity="0.5" />
			<stop stop-color="rgb(242,241,241)" offset="0.463651955" stop-opacity="1" />
			<stop stop-color="rgb(243,242,242)" offset="1" stop-opacity="0" />
		</linearGradient>
		<linearGradient id="paint_linear_197" x1="32.3114662" x2="32.3221931" y1="12.2330227" y2="6.52429056" gradientUnits="userSpaceOnUse">
			<stop stop-color="rgb(0,0,0)" offset="0" stop-opacity="0.5" />
			<stop stop-color="rgb(242,241,241)" offset="0.463651955" stop-opacity="1" />
			<stop stop-color="rgb(243,242,242)" offset="1" stop-opacity="0" />
		</linearGradient>
		<linearGradient id="paint_linear_198" x1="24.7809505" x2="24.7916775" y1="12.2330227" y2="6.52429056" gradientUnits="userSpaceOnUse">
			<stop stop-color="rgb(0,0,0)" offset="0" stop-opacity="0.5" />
			<stop stop-color="rgb(242,241,241)" offset="0.463651955" stop-opacity="1" />
			<stop stop-color="rgb(243,242,242)" offset="1" stop-opacity="0" />
		</linearGradient>
		<linearGradient id="paint_linear_199" x1="17.2501888" x2="17.2609158" y1="12.2330227" y2="6.52429056" gradientUnits="userSpaceOnUse">
			<stop stop-color="rgb(0,0,0)" offset="0" stop-opacity="0.5" />
			<stop stop-color="rgb(242,241,241)" offset="0.463651955" stop-opacity="1" />
			<stop stop-color="rgb(243,242,242)" offset="1" stop-opacity="0" />
		</linearGradient>
		<clipPath id="clipPath_28">
			<rect width="48.530613" height="4.830962" x="16.530762" y="47.163330" fill="rgb(255,255,255)" />
		</clipPath>
		<linearGradient id="paint_linear_200" x1="63.2706947" x2="63.2814217" y1="52.3963547" y2="46.6876221" gradientUnits="userSpaceOnUse">
			<stop stop-color="rgb(0,0,0)" offset="0" stop-opacity="0.5" />
			<stop stop-color="rgb(242,241,241)" offset="0.463651955" stop-opacity="1" />
			<stop stop-color="rgb(243,242,242)" offset="1" stop-opacity="0" />
		</linearGradient>
		<linearGradient id="paint_linear_201" x1="55.739933" x2="55.7506599" y1="52.3963547" y2="46.6876221" gradientUnits="userSpaceOnUse">
			<stop stop-color="rgb(0,0,0)" offset="0" stop-opacity="0.5" />
			<stop stop-color="rgb(242,241,241)" offset="0.463651955" stop-opacity="1" />
			<stop stop-color="rgb(243,242,242)" offset="1" stop-opacity="0" />
		</linearGradient>
		<linearGradient id="paint_linear_202" x1="48.2094154" x2="48.2201424" y1="52.3963547" y2="46.6876221" gradientUnits="userSpaceOnUse">
			<stop stop-color="rgb(0,0,0)" offset="0" stop-opacity="0.5" />
			<stop stop-color="rgb(242,241,241)" offset="0.463651955" stop-opacity="1" />
			<stop stop-color="rgb(243,242,242)" offset="1" stop-opacity="0" />
		</linearGradient>
		<linearGradient id="paint_linear_203" x1="40.6788979" x2="40.6896248" y1="52.3963547" y2="46.6876221" gradientUnits="userSpaceOnUse">
			<stop stop-color="rgb(0,0,0)" offset="0" stop-opacity="0.5" />
			<stop stop-color="rgb(242,241,241)" offset="0.463651955" stop-opacity="1" />
			<stop stop-color="rgb(243,242,242)" offset="1" stop-opacity="0" />
		</linearGradient>
		<linearGradient id="paint_linear_204" x1="33.1481361" x2="33.1588631" y1="52.3963547" y2="46.6876221" gradientUnits="userSpaceOnUse">
			<stop stop-color="rgb(0,0,0)" offset="0" stop-opacity="0.5" />
			<stop stop-color="rgb(242,241,241)" offset="0.463651955" stop-opacity="1" />
			<stop stop-color="rgb(243,242,242)" offset="1" stop-opacity="0" />
		</linearGradient>
		<linearGradient id="paint_linear_205" x1="25.6176205" x2="25.6283474" y1="52.3963547" y2="46.6876221" gradientUnits="userSpaceOnUse">
			<stop stop-color="rgb(0,0,0)" offset="0" stop-opacity="0.5" />
			<stop stop-color="rgb(242,241,241)" offset="0.463651955" stop-opacity="1" />
			<stop stop-color="rgb(243,242,242)" offset="1" stop-opacity="0" />
		</linearGradient>
		<linearGradient id="paint_linear_206" x1="18.0871029" x2="18.0978298" y1="52.3963547" y2="46.6876221" gradientUnits="userSpaceOnUse">
			<stop stop-color="rgb(0,0,0)" offset="0" stop-opacity="0.5" />
			<stop stop-color="rgb(242,241,241)" offset="0.463651955" stop-opacity="1" />
			<stop stop-color="rgb(243,242,242)" offset="1" stop-opacity="0" />
		</linearGradient>
		<linearGradient id="paint_linear_207" x1="55.5292053" x2="22.7797737" y1="30.0101852" y2="13.7021885" gradientUnits="userSpaceOnUse">
			<stop stop-color="rgb(130,145.345,219)" offset="0" stop-opacity="1" />
			<stop stop-color="rgb(198.732,211.93,252.723)" offset="1" stop-opacity="1" />
		</linearGradient>
		<linearGradient id="paint_linear_208" x1="55.5290833" x2="22.7796593" y1="30.0101852" y2="13.7021961" gradientUnits="userSpaceOnUse">
			<stop stop-color="rgb(130,145.345,219)" offset="0" stop-opacity="1" />
			<stop stop-color="rgb(198.732,211.93,252.723)" offset="1" stop-opacity="1" />
		</linearGradient>
		<linearGradient id="paint_linear_209" x1="55.5293655" x2="22.7799129" y1="30.0101891" y2="13.7021694" gradientUnits="userSpaceOnUse">
			<stop stop-color="rgb(130,145.345,219)" offset="0" stop-opacity="1" />
			<stop stop-color="rgb(198.732,211.93,252.723)" offset="1" stop-opacity="1" />
		</linearGradient>
		<linearGradient id="paint_linear_210" x1="55.5293045" x2="22.779871" y1="30.0102901" y2="13.7022934" gradientUnits="userSpaceOnUse">
			<stop stop-color="rgb(130,145.345,219)" offset="0" stop-opacity="1" />
			<stop stop-color="rgb(198.732,211.93,252.723)" offset="1" stop-opacity="1" />
		</linearGradient>
		<linearGradient id="paint_linear_211" x1="55.5291748" x2="22.7797356" y1="30.0103168" y2="13.702322" gradientUnits="userSpaceOnUse">
			<stop stop-color="rgb(130,145.345,219)" offset="0" stop-opacity="1" />
			<stop stop-color="rgb(198.732,211.93,252.723)" offset="1" stop-opacity="1" />
		</linearGradient>
		<linearGradient id="paint_linear_212" x1="55.5291634" x2="22.7797127" y1="30.0101891" y2="13.7021694" gradientUnits="userSpaceOnUse">
			<stop stop-color="rgb(130,145.345,219)" offset="0" stop-opacity="1" />
			<stop stop-color="rgb(198.732,211.93,252.723)" offset="1" stop-opacity="1" />
		</linearGradient>
		<linearGradient id="paint_linear_213" x1="55.5292358" x2="22.7797852" y1="30.0101852" y2="13.7021656" gradientUnits="userSpaceOnUse">
			<stop stop-color="rgb(130,145.345,219)" offset="0" stop-opacity="1" />
			<stop stop-color="rgb(198.732,211.93,252.723)" offset="1" stop-opacity="1" />
		</linearGradient>
		<linearGradient id="paint_linear_214" x1="24.9829712" x2="24.9829712" y1="26.9853516" y2="33.0352058" gradientUnits="userSpaceOnUse">
			<stop stop-color="rgb(42,44,68)" offset="0" stop-opacity="1" />
			<stop stop-color="rgb(86.1143,88.7724,120.67)" offset="0.530903637" stop-opacity="1" />
			<stop stop-color="rgb(37,40,64)" offset="1" stop-opacity="1" />
		</linearGradient>
		<linearGradient id="paint_linear_215" x1="30.0421677" x2="30.0421677" y1="26.9853516" y2="33.0352058" gradientUnits="userSpaceOnUse">
			<stop stop-color="rgb(42,44,68)" offset="0" stop-opacity="1" />
			<stop stop-color="rgb(86.1143,88.7724,120.67)" offset="0.530903637" stop-opacity="1" />
			<stop stop-color="rgb(37,40,64)" offset="1" stop-opacity="1" />
		</linearGradient>
		<linearGradient id="paint_linear_216" x1="35.0897484" x2="35.0897484" y1="26.9853516" y2="33.0352058" gradientUnits="userSpaceOnUse">
			<stop stop-color="rgb(42,44,68)" offset="0" stop-opacity="1" />
			<stop stop-color="rgb(86.1143,88.7724,120.67)" offset="0.530903637" stop-opacity="1" />
			<stop stop-color="rgb(37,40,64)" offset="1" stop-opacity="1" />
		</linearGradient>
		<linearGradient id="paint_linear_217" x1="40.140213" x2="40.140213" y1="26.9853516" y2="33.0353241" gradientUnits="userSpaceOnUse">
			<stop stop-color="rgb(42,44,68)" offset="0" stop-opacity="1" />
			<stop stop-color="rgb(86.1143,88.7724,120.67)" offset="0.530903637" stop-opacity="1" />
			<stop stop-color="rgb(37,40,64)" offset="1" stop-opacity="1" />
		</linearGradient>
		<linearGradient id="paint_linear_218" x1="44.9146423" x2="44.9146423" y1="26.9936523" y2="33.0353355" gradientUnits="userSpaceOnUse">
			<stop stop-color="rgb(42,44,68)" offset="0" stop-opacity="1" />
			<stop stop-color="rgb(86.1143,88.7724,120.67)" offset="0.530903637" stop-opacity="1" />
			<stop stop-color="rgb(37,40,64)" offset="1" stop-opacity="1" />
		</linearGradient>
		<linearGradient id="paint_linear_219" x1="49.8900452" x2="49.8900452" y1="26.9853516" y2="33.0352058" gradientUnits="userSpaceOnUse">
			<stop stop-color="rgb(42,44,68)" offset="0" stop-opacity="1" />
			<stop stop-color="rgb(86.1143,88.7724,120.67)" offset="0.530903637" stop-opacity="1" />
			<stop stop-color="rgb(37,40,64)" offset="1" stop-opacity="1" />
		</linearGradient>
		<linearGradient id="paint_linear_220" x1="54.9440002" x2="54.9440002" y1="26.9853516" y2="33.0352058" gradientUnits="userSpaceOnUse">
			<stop stop-color="rgb(42,44,68)" offset="0" stop-opacity="1" />
			<stop stop-color="rgb(86.1143,88.7724,120.67)" offset="0.530903637" stop-opacity="1" />
			<stop stop-color="rgb(37,40,64)" offset="1" stop-opacity="1" />
		</linearGradient>
	</defs>
	<rect id="属性 1=Pca9544" width="82.000000" height="60.000000" x="0.000000" y="0.000000" />
	<rect id="矩形 3084" width="82.000000" height="60.000000" x="0.000000" y="0.000000" rx="4.000000" opacity="0" fill="rgb(24,27,32)" />
	<g id="组合 91333972">
		<g id="组合 8348">
			<g id="组合 8349">
				<g id="画板 1659" customFrame="url(#clipPath_27)">
					<rect id="画板 1659" width="48.530613" height="4.830958" x="15.693848" y="7.000000" fill="rgb(255,255,255)" fill-opacity="0" />
					<path id="矩形 3070" d="M61.6133 7L63.4885 7C63.8949 7 64.2244 7.32945 64.2244 7.73584L64.2244 12.0204L60.8774 12.0204L60.8774 7.73584C60.8774 7.32945 61.2069 7 61.6133 7Z" fill="rgb(182,182,182)" fill-rule="evenodd" />
					<path id="矩形 3070" d="M61.6133 7L63.4885 7C63.8949 7 64.2244 7.32945 64.2244 7.73584L64.2244 12.0204L60.8774 12.0204L60.8774 7.73584C60.8774 7.32945 61.2069 7 61.6133 7Z" fill="url(#paint_linear_193)" fill-opacity="0.600000024" fill-rule="evenodd" />
					<path id="矩形 3069" d="M54.0828 7L55.958 7C56.3644 7 56.6939 7.32945 56.6939 7.73584L56.6939 12.0204L53.3469 12.0204L53.3469 7.73584C53.3469 7.32945 53.6764 7 54.0828 7Z" fill="rgb(182,182,182)" fill-rule="evenodd" />
					<path id="矩形 3069" d="M54.0828 7L55.958 7C56.3644 7 56.6939 7.32945 56.6939 7.73584L56.6939 12.0204L53.3469 12.0204L53.3469 7.73584C53.3469 7.32945 53.6764 7 54.0828 7Z" fill="url(#paint_linear_194)" fill-opacity="0.600000024" fill-rule="evenodd" />
					<path id="矩形 3068" d="M46.5522 7L48.4275 7C48.8339 7 49.1633 7.32945 49.1633 7.73584L49.1633 12.0204L45.8164 12.0204L45.8164 7.73584C45.8164 7.32945 46.1459 7 46.5522 7Z" fill="rgb(182,182,182)" fill-rule="evenodd" />
					<path id="矩形 3068" d="M46.5522 7L48.4275 7C48.8339 7 49.1633 7.32945 49.1633 7.73584L49.1633 12.0204L45.8164 12.0204L45.8164 7.73584C45.8164 7.32945 46.1459 7 46.5522 7Z" fill="url(#paint_linear_195)" fill-opacity="0.600000024" fill-rule="evenodd" />
					<path id="矩形 3067" d="M39.0215 7L40.8967 7C41.3031 7 41.6326 7.32945 41.6326 7.73584L41.6326 12.0204L38.2856 12.0204L38.2856 7.73584C38.2856 7.32945 38.6151 7 39.0215 7Z" fill="rgb(182,182,182)" fill-rule="evenodd" />
					<path id="矩形 3067" d="M39.0215 7L40.8967 7C41.3031 7 41.6326 7.32945 41.6326 7.73584L41.6326 12.0204L38.2856 12.0204L38.2856 7.73584C38.2856 7.32945 38.6151 7 39.0215 7Z" fill="url(#paint_linear_196)" fill-opacity="0.600000024" fill-rule="evenodd" />
					<path id="矩形 3067" d="M31.491 7L33.3662 7C33.7726 7 34.1021 7.32945 34.1021 7.73584L34.1021 12.0204L30.7551 12.0204L30.7551 7.73584C30.7551 7.32945 31.0846 7 31.491 7Z" fill="rgb(182,182,182)" fill-rule="evenodd" />
					<path id="矩形 3067" d="M31.491 7L33.3662 7C33.7726 7 34.1021 7.32945 34.1021 7.73584L34.1021 12.0204L30.7551 12.0204L30.7551 7.73584C30.7551 7.32945 31.0846 7 31.491 7Z" fill="url(#paint_linear_197)" fill-opacity="0.600000024" fill-rule="evenodd" />
					<path id="矩形 3067" d="M23.9605 7L25.8357 7C26.2421 7 26.5715 7.32945 26.5715 7.73584L26.5715 12.0204L23.2246 12.0204L23.2246 7.73584C23.2246 7.32945 23.5541 7 23.9605 7Z" fill="rgb(182,182,182)" fill-rule="evenodd" />
					<path id="矩形 3067" d="M23.9605 7L25.8357 7C26.2421 7 26.5715 7.32945 26.5715 7.73584L26.5715 12.0204L23.2246 12.0204L23.2246 7.73584C23.2246 7.32945 23.5541 7 23.9605 7Z" fill="url(#paint_linear_198)" fill-opacity="0.600000024" fill-rule="evenodd" />
					<path id="矩形 3067" d="M16.4297 7L18.3049 7C18.7113 7 19.0408 7.32945 19.0408 7.73584L19.0408 12.0204L15.6938 12.0204L15.6938 7.73584C15.6938 7.32945 16.0233 7 16.4297 7Z" fill="rgb(182,182,182)" fill-rule="evenodd" />
					<path id="矩形 3067" d="M16.4297 7L18.3049 7C18.7113 7 19.0408 7.32945 19.0408 7.73584L19.0408 12.0204L15.6938 12.0204L15.6938 7.73584C15.6938 7.32945 16.0233 7 16.4297 7Z" fill="url(#paint_linear_199)" fill-opacity="0.600000024" fill-rule="evenodd" />
				</g>
			</g>
			<g id="组合 8350">
				<g id="画板 1659" customFrame="url(#clipPath_28)">
					<rect id="画板 1659" width="48.530613" height="4.830962" x="16.530762" y="47.163330" fill="rgb(255,255,255)" fill-opacity="0" />
					<path id="矩形 3070" d="M62.4502 47.1633L64.3254 47.1633C64.7318 47.1633 65.0613 47.4928 65.0613 47.8992L65.0613 52.1837L61.7144 52.1837L61.7144 47.8992C61.7144 47.4928 62.0438 47.1633 62.4502 47.1633Z" fill="rgb(182,182,182)" fill-rule="evenodd" />
					<path id="矩形 3070" d="M62.4502 47.1633L64.3254 47.1633C64.7318 47.1633 65.0613 47.4928 65.0613 47.8992L65.0613 52.1837L61.7144 52.1837L61.7144 47.8992C61.7144 47.4928 62.0438 47.1633 62.4502 47.1633Z" fill="url(#paint_linear_200)" fill-opacity="0.600000024" fill-rule="evenodd" />
					<path id="矩形 3069" d="M54.9194 47.1633L56.7947 47.1633C57.2011 47.1633 57.5305 47.4928 57.5305 47.8992L57.5305 52.1837L54.1836 52.1837L54.1836 47.8992C54.1836 47.4928 54.513 47.1633 54.9194 47.1633Z" fill="rgb(182,182,182)" fill-rule="evenodd" />
					<path id="矩形 3069" d="M54.9194 47.1633L56.7947 47.1633C57.2011 47.1633 57.5305 47.4928 57.5305 47.8992L57.5305 52.1837L54.1836 52.1837L54.1836 47.8992C54.1836 47.4928 54.513 47.1633 54.9194 47.1633Z" fill="url(#paint_linear_201)" fill-opacity="0.600000024" fill-rule="evenodd" />
					<path id="矩形 3068" d="M47.3889 47.1633L49.2642 47.1633C49.6706 47.1633 50 47.4928 50 47.8992L50 52.1837L46.6531 52.1837L46.6531 47.8992C46.6531 47.4928 46.9825 47.1633 47.3889 47.1633Z" fill="rgb(182,182,182)" fill-rule="evenodd" />
					<path id="矩形 3068" d="M47.3889 47.1633L49.2642 47.1633C49.6706 47.1633 50 47.4928 50 47.8992L50 52.1837L46.6531 52.1837L46.6531 47.8992C46.6531 47.4928 46.9825 47.1633 47.3889 47.1633Z" fill="url(#paint_linear_202)" fill-opacity="0.600000024" fill-rule="evenodd" />
					<path id="矩形 3067" d="M39.8584 47.1633L41.7337 47.1633C42.14 47.1633 42.4695 47.4928 42.4695 47.8992L42.4695 52.1837L39.1226 52.1837L39.1226 47.8992C39.1226 47.4928 39.452 47.1633 39.8584 47.1633Z" fill="rgb(182,182,182)" fill-rule="evenodd" />
					<path id="矩形 3067" d="M39.8584 47.1633L41.7337 47.1633C42.14 47.1633 42.4695 47.4928 42.4695 47.8992L42.4695 52.1837L39.1226 52.1837L39.1226 47.8992C39.1226 47.4928 39.452 47.1633 39.8584 47.1633Z" fill="url(#paint_linear_203)" fill-opacity="0.600000024" fill-rule="evenodd" />
					<path id="矩形 3067" d="M32.3276 47.1633L34.2029 47.1633C34.6093 47.1633 34.9387 47.4928 34.9387 47.8992L34.9387 52.1837L31.5918 52.1837L31.5918 47.8992C31.5918 47.4928 31.9212 47.1633 32.3276 47.1633Z" fill="rgb(182,182,182)" fill-rule="evenodd" />
					<path id="矩形 3067" d="M32.3276 47.1633L34.2029 47.1633C34.6093 47.1633 34.9387 47.4928 34.9387 47.8992L34.9387 52.1837L31.5918 52.1837L31.5918 47.8992C31.5918 47.4928 31.9212 47.1633 32.3276 47.1633Z" fill="url(#paint_linear_204)" fill-opacity="0.600000024" fill-rule="evenodd" />
					<path id="矩形 3067" d="M24.7971 47.1633L26.6724 47.1633C27.0788 47.1633 27.4082 47.4928 27.4082 47.8992L27.4082 52.1837L24.0613 52.1837L24.0613 47.8992C24.0613 47.4928 24.3907 47.1633 24.7971 47.1633Z" fill="rgb(182,182,182)" fill-rule="evenodd" />
					<path id="矩形 3067" d="M24.7971 47.1633L26.6724 47.1633C27.0788 47.1633 27.4082 47.4928 27.4082 47.8992L27.4082 52.1837L24.0613 52.1837L24.0613 47.8992C24.0613 47.4928 24.3907 47.1633 24.7971 47.1633Z" fill="url(#paint_linear_205)" fill-opacity="0.600000024" fill-rule="evenodd" />
					<path id="矩形 3067" d="M17.2666 47.1633L19.1419 47.1633C19.5483 47.1633 19.8777 47.4928 19.8777 47.8992L19.8777 52.1837L16.5308 52.1837L16.5308 47.8992C16.5308 47.4928 16.8602 47.1633 17.2666 47.1633Z" fill="rgb(182,182,182)" fill-rule="evenodd" />
					<path id="矩形 3067" d="M17.2666 47.1633L19.1419 47.1633C19.5483 47.1633 19.8777 47.4928 19.8777 47.8992L19.8777 52.1837L16.5308 52.1837L16.5308 47.8992C16.5308 47.4928 16.8602 47.1633 17.2666 47.1633Z" fill="url(#paint_linear_206)" fill-opacity="0.600000024" fill-rule="evenodd" />
				</g>
			</g>
			<rect id="矩形 5799" width="63.591839" height="36.816326" x="9.000000" y="11.183594" rx="3.346939" fill="rgb(0,0,0)" />
			<rect id="矩形 5799" width="62.336739" height="35.561226" x="9.627551" y="11.811145" rx="2.719388" stroke="rgb(255,255,255)" stroke-width="1.255102" />
			<rect id="矩形 5800" width="55.224487" height="28.448978" x="13.183594" y="15.367432" rx="0.836735" fill="rgb(255,255,255)" fill-opacity="0.150000006" />
		</g>
		<g id="Pca9544">
			<path id="矢量 15233" d="M22.9348 32.9388L22.9348 27.082L24.9613 27.082C26.1665 27.082 27.145 28.1361 27.0184 29.3904C26.9694 29.8929 26.759 30.3362 26.3667 30.6958C26.1236 30.9225 25.8479 31.039 25.5047 31.0982C25.4883 31.1064 25.472 31.1064 25.4536 31.1064L25.4373 31.1145C25.4209 31.1145 25.4046 31.1145 25.3882 31.1227L25.3372 31.1227L25.3126 31.1309L25.2371 31.1309L25.2125 31.139L25.0941 31.139L25.045 31.1472L23.7724 31.1472L23.7724 32.9388L22.9348 32.9388ZM23.7724 27.9175L23.7724 30.3117L24.9858 30.3117L25.0267 30.3035L25.1288 30.3035L25.1533 30.2954L25.2289 30.2954L25.2616 30.2872C25.329 30.2872 25.3882 30.2688 25.4373 30.2606L25.4618 30.2606C25.5884 30.228 25.6722 30.1851 25.7559 30.1197L25.7641 30.1115C25.7804 30.1013 25.7886 30.085 25.7968 30.0768C26.0317 29.8684 26.1482 29.6172 26.1829 29.3067C26.2585 28.5631 25.6885 27.9278 24.9776 27.9175L23.7724 27.9175Z" fill="url(#paint_linear_207)" fill-opacity="0" fill-rule="evenodd" />
			<path id="矢量 15233" d="M22.9348 32.9388L22.9348 27.082L24.9613 27.082C26.1665 27.082 27.145 28.1361 27.0184 29.3904C26.9694 29.8929 26.759 30.3362 26.3667 30.6958C26.1236 30.9225 25.8479 31.039 25.5047 31.0982C25.4883 31.1064 25.472 31.1064 25.4536 31.1064L25.4373 31.1145C25.4209 31.1145 25.4046 31.1145 25.3882 31.1227L25.3372 31.1227L25.3126 31.1309L25.2371 31.1309L25.2125 31.139L25.0941 31.139L25.045 31.1472L23.7724 31.1472L23.7724 32.9388L22.9348 32.9388ZM23.7724 27.9175L23.7724 30.3117L24.9858 30.3117L25.0267 30.3035L25.1288 30.3035L25.1533 30.2954L25.2289 30.2954L25.2616 30.2872C25.329 30.2872 25.3882 30.2688 25.4373 30.2606L25.4618 30.2606C25.5884 30.228 25.6722 30.1851 25.7559 30.1197L25.7641 30.1115C25.7804 30.1013 25.7886 30.085 25.7968 30.0768C26.0317 29.8684 26.1482 29.6172 26.1829 29.3067C26.2585 28.5631 25.6885 27.9278 24.9776 27.9175L23.7724 27.9175Z" fill="rgb(255,255,255)" fill-rule="evenodd" />
			<path id="矢量 15234" d="M30.1397 27.082C30.8097 27.082 31.3204 27.366 31.729 27.9441C31.8801 28.1525 31.9884 28.4037 32.0558 28.6959L31.2775 29.2066C31.253 28.8634 31.1692 28.6039 31.0446 28.4282L31.0344 28.4201L31.0181 28.3956C30.775 28.0605 30.5155 27.9278 30.1397 27.9278C29.6371 27.9278 29.2531 28.2199 29.0263 28.7469C28.9099 29.0309 28.8588 29.4067 28.8588 29.8929L28.8588 30.2688L28.869 30.3035L28.869 30.3873L28.8772 30.42L28.8772 30.5119C28.8854 30.5201 28.8854 30.5201 28.8854 30.5283L28.8854 30.563C28.8854 30.5793 28.8854 30.5875 28.8935 30.6038L28.8935 30.6386C28.8935 30.6467 28.8935 30.6549 28.9017 30.6712L28.9017 30.7039C28.9099 30.7468 28.9181 30.7877 28.9262 30.8306L28.9262 30.8633C28.9344 30.8714 28.9344 30.8714 28.9344 30.8796L28.9426 30.9062C28.9528 30.9634 28.9691 31.0144 28.9773 31.0635L28.9855 31.0982C29.0263 31.2065 29.0692 31.3066 29.1183 31.3985C29.1938 31.5415 29.2694 31.6579 29.3613 31.758C29.5718 31.9929 29.8639 32.1012 30.1233 32.1012C30.6095 32.1012 30.9507 31.9255 31.1856 31.5823L31.1856 31.566L31.8965 32.0358C31.5043 32.6385 30.8935 32.9388 30.1233 32.9388C29.3613 32.9388 28.7853 32.5363 28.3828 31.8173C28.248 31.5823 28.1561 31.3229 28.0989 31.0308L28.0989 30.9899C28.0907 30.947 28.0826 30.9062 28.0723 30.8551L28.0642 30.8142L28.0642 30.7795L28.056 30.7387C28.0478 30.6876 28.0478 30.6386 28.0396 30.5957L28.0396 30.5548C28.0315 30.4874 28.0233 30.42 28.0233 30.3526L28.0233 30.2688L28.0151 30.2198L28.0151 29.8848C28.0151 29.3067 28.0826 28.8307 28.248 28.4282C28.5912 27.6009 29.2776 27.082 30.1397 27.082Z" fill="url(#paint_linear_208)" fill-opacity="0" fill-rule="evenodd" />
			<path id="矢量 15234" d="M30.1397 27.082C30.8097 27.082 31.3204 27.366 31.729 27.9441C31.8801 28.1525 31.9884 28.4037 32.0558 28.6959L31.2775 29.2066C31.253 28.8634 31.1692 28.6039 31.0446 28.4282L31.0344 28.4201L31.0181 28.3956C30.775 28.0605 30.5155 27.9278 30.1397 27.9278C29.6371 27.9278 29.2531 28.2199 29.0263 28.7469C28.9099 29.0309 28.8588 29.4067 28.8588 29.8929L28.8588 30.2688L28.869 30.3035L28.869 30.3873L28.8772 30.42L28.8772 30.5119C28.8854 30.5201 28.8854 30.5201 28.8854 30.5283L28.8854 30.563C28.8854 30.5793 28.8854 30.5875 28.8935 30.6038L28.8935 30.6386C28.8935 30.6467 28.8935 30.6549 28.9017 30.6712L28.9017 30.7039C28.9099 30.7468 28.9181 30.7877 28.9262 30.8306L28.9262 30.8633C28.9344 30.8714 28.9344 30.8714 28.9344 30.8796L28.9426 30.9062C28.9528 30.9634 28.9691 31.0144 28.9773 31.0635L28.9855 31.0982C29.0263 31.2065 29.0692 31.3066 29.1183 31.3985C29.1938 31.5415 29.2694 31.6579 29.3613 31.758C29.5718 31.9929 29.8639 32.1012 30.1233 32.1012C30.6095 32.1012 30.9507 31.9255 31.1856 31.5823L31.1856 31.566L31.8965 32.0358C31.5043 32.6385 30.8935 32.9388 30.1233 32.9388C29.3613 32.9388 28.7853 32.5363 28.3828 31.8173C28.248 31.5823 28.1561 31.3229 28.0989 31.0308L28.0989 30.9899C28.0907 30.947 28.0826 30.9062 28.0723 30.8551L28.0642 30.8142L28.0642 30.7795L28.056 30.7387C28.0478 30.6876 28.0478 30.6386 28.0396 30.5957L28.0396 30.5548C28.0315 30.4874 28.0233 30.42 28.0233 30.3526L28.0233 30.2688L28.0151 30.2198L28.0151 29.8848C28.0151 29.3067 28.0826 28.8307 28.248 28.4282C28.5912 27.6009 29.2776 27.082 30.1397 27.082Z" fill="rgb(255,255,255)" fill-rule="evenodd" />
			<path id="矢量 15235" d="M36.683 30.3955L36.6912 30.42L37.1528 32.9388L36.3153 32.9388L36.1396 32.0175L34.0314 32.0175L33.8557 32.9388L33.0264 32.9388L33.488 30.42L33.488 30.3955L33.5207 30.2954L33.5534 30.1524L33.5718 30.0523L33.5963 29.9604L33.6208 29.8603L33.6453 29.7683L33.6637 29.7009L33.6801 29.6417L33.7046 29.5579L33.7291 29.466L33.7373 29.4067L33.7556 29.3577C33.8394 29.0472 33.9477 28.7306 34.0641 28.4037L34.0641 28.3956L34.583 27.082L35.5962 27.082L36.1151 28.3956L36.1151 28.4037C36.2315 28.7306 36.3316 29.0472 36.4154 29.3577L36.4317 29.4067L36.4501 29.466L36.4746 29.5579L36.4991 29.6417L36.5155 29.7009L36.5237 29.7683L36.5502 29.8603L36.5747 29.9604L36.5992 30.0523L36.6258 30.1524L36.6585 30.2954L36.683 30.3955ZM34.3072 30.5875L34.1989 31.1819L35.9803 31.1819L35.8638 30.5875L35.8475 30.4874L35.8128 30.3526L35.7882 30.2443L35.7637 30.1524C35.7556 30.136 35.7556 30.1279 35.7556 30.1197L35.7372 30.0523L35.6636 29.7765L35.6453 29.7173L35.6289 29.658L35.6126 29.5743C35.537 29.3067 35.4451 29.0309 35.345 28.7469L35.3286 28.6959L35.0855 28.0932L34.8506 28.6959L34.8343 28.7469C34.726 29.0309 34.6422 29.3067 34.5666 29.5743L34.5421 29.658L34.5237 29.7173L34.5156 29.7765L34.442 30.0523L34.4236 30.1197C34.4236 30.1279 34.4155 30.136 34.4155 30.1524L34.391 30.2443L34.3665 30.3526L34.3317 30.4874L34.3072 30.5875Z" fill="url(#paint_linear_209)" fill-opacity="0" fill-rule="evenodd" />
			<path id="矢量 15235" d="M36.683 30.3955L36.6912 30.42L37.1528 32.9388L36.3153 32.9388L36.1396 32.0175L34.0314 32.0175L33.8557 32.9388L33.0264 32.9388L33.488 30.42L33.488 30.3955L33.5207 30.2954L33.5534 30.1524L33.5718 30.0523L33.5963 29.9604L33.6208 29.8603L33.6453 29.7683L33.6637 29.7009L33.6801 29.6417L33.7046 29.5579L33.7291 29.466L33.7373 29.4067L33.7556 29.3577C33.8394 29.0472 33.9477 28.7306 34.0641 28.4037L34.0641 28.3956L34.583 27.082L35.5962 27.082L36.1151 28.3956L36.1151 28.4037C36.2315 28.7306 36.3316 29.0472 36.4154 29.3577L36.4317 29.4067L36.4501 29.466L36.4746 29.5579L36.4991 29.6417L36.5155 29.7009L36.5237 29.7683L36.5502 29.8603L36.5747 29.9604L36.5992 30.0523L36.6258 30.1524L36.6585 30.2954L36.683 30.3955ZM34.3072 30.5875L34.1989 31.1819L35.9803 31.1819L35.8638 30.5875L35.8475 30.4874L35.8128 30.3526L35.7882 30.2443L35.7637 30.1524C35.7556 30.136 35.7556 30.1279 35.7556 30.1197L35.7372 30.0523L35.6636 29.7765L35.6453 29.7173L35.6289 29.658L35.6126 29.5743C35.537 29.3067 35.4451 29.0309 35.345 28.7469L35.3286 28.6959L35.0855 28.0932L34.8506 28.6959L34.8343 28.7469C34.726 29.0309 34.6422 29.3067 34.5666 29.5743L34.5421 29.658L34.5237 29.7173L34.5156 29.7765L34.442 30.0523L34.4236 30.1197C34.4236 30.1279 34.4155 30.136 34.4155 30.1524L34.391 30.2443L34.3665 30.3526L34.3317 30.4874L34.3072 30.5875Z" fill="rgb(255,255,255)" fill-rule="evenodd" />
			<path id="矢量 15236" d="M40.0311 27.0821C41.0259 27.074 41.7368 27.5499 42.0473 28.4365C42.1883 28.8553 42.2067 29.2904 42.1883 29.9523L42.1883 30.0687C42.172 30.6387 42.1556 31.4333 41.604 32.0768C41.4018 32.3036 41.0852 32.6284 40.5581 32.804C40.2824 32.898 39.9637 32.9389 39.6041 32.9389C39.3365 32.9389 39.0424 32.9144 38.7339 32.8633L38.8667 32.0441C40.2149 32.2607 40.6582 31.893 40.9667 31.5334C41.1853 31.2822 41.2772 30.9716 41.3181 30.6632C40.9585 30.9308 40.5234 31.082 40.0556 31.082L40.0474 31.082C39.4959 31.082 39.0097 30.8981 38.6665 30.5549C38.2906 30.177 38.0884 29.6418 38.0884 29.031C38.0884 28.555 38.2722 28.077 38.5991 27.7174C38.9668 27.315 39.4775 27.0903 40.0311 27.0821ZM40.0474 30.2444L40.0556 30.2444C40.3906 30.2444 41.0014 30.2117 41.3528 29.3578C41.3364 29.1229 41.3099 28.8635 41.2527 28.7041C41.0688 28.1771 40.6827 27.9176 40.0719 27.9176L40.0474 27.9176C39.6287 27.9279 39.3692 28.1199 39.2181 28.2792C39.0342 28.4876 38.9259 28.7634 38.9259 29.031C38.9259 29.4171 39.0424 29.7419 39.2528 29.9605C39.4448 30.1525 39.7124 30.2444 40.0474 30.2444Z" fill="url(#paint_linear_210)" fill-opacity="0" fill-rule="evenodd" />
			<path id="矢量 15236" d="M40.0311 27.0821C41.0259 27.074 41.7368 27.5499 42.0473 28.4365C42.1883 28.8553 42.2067 29.2904 42.1883 29.9523L42.1883 30.0687C42.172 30.6387 42.1556 31.4333 41.604 32.0768C41.4018 32.3036 41.0852 32.6284 40.5581 32.804C40.2824 32.898 39.9637 32.9389 39.6041 32.9389C39.3365 32.9389 39.0424 32.9144 38.7339 32.8633L38.8667 32.0441C40.2149 32.2607 40.6582 31.893 40.9667 31.5334C41.1853 31.2822 41.2772 30.9716 41.3181 30.6632C40.9585 30.9308 40.5234 31.082 40.0556 31.082L40.0474 31.082C39.4959 31.082 39.0097 30.8981 38.6665 30.5549C38.2906 30.177 38.0884 29.6418 38.0884 29.031C38.0884 28.555 38.2722 28.077 38.5991 27.7174C38.9668 27.315 39.4775 27.0903 40.0311 27.0821ZM40.0474 30.2444L40.0556 30.2444C40.3906 30.2444 41.0014 30.2117 41.3528 29.3578C41.3364 29.1229 41.3099 28.8635 41.2527 28.7041C41.0688 28.1771 40.6827 27.9176 40.0719 27.9176L40.0474 27.9176C39.6287 27.9279 39.3692 28.1199 39.2181 28.2792C39.0342 28.4876 38.9259 28.7634 38.9259 29.031C38.9259 29.4171 39.0424 29.7419 39.2528 29.9605C39.4448 30.1525 39.7124 30.2444 40.0474 30.2444Z" fill="rgb(255,255,255)" fill-rule="evenodd" />
			<path id="矢量 15237" d="M44.0388 29.4069C44.909 29.1577 45.8201 29.2823 46.39 29.7419C46.8415 30.1014 47.058 30.6469 47.0008 31.2822C46.9334 32.0605 46.2225 32.8715 45.0091 32.9389L44.8661 32.9389C43.763 32.9389 42.8825 32.2689 42.8499 32.2362L43.3606 31.5743C43.3613 31.5743 43.3675 31.5785 43.3788 31.5863C43.4983 31.6682 44.1879 32.1405 44.9662 32.1013C45.7874 32.0523 46.1306 31.5416 46.1633 31.2066C46.196 30.8471 46.0959 30.5795 45.863 30.3956C45.5035 30.1116 44.8579 30.0442 44.239 30.2281C44.1041 30.2689 43.8713 30.4119 43.7364 30.5039L43.0766 30.1198L43.3606 27.458L43.3687 27.458L43.3851 27.0903L46.6495 27.0903L46.4146 27.9279L44.1552 27.9279L43.9959 29.4253C44.0122 29.4171 44.0224 29.4171 44.0306 29.4171C44.0306 29.4069 44.0388 29.4069 44.0388 29.4069Z" fill="url(#paint_linear_211)" fill-opacity="0" fill-rule="evenodd" />
			<path id="矢量 15237" d="M44.0388 29.4069C44.909 29.1577 45.8201 29.2823 46.39 29.7419C46.8415 30.1014 47.058 30.6469 47.0008 31.2822C46.9334 32.0605 46.2225 32.8715 45.0091 32.9389L44.8661 32.9389C43.763 32.9389 42.8825 32.2689 42.8499 32.2362L43.3606 31.5743C43.3613 31.5743 43.3675 31.5785 43.3788 31.5863C43.4983 31.6682 44.1879 32.1405 44.9662 32.1013C45.7874 32.0523 46.1306 31.5416 46.1633 31.2066C46.196 30.8471 46.0959 30.5795 45.863 30.3956C45.5035 30.1116 44.8579 30.0442 44.239 30.2281C44.1041 30.2689 43.8713 30.4119 43.7364 30.5039L43.0766 30.1198L43.3606 27.458L43.3687 27.458L43.3851 27.0903L46.6495 27.0903L46.4146 27.9279L44.1552 27.9279L43.9959 29.4253C44.0122 29.4171 44.0224 29.4171 44.0306 29.4171C44.0306 29.4069 44.0388 29.4069 44.0388 29.4069Z" fill="rgb(255,255,255)" fill-rule="evenodd" />
			<path id="矢量 15238" d="M51.3596 30.7632L51.7028 30.7632L51.9378 31.6007L51.3596 31.6007L51.3596 32.9388L50.5221 32.9388L50.5221 31.6007L47.8113 31.6007L47.8113 30.7632L47.8195 30.7632L47.8195 30.755L50.5139 27.082L51.3596 27.082L51.3596 30.7632ZM48.8572 30.7632L50.5221 30.7632L50.5221 28.4957L48.8572 30.7632Z" fill="url(#paint_linear_212)" fill-opacity="0" fill-rule="evenodd" />
			<path id="矢量 15238" d="M51.3596 30.7632L51.7028 30.7632L51.9378 31.6007L51.3596 31.6007L51.3596 32.9388L50.5221 32.9388L50.5221 31.6007L47.8113 31.6007L47.8113 30.7632L47.8195 30.7632L47.8195 30.755L50.5139 27.082L51.3596 27.082L51.3596 30.7632ZM48.8572 30.7632L50.5221 30.7632L50.5221 28.4957L48.8572 30.7632Z" fill="rgb(255,255,255)" fill-rule="evenodd" />
			<path id="矢量 15239" d="M56.4136 30.7632L56.7568 30.7632L56.9917 31.6007L56.4136 31.6007L56.4136 32.9388L55.576 32.9388L55.576 31.6007L52.8652 31.6007L52.8652 30.7632L52.8734 30.7632L52.8734 30.755L55.5679 27.082L56.4136 27.082L56.4136 30.7632ZM53.9112 30.7632L55.576 30.7632L55.576 28.4957L53.9112 30.7632Z" fill="url(#paint_linear_213)" fill-opacity="0" fill-rule="evenodd" />
			<path id="矢量 15239" d="M56.4136 30.7632L56.7568 30.7632L56.9917 31.6007L56.4136 31.6007L56.4136 32.9388L55.576 32.9388L55.576 31.6007L52.8652 31.6007L52.8652 30.7632L52.8734 30.7632L52.8734 30.755L55.5679 27.082L56.4136 27.082L56.4136 30.7632ZM53.9112 30.7632L55.576 30.7632L55.576 28.4957L53.9112 30.7632Z" fill="rgb(255,255,255)" fill-rule="evenodd" />
		</g>
		<g id="Pca9544(边框)">
			<path id="边框" d="M22.8384 26.9854L24.9614 26.9854C25.2686 26.9854 25.5519 27.0411 25.8112 27.1525C26.0885 27.2716 26.3385 27.4545 26.5611 27.701C26.773 27.9357 26.9254 28.1905 27.0184 28.4654C27.1162 28.7546 27.1483 29.066 27.1146 29.3997C27.088 29.6724 27.0174 29.923 26.9028 30.1516C26.7893 30.3782 26.6326 30.583 26.4327 30.7663C26.418 30.78 26.4029 30.7935 26.3877 30.8066C26.1603 31.0024 25.8748 31.1307 25.5313 31.1915C25.5158 31.1969 25.4982 31.2004 25.4783 31.2019L25.4602 31.211L25.4374 31.211L25.4315 31.209L25.4111 31.2191L25.353 31.2191L25.3284 31.2273L25.2529 31.2273L25.2283 31.2355L25.1022 31.2355L25.0532 31.2437L23.869 31.2437L23.869 33.0352L22.8384 33.0352L22.8384 26.9854ZM26.3669 30.6956C26.1238 30.9224 25.848 31.0388 25.5048 31.0981C25.4884 31.1062 25.4721 31.1062 25.4537 31.1062L25.4374 31.1144C25.421 31.1144 25.4047 31.1144 25.3884 31.1226L25.3373 31.1226L25.3128 31.1308L25.2372 31.1308L25.2127 31.1389L25.0942 31.1389L25.0452 31.1471L23.7725 31.1471L23.7725 32.9386L22.9349 32.9386L22.9349 27.0819L24.9614 27.0819C26.1667 27.0819 27.1452 28.136 27.0185 29.3903C26.9695 29.8928 26.7591 30.3361 26.3669 30.6956ZM26.183 29.3065C26.1483 29.617 26.0318 29.8683 25.7969 30.0767C25.7887 30.0848 25.7806 30.1012 25.7642 30.1114L25.7561 30.1196C25.6723 30.1849 25.5885 30.2278 25.4619 30.2605L25.4374 30.2605C25.3884 30.2687 25.3291 30.2871 25.2617 30.2871L25.229 30.2952L25.1534 30.2952L25.1289 30.3034L25.0268 30.3034L24.9859 30.3116L23.7725 30.3116L23.7725 27.9174L24.9777 27.9174C25.6886 27.9276 26.2586 28.5629 26.183 29.3065ZM25.7037 30.0353L25.6921 30.0469C25.6234 30.0995 25.5425 30.1385 25.4493 30.164L25.4294 30.164L25.4215 30.1653C25.4107 30.1671 25.3945 30.1703 25.3728 30.1749C25.3241 30.1853 25.287 30.1905 25.2617 30.1905L25.2498 30.1905L25.2171 30.1987L25.1378 30.1987L25.1132 30.2069L25.0172 30.2069L24.9764 30.215L23.869 30.215L23.869 28.014L24.9777 28.014C25.1292 28.0162 25.2693 28.0448 25.3981 28.0999C25.5484 28.1641 25.6832 28.2644 25.8027 28.4006C25.9113 28.5245 25.9896 28.6585 26.0374 28.8025C26.0883 28.9558 26.1048 29.1206 26.0869 29.2968C26.066 29.4843 26.0096 29.6489 25.9177 29.7905C25.8669 29.8689 25.8053 29.9402 25.7328 30.0044L25.7307 30.0063L25.7286 30.0084C25.7237 30.0133 25.718 30.0201 25.7116 30.0286L25.7131 30.0295L25.7037 30.0353Z" fill="url(#paint_linear_214)" fill-opacity="0" fill-rule="evenodd" />
			<path id="边框" d="M31.8079 27.8878L31.8082 27.8882C31.9654 28.1053 32.0795 28.3672 32.1503 28.674L32.1654 28.7396L31.1933 29.3774L31.1816 29.2133C31.1595 28.9043 31.0902 28.6648 30.9738 28.4948L30.9627 28.486L30.9392 28.4506C30.8168 28.2825 30.6736 28.164 30.5096 28.0953C30.3963 28.0479 30.2731 28.0242 30.14 28.0242C29.9717 28.0242 29.8196 28.0574 29.6836 28.1237C29.4442 28.2406 29.255 28.4605 29.116 28.7834C29.0092 29.044 28.9557 29.4138 28.9557 29.8928L28.9557 30.2548L28.966 30.2895L28.966 30.3753L28.9741 30.408L28.9741 30.4851C28.9751 30.4877 28.9761 30.4902 28.9769 30.4928C28.9805 30.504 28.9823 30.5158 28.9823 30.5281L28.9823 30.5629L28.9803 30.5605L28.9905 30.5809L28.9905 30.632L28.9986 30.6483L28.9986 30.6946L29.0088 30.7471L29.0232 30.8212L29.0232 30.8365C29.0242 30.839 29.0251 30.8416 29.0259 30.8442C29.0276 30.8492 29.0288 30.8544 29.0297 30.8597L29.037 30.8833L29.038 30.8891C29.041 30.9061 29.0466 30.9312 29.0548 30.9646C29.0632 30.9989 29.0691 31.0255 29.0723 31.0441L29.0784 31.0698C29.1203 31.1804 29.1622 31.2749 29.204 31.3532C29.2788 31.4949 29.3554 31.6083 29.4336 31.6935C29.5306 31.8018 29.6397 31.8818 29.7609 31.9335C29.8717 31.9809 29.9926 32.0045 30.1237 32.0045C30.4053 32.0045 30.6413 31.9387 30.8318 31.8069L30.8318 31.8069C30.9297 31.7392 31.0156 31.6542 31.0894 31.5517L31.0894 31.3863L32.0301 32.008L31.9778 32.0884C31.8134 32.341 31.6158 32.5431 31.385 32.6946C31.0391 32.9217 30.6187 33.0352 30.1237 33.0352C29.8365 33.0352 29.5725 32.9823 29.3319 32.8764C28.9193 32.6949 28.5752 32.3579 28.2995 31.8652C28.1627 31.6268 28.0643 31.3549 28.0045 31.0492L28.0027 31.04L28.0027 30.9992L27.978 30.8739L27.968 30.8237L27.968 30.789L27.9613 30.7556L27.961 30.7538C27.958 30.7351 27.9551 30.7089 27.9522 30.6752C27.9497 30.6458 27.9474 30.6252 27.9452 30.6136L27.9435 30.6047L27.9435 30.5605C27.9326 30.4696 27.9271 30.4003 27.9271 30.3524L27.9271 30.2767L27.9189 30.2277L27.9189 29.8846C27.9189 29.2785 27.999 28.7807 28.1592 28.3911C28.3152 28.015 28.5312 27.7091 28.8072 27.4734C28.851 27.436 28.8962 27.4004 28.943 27.3665C29.091 27.2595 29.2474 27.175 29.4122 27.1131C29.6388 27.0279 29.8814 26.9854 30.14 26.9854C30.4262 26.9854 30.6897 27.0376 30.9305 27.1422C31.2674 27.2884 31.5598 27.537 31.8079 27.8878ZM31.2678 29.0975C31.2347 28.8079 31.1561 28.5847 31.045 28.4281L31.0348 28.42L31.0184 28.3954C30.7753 28.0604 30.5159 27.9276 30.14 27.9276C29.6375 27.9276 29.2534 28.2198 29.0267 28.7468C28.9103 29.0308 28.8592 29.4066 28.8592 29.8928L28.8592 30.2687L28.8694 30.3034L28.8694 30.3872L28.8776 30.4199L28.8776 30.5118C28.8857 30.52 28.8857 30.52 28.8857 30.5281L28.8857 30.5629C28.8857 30.5792 28.8857 30.5874 28.8939 30.6037L28.8939 30.6384C28.8939 30.6466 28.8939 30.6548 28.9021 30.6711L28.9021 30.7038C28.9103 30.7467 28.9184 30.7876 28.9266 30.8305L28.9266 30.8632C28.9348 30.8713 28.9348 30.8713 28.9348 30.8795L28.9429 30.906C28.9532 30.9632 28.9695 31.0143 28.9777 31.0633L28.9858 31.0981C29.0267 31.2063 29.0696 31.3064 29.1186 31.3984C29.1942 31.5414 29.2698 31.6578 29.3617 31.7579C29.5721 31.9928 29.8642 32.1011 30.1237 32.1011C30.5771 32.1011 30.9044 31.9483 31.137 31.6493C31.1538 31.6277 31.1701 31.6053 31.1859 31.5822L31.1859 31.5659L31.2742 31.6242L31.8968 32.0357C31.8911 32.0445 31.8854 32.0532 31.8796 32.0618C31.8674 32.08 31.855 32.0979 31.8424 32.1155C31.4492 32.6649 30.8591 32.9386 30.1237 32.9386C29.3617 32.9386 28.7856 32.5362 28.3832 31.8171C28.2484 31.5822 28.1565 31.3228 28.0993 31.0307L28.0993 30.9898C28.0911 30.9469 28.0829 30.906 28.0727 30.855L28.0645 30.8141L28.0645 30.7794L28.0564 30.7385C28.0482 30.6875 28.0482 30.6384 28.04 30.5955L28.04 30.5547C28.0318 30.4873 28.0237 30.4199 28.0237 30.3524L28.0237 30.2687L28.0155 30.2197L28.0155 29.8846C28.0155 29.3065 28.0829 28.8306 28.2484 28.4281C28.5916 27.6008 29.278 27.0819 30.14 27.0819C30.8101 27.0819 31.3208 27.3659 31.7293 27.944C31.8805 28.1523 31.9888 28.4036 32.0562 28.6957L31.3699 29.1461L31.2779 29.2064C31.2752 29.1691 31.2718 29.1329 31.2678 29.0975Z" fill="url(#paint_linear_215)" fill-opacity="0" fill-rule="evenodd" />
			<path id="边框" d="M36.7851 30.3958L37.2689 33.0352L36.2355 33.0352L36.0599 32.1139L34.1115 32.1139L33.9358 33.0352L32.9106 33.0352L33.3916 30.4111L33.3916 30.38L33.4277 30.2695L33.459 30.1327L33.4777 30.031L33.5027 29.9373L33.5277 29.8353L33.5523 29.7428L33.5708 29.6751L33.5875 29.6144L33.6117 29.5318L33.6344 29.4468L33.6432 29.3828L33.6638 29.328C33.7289 29.0874 33.8302 28.7737 33.9677 28.3869L33.9677 28.3771L34.5175 26.9854L35.662 26.9854L36.2118 28.3771L36.2118 28.387C36.3278 28.7138 36.4266 29.0281 36.508 29.3297L36.5241 29.378L36.5431 29.4391L36.5678 29.5318L36.5924 29.6159L36.6106 29.682L36.6187 29.7489L36.6437 29.8352L36.6682 29.9354L36.6927 30.0274L36.7197 30.1291L36.7524 30.2723L36.776 30.3685L36.7829 30.3893L36.7851 30.3958ZM36.3154 32.9386L36.1398 32.0173L34.0316 32.0173L33.8559 32.9386L33.0265 32.9386L33.0442 32.8421L33.4882 30.4199L33.4882 30.3953L33.5209 30.2952L33.5536 30.1523L33.5719 30.0522L33.5965 29.9602L33.621 29.8601L33.6455 29.7682L33.6639 29.7008L33.6802 29.6416L33.7047 29.5578L33.7292 29.4659L33.7374 29.4066L33.7558 29.3576C33.8396 29.0471 33.9478 28.7305 34.0643 28.4036L34.0643 28.3954L34.5831 27.0819L35.5964 27.0819L36.1152 28.3954L36.1152 28.4036C36.2317 28.7305 36.3318 29.0471 36.4155 29.3576L36.4319 29.4066L36.4503 29.4659L36.4748 29.5578L36.4993 29.6416L36.5156 29.7008L36.5238 29.7682L36.5504 29.8601L36.5749 29.9602L36.5994 30.0522L36.6259 30.1523L36.6586 30.2952L36.6831 30.3953L36.6913 30.4199L37.1353 32.8421L37.153 32.9386L36.3154 32.9386ZM34.3319 30.4873L34.3666 30.3524L34.3911 30.2442L34.4156 30.1523C34.4156 30.1359 34.4238 30.1277 34.4238 30.1196L34.4422 30.0522L34.5157 29.7764L34.5239 29.7171L34.5423 29.6579L34.5668 29.5741C34.6424 29.3065 34.7261 29.0308 34.8344 28.7468L34.8507 28.6957L35.0345 28.2244L35.0857 28.0931L35.1384 28.2238L35.3288 28.6957L35.3451 28.7468C35.4452 29.0308 35.5371 29.3065 35.6127 29.5741L35.6291 29.6579L35.6454 29.7171L35.6638 29.7764L35.7373 30.0522L35.7557 30.1196C35.7557 30.1277 35.7557 30.1359 35.7639 30.1523L35.7884 30.2442L35.8129 30.3524L35.8476 30.4873L35.864 30.5874L35.9615 31.0853L35.9804 31.1818L34.1991 31.1818L34.2167 31.0853L34.3074 30.5874L34.3319 30.4873ZM34.4605 30.3751L34.4849 30.2673L34.5122 30.1649L34.5122 30.1616C34.5149 30.1541 34.517 30.1469 34.5184 30.1398L34.5353 30.0776L34.56 29.9851L34.5845 29.8932L34.6106 29.7955L34.6185 29.7382L34.6345 29.6865L34.6595 29.6013C34.75 29.2807 34.8384 29.0074 34.9246 28.7812L34.9256 28.7788L34.9418 28.728L35.0872 28.355L35.2379 28.7286L35.2536 28.7776L35.254 28.7789C35.3665 29.098 35.4547 29.3706 35.5187 29.5966L35.535 29.68L35.5527 29.7443L35.571 29.8031L35.595 29.8932L35.644 30.077L35.6599 30.1352L35.6602 30.1383L35.6605 30.1409C35.6625 30.1558 35.6665 30.1705 35.6727 30.1849L35.6946 30.2673L35.719 30.3751L35.753 30.5071L35.7689 30.6045L35.8631 31.0853L34.3148 31.0853L34.4018 30.6075L34.4257 30.5102L34.4605 30.3751Z" fill="url(#paint_linear_216)" fill-opacity="0" fill-rule="evenodd" />
			<path id="边框" d="M42.1387 28.4056C42.255 28.7512 42.3037 29.2672 42.2847 29.9535L42.2847 30.07L42.2847 30.0714L42.2841 30.0915C42.2721 30.5124 42.2402 30.8412 42.1884 31.0781C42.1057 31.4561 41.9573 31.7831 41.743 32.0589L41.7419 32.0602C41.7206 32.0877 41.6986 32.1146 41.676 32.141C41.3442 32.513 40.9819 32.7644 40.5892 32.8953C40.3153 32.9887 39.9869 33.0353 39.604 33.0353C39.3229 33.0353 39.0276 33.0097 38.718 32.9584L38.6231 32.9427L38.7867 31.9334L38.8819 31.9487C39.4694 32.043 39.9337 32.0313 40.275 31.9134C40.5007 31.8355 40.707 31.6876 40.8937 31.4699C41.0284 31.3151 41.1246 31.1152 41.1823 30.8703C41.042 30.9545 40.8961 31.0215 40.7444 31.0712C40.5265 31.1427 40.2968 31.1784 40.0555 31.1784L40.0473 31.1784C39.6213 31.1784 39.2529 31.0838 38.9422 30.8945C38.8183 30.819 38.7035 30.7285 38.5979 30.6229C38.4861 30.5105 38.3898 30.3886 38.3089 30.2572C38.0974 29.9135 37.9917 29.5047 37.9917 29.0309C37.9917 28.7777 38.0331 28.5398 38.1159 28.3174C38.2051 28.0778 38.3424 27.8561 38.5277 27.6522C38.7122 27.4503 38.9187 27.2942 39.1474 27.184C39.4121 27.0564 39.7063 26.9903 40.0302 26.9855C40.6107 26.9807 41.0831 27.1175 41.4472 27.3958C41.7548 27.631 41.9852 27.9672 42.1384 28.4045L42.1387 28.4056ZM42.0472 28.4364C42.1882 28.8552 42.2066 29.2903 42.1882 29.9522L42.1882 30.0686C42.1718 30.6386 42.1555 31.4332 41.6039 32.0767C41.4017 32.3034 41.0851 32.6283 40.558 32.8039C40.2822 32.8979 39.9636 32.9388 39.604 32.9388C39.3641 32.9388 39.1029 32.9191 38.8292 32.8782C38.811 32.8755 38.7928 32.8727 38.7746 32.8698C38.761 32.8676 38.7474 32.8654 38.7338 32.8632L38.8666 32.044C40.2148 32.2606 40.6581 31.8928 40.9666 31.5333C41.1536 31.3184 41.2479 31.0601 41.2968 30.7968C41.3051 30.7523 41.312 30.7077 41.3179 30.6631C41.2823 30.6896 41.2459 30.715 41.2088 30.7392C40.8718 30.9592 40.4769 31.0818 40.0555 31.0818L40.0473 31.0818C39.4958 31.0818 39.0096 30.898 38.6664 30.5548C38.2905 30.1769 38.0883 29.6417 38.0883 29.0309C38.0883 28.5549 38.2721 28.0769 38.599 27.7173C38.9667 27.3149 39.4774 27.0902 40.031 27.082C41.0258 27.0739 41.7367 27.5498 42.0472 28.4364ZM40.0555 30.2443L40.0473 30.2443C39.7123 30.2443 39.4447 30.1524 39.2527 29.9603C39.0423 29.7418 38.9258 29.417 38.9258 29.0309C38.9258 28.7633 39.0341 28.4875 39.2179 28.2791C39.3691 28.1198 39.6285 27.9278 40.0473 27.9175L40.0718 27.9175C40.6826 27.9175 41.0687 28.177 41.2526 28.704C41.3098 28.8634 41.3363 29.1228 41.3527 29.3577C41.0013 30.2116 40.3905 30.2443 40.0555 30.2443ZM39.0642 28.7399C39.1067 28.5983 39.1817 28.4664 39.2892 28.3443C39.3777 28.2513 39.476 28.1779 39.584 28.1241C39.7227 28.0551 39.8776 28.0184 40.0485 28.0141L40.0718 28.0141C40.3891 28.0141 40.6434 28.0917 40.8346 28.247C40.98 28.3651 41.0889 28.528 41.1614 28.7358C41.2027 28.8508 41.2338 29.0527 41.2547 29.3417C41.1364 29.6201 40.9722 29.8263 40.7619 29.9605C40.5662 30.0853 40.3308 30.1477 40.0555 30.1477L40.0473 30.1477C39.7627 30.1477 39.5371 30.0776 39.3704 29.9374C39.3533 29.9231 39.3368 29.9079 39.3209 29.8921C39.3014 29.8718 39.2829 29.8507 39.2652 29.8289L39.2652 29.8288C39.1033 29.6281 39.0224 29.3621 39.0224 29.0309C39.0224 28.9297 39.0363 28.8327 39.0642 28.7399Z" fill="url(#paint_linear_217)" fill-opacity="0" fill-rule="evenodd" />
			<path id="边框" d="M45.3406 29.2128C45.7827 29.2751 46.1526 29.4263 46.4504 29.6663L46.4508 29.6666C46.6463 29.8224 46.7981 30.0014 46.9063 30.2039C47.071 30.512 47.1347 30.8742 47.0972 31.2904C47.0844 31.4376 47.054 31.5785 47.0058 31.7131C46.9089 31.9838 46.7403 32.2289 46.5 32.4483C46.4059 32.5342 46.3059 32.6107 46.2 32.6779C45.8644 32.8908 45.4693 33.0099 45.0146 33.0352L45.0119 33.0353L44.8662 33.0353C44.3891 33.0353 43.9055 32.9192 43.4154 32.6869C43.0972 32.5362 42.886 32.4086 42.7817 32.3043L42.7217 32.2443L43.3132 31.4776L43.3607 31.4776C43.3811 31.4776 43.4054 31.4872 43.4335 31.5065C43.955 31.8637 44.464 32.0298 44.9606 32.0048C45.2924 31.985 45.5601 31.8893 45.7638 31.7176C45.7746 31.7085 45.7851 31.6992 45.7955 31.6898C45.9397 31.5582 46.0271 31.4154 46.0579 31.2612L46.0579 31.2611C46.0621 31.2402 46.0652 31.2191 46.0673 31.1977C46.0885 30.9641 46.0481 30.7726 45.9461 30.6232C45.9073 30.5665 45.8598 30.5158 45.8033 30.4713C45.7568 30.4345 45.708 30.4016 45.6571 30.3724C45.3007 30.1683 44.8373 30.151 44.2671 30.3204C44.1589 30.3532 44.0002 30.4409 43.791 30.5835L43.7406 30.6178L42.9741 30.1717L43.2739 27.3614L43.2765 27.3614L43.2929 26.9937L46.777 26.9937L46.4879 28.0243L44.2422 28.0243L44.1077 29.288C44.4555 29.1986 44.799 29.1664 45.1384 29.1912C45.206 29.1962 45.2734 29.2034 45.3406 29.2128ZM43.3607 27.4579L43.3689 27.4579L43.3852 27.0902L46.6496 27.0902L46.6225 27.1868L46.4147 27.9278L44.1554 27.9278L44.0079 29.313L44.007 29.322L43.9969 29.417L43.996 29.4251C44.0124 29.417 44.0226 29.417 44.0307 29.417C44.0307 29.4068 44.0389 29.4068 44.0389 29.4068C44.0582 29.4012 44.0775 29.3959 44.0968 29.3908C44.9493 29.1632 45.8329 29.2923 46.3902 29.7418C46.8416 30.1013 47.0582 30.6467 47.001 31.2821C46.9336 32.0604 46.2227 32.8714 45.0092 32.9388L44.8662 32.9388C43.938 32.9388 43.1673 32.4643 42.9269 32.2944C42.9208 32.2901 42.915 32.286 42.9096 32.282C42.8749 32.257 42.8545 32.2405 42.85 32.236L43.3607 31.5742C43.3614 31.5742 43.3676 31.5784 43.3789 31.5862C43.4985 31.6681 44.1881 32.1404 44.9663 32.1012C45.7876 32.0522 46.1307 31.5415 46.1634 31.2065C46.1961 30.8469 46.096 30.5793 45.8631 30.3955C45.5036 30.1115 44.8581 30.0441 44.2391 30.228C44.1043 30.2688 43.8714 30.4118 43.7366 30.5037L43.0768 30.1197L43.3607 27.4579Z" fill="url(#paint_linear_218)" fill-opacity="0" fill-rule="evenodd" />
			<path id="边框" d="M51.7762 30.6665L52.0652 31.6972L51.4563 31.6972L51.4563 33.0352L50.4257 33.0352L50.4257 31.6972L47.7148 31.6972L47.7148 30.6665L47.7647 30.6665L50.4651 26.9854L51.4563 26.9854L51.4563 30.6665L51.7762 30.6665ZM51.3598 31.6006L51.3598 32.9386L50.5222 32.9386L50.5222 31.6006L47.8114 31.6006L47.8114 30.7631L47.8196 30.7631L47.8196 30.7549L50.514 27.0819L51.3598 27.0819L51.3598 30.7631L51.703 30.7631L51.9108 31.504L51.9379 31.6006L51.3598 31.6006ZM48.8573 30.7631L50.5222 30.7631L50.5222 28.4955L48.8573 30.7631ZM49.048 30.6665L50.4257 30.6665L50.4257 28.7902L49.048 30.6665Z" fill="url(#paint_linear_219)" fill-opacity="0" fill-rule="evenodd" />
			<path id="边框" d="M56.8301 30.6665L57.1192 31.6972L56.5103 31.6972L56.5103 33.0352L55.4796 33.0352L55.4796 31.6972L52.7688 31.6972L52.7688 30.6665L52.8186 30.6665L55.5191 26.9854L56.5103 26.9854L56.5103 30.6665L56.8301 30.6665ZM56.4137 31.6006L56.4137 32.9386L55.5762 32.9386L55.5762 31.6006L52.8654 31.6006L52.8654 30.7631L52.8735 30.7631L52.8735 30.7549L55.568 27.0819L56.4137 27.0819L56.4137 30.7631L56.7569 30.7631L56.9647 31.504L56.9918 31.6006L56.4137 31.6006ZM53.9113 30.7631L55.5762 30.7631L55.5762 28.4955L53.9113 30.7631ZM54.102 30.6665L55.4796 30.6665L55.4796 28.7902L54.102 30.6665Z" fill="url(#paint_linear_220)" fill-opacity="0" fill-rule="evenodd" />
		</g>
	</g>
</svg>
