<svg viewBox="0 0 52 52" xmlns="http://www.w3.org/2000/svg" xmlns:xlink="http://www.w3.org/1999/xlink" width="52.000000" height="52.000000" fill="none" customFrame="#000000">
	<defs>
		<clipPath id="clipPath_22">
			<rect width="25.252510" height="4.552032" x="0.000000" y="0.000000" fill="rgb(255,255,255)" transform="matrix(0,-1,1,0,0,38.1929)" />
		</clipPath>
		<linearGradient id="paint_linear_154" x1="1.41114271" x2="1.42086494" y1="4.74481153" y2="-0.431328297" gradientUnits="userSpaceOnUse">
			<stop stop-color="rgb(0,0,0)" offset="0" stop-opacity="0.5" />
			<stop stop-color="rgb(242,241,241)" offset="0.463651955" stop-opacity="1" />
			<stop stop-color="rgb(243,242,242)" offset="1" stop-opacity="0" />
		</linearGradient>
		<linearGradient id="paint_linear_155" x1="1.41114271" x2="1.42086494" y1="4.74481153" y2="-0.431328297" gradientUnits="userSpaceOnUse">
			<stop stop-color="rgb(0,0,0)" offset="0" stop-opacity="0.5" />
			<stop stop-color="rgb(242,241,241)" offset="0.463651955" stop-opacity="1" />
			<stop stop-color="rgb(243,242,242)" offset="1" stop-opacity="0" />
		</linearGradient>
		<linearGradient id="paint_linear_156" x1="1.41114271" x2="1.42086494" y1="4.74481153" y2="-0.431328297" gradientUnits="userSpaceOnUse">
			<stop stop-color="rgb(0,0,0)" offset="0" stop-opacity="0.5" />
			<stop stop-color="rgb(242,241,241)" offset="0.463651955" stop-opacity="1" />
			<stop stop-color="rgb(243,242,242)" offset="1" stop-opacity="0" />
		</linearGradient>
		<linearGradient id="paint_linear_157" x1="1.41114271" x2="1.42086494" y1="4.74481153" y2="-0.431328297" gradientUnits="userSpaceOnUse">
			<stop stop-color="rgb(0,0,0)" offset="0" stop-opacity="0.5" />
			<stop stop-color="rgb(242,241,241)" offset="0.463651955" stop-opacity="1" />
			<stop stop-color="rgb(243,242,242)" offset="1" stop-opacity="0" />
		</linearGradient>
		<clipPath id="clipPath_23">
			<rect width="25.252510" height="4.551926" x="0.000000" y="0.000000" fill="rgb(255,255,255)" transform="matrix(1,0,0,-1,12.9404,52)" />
		</clipPath>
		<linearGradient id="paint_linear_158" x1="1.41114271" x2="1.42086494" y1="4.74481153" y2="-0.431328297" gradientUnits="userSpaceOnUse">
			<stop stop-color="rgb(0,0,0)" offset="0" stop-opacity="0.5" />
			<stop stop-color="rgb(242,241,241)" offset="0.463651955" stop-opacity="1" />
			<stop stop-color="rgb(243,242,242)" offset="1" stop-opacity="0" />
		</linearGradient>
		<linearGradient id="paint_linear_159" x1="1.41114271" x2="1.42086494" y1="4.74481153" y2="-0.431328297" gradientUnits="userSpaceOnUse">
			<stop stop-color="rgb(0,0,0)" offset="0" stop-opacity="0.5" />
			<stop stop-color="rgb(242,241,241)" offset="0.463651955" stop-opacity="1" />
			<stop stop-color="rgb(243,242,242)" offset="1" stop-opacity="0" />
		</linearGradient>
		<linearGradient id="paint_linear_160" x1="1.41114271" x2="1.42086494" y1="4.74481153" y2="-0.431328297" gradientUnits="userSpaceOnUse">
			<stop stop-color="rgb(0,0,0)" offset="0" stop-opacity="0.5" />
			<stop stop-color="rgb(242,241,241)" offset="0.463651955" stop-opacity="1" />
			<stop stop-color="rgb(243,242,242)" offset="1" stop-opacity="0" />
		</linearGradient>
		<linearGradient id="paint_linear_161" x1="1.41114271" x2="1.42086494" y1="4.74481153" y2="-0.431328297" gradientUnits="userSpaceOnUse">
			<stop stop-color="rgb(0,0,0)" offset="0" stop-opacity="0.5" />
			<stop stop-color="rgb(242,241,241)" offset="0.463651955" stop-opacity="1" />
			<stop stop-color="rgb(243,242,242)" offset="1" stop-opacity="0" />
		</linearGradient>
		<clipPath id="clipPath_24">
			<rect width="25.252510" height="4.551926" x="0.000000" y="0.000000" fill="rgb(255,255,255)" transform="matrix(0,1,-1,0,52,12.9404)" />
		</clipPath>
		<linearGradient id="paint_linear_162" x1="1.41114271" x2="1.42086494" y1="4.74481153" y2="-0.431328297" gradientUnits="userSpaceOnUse">
			<stop stop-color="rgb(0,0,0)" offset="0" stop-opacity="0.5" />
			<stop stop-color="rgb(242,241,241)" offset="0.463651955" stop-opacity="1" />
			<stop stop-color="rgb(243,242,242)" offset="1" stop-opacity="0" />
		</linearGradient>
		<linearGradient id="paint_linear_163" x1="1.41114271" x2="1.42086494" y1="4.74481153" y2="-0.431328297" gradientUnits="userSpaceOnUse">
			<stop stop-color="rgb(0,0,0)" offset="0" stop-opacity="0.5" />
			<stop stop-color="rgb(242,241,241)" offset="0.463651955" stop-opacity="1" />
			<stop stop-color="rgb(243,242,242)" offset="1" stop-opacity="0" />
		</linearGradient>
		<linearGradient id="paint_linear_164" x1="1.41114271" x2="1.42086494" y1="4.74481153" y2="-0.431328297" gradientUnits="userSpaceOnUse">
			<stop stop-color="rgb(0,0,0)" offset="0" stop-opacity="0.5" />
			<stop stop-color="rgb(242,241,241)" offset="0.463651955" stop-opacity="1" />
			<stop stop-color="rgb(243,242,242)" offset="1" stop-opacity="0" />
		</linearGradient>
		<linearGradient id="paint_linear_165" x1="1.41114271" x2="1.42086494" y1="4.74481153" y2="-0.431328297" gradientUnits="userSpaceOnUse">
			<stop stop-color="rgb(0,0,0)" offset="0" stop-opacity="0.5" />
			<stop stop-color="rgb(242,241,241)" offset="0.463651955" stop-opacity="1" />
			<stop stop-color="rgb(243,242,242)" offset="1" stop-opacity="0" />
		</linearGradient>
		<clipPath id="clipPath_25">
			<rect width="25.252510" height="4.552032" x="13.254639" y="0.000000" fill="rgb(255,255,255)" />
		</clipPath>
		<linearGradient id="paint_linear_166" x1="36.8835564" x2="36.8932762" y1="4.74481153" y2="-0.431328297" gradientUnits="userSpaceOnUse">
			<stop stop-color="rgb(0,0,0)" offset="0" stop-opacity="0.5" />
			<stop stop-color="rgb(242,241,241)" offset="0.463651955" stop-opacity="1" />
			<stop stop-color="rgb(243,242,242)" offset="1" stop-opacity="0" />
		</linearGradient>
		<linearGradient id="paint_linear_167" x1="29.4775486" x2="29.4872704" y1="4.74481153" y2="-0.431328297" gradientUnits="userSpaceOnUse">
			<stop stop-color="rgb(0,0,0)" offset="0" stop-opacity="0.5" />
			<stop stop-color="rgb(242,241,241)" offset="0.463651955" stop-opacity="1" />
			<stop stop-color="rgb(243,242,242)" offset="1" stop-opacity="0" />
		</linearGradient>
		<linearGradient id="paint_linear_168" x1="22.0715427" x2="22.0812645" y1="4.74481153" y2="-0.431328297" gradientUnits="userSpaceOnUse">
			<stop stop-color="rgb(0,0,0)" offset="0" stop-opacity="0.5" />
			<stop stop-color="rgb(242,241,241)" offset="0.463651955" stop-opacity="1" />
			<stop stop-color="rgb(243,242,242)" offset="1" stop-opacity="0" />
		</linearGradient>
		<linearGradient id="paint_linear_169" x1="14.665781" x2="14.6755037" y1="4.74481153" y2="-0.431328297" gradientUnits="userSpaceOnUse">
			<stop stop-color="rgb(0,0,0)" offset="0" stop-opacity="0.5" />
			<stop stop-color="rgb(242,241,241)" offset="0.463651955" stop-opacity="1" />
			<stop stop-color="rgb(243,242,242)" offset="1" stop-opacity="0" />
		</linearGradient>
		<linearGradient id="paint_linear_170" x1="18.0670223" x2="18.0670223" y1="23.1936035" y2="29.4311447" gradientUnits="userSpaceOnUse">
			<stop stop-color="rgb(42,44,68)" offset="0" stop-opacity="1" />
			<stop stop-color="rgb(86.1143,88.7724,120.67)" offset="0.530903637" stop-opacity="1" />
			<stop stop-color="rgb(37,40,64)" offset="1" stop-opacity="1" />
		</linearGradient>
		<linearGradient id="paint_linear_171" x1="23.2701778" x2="23.2701778" y1="23.1936035" y2="29.4311447" gradientUnits="userSpaceOnUse">
			<stop stop-color="rgb(42,44,68)" offset="0" stop-opacity="1" />
			<stop stop-color="rgb(86.1143,88.7724,120.67)" offset="0.530903637" stop-opacity="1" />
			<stop stop-color="rgb(37,40,64)" offset="1" stop-opacity="1" />
		</linearGradient>
		<linearGradient id="paint_linear_172" x1="28.4667187" x2="28.4667187" y1="23.1936035" y2="29.4311447" gradientUnits="userSpaceOnUse">
			<stop stop-color="rgb(42,44,68)" offset="0" stop-opacity="1" />
			<stop stop-color="rgb(86.1143,88.7724,120.67)" offset="0.530903637" stop-opacity="1" />
			<stop stop-color="rgb(37,40,64)" offset="1" stop-opacity="1" />
		</linearGradient>
		<linearGradient id="paint_linear_173" x1="33.6937866" x2="33.6937866" y1="23.1936035" y2="29.4311447" gradientUnits="userSpaceOnUse">
			<stop stop-color="rgb(42,44,68)" offset="0" stop-opacity="1" />
			<stop stop-color="rgb(86.1143,88.7724,120.67)" offset="0.530903637" stop-opacity="1" />
			<stop stop-color="rgb(37,40,64)" offset="1" stop-opacity="1" />
		</linearGradient>
	</defs>
	<g id="CHIP浅色">
		<g id="画板 2494" customFrame="url(#clipPath_22)">
			<rect id="画板 2494" width="25.252510" height="4.552032" x="0.000000" y="0.000000" fill="rgb(255,255,255)" fill-opacity="0" transform="matrix(0,-1,1,0,0,38.1929)" />
			<path id="矩形 3067" d="M0.758672 0L2.27602 0C2.69502 0 3.03469 0.339669 3.03469 0.758672L3.03469 4.55203L0 4.55203L0 0.758672C0 0.339669 0.339669 0 0.758672 0Z" fill="rgb(182,182,182)" fill-rule="evenodd" transform="matrix(0,-1,1,0,0,15.9751)" />
			<path id="矩形 3067" d="M0.758672 0L2.27602 0C2.69502 0 3.03469 0.339669 3.03469 0.758672L3.03469 4.55203L0 4.55203L0 0.758672C0 0.339669 0.339669 0 0.758672 0Z" fill="url(#paint_linear_154)" fill-opacity="0.600000024" fill-rule="evenodd" transform="matrix(0,-1,1,0,0,15.9751)" />
			<path id="矩形 3067" d="M0.758672 0L2.27602 0C2.69502 0 3.03469 0.339669 3.03469 0.758672L3.03469 4.55203L0 4.55203L0 0.758672C0 0.339669 0.339669 0 0.758672 0Z" fill="rgb(182,182,182)" fill-rule="evenodd" transform="matrix(0,-1,1,0,0,23.381)" />
			<path id="矩形 3067" d="M0.758672 0L2.27602 0C2.69502 0 3.03469 0.339669 3.03469 0.758672L3.03469 4.55203L0 4.55203L0 0.758672C0 0.339669 0.339669 0 0.758672 0Z" fill="url(#paint_linear_155)" fill-opacity="0.600000024" fill-rule="evenodd" transform="matrix(0,-1,1,0,0,23.381)" />
			<path id="矩形 3067" d="M0.758672 0L2.27602 0C2.69502 0 3.03469 0.339669 3.03469 0.758672L3.03469 4.55203L0 4.55203L0 0.758672C0 0.339669 0.339669 0 0.758672 0Z" fill="rgb(182,182,182)" fill-rule="evenodd" transform="matrix(0,-1,1,0,0,30.787)" />
			<path id="矩形 3067" d="M0.758672 0L2.27602 0C2.69502 0 3.03469 0.339669 3.03469 0.758672L3.03469 4.55203L0 4.55203L0 0.758672C0 0.339669 0.339669 0 0.758672 0Z" fill="url(#paint_linear_156)" fill-opacity="0.600000024" fill-rule="evenodd" transform="matrix(0,-1,1,0,0,30.787)" />
			<path id="矩形 3067" d="M0.758672 0L2.27602 0C2.69502 0 3.03469 0.339669 3.03469 0.758672L3.03469 4.55203L0 4.55203L0 0.758672C0 0.339669 0.339669 0 0.758672 0Z" fill="rgb(182,182,182)" fill-rule="evenodd" transform="matrix(0,-1,1,0,0,38.1929)" />
			<path id="矩形 3067" d="M0.758672 0L2.27602 0C2.69502 0 3.03469 0.339669 3.03469 0.758672L3.03469 4.55203L0 4.55203L0 0.758672C0 0.339669 0.339669 0 0.758672 0Z" fill="url(#paint_linear_157)" fill-opacity="0.600000024" fill-rule="evenodd" transform="matrix(0,-1,1,0,0,38.1929)" />
		</g>
		<g id="画板 1659" customFrame="url(#clipPath_23)">
			<rect id="画板 1659" width="25.252510" height="4.551926" x="0.000000" y="0.000000" fill="rgb(255,255,255)" fill-opacity="0" transform="matrix(1,0,0,-1,12.9404,52)" />
			<path id="矩形 3067" d="M0.758672 0L2.27602 0C2.69502 0 3.03469 0.339669 3.03469 0.758672L3.03469 4.55203L0 4.55203L0 0.758672C0 0.339669 0.339669 0 0.758672 0Z" fill="rgb(182,182,182)" fill-rule="evenodd" transform="matrix(1,0,0,-1,35.1582,52)" />
			<path id="矩形 3067" d="M0.758672 0L2.27602 0C2.69502 0 3.03469 0.339669 3.03469 0.758672L3.03469 4.55203L0 4.55203L0 0.758672C0 0.339669 0.339669 0 0.758672 0Z" fill="url(#paint_linear_158)" fill-opacity="0.600000024" fill-rule="evenodd" transform="matrix(1,0,0,-1,35.1582,52)" />
			<path id="矩形 3067" d="M0.758672 0L2.27602 0C2.69502 0 3.03469 0.339669 3.03469 0.758672L3.03469 4.55203L0 4.55203L0 0.758672C0 0.339669 0.339669 0 0.758672 0Z" fill="rgb(182,182,182)" fill-rule="evenodd" transform="matrix(1,0,0,-1,27.7522,52)" />
			<path id="矩形 3067" d="M0.758672 0L2.27602 0C2.69502 0 3.03469 0.339669 3.03469 0.758672L3.03469 4.55203L0 4.55203L0 0.758672C0 0.339669 0.339669 0 0.758672 0Z" fill="url(#paint_linear_159)" fill-opacity="0.600000024" fill-rule="evenodd" transform="matrix(1,0,0,-1,27.7522,52)" />
			<path id="矩形 3067" d="M0.758672 0L2.27602 0C2.69502 0 3.03469 0.339669 3.03469 0.758672L3.03469 4.55203L0 4.55203L0 0.758672C0 0.339669 0.339669 0 0.758672 0Z" fill="rgb(182,182,182)" fill-rule="evenodd" transform="matrix(1,0,0,-1,20.3464,52)" />
			<path id="矩形 3067" d="M0.758672 0L2.27602 0C2.69502 0 3.03469 0.339669 3.03469 0.758672L3.03469 4.55203L0 4.55203L0 0.758672C0 0.339669 0.339669 0 0.758672 0Z" fill="url(#paint_linear_160)" fill-opacity="0.600000024" fill-rule="evenodd" transform="matrix(1,0,0,-1,20.3464,52)" />
			<path id="矩形 3067" d="M0.758672 0L2.27602 0C2.69502 0 3.03469 0.339669 3.03469 0.758672L3.03469 4.55203L0 4.55203L0 0.758672C0 0.339669 0.339669 0 0.758672 0Z" fill="rgb(182,182,182)" fill-rule="evenodd" transform="matrix(1,0,0,-1,12.9404,52)" />
			<path id="矩形 3067" d="M0.758672 0L2.27602 0C2.69502 0 3.03469 0.339669 3.03469 0.758672L3.03469 4.55203L0 4.55203L0 0.758672C0 0.339669 0.339669 0 0.758672 0Z" fill="url(#paint_linear_161)" fill-opacity="0.600000024" fill-rule="evenodd" transform="matrix(1,0,0,-1,12.9404,52)" />
		</g>
		<g id="画板 2495" customFrame="url(#clipPath_24)">
			<rect id="画板 2495" width="25.252510" height="4.551926" x="0.000000" y="0.000000" fill="rgb(255,255,255)" fill-opacity="0" transform="matrix(0,1,-1,0,52,12.9404)" />
			<path id="矩形 3067" d="M0.758672 0L2.27602 0C2.69502 0 3.03469 0.339669 3.03469 0.758672L3.03469 4.55203L0 4.55203L0 0.758672C0 0.339669 0.339669 0 0.758672 0Z" fill="rgb(182,182,182)" fill-rule="evenodd" transform="matrix(0,1,-1,0,52,35.1582)" />
			<path id="矩形 3067" d="M0.758672 0L2.27602 0C2.69502 0 3.03469 0.339669 3.03469 0.758672L3.03469 4.55203L0 4.55203L0 0.758672C0 0.339669 0.339669 0 0.758672 0Z" fill="url(#paint_linear_162)" fill-opacity="0.600000024" fill-rule="evenodd" transform="matrix(0,1,-1,0,52,35.1582)" />
			<path id="矩形 3067" d="M0.758672 0L2.27602 0C2.69502 0 3.03469 0.339669 3.03469 0.758672L3.03469 4.55203L0 4.55203L0 0.758672C0 0.339669 0.339669 0 0.758672 0Z" fill="rgb(182,182,182)" fill-rule="evenodd" transform="matrix(0,1,-1,0,52,27.7523)" />
			<path id="矩形 3067" d="M0.758672 0L2.27602 0C2.69502 0 3.03469 0.339669 3.03469 0.758672L3.03469 4.55203L0 4.55203L0 0.758672C0 0.339669 0.339669 0 0.758672 0Z" fill="url(#paint_linear_163)" fill-opacity="0.600000024" fill-rule="evenodd" transform="matrix(0,1,-1,0,52,27.7523)" />
			<path id="矩形 3067" d="M0.758672 0L2.27602 0C2.69502 0 3.03469 0.339669 3.03469 0.758672L3.03469 4.55203L0 4.55203L0 0.758672C0 0.339669 0.339669 0 0.758672 0Z" fill="rgb(182,182,182)" fill-rule="evenodd" transform="matrix(0,1,-1,0,52,20.3463)" />
			<path id="矩形 3067" d="M0.758672 0L2.27602 0C2.69502 0 3.03469 0.339669 3.03469 0.758672L3.03469 4.55203L0 4.55203L0 0.758672C0 0.339669 0.339669 0 0.758672 0Z" fill="url(#paint_linear_164)" fill-opacity="0.600000024" fill-rule="evenodd" transform="matrix(0,1,-1,0,52,20.3463)" />
			<path id="矩形 3067" d="M0.758672 0L2.27602 0C2.69502 0 3.03469 0.339669 3.03469 0.758672L3.03469 4.55203L0 4.55203L0 0.758672C0 0.339669 0.339669 0 0.758672 0Z" fill="rgb(182,182,182)" fill-rule="evenodd" transform="matrix(0,1,-1,0,52,12.9404)" />
			<path id="矩形 3067" d="M0.758672 0L2.27602 0C2.69502 0 3.03469 0.339669 3.03469 0.758672L3.03469 4.55203L0 4.55203L0 0.758672C0 0.339669 0.339669 0 0.758672 0Z" fill="url(#paint_linear_165)" fill-opacity="0.600000024" fill-rule="evenodd" transform="matrix(0,1,-1,0,52,12.9404)" />
		</g>
		<g id="画板 1659" customFrame="url(#clipPath_25)">
			<rect id="画板 1659" width="25.252510" height="4.552032" x="13.254639" y="0.000000" fill="rgb(255,255,255)" fill-opacity="0" />
			<path id="矩形 3067" d="M36.2311 0L37.7484 0C38.1674 0 38.5071 0.339669 38.5071 0.758672L38.5071 4.55203L35.4724 4.55203L35.4724 0.758672C35.4724 0.339669 35.8121 0 36.2311 0Z" fill="rgb(182,182,182)" fill-rule="evenodd" />
			<path id="矩形 3067" d="M36.2311 0L37.7484 0C38.1674 0 38.5071 0.339669 38.5071 0.758672L38.5071 4.55203L35.4724 4.55203L35.4724 0.758672C35.4724 0.339669 35.8121 0 36.2311 0Z" fill="url(#paint_linear_166)" fill-opacity="0.600000024" fill-rule="evenodd" />
			<path id="矩形 3067" d="M28.8251 0L30.3424 0C30.7614 0 31.1011 0.339669 31.1011 0.758672L31.1011 4.55203L28.0664 4.55203L28.0664 0.758672C28.0664 0.339669 28.4061 0 28.8251 0Z" fill="rgb(182,182,182)" fill-rule="evenodd" />
			<path id="矩形 3067" d="M28.8251 0L30.3424 0C30.7614 0 31.1011 0.339669 31.1011 0.758672L31.1011 4.55203L28.0664 4.55203L28.0664 0.758672C28.0664 0.339669 28.4061 0 28.8251 0Z" fill="url(#paint_linear_167)" fill-opacity="0.600000024" fill-rule="evenodd" />
			<path id="矩形 3067" d="M21.4191 0L22.9364 0C23.3554 0 23.6951 0.339669 23.6951 0.758672L23.6951 4.55203L20.6604 4.55203L20.6604 0.758672C20.6604 0.339669 21.0001 0 21.4191 0Z" fill="rgb(182,182,182)" fill-rule="evenodd" />
			<path id="矩形 3067" d="M21.4191 0L22.9364 0C23.3554 0 23.6951 0.339669 23.6951 0.758672L23.6951 4.55203L20.6604 4.55203L20.6604 0.758672C20.6604 0.339669 21.0001 0 21.4191 0Z" fill="url(#paint_linear_168)" fill-opacity="0.600000024" fill-rule="evenodd" />
			<path id="矩形 3067" d="M14.0133 0L15.5307 0C15.9497 0 16.2893 0.339669 16.2893 0.758672L16.2893 4.55203L13.2546 4.55203L13.2546 0.758672C13.2546 0.339669 13.5943 0 14.0133 0Z" fill="rgb(182,182,182)" fill-rule="evenodd" />
			<path id="矩形 3067" d="M14.0133 0L15.5307 0C15.9497 0 16.2893 0.339669 16.2893 0.758672L16.2893 4.55203L13.2546 4.55203L13.2546 0.758672C13.2546 0.339669 13.5943 0 14.0133 0Z" fill="url(#paint_linear_169)" fill-opacity="0.600000024" fill-rule="evenodd" />
		</g>
		<rect id="矩形 5798" width="43.134644" height="43.134647" x="4.313477" y="4.313477" rx="3.450772" fill="rgb(0,0,0)" />
		<rect id="矩形 5798" width="41.840603" height="41.840607" x="4.960496" y="4.960496" rx="2.803752" stroke="rgb(255,255,255)" stroke-width="1.294039" />
		<rect id="矩形 5800" width="34.507717" height="34.507717" x="8.626953" y="8.626953" rx="0.862693" fill="rgb(255,255,255)" fill-opacity="0.150000006" />
		<g id="PowerMeter">
			<g id="组合 91334921">
				<path id="矢量 15386" d="M15 25.3028L15 20L16.8348 20C17.9261 20 18.8121 20.9544 18.6974 22.09C18.653 22.545 18.4625 22.9464 18.1074 23.2719C17.8872 23.4772 17.6376 23.5826 17.3268 23.6363C17.312 23.6437 17.2972 23.6437 17.2806 23.6437L17.2658 23.6511C17.251 23.6511 17.2362 23.6511 17.2214 23.6585L17.1751 23.6585L17.153 23.6659L17.0845 23.6659L17.0623 23.6733L16.955 23.6733L16.9107 23.6807L15.7583 23.6807L15.7583 25.3028L15 25.3028ZM15.7583 20.7565L15.7583 22.9242L16.857 22.9242L16.894 22.9168L16.9865 22.9168L17.0087 22.9094L17.0771 22.9094L17.1067 22.902C17.1677 22.902 17.2214 22.8854 17.2658 22.878L17.288 22.878C17.4026 22.8484 17.4785 22.8095 17.5543 22.7503L17.5617 22.7429C17.5765 22.7337 17.5839 22.7189 17.5913 22.7115C17.804 22.5228 17.9094 22.2953 17.9409 22.0142C18.0093 21.341 17.4933 20.7657 16.8496 20.7565L15.7583 20.7565Z" fill="rgb(230,230,230)" fill-rule="evenodd" />
				<path id="矢量 15387" d="M21.4257 21.1671C22.0693 21.1671 22.5613 21.3928 22.8573 21.833C23.0922 22.1733 23.205 22.6283 23.205 23.235C23.205 23.8176 23.0774 24.2948 22.8277 24.6443C22.5243 25.0753 22.0397 25.3028 21.4257 25.3028C20.819 25.3028 20.3344 25.0753 20.0237 24.6443C19.774 24.2948 19.6445 23.8176 19.6445 23.235C19.6445 22.6283 19.7592 22.1733 19.9941 21.833C20.2974 21.3928 20.7894 21.1671 21.4257 21.1671ZM21.4257 24.6129C21.7734 24.6129 22.0083 24.4612 22.1748 24.2337C22.3431 24.0081 22.4263 23.6585 22.4263 23.235C22.4263 23.1739 22.4263 23.1055 22.4171 23.0518L22.4171 22.9927C22.4171 22.9612 22.4097 22.9316 22.4097 22.902L22.4023 22.841C22.3727 22.5839 22.3042 22.3786 22.1988 22.2343C22.0397 22.0068 21.7974 21.8552 21.4257 21.8552C21.0613 21.8552 20.8116 22.0068 20.66 22.2343C20.5545 22.3786 20.4861 22.5839 20.4565 22.841L20.4491 22.902C20.4399 22.9316 20.4399 22.9612 20.4399 23.0001L20.4325 23.0518L20.4325 23.2497C20.4325 23.6659 20.5157 24.0081 20.6748 24.2337C20.8431 24.4612 21.0854 24.6129 21.4257 24.6129Z" fill="rgb(230,230,230)" fill-rule="evenodd" />
				<path id="矢量 15388" d="M27.0537 23.0611L27.0537 21.1671L27.8804 21.1671L27.8804 23.0833L27.8656 23.3718L27.8416 23.6437L27.8194 23.9008L27.7584 24.4464L27.7436 24.5759L27.6455 25.3028L26.6375 25.3028L26.0012 23.8712L25.365 25.3028L24.357 25.3028L24.2589 24.5685L24.1979 24.0451L24.1683 23.7121L24.1517 23.4625L24.1221 23.0685L24.1221 21.1671L24.9562 21.1671L24.9562 23.0611L24.971 23.4458L24.9932 23.7195L25.0154 23.9248L25.0617 24.3336L25.0617 24.4168L25.6905 22.9686L26.3194 22.9686L26.9408 24.4094L26.9482 24.3336L27.0093 23.7806L27.0241 23.5142L27.0463 23.235L27.0537 23.0611Z" fill="rgb(230,230,230)" fill-rule="evenodd" />
				<path id="矢量 15389" d="M30.5384 24.6369C30.9416 24.6369 31.2135 24.5297 31.4021 24.2948L31.4336 24.2578L32.1068 24.6203L32.0698 24.6591C31.7369 25.0827 31.2061 25.3028 30.5384 25.3028C29.9187 25.3028 29.3953 25.0309 29.0383 24.5075C28.9255 24.341 28.8497 24.1597 28.796 23.947L28.7886 23.9248C28.7813 23.8934 28.7739 23.8564 28.7739 23.825L28.7591 23.7417C28.7517 23.7121 28.7517 23.6733 28.7443 23.6437L28.7443 23.6141C28.7369 23.5679 28.7276 23.5216 28.7276 23.4772L28.7202 23.3182L28.7202 23.1517C28.7202 22.7189 28.7886 22.3934 28.9255 22.1141C29.2289 21.5222 29.8337 21.1671 30.555 21.1671C31.1302 21.1671 31.5778 21.3632 31.9329 21.7719C32.153 22.0216 32.2585 22.4544 32.2733 22.878L32.2733 23.4772L29.5248 23.4772L29.5396 23.5901L29.5396 23.6141C29.5396 23.6215 29.5396 23.6289 29.547 23.6363L29.547 23.6585C29.547 23.6659 29.547 23.6733 29.5544 23.6807L29.5544 23.7047C29.5618 23.7343 29.5692 23.7658 29.5692 23.7954L29.584 23.849C29.5914 23.886 29.608 23.9156 29.6154 23.9544L29.6228 23.9692C29.6524 24.0377 29.6838 24.0987 29.7282 24.1745C29.7893 24.2726 29.8577 24.3484 29.9261 24.4168C30.0852 24.5519 30.3127 24.6369 30.5384 24.6369ZM30.555 21.833C30.1536 21.833 29.8337 22.0216 29.6598 22.3786C29.6006 22.4988 29.5544 22.6431 29.5322 22.8188L31.5464 22.8188L31.5464 22.8021C31.539 22.5229 31.4336 22.288 31.3115 22.1437L31.2893 22.1215C31.0914 21.9014 30.8657 21.833 30.555 21.833Z" fill="rgb(230,230,230)" fill-rule="evenodd" />
				<path id="矢量 15390" d="M35.591 21.1893C35.985 21.1671 36.3345 21.2799 36.5916 21.5296C36.7969 21.7201 36.932 21.9772 36.993 22.2491L36.3123 22.4766L36.3123 22.4396C36.3123 22.3028 36.2125 22.1511 36.0996 22.0605C35.9776 21.9624 35.8259 21.9162 35.6372 21.9162C35.1896 21.9014 34.8493 22.1141 34.607 22.349C34.3351 22.6135 34.1909 22.8632 34.1668 22.9242L34.1668 25.3102L33.4399 25.3102L33.4399 21.1671L34.1668 21.1671L34.1668 21.931C34.5996 21.5222 35.1064 21.2189 35.591 21.1893Z" fill="rgb(230,230,230)" fill-rule="evenodd" />
			</g>
			<g id="组合 91334922">
				<path id="矢量 15391" d="M17.5987 26.7415L18.5974 26.7415L18.6289 27.0745L18.6511 27.4314L18.6733 27.7496L18.6973 28.0066L18.7047 28.2193L18.7195 28.3618L18.7195 28.469L18.7269 28.5893L18.7343 28.6651L18.7417 28.7724L18.7417 28.9388L18.7491 28.961L18.7491 29.1053L18.7953 32.0369L18.0296 32.0369L17.9926 29.0905L17.9926 28.9999L17.9852 28.9462L17.9852 28.8556L17.9778 28.7798L17.9778 28.6577L17.9704 28.5523L17.9612 28.4376L17.9538 28.2952L17.939 28.1121L17.9316 27.9456L17.9168 27.7644L17.9094 27.7791L17.8946 27.818L17.878 27.8624L17.8632 27.9086L17.8484 27.9456C17.8484 27.953 17.841 27.9604 17.841 27.9678L17.8262 28.014L17.8114 28.0529C17.8114 28.0677 17.8021 28.0751 17.7947 28.0899L17.7947 28.1047L17.2343 29.9302L16.5444 29.9302L15.984 28.1047L15.984 28.0899C15.9766 28.0751 15.9766 28.0677 15.9692 28.0529L15.9544 28.014L15.9396 27.9678L15.9248 27.9308L15.9081 27.8846L15.8933 27.8402C15.8933 27.8328 15.8933 27.8254 15.886 27.818L15.8712 27.7865L15.8638 27.9382L15.849 28.1269L15.8323 28.3544L15.8249 28.5301L15.8101 28.7409L15.8101 28.9L15.8027 28.961L15.8027 29.0979L15.7565 32.0369L15 32.0369L15.0444 29.0979L15.0444 28.9074L15.0536 28.8556L15.0536 28.7261L15.061 28.6133L15.0684 28.5375L15.0758 28.4302L15.0832 28.31L15.098 27.9771L15.1128 27.8087L15.1295 27.559L15.1443 27.3241L15.1665 27.0449L15.1887 26.7341L15.9174 26.7415L16.1819 26.7415C16.1819 26.7489 16.1893 26.7489 16.1893 26.7563C16.2577 26.8932 16.3336 27.0523 16.4094 27.2409L16.4168 27.265L16.439 27.3094L16.4538 27.363L16.4778 27.4148L16.4926 27.461L16.5148 27.5073L16.5296 27.559L16.5444 27.6053L16.5684 27.6497L16.598 27.7422L16.6128 27.7791C16.6128 27.7865 16.6202 27.7939 16.6202 27.8013L16.6369 27.8476L16.6517 27.8846L16.6517 27.892L16.894 28.6725L17.1289 27.892L17.1363 27.8846L17.1437 27.8476L17.1585 27.8013L17.1733 27.757L17.1899 27.7181C17.1973 27.7107 17.1973 27.7033 17.1973 27.6959L17.2195 27.6497L17.2343 27.6053L17.2491 27.559L17.2657 27.5073L17.2879 27.461L17.3027 27.4148L17.3249 27.363L17.3416 27.3094L17.3638 27.265L17.3712 27.2409C17.3786 27.2335 17.3786 27.2261 17.3786 27.2187L17.4008 27.1725C17.4692 27.0134 17.5302 26.8618 17.5987 26.7415Z" fill="rgb(230,230,230)" fill-rule="evenodd" />
				<path id="矢量 15392" d="M21.4314 31.3711C21.8346 31.3711 22.1065 31.2638 22.2952 31.0289L22.3266 30.9919L22.9999 31.3544L22.9629 31.3933C22.63 31.8168 22.0991 32.0369 21.4314 32.0369C20.8118 32.0369 20.2884 31.765 19.9314 31.2416C19.8186 31.0751 19.7428 30.8939 19.6891 30.6812L19.6817 30.659C19.6743 30.6275 19.6669 30.5905 19.6669 30.5591L19.6521 30.4759C19.6447 30.4463 19.6447 30.4074 19.6373 30.3778L19.6373 30.3482C19.6299 30.302 19.6207 30.2558 19.6207 30.2114L19.6133 30.0523L19.6133 29.8859C19.6133 29.453 19.6817 29.1275 19.8186 28.8482C20.1219 28.2564 20.7267 27.9012 21.4481 27.9012C22.0233 27.9012 22.4709 28.0973 22.826 28.5061C23.0461 28.7558 23.1515 29.1886 23.1663 29.6121L23.1663 30.2114L20.4179 30.2114L20.4326 30.3242L20.4326 30.3482C20.4326 30.3556 20.4326 30.363 20.44 30.3704L20.44 30.3926C20.44 30.4 20.44 30.4074 20.4474 30.4148L20.4474 30.4389C20.4548 30.4685 20.4622 30.4999 20.4622 30.5295L20.477 30.5831C20.4844 30.6201 20.5011 30.6497 20.5085 30.6886L20.5159 30.7034C20.5455 30.7718 20.5769 30.8328 20.6213 30.9087C20.6823 31.0067 20.7508 31.0825 20.8192 31.151C20.9783 31.286 21.2058 31.3711 21.4314 31.3711ZM21.4481 28.5671C21.0467 28.5671 20.7267 28.7558 20.5529 29.1127C20.4937 29.2329 20.4474 29.3772 20.4252 29.5529L22.4394 29.5529L22.4394 29.5363C22.432 29.257 22.3266 29.0221 22.2046 28.8778L22.1824 28.8556C21.9844 28.6355 21.7588 28.5671 21.4481 28.5671Z" fill="rgb(230,230,230)" fill-rule="evenodd" />
				<path id="矢量 15393" d="M27.1295 31.3174L27.5234 31.31L27.7417 32.0369L27.1369 32.0369C26.8021 32.0369 26.4248 31.9 26.1288 31.6725C25.8865 31.4765 25.5684 31.1269 25.4389 30.5295C25.4315 30.5073 25.4241 30.4832 25.4241 30.4462C25.402 30.3242 25.3946 30.1966 25.3946 30.0745L25.3946 28.6207L24.1738 28.6207L24.3865 27.9012L25.402 27.9012L25.402 26.7341L26.1288 26.7341L26.1288 27.9012L27.7195 27.9012L27.7195 28.6207L26.1214 28.6207L26.1214 30.0745C26.1214 30.1651 26.1288 30.2483 26.1362 30.3316C26.1436 30.363 26.1436 30.3704 26.1436 30.3704C26.2121 30.6811 26.3563 30.9308 26.5764 31.0973C26.7429 31.2268 26.9704 31.3174 27.1295 31.3174Z" fill="rgb(230,230,230)" fill-rule="evenodd" />
				<path id="矢量 15394" d="M30.5449 31.3711C30.9482 31.3711 31.22 31.2638 31.4087 31.0289L31.4401 30.9919L32.1134 31.3544L32.0764 31.3933C31.7435 31.8168 31.2127 32.0369 30.5449 32.0369C29.9253 32.0369 29.4019 31.765 29.0449 31.2416C28.9321 31.0751 28.8563 30.8939 28.8026 30.6812L28.7952 30.659C28.7878 30.6275 28.7804 30.5905 28.7804 30.5591L28.7656 30.4759C28.7582 30.4463 28.7582 30.4074 28.7509 30.3778L28.7509 30.3482C28.7435 30.302 28.7342 30.2558 28.7342 30.2114L28.7268 30.0523L28.7268 29.8859C28.7268 29.453 28.7952 29.1275 28.9321 28.8482C29.2354 28.2564 29.8403 27.9012 30.5616 27.9012C31.1368 27.9012 31.5844 28.0973 31.9395 28.5061C32.1596 28.7558 32.2651 29.1886 32.2799 29.6121L32.2799 30.2114L29.5314 30.2114L29.5462 30.3242L29.5462 30.3482C29.5462 30.3556 29.5462 30.363 29.5536 30.3704L29.5536 30.3926C29.5536 30.4 29.5536 30.4074 29.561 30.4148L29.561 30.4389C29.5684 30.4685 29.5758 30.4999 29.5758 30.5295L29.5906 30.5831C29.598 30.6201 29.6146 30.6497 29.622 30.6886L29.6294 30.7034C29.659 30.7718 29.6904 30.8328 29.7348 30.9087C29.7959 31.0067 29.8643 31.0825 29.9327 31.151C30.0918 31.286 30.3193 31.3711 30.5449 31.3711ZM30.5616 28.5671C30.1602 28.5671 29.8403 28.7558 29.6664 29.1127C29.6072 29.2329 29.561 29.3772 29.5388 29.5529L31.553 29.5529L31.553 29.5363C31.5456 29.257 31.4401 29.0221 31.3181 28.8778L31.2959 28.8556C31.098 28.6355 30.8723 28.5671 30.5616 28.5671Z" fill="rgb(230,230,230)" fill-rule="evenodd" />
				<path id="矢量 15395" d="M35.5981 27.9234C35.9921 27.9012 36.3416 28.0141 36.5987 28.2638C36.804 28.4543 36.939 28.7114 37.0001 28.9833L36.3194 29.2108L36.3194 29.1738C36.3194 29.0369 36.2196 28.8852 36.1067 28.7946C35.9847 28.6966 35.833 28.6503 35.6443 28.6503C35.1967 28.6355 34.8564 28.8482 34.6141 29.0831C34.3422 29.3476 34.198 29.5973 34.1739 29.6584L34.1739 32.0443L33.447 32.0443L33.447 27.9012L34.1739 27.9012L34.1739 28.6651C34.6067 28.2564 35.1135 27.953 35.5981 27.9234Z" fill="rgb(230,230,230)" fill-rule="evenodd" />
			</g>
		</g>
		<g id="CHIP(边框)">
			<path id="边框" d="M19.8875 24.124C20.0498 24.3479 20.1675 24.6181 20.2405 24.9347L20.2561 25.0022L19.2538 25.6599L19.2418 25.4907C19.219 25.1721 19.1476 24.9252 19.0275 24.7499L19.0162 24.7408L18.9919 24.7043C18.8657 24.5309 18.718 24.4088 18.5489 24.338C18.4321 24.2891 18.3052 24.2647 18.1679 24.2647C17.9944 24.2647 17.8375 24.2989 17.6974 24.3673C17.4505 24.4878 17.2554 24.7146 17.1122 25.0475C17.002 25.3161 16.9469 25.6974 16.9469 26.1913L16.9469 26.5645L16.9574 26.6003L16.9574 26.6887L16.9658 26.7224L16.9658 26.802C16.9669 26.8046 16.9679 26.8072 16.9687 26.8099C16.9724 26.8214 16.9743 26.8335 16.9743 26.8463L16.9743 26.8821L16.9722 26.8797L16.9827 26.9007L16.9827 26.9534L16.9911 26.9702L16.9911 27.0179L17.0016 27.0721L17.0164 27.1485L17.0164 27.1642C17.0174 27.1668 17.0184 27.1695 17.0193 27.1721C17.0209 27.1773 17.0222 27.1827 17.0232 27.1882L17.0306 27.2125L17.0317 27.2184C17.0348 27.236 17.0406 27.2619 17.049 27.2963C17.0577 27.3317 17.0637 27.3591 17.0671 27.3783L17.0733 27.4048C17.1166 27.5188 17.1598 27.6162 17.2028 27.697C17.28 27.843 17.3589 27.9599 17.4396 28.0478C17.5396 28.1594 17.6521 28.2419 17.777 28.2953C17.8913 28.3441 18.016 28.3685 18.1511 28.3685C18.4414 28.3685 18.6848 28.3006 18.8812 28.1648L18.8812 28.1648C18.9821 28.095 19.0706 28.0073 19.1467 27.9016L19.1467 27.7311L20.1166 28.3721L20.0627 28.455C19.8932 28.7154 19.6895 28.9237 19.4515 29.0799C19.0949 29.3141 18.6614 29.4311 18.1511 29.4311C17.855 29.4311 17.5828 29.3766 17.3347 29.2674C16.9093 29.0803 16.5545 28.7328 16.2703 28.2248C16.1292 27.9791 16.0278 27.6987 15.9661 27.3835L15.9643 27.3741L15.9643 27.332L15.9388 27.2028L15.9285 27.151L15.9285 27.1152L15.9216 27.0809L15.9213 27.079C15.9182 27.0597 15.9152 27.0327 15.9122 26.9979C15.9097 26.9676 15.9072 26.9464 15.905 26.9344L15.9032 26.9252L15.9032 26.8797C15.892 26.786 15.8864 26.7145 15.8864 26.6652L15.8864 26.587L15.8779 26.5365L15.8779 26.1828C15.8779 25.5579 15.9605 25.0446 16.1256 24.643C16.2865 24.2552 16.5092 23.9398 16.7938 23.6968C16.8389 23.6582 16.8856 23.6215 16.9338 23.5866C17.0863 23.4763 17.2476 23.3891 17.4176 23.3253C17.6512 23.2375 17.9013 23.1936 18.1679 23.1936C18.463 23.1936 18.7346 23.2475 18.9829 23.3553C19.3302 23.5061 19.6317 23.7623 19.8875 24.124ZM19.3307 25.3713C19.2965 25.0727 19.2155 24.8426 19.101 24.6811L19.0904 24.6727L19.0736 24.6474C18.8229 24.302 18.5555 24.1651 18.1679 24.1651C17.6498 24.1651 17.2538 24.4663 17.02 25.0097C16.9 25.3025 16.8473 25.69 16.8473 26.1913L16.8473 26.5788L16.8579 26.6146L16.8579 26.701L16.8663 26.7347L16.8663 26.8294C16.8747 26.8379 16.8747 26.8379 16.8747 26.8463L16.8747 26.8821C16.8747 26.8989 16.8747 26.9074 16.8831 26.9242L16.8831 26.96C16.8831 26.9685 16.8831 26.9769 16.8916 26.9937L16.8916 27.0274C16.9 27.0717 16.9084 27.1138 16.9168 27.158L16.9168 27.1917C16.9253 27.2001 16.9253 27.2001 16.9253 27.2086L16.9337 27.2359C16.9442 27.2949 16.9611 27.3476 16.9695 27.3981L16.9779 27.4339C17.02 27.5455 17.0643 27.6487 17.1148 27.7435C17.1928 27.891 17.2707 28.011 17.3655 28.1142C17.5824 28.3564 17.8836 28.4681 18.1511 28.4681C18.6186 28.4681 18.956 28.3105 19.1958 28.0022C19.2132 27.98 19.23 27.9569 19.2463 27.9331L19.2463 27.9162L19.3373 27.9764L19.9792 28.4007C19.9734 28.4097 19.9674 28.4186 19.9615 28.4275C19.9489 28.4463 19.9361 28.4647 19.9231 28.4829C19.5177 29.0493 18.9093 29.3316 18.1511 29.3316C17.3655 29.3316 16.7715 28.9167 16.3566 28.1753C16.2176 27.9331 16.1228 27.6656 16.0638 27.3644L16.0638 27.3223C16.0554 27.2781 16.047 27.2359 16.0365 27.1833L16.028 27.1412L16.028 27.1054L16.0196 27.0632C16.0112 27.0106 16.0112 26.96 16.0028 26.9158L16.0028 26.8737C15.9943 26.8042 15.9859 26.7347 15.9859 26.6652L15.9859 26.5788L15.9775 26.5283L15.9775 26.1828C15.9775 25.5868 16.047 25.0961 16.2176 24.6811C16.5714 23.8281 17.2791 23.2932 18.1679 23.2932C18.8587 23.2932 19.3853 23.5859 19.8065 24.182C19.9624 24.3968 20.074 24.6559 20.1435 24.957L19.4359 25.4214L19.3411 25.4836C19.3383 25.4451 19.3348 25.4077 19.3307 25.3713Z" fill="url(#paint_linear_170)" fill-opacity="0" fill-rule="evenodd" />
			<path id="边框" d="M21.0613 23.1936L22.1239 23.1936L22.1239 25.601L24.4185 25.601L24.4185 23.1936L25.4791 23.1936L25.4791 29.4311L24.4185 29.4311L24.4185 26.6615L22.1239 26.6615L22.1239 29.4311L21.0613 29.4311L21.0613 23.1936ZM22.0244 25.7005L24.5181 25.7005L24.5181 23.2932L25.3795 23.2932L25.3795 29.3316L24.5181 29.3316L24.5181 26.562L22.0244 26.562L22.0244 29.3316L21.1608 29.3316L21.1608 23.2932L22.0244 23.2932L22.0244 25.7005Z" fill="url(#paint_linear_171)" fill-opacity="0" fill-rule="evenodd" />
			<path id="边框" d="M26.3638 24.2541L26.649 23.1936L30.5697 23.1936L30.5697 24.2541L29.0174 24.2541L29.0174 28.3607L30.458 28.3691L30.458 29.4311L26.4889 29.4311L26.4889 28.3601L27.9463 28.3601L27.9463 24.2541L26.3638 24.2541ZM28.9179 24.1546L28.9179 28.4596L30.3585 28.4681L30.3585 29.3316L26.5884 29.3316L26.5884 28.4596L28.0459 28.4596L28.0459 24.1546L26.4936 24.1546L26.7253 23.2932L30.4701 23.2932L30.4701 24.1546L28.9179 24.1546Z" fill="url(#paint_linear_172)" fill-opacity="0" fill-rule="evenodd" />
			<path id="边框" d="M31.4827 23.1936L33.6716 23.1936C33.9883 23.1936 34.2804 23.251 34.5478 23.3659C34.8337 23.4888 35.0914 23.6773 35.3209 23.9315C35.5393 24.1734 35.6964 24.436 35.7923 24.7194C35.8932 25.0176 35.9263 25.3387 35.8916 25.6828C35.8641 25.9639 35.7914 26.2223 35.6733 26.458C35.5562 26.6916 35.3946 26.9028 35.1885 27.0918C35.1733 27.106 35.1578 27.1199 35.1421 27.1334C34.9076 27.3353 34.6133 27.4675 34.2591 27.5302C34.2432 27.5358 34.225 27.5394 34.2045 27.541L34.1858 27.5503L34.1623 27.5503L34.1563 27.5482L34.1353 27.5587L34.0752 27.5587L34.05 27.5672L33.972 27.5672L33.9468 27.5756L33.8167 27.5756L33.7661 27.584L32.5453 27.584L32.5453 29.4311L31.4827 29.4311L31.4827 23.1936ZM35.1206 27.019C34.87 27.2528 34.5856 27.3728 34.2318 27.4339C34.215 27.4423 34.1981 27.4423 34.1791 27.4423L34.1623 27.4508C34.1454 27.4508 34.1286 27.4508 34.1117 27.4592L34.0591 27.4592L34.0338 27.4676L33.9559 27.4676L33.9306 27.476L33.8085 27.476L33.7579 27.4845L32.4458 27.4845L32.4458 29.3316L31.5822 29.3316L31.5822 23.2932L33.6716 23.2932C34.9142 23.2932 35.9231 24.3799 35.7925 25.6731C35.7419 26.1913 35.525 26.6483 35.1206 27.019ZM34.9311 25.5868C34.8952 25.9069 34.7752 26.166 34.533 26.3808C34.5246 26.3892 34.5161 26.4061 34.4993 26.4166L34.4909 26.4251C34.4045 26.4925 34.3182 26.5367 34.1876 26.5704L34.1623 26.5704C34.1117 26.5788 34.0507 26.5978 33.9812 26.5978L33.9475 26.6062L33.8695 26.6062L33.8443 26.6146L33.739 26.6146L33.6968 26.623L32.4458 26.623L32.4458 24.1546L33.6884 24.1546C34.4214 24.1651 35.009 24.8201 34.9311 25.5868ZM34.4369 26.3382L34.4249 26.3502C34.3541 26.4044 34.2707 26.4446 34.1746 26.4708L34.1541 26.4708L34.1459 26.4722C34.1348 26.474 34.1181 26.4773 34.0957 26.4821C34.0455 26.4928 34.0073 26.4982 33.9812 26.4982L33.9689 26.4982L33.9352 26.5066L33.8534 26.5066L33.8281 26.5151L33.7291 26.5151L33.687 26.5235L32.5453 26.5235L32.5453 24.2541L33.6884 24.2541C33.8445 24.2564 33.989 24.2859 34.1218 24.3427C34.2767 24.4089 34.4158 24.5123 34.539 24.6528C34.6509 24.7805 34.7316 24.9186 34.7809 25.0671C34.8335 25.2252 34.8505 25.3951 34.832 25.5767C34.8104 25.7701 34.7522 25.9398 34.6576 26.0858C34.6052 26.1666 34.5416 26.2401 34.4669 26.3063L34.4647 26.3083L34.4626 26.3104C34.4575 26.3155 34.4516 26.3225 34.445 26.3312L34.4465 26.3322L34.4369 26.3382Z" fill="url(#paint_linear_173)" fill-opacity="0" fill-rule="evenodd" />
		</g>
	</g>
</svg>
